<svg xmlns="http://www.w3.org/2000/svg" xmlns:xlink="http://www.w3.org/1999/xlink" width="1080" zoomAndPan="magnify" viewBox="0 0 810 809.999993" height="1080" preserveAspectRatio="xMidYMid meet" version="1.0"><defs><g/><clipPath id="7a1ac3c29f"><path d="M 267.351562 277.28125 L 534 277.28125 L 534 586.28125 L 267.351562 586.28125 Z M 267.351562 277.28125 " clip-rule="nonzero"/></clipPath></defs><g clip-path="url(#7a1ac3c29f)"><path fill="#153553" d="M 435.085938 440.03125 C 520.570312 438.390625 509.195312 506.984375 331.871094 586.28125 C 591.113281 536.601562 566.441406 397.199219 449.542969 401.152344 C 443.375 401.347656 436.917969 401.925781 430.265625 402.984375 C 446.652344 382.628906 455.613281 362.082031 458.3125 343.65625 C 462.746094 312.496094 448.769531 287.414062 420.917969 279.984375 C 413.304688 277.957031 404.632812 277.28125 395.089844 278.054688 C 369.839844 281.914062 341.507812 301.402344 319.246094 337.386719 C 309.03125 353.976562 300.066406 374.042969 293.320312 397.679688 C 282.046875 437.136719 276.070312 479.488281 267.589844 520.488281 C 316.546875 368.449219 384.585938 303.523438 411.667969 330.34375 C 420.824219 347.804688 406.078125 382.4375 365.695312 424.597656 C 352.398438 438.488281 336.398438 453.054688 317.414062 468.199219 C 339.964844 459.324219 360.589844 452.765625 379.285156 448.136719 C 391.71875 445.046875 403.1875 442.925781 413.691406 441.574219 C 421.402344 440.609375 428.53125 440.03125 435.183594 439.933594 " fill-opacity="1" fill-rule="evenodd"/></g><g fill="#000000" fill-opacity="1"><g transform="translate(247.340108, 667.253658)"><g><path d="M 2.109375 -25.125 L 2.109375 0 L 15.78125 0 C 18.453125 0 20.484375 -0.328125 21.765625 -0.9375 C 24.265625 -2.21875 25.5625 -4.609375 25.5625 -7.21875 C 25.5625 -10.296875 23.609375 -12.765625 20.59375 -13.8125 C 22.921875 -14.984375 23.96875 -16.609375 23.96875 -18.828125 C 23.96875 -20.53125 23.28125 -22.015625 21.90625 -23.28125 C 20.5625 -24.515625 18.5625 -25.125 15.921875 -25.125 Z M 11.03125 -20.921875 L 12.515625 -20.921875 C 14 -20.921875 14.875 -20.59375 15.515625 -19.625 C 15.84375 -19.109375 16 -18.609375 16 -17.921875 C 16 -16.640625 15.234375 -15.671875 14.390625 -15.265625 C 13.96875 -15.125 13.375 -14.984375 12.6875 -14.984375 L 11.03125 -14.984375 Z M 11.03125 -10.84375 L 12.765625 -10.84375 C 15.40625 -10.765625 16.71875 -9.609375 16.71875 -7.46875 C 16.71875 -5.265625 15.34375 -4.140625 12.84375 -4.140625 L 11.03125 -4.140625 Z M 11.03125 -10.84375 "/></g></g></g><g fill="#000000" fill-opacity="1"><g transform="translate(273.919304, 667.253658)"><g><path d="M 1.84375 -25.125 L 1.84375 -12.1875 C 1.84375 -3.515625 7.390625 0.296875 15.234375 0.296875 C 23.796875 0.296875 28.765625 -3.84375 28.765625 -12.25 L 28.765625 -25.125 L 19.84375 -25.125 L 19.84375 -13.59375 C 19.84375 -9.5 19.21875 -6.453125 15.296875 -6.453125 C 10.875 -6.453125 10.765625 -10.265625 10.765625 -13.265625 L 10.765625 -25.125 Z M 1.84375 -25.125 "/></g></g></g><g fill="#000000" fill-opacity="1"><g transform="translate(304.523452, 667.253658)"><g><path d="M 2.109375 -25.125 L 2.109375 0 L 11.03125 0 L 11.03125 -9.0625 L 13.015625 -9.0625 C 17.375 -9.0625 20.34375 -9.6875 22.625 -12.40625 C 23.75 -13.703125 24.296875 -15.265625 24.296875 -17.046875 C 24.296875 -21.71875 20.96875 -25.125 14.578125 -25.125 Z M 11.03125 -19.953125 L 12.40625 -19.953125 C 14.71875 -19.953125 15.703125 -19.046875 15.703125 -17.125 C 15.703125 -14.6875 14.078125 -14.21875 12.15625 -14.21875 L 11.03125 -14.21875 Z M 11.03125 -19.953125 "/></g></g></g><g fill="#000000" fill-opacity="1"><g transform="translate(329.833518, 667.253658)"><g><path d="M 10.921875 -25.125 L 0.296875 0 L 9.421875 0 L 10.921875 -3.875 L 20.234375 -3.875 L 21.65625 0 L 30.828125 0 L 20.234375 -25.125 Z M 15.59375 -16.859375 L 18.34375 -9.109375 L 12.765625 -9.109375 Z M 15.59375 -16.859375 "/></g></g></g><g fill="#000000" fill-opacity="1"><g transform="translate(360.945327, 667.253658)"><g/></g></g><g fill="#000000" fill-opacity="1"><g transform="translate(373.237755, 667.253658)"><g><path d="M 2.109375 -25.125 L 2.109375 0 L 13.125 0 C 15.921875 0 18.0625 -0.1875 19.4375 -0.578125 C 24.65625 -2 27.59375 -7.390625 27.59375 -12.328125 C 27.59375 -15.890625 26.359375 -18.9375 23.90625 -21.4375 C 21.4375 -23.9375 17.921875 -25.125 13.234375 -25.125 Z M 11.03125 -19.109375 L 12.1875 -19.109375 C 15.15625 -19.109375 16.75 -18.3125 17.84375 -16.28125 C 18.390625 -15.265625 18.671875 -14 18.671875 -12.46875 C 18.671875 -9.21875 17.265625 -7.328125 15.734375 -6.640625 C 14.984375 -6.3125 13.921875 -6.09375 12.734375 -6.09375 L 11.03125 -6.09375 Z M 11.03125 -19.109375 "/></g></g></g><g fill="#000000" fill-opacity="1"><g transform="translate(401.775047, 667.253658)"><g><path d="M 2.109375 -25.125 L 2.109375 0 L 20.5625 0 L 20.5625 -5.65625 L 11.03125 -5.65625 L 11.03125 -9.90625 L 19.84375 -9.90625 L 19.84375 -15.5625 L 11.03125 -15.5625 L 11.03125 -19.46875 L 20.375 -19.46875 L 20.375 -25.125 Z M 2.109375 -25.125 "/></g></g></g><g fill="#000000" fill-opacity="1"><g transform="translate(423.241463, 667.253658)"><g><path d="M 2.109375 -25.125 L 2.109375 0 L 11.03125 0 L 11.03125 -11.859375 L 21.984375 0 L 29.734375 0 L 29.734375 -25.125 L 20.8125 -25.125 L 20.8125 -13.203125 L 9.796875 -25.125 Z M 2.109375 -25.125 "/></g></g></g><g fill="#000000" fill-opacity="1"><g transform="translate(455.078496, 667.253658)"><g><path d="M 0.765625 -25.125 L 0.765625 -18.75 L 8.015625 -18.75 L 8.015625 0 L 16.9375 0 L 16.9375 -18.75 L 24.1875 -18.75 L 24.1875 -25.125 Z M 0.765625 -25.125 "/></g></g></g><g fill="#000000" fill-opacity="1"><g transform="translate(480.025956, 667.253658)"><g><path d="M 10.921875 -25.125 L 0.296875 0 L 9.421875 0 L 10.921875 -3.875 L 20.234375 -3.875 L 21.65625 0 L 30.828125 0 L 20.234375 -25.125 Z M 15.59375 -16.859375 L 18.34375 -9.109375 L 12.765625 -9.109375 Z M 15.59375 -16.859375 "/></g></g></g><g fill="#000000" fill-opacity="1"><g transform="translate(511.137754, 667.253658)"><g><path d="M 2.109375 -25.125 L 2.109375 0 L 20.34375 0 L 20.34375 -6.375 L 11.03125 -6.375 L 11.03125 -25.125 Z M 2.109375 -25.125 "/></g></g></g><g fill="#000000" fill-opacity="1"><g transform="translate(532.025771, 667.253658)"><g/></g></g></svg>