<svg xmlns="http://www.w3.org/2000/svg" xmlns:xlink="http://www.w3.org/1999/xlink" width="1080" zoomAndPan="magnify" viewBox="0 0 810 809.999993" height="1080" preserveAspectRatio="xMidYMid meet" version="1.0"><defs><g/><clipPath id="526b38fca6"><path d="M 256 446 L 576 446 L 576 572.992188 L 256 572.992188 Z M 256 446 " clip-rule="nonzero"/></clipPath></defs><path fill="#ff86dd" d="M 368.617188 393.738281 C 367.414062 390.695312 363.769531 390.121094 361.847656 392.851562 C 349.539062 410.339844 337.144531 427.761719 324.660156 445.121094 C 323.488281 446.746094 324.378906 449.253906 325.988281 450.195312 C 327.855469 451.292969 329.882812 450.496094 331.054688 448.867188 C 342.066406 433.554688 352.996094 418.1875 363.871094 402.78125 C 364.789062 405.929688 365.527344 409.128906 366.023438 412.375 C 366.820312 417.601562 367.417969 423.492188 365.859375 428.628906 C 364.835938 432.011719 361.671875 436.257812 357.617188 435.683594 C 356.089844 435.464844 354.652344 434.277344 354.074219 432.859375 C 353.886719 432.390625 353.804688 431.847656 353.910156 431.457031 C 353.9375 431.355469 354.125 431.011719 354.152344 430.859375 C 354.164062 430.777344 354.1875 430.730469 354.210938 430.679688 C 358.75 431.683594 360.652344 424.652344 356.0625 423.503906 C 349.59375 421.886719 345.25 428.84375 346.867188 434.578125 C 348.359375 439.851562 353.804688 443.589844 359.238281 443.054688 C 364.898438 442.496094 369.730469 438.449219 371.972656 433.308594 C 374.511719 427.492188 374.410156 421.023438 373.746094 414.820312 C 372.96875 407.578125 371.292969 400.515625 368.617188 393.738281 Z M 354.207031 430.679688 C 354.425781 430.148438 354.9375 430.796875 354.207031 430.679688 Z M 502.917969 414.054688 C 500.128906 418.394531 496.871094 424.007812 491.640625 425.664062 C 489.28125 426.410156 486.699219 426.433594 484.390625 425.46875 C 484.171875 425.375 483.96875 425.253906 483.761719 425.140625 C 484.328125 424.476562 484.886719 423.8125 485.433594 423.15625 C 488.769531 419.140625 492.421875 414.691406 494.078125 409.648438 C 496.460938 402.410156 489.496094 396.875 482.746094 397.867188 C 471.960938 399.449219 470.027344 413.507812 472.859375 422.066406 C 473.160156 422.980469 473.535156 423.84375 473.945312 424.683594 C 473.390625 425.210938 472.832031 425.742188 472.253906 426.242188 C 472.132812 426.34375 471.988281 426.457031 471.882812 426.539062 C 471.558594 426.765625 471.230469 426.988281 470.894531 427.199219 C 469.753906 427.917969 468.445312 428.691406 467.042969 428.554688 C 465.078125 428.363281 463.492188 426.703125 462.425781 425.15625 C 461.789062 424.234375 461.273438 423.230469 460.816406 422.210938 C 460.757812 422.070312 460.660156 421.832031 460.609375 421.699219 C 460.460938 421.304688 460.320312 420.910156 460.183594 420.511719 C 460 419.988281 459.847656 419.457031 459.6875 418.929688 C 463.503906 410.476562 466.636719 401.390625 467.480469 392.179688 C 467.8125 388.5625 467.722656 384.34375 465.609375 381.226562 C 463.351562 377.890625 458.800781 376.476562 455.152344 378.402344 C 451.917969 380.109375 450.402344 383.847656 449.714844 387.257812 C 448.789062 391.839844 448.773438 396.585938 449.089844 401.230469 C 449.4375 406.265625 450.164062 411.304688 451.285156 416.222656 C 451.445312 416.9375 451.621094 417.660156 451.804688 418.386719 C 450.859375 420.351562 449.839844 422.316406 448.773438 424.15625 C 448.355469 424.871094 447.929688 425.578125 447.484375 426.273438 C 447.273438 426.59375 447.066406 426.914062 446.851562 427.230469 C 446.753906 427.371094 446.542969 427.644531 446.4375 427.78125 C 446.019531 428.261719 445.585938 428.71875 445.109375 429.148438 C 444.976562 429.269531 444.953125 429.304688 444.957031 429.3125 C 444.921875 429.328125 444.839844 429.371094 444.65625 429.480469 C 444.453125 429.597656 443.5625 430.097656 443.730469 430.023438 C 443.207031 430.25 442.746094 430.351562 442.152344 430.285156 C 442.03125 430.253906 441.765625 430.195312 441.609375 430.15625 C 441.535156 430.121094 441.246094 430.007812 441.230469 430 C 440.957031 429.863281 440.660156 429.683594 440.417969 429.5 C 438.609375 428.125 437.546875 426.265625 437.042969 424.316406 C 436.523438 422.296875 436.472656 420.242188 436.5625 418.015625 C 436.640625 416.019531 436.800781 414.691406 437.050781 413.210938 C 437.203125 412.476562 437.347656 411.742188 437.480469 411.007812 C 437.507812 410.898438 437.523438 410.789062 437.546875 410.679688 C 437.546875 410.679688 437.546875 410.679688 437.542969 410.679688 C 437.890625 408.710938 437.011719 406.683594 434.957031 406.121094 C 433.070312 405.601562 430.875 406.757812 430.402344 408.710938 C 430.175781 409.648438 429.972656 410.628906 429.792969 411.632812 C 429.648438 412.269531 429.496094 412.902344 429.335938 413.535156 C 428.9375 415.109375 428.492188 416.675781 427.992188 418.226562 C 427.726562 419.042969 427.445312 419.855469 427.144531 420.660156 C 426.992188 421.070312 426.835938 421.476562 426.675781 421.878906 C 426.675781 421.878906 426.625 421.992188 426.585938 422.089844 C 426.527344 422.226562 426.34375 422.644531 426.316406 422.695312 C 425.621094 424.207031 424.839844 425.683594 423.859375 427.03125 C 423.75 427.164062 423.640625 427.300781 423.519531 427.425781 C 423.484375 427.464844 423.445312 427.5 423.410156 427.539062 C 422.386719 422.101562 422.515625 415.90625 419.636719 411.003906 C 417.941406 408.128906 415.007812 406.441406 411.648438 407.117188 C 408.617188 407.730469 406.203125 409.886719 404.515625 412.410156 C 404.140625 411.554688 403.722656 410.730469 403.1875 409.980469 C 401.730469 407.929688 399.460938 406.1875 396.828125 406.261719 C 394.597656 406.328125 392.730469 407.753906 391.382812 409.425781 C 390.140625 410.964844 389.09375 412.660156 388.175781 414.433594 C 388.164062 412.320312 388.152344 410.207031 388.140625 408.089844 C 388.113281 403.316406 380.707031 403.308594 380.730469 408.089844 C 380.78125 416.980469 380.832031 425.867188 380.882812 434.757812 C 380.90625 438.941406 387.011719 439.792969 388.160156 435.742188 C 388.84375 433.339844 389.613281 430.957031 390.421875 428.59375 C 391.976562 424.066406 393.179688 420.652344 395.453125 416.609375 C 395.890625 415.828125 396.367188 415.074219 396.882812 414.34375 C 396.917969 414.292969 396.9375 414.265625 396.949219 414.238281 C 396.980469 414.210938 397.023438 414.171875 397.074219 414.125 C 397.082031 414.140625 397.082031 414.144531 397.09375 414.167969 C 397.179688 414.328125 397.285156 414.484375 397.375 414.644531 C 397.46875 414.8125 397.546875 414.984375 397.636719 415.152344 C 397.644531 415.171875 397.648438 415.171875 397.65625 415.191406 C 397.660156 415.207031 397.660156 415.210938 397.667969 415.230469 C 398.011719 416.210938 398.285156 417.203125 398.488281 418.222656 C 398.765625 419.648438 398.722656 419.398438 398.847656 420.945312 C 398.941406 422.089844 398.992188 423.238281 399.007812 424.386719 C 399.042969 426.667969 398.976562 428.964844 398.796875 431.246094 C 398.691406 432.175781 398.597656 433.101562 398.519531 434.015625 C 398.519531 434.015625 398.519531 434.019531 398.519531 434.019531 C 398.351562 436.015625 400.34375 437.726562 402.222656 437.726562 C 404.429688 437.726562 405.675781 436.015625 405.925781 434.019531 C 405.976562 433.46875 406.035156 432.921875 406.105469 432.371094 C 406.121094 432.210938 406.144531 432.054688 406.164062 431.898438 C 406.175781 431.804688 406.214844 431.53125 406.246094 431.308594 C 406.371094 430.496094 406.5 429.6875 406.644531 428.882812 C 406.964844 427.113281 407.34375 425.351562 407.816406 423.617188 C 408.269531 421.9375 408.988281 419.734375 409.5 418.675781 C 409.875 417.902344 410.265625 417.144531 410.734375 416.421875 C 410.8125 416.308594 411.117188 415.90625 411.1875 415.804688 C 411.425781 415.535156 411.671875 415.273438 411.9375 415.023438 C 412.003906 414.960938 412.035156 414.925781 412.050781 414.902344 C 412.101562 414.882812 412.167969 414.851562 412.269531 414.800781 C 412.496094 414.691406 412.710938 414.566406 412.933594 414.449219 C 412.960938 414.4375 412.984375 414.429688 413.015625 414.417969 C 413.019531 414.425781 413.023438 414.429688 413.03125 414.433594 C 413.136719 414.609375 413.246094 414.78125 413.347656 414.953125 C 413.375 415 413.464844 415.179688 413.542969 415.332031 C 413.609375 415.507812 413.730469 415.796875 413.757812 415.875 C 413.878906 416.214844 413.984375 416.558594 414.085938 416.90625 C 415.535156 421.882812 415.140625 427.410156 416.988281 432.25 C 418.335938 435.785156 421.457031 436.929688 424.933594 435.445312 C 427.621094 434.300781 429.597656 431.996094 431.101562 429.511719 C 432.386719 432.269531 434.371094 434.644531 437.292969 436.300781 C 442.144531 439.050781 447.738281 437.359375 451.359375 433.414062 C 452.890625 431.746094 454.179688 429.800781 455.324219 427.773438 C 455.640625 428.320312 455.976562 428.851562 456.339844 429.359375 C 458.3125 432.144531 460.945312 434.582031 464.289062 435.554688 C 468.207031 436.699219 472.171875 435.339844 475.421875 433.097656 C 476.539062 432.324219 477.601562 431.453125 478.625 430.53125 C 479.964844 431.550781 481.480469 432.375 483.226562 432.90625 C 490.550781 435.136719 497.886719 432.066406 502.878906 426.617188 C 505.335938 423.933594 507.34375 420.867188 509.308594 417.8125 C 511.902344 413.773438 505.492188 410.050781 502.917969 414.054688 Z M 396.550781 413.605469 C 396.554688 413.609375 396.5625 413.613281 396.566406 413.617188 C 396.523438 413.609375 396.496094 413.605469 396.445312 413.597656 C 396.5 413.605469 396.527344 413.605469 396.550781 413.605469 Z M 413.296875 414.34375 C 413.300781 414.347656 413.292969 414.351562 413.292969 414.355469 C 413.277344 414.351562 413.257812 414.347656 413.234375 414.34375 C 413.273438 414.335938 413.296875 414.332031 413.296875 414.34375 Z M 412.832031 414.226562 C 412.726562 414.164062 412.710938 414.148438 412.832031 414.226562 Z M 413.109375 414.382812 C 413.125 414.375 413.136719 414.371094 413.148438 414.367188 C 413.164062 414.371094 413.167969 414.375 413.1875 414.378906 C 413.175781 414.375 413.167969 414.367188 413.15625 414.367188 C 413.183594 414.355469 413.207031 414.351562 413.230469 414.34375 C 413.25 414.351562 413.269531 414.351562 413.292969 414.355469 C 413.289062 414.402344 413.199219 414.402344 413.109375 414.382812 Z M 459.355469 385.152344 C 459.339844 385.132812 459.328125 385.117188 459.3125 385.101562 C 459.589844 385.109375 459.519531 385.136719 459.355469 385.152344 Z M 459.105469 384.949219 C 459.105469 384.949219 459.101562 384.949219 459.101562 384.949219 C 459.101562 384.949219 459.105469 384.949219 459.105469 384.949219 Z M 458.511719 384.988281 C 458.503906 384.992188 458.492188 385 458.484375 385.003906 C 458.332031 385.039062 458.382812 385.015625 458.511719 384.988281 Z M 456.460938 392.308594 C 456.492188 391.890625 456.535156 391.476562 456.570312 391.058594 C 456.589844 390.867188 456.597656 390.769531 456.601562 390.714844 C 456.605469 390.691406 456.613281 390.640625 456.636719 390.511719 C 456.765625 389.675781 456.921875 388.84375 457.136719 388.027344 C 457.277344 387.476562 457.460938 386.9375 457.65625 386.40625 C 457.675781 386.464844 458.15625 385.5 458.316406 385.210938 C 458.332031 385.195312 458.34375 385.1875 458.363281 385.171875 C 458.414062 385.132812 458.503906 385.058594 458.59375 384.988281 C 458.605469 384.980469 458.617188 384.972656 458.632812 384.96875 C 458.625 384.96875 458.621094 384.972656 458.613281 384.972656 C 458.613281 384.972656 458.617188 384.972656 458.617188 384.96875 C 458.621094 384.96875 458.628906 384.96875 458.632812 384.96875 C 458.742188 384.910156 458.855469 384.84375 458.898438 384.808594 C 458.835938 384.855469 458.804688 384.875 458.757812 384.90625 C 458.738281 384.90625 458.734375 384.910156 458.742188 384.917969 C 458.726562 384.929688 458.710938 384.941406 458.695312 384.949219 C 458.675781 384.957031 458.652344 384.964844 458.632812 384.96875 C 458.648438 384.964844 458.664062 384.964844 458.679688 384.960938 C 458.671875 384.96875 458.652344 384.984375 458.644531 384.988281 C 458.664062 384.980469 458.707031 384.964844 458.730469 384.957031 C 458.777344 384.953125 458.820312 384.949219 458.867188 384.953125 C 458.875 384.953125 458.875 384.953125 458.890625 384.957031 C 458.957031 384.972656 458.992188 384.976562 459.039062 384.984375 C 459.042969 384.980469 459.042969 384.980469 459.042969 384.980469 C 459.046875 384.980469 459.050781 384.984375 459.054688 384.984375 C 459.105469 384.992188 459.144531 385 459.171875 385.003906 C 459.199219 385.027344 459.234375 385.0625 459.269531 385.101562 C 459.269531 385.101562 459.273438 385.101562 459.273438 385.105469 C 459.289062 385.121094 459.304688 385.140625 459.324219 385.15625 C 459.320312 385.15625 459.3125 385.15625 459.308594 385.160156 C 459.390625 385.28125 459.515625 385.457031 459.5625 385.523438 C 459.59375 385.566406 459.613281 385.59375 459.636719 385.625 C 459.734375 385.929688 459.839844 386.226562 459.917969 386.535156 C 459.996094 386.835938 460.050781 387.144531 460.113281 387.449219 C 460.121094 387.492188 460.125 387.507812 460.128906 387.53125 C 460.132812 387.585938 460.132812 387.644531 460.136719 387.742188 C 460.175781 388.53125 460.21875 389.3125 460.199219 390.101562 C 460.179688 390.917969 460.117188 391.730469 460.039062 392.539062 C 460.015625 392.785156 459.984375 393.027344 459.957031 393.273438 C 459.976562 393.105469 460.050781 392.636719 459.9375 393.410156 C 459.859375 393.925781 459.777344 394.441406 459.683594 394.953125 C 459.328125 396.953125 458.863281 398.933594 458.332031 400.894531 C 457.90625 402.460938 457.425781 404.015625 456.921875 405.5625 C 456.855469 405.027344 456.785156 404.484375 456.730469 403.960938 C 456.347656 400.097656 456.167969 396.183594 456.460938 392.308594 Z M 479.105469 413.546875 C 479.164062 411.964844 479.375 410.5625 480.078125 408.652344 C 480.40625 407.757812 481.097656 406.671875 482.050781 405.84375 C 482.070312 405.835938 482.074219 405.832031 482.097656 405.820312 C 482.230469 405.742188 482.355469 405.648438 482.492188 405.578125 C 482.597656 405.523438 482.703125 405.472656 482.8125 405.417969 C 482.832031 405.410156 482.847656 405.40625 482.882812 405.398438 C 483.867188 405.128906 484.808594 404.953125 485.765625 405.277344 C 487.136719 405.746094 487.296875 406.488281 486.941406 407.667969 C 486.898438 407.820312 486.835938 407.964844 486.78125 408.113281 C 486.78125 408.117188 486.78125 408.117188 486.78125 408.121094 C 486.773438 408.136719 486.769531 408.140625 486.757812 408.164062 C 486.578125 408.554688 486.386719 408.941406 486.183594 409.320312 C 485.695312 410.238281 485.15625 411.128906 484.589844 412 C 483.429688 413.785156 482.164062 415.5 480.824219 417.148438 C 480.417969 417.644531 480.003906 418.136719 479.589844 418.625 C 479.585938 418.617188 479.585938 418.609375 479.582031 418.601562 C 479.160156 416.878906 479.03125 415.644531 479.105469 413.546875 Z M 458.632812 384.964844 Z M 459.039062 384.980469 C 459.046875 384.980469 459.050781 384.980469 459.058594 384.984375 C 459.128906 385.027344 459.214844 385.101562 459.273438 385.101562 C 459.273438 385.101562 459.273438 385.101562 459.277344 385.101562 C 459.285156 385.117188 459.296875 385.136719 459.3125 385.15625 C 459.058594 385.175781 458.71875 385.152344 459.039062 384.980469 Z M 458.644531 384.984375 C 458.503906 385.078125 458.492188 385.054688 458.644531 384.984375 Z M 430.6875 392.867188 C 430.6875 390.320312 432.75 388.25 435.296875 388.25 C 437.839844 388.25 439.90625 390.320312 439.90625 392.867188 C 439.90625 395.417969 437.839844 397.484375 435.296875 397.484375 C 432.75 397.484375 430.6875 395.417969 430.6875 392.867188 Z M 430.6875 392.867188 " fill-opacity="1" fill-rule="nonzero"/><path fill="#0088fc" d="M 533.789062 437.386719 C 533.730469 437.550781 533.664062 437.707031 533.605469 437.871094 C 532.289062 441.675781 530.273438 445.367188 528.277344 448.84375 C 524.375 455.65625 519.6875 462.046875 514.476562 467.914062 C 498.414062 486.007812 476.851562 498.507812 453.542969 504.628906 C 423.609375 512.492188 390.0625 511.765625 361.277344 499.855469 C 340.609375 491.304688 322.546875 477.359375 308.804688 459.699219 C 302.660156 451.804688 296.878906 443.195312 293.105469 433.871094 C 292.351562 432.003906 293.9375 429.789062 295.695312 429.308594 C 297.71875 428.75 299.382812 429.96875 300.167969 431.730469 C 300.035156 431.417969 299.867188 431.023438 300.09375 431.519531 C 301.667969 435.003906 303.445312 438.378906 305.390625 441.667969 C 307.085938 444.53125 308.902344 447.324219 310.8125 450.050781 C 311.414062 450.902344 312.023438 451.75 312.640625 452.585938 C 312.910156 452.949219 313.179688 453.308594 313.449219 453.667969 C 313.613281 453.890625 313.78125 454.105469 313.945312 454.324219 C 313.972656 454.359375 313.980469 454.371094 314 454.394531 C 314.019531 454.417969 314.023438 454.425781 314.046875 454.453125 C 315.359375 456.136719 316.707031 457.792969 318.09375 459.414062 C 321.234375 463.078125 324.570312 466.570312 328.097656 469.867188 C 332.121094 473.632812 335.964844 476.78125 340.09375 479.734375 C 350.007812 486.816406 360.738281 492.269531 372.117188 495.972656 C 386.328125 500.597656 401.222656 502.496094 416.140625 502.210938 C 431.480469 501.917969 446.777344 499.554688 461.300781 494.519531 C 481.871094 487.390625 499.722656 474.964844 513.324219 457.800781 C 513.523438 457.546875 513.722656 457.292969 513.921875 457.042969 C 513.933594 457.023438 513.9375 457.019531 513.953125 457.003906 C 513.972656 456.976562 513.976562 456.96875 514.003906 456.933594 C 514.273438 456.578125 514.539062 456.226562 514.804688 455.867188 C 515.367188 455.113281 515.921875 454.347656 516.46875 453.574219 C 517.476562 452.148438 518.449219 450.699219 519.386719 449.226562 C 520.953125 446.761719 522.421875 444.234375 523.773438 441.644531 C 524.648438 439.957031 525.449219 438.238281 526.222656 436.503906 C 526.230469 436.488281 526.230469 436.488281 526.238281 436.472656 C 526.308594 436.285156 526.382812 436.105469 526.457031 435.921875 C 526.523438 435.753906 526.585938 435.582031 526.648438 435.414062 C 527.320312 433.519531 529.152344 432.257812 531.203125 432.824219 C 533.03125 433.324219 534.460938 435.5 533.789062 437.386719 Z M 533.789062 437.386719 " fill-opacity="1" fill-rule="nonzero"/><g clip-path="url(#526b38fca6)"><path fill="#3100c3" d="M 544.722656 500.125 C 542.75 500.667969 541.648438 502.738281 542.136719 504.6875 C 542.214844 505.011719 542.292969 505.332031 542.359375 505.660156 C 542.378906 505.757812 542.425781 506.203125 542.441406 506.285156 C 542.476562 506.742188 542.5 507.199219 542.488281 507.660156 C 542.484375 507.769531 542.476562 507.882812 542.464844 507.992188 C 542.46875 507.988281 542.464844 508.066406 542.453125 508.167969 C 542.445312 508.273438 542.441406 508.375 542.433594 508.476562 C 542.441406 508.371094 542.445312 508.296875 542.449219 508.226562 C 542.4375 508.335938 542.421875 508.453125 542.40625 508.523438 C 542.34375 508.769531 542.292969 509.015625 542.222656 509.257812 C 542.183594 509.394531 542.039062 509.714844 541.980469 509.855469 C 541.816406 510.140625 541.648438 510.425781 541.503906 510.714844 C 541.5 510.722656 541.5 510.722656 541.5 510.730469 C 541.359375 510.875 541.230469 511.035156 541.085938 511.175781 C 540.949219 511.3125 540.800781 511.433594 540.660156 511.566406 C 540.652344 511.570312 540.652344 511.570312 540.644531 511.574219 C 540.367188 511.710938 539.242188 512.226562 539.652344 512.121094 C 539.332031 512.234375 539.011719 512.351562 538.675781 512.429688 C 538.558594 512.457031 538.378906 512.507812 538.214844 512.535156 C 538.167969 512.53125 538.117188 512.527344 538.066406 512.53125 C 537.671875 512.535156 537.277344 512.554688 536.878906 512.535156 C 536.773438 512.527344 536.671875 512.515625 536.566406 512.507812 C 536.886719 512.527344 536.125 512.433594 535.921875 512.382812 C 535.417969 512.265625 534.945312 512.082031 534.449219 511.929688 C 534.4375 511.925781 534.4375 511.925781 534.429688 511.925781 C 534.402344 511.910156 534.394531 511.902344 534.359375 511.882812 C 534.121094 511.753906 533.875 511.640625 533.636719 511.507812 C 533.214844 511.269531 532.816406 510.996094 532.425781 510.722656 C 532.300781 510.625 532.097656 510.472656 532.042969 510.429688 C 531.734375 510.160156 531.4375 509.878906 531.152344 509.589844 C 530.929688 509.363281 530.71875 509.132812 530.507812 508.894531 C 530.476562 508.859375 530.261719 508.589844 530.15625 508.460938 C 529.785156 507.957031 529.433594 507.433594 529.117188 506.894531 C 528.761719 506.292969 528.441406 505.667969 528.140625 505.035156 C 528 504.746094 527.871094 504.453125 527.738281 504.164062 C 527.722656 504.125 527.714844 504.109375 527.703125 504.078125 C 527.632812 503.902344 527.558594 503.726562 527.492188 503.550781 C 526.535156 501.097656 525.816406 498.550781 525.320312 495.964844 C 525.195312 495.324219 525.09375 494.6875 524.992188 494.046875 C 524.980469 493.976562 524.976562 493.953125 524.96875 493.90625 C 524.964844 493.859375 524.960938 493.835938 524.953125 493.765625 C 524.921875 493.453125 524.882812 493.136719 524.851562 492.824219 C 524.730469 491.523438 524.664062 490.214844 524.679688 488.902344 C 524.6875 488.339844 524.710938 487.773438 524.75 487.210938 C 524.765625 486.96875 524.917969 485.855469 524.878906 485.996094 C 525.027344 485.167969 525.191406 484.347656 525.457031 483.546875 C 525.476562 483.496094 525.496094 483.414062 525.519531 483.328125 C 525.53125 483.300781 525.539062 483.289062 525.554688 483.25 C 525.609375 483.128906 525.671875 483.011719 525.734375 482.894531 C 525.824219 482.722656 525.929688 482.5625 526.023438 482.390625 C 526.035156 482.371094 526.035156 482.363281 526.046875 482.34375 C 526.148438 482.25 526.253906 482.128906 526.332031 482.035156 C 526.339844 482.03125 526.347656 482.023438 526.355469 482.019531 C 526.351562 482.019531 526.347656 482.019531 526.339844 482.023438 C 526.351562 482.011719 526.351562 482.007812 526.359375 481.996094 C 526.371094 481.996094 526.378906 482 526.390625 482 C 526.398438 481.992188 526.410156 481.988281 526.421875 481.980469 C 526.417969 481.976562 526.417969 481.976562 526.417969 481.976562 C 526.421875 481.972656 526.425781 481.972656 526.429688 481.972656 C 526.453125 481.957031 526.472656 481.949219 526.496094 481.933594 C 526.511719 481.9375 526.539062 481.945312 526.558594 481.949219 C 526.585938 481.945312 526.59375 481.941406 526.609375 481.9375 C 526.601562 481.945312 526.59375 481.949219 526.582031 481.957031 C 526.621094 481.964844 526.65625 481.972656 526.710938 481.988281 C 526.738281 481.996094 526.761719 482.003906 526.789062 482.011719 C 526.863281 482.011719 526.921875 482.007812 526.9375 481.996094 C 526.914062 482.015625 526.886719 482.023438 526.859375 482.035156 C 527.066406 482.097656 527.273438 482.164062 527.480469 482.222656 C 527.484375 482.226562 527.484375 482.226562 527.492188 482.230469 C 527.777344 482.417969 528.105469 482.554688 528.398438 482.734375 C 528.640625 482.878906 528.878906 483.035156 529.109375 483.199219 C 529.234375 483.285156 529.355469 483.371094 529.476562 483.464844 C 529.515625 483.496094 529.550781 483.519531 529.605469 483.566406 C 531.160156 484.828125 533.328125 485.089844 534.84375 483.566406 C 536.148438 482.257812 536.40625 479.585938 534.847656 478.316406 C 532.46875 476.386719 529.757812 474.585938 526.578125 474.550781 C 523.761719 474.519531 521.386719 476.0625 519.832031 478.328125 C 516.777344 482.785156 516.964844 489.273438 517.625 494.390625 C 518.511719 501.25 520.539062 508.507812 525.058594 513.890625 C 528.878906 518.4375 535.320312 521.199219 541.191406 519.433594 C 544.195312 518.53125 546.910156 516.480469 548.367188 513.667969 C 550.140625 510.246094 550.195312 506.394531 549.277344 502.710938 C 548.792969 500.773438 546.617188 499.601562 544.722656 500.125 Z M 526.238281 482.011719 C 526.234375 482.023438 526.222656 482.03125 526.214844 482.039062 C 526.164062 482.039062 526.167969 482.03125 526.238281 482.011719 Z M 526.664062 481.855469 C 526.675781 481.875 526.667969 481.890625 526.65625 481.910156 C 526.628906 481.90625 526.597656 481.90625 526.550781 481.90625 C 526.613281 481.875 526.660156 481.847656 526.664062 481.855469 Z M 525.535156 483.277344 C 525.574219 483.140625 525.621094 483 525.683594 482.9375 C 525.621094 483.082031 525.570312 483.195312 525.535156 483.277344 Z M 526.453125 482 C 526.453125 482 526.453125 482.003906 526.457031 482.003906 C 526.453125 482.003906 526.449219 482.003906 526.449219 482.003906 C 526.449219 482.003906 526.449219 482 526.453125 482 Z M 526.792969 482.015625 C 526.816406 482.023438 526.839844 482.03125 526.867188 482.035156 C 526.730469 482.09375 526.554688 482.054688 526.457031 482.003906 C 526.570312 482.011719 526.691406 482.015625 526.792969 482.015625 Z M 526.453125 482 C 526.4375 481.992188 526.433594 481.988281 526.421875 481.980469 C 526.425781 481.980469 526.429688 481.976562 526.433594 481.972656 C 526.472656 481.96875 526.496094 481.960938 526.546875 481.957031 C 526.554688 481.953125 526.550781 481.953125 526.5625 481.953125 C 526.566406 481.953125 526.578125 481.957031 526.582031 481.957031 C 526.546875 481.972656 526.5 481.988281 526.453125 482 Z M 542.457031 508.167969 C 542.453125 508.1875 542.453125 508.207031 542.449219 508.226562 C 542.460938 508.0625 542.464844 507.996094 542.464844 507.992188 C 542.464844 508.050781 542.460938 508.109375 542.457031 508.167969 Z M 526.394531 482 C 526.410156 482 526.429688 482 526.449219 482.003906 C 526.417969 482.011719 526.386719 482.015625 526.359375 482.019531 C 526.367188 482.011719 526.378906 482.003906 526.394531 482 Z M 282.234375 463.246094 C 282.777344 463.078125 283.328125 462.929688 283.882812 462.800781 C 284.121094 462.746094 284.363281 462.691406 284.605469 462.644531 C 284.710938 462.621094 285.390625 462.503906 285.429688 462.492188 C 285.835938 462.449219 287.175781 462.386719 287.925781 462.410156 C 288.101562 462.414062 288.285156 462.4375 288.460938 462.453125 C 288.480469 462.457031 288.5 462.460938 288.515625 462.460938 C 288.996094 462.589844 289.480469 462.71875 289.960938 462.851562 C 290.203125 462.984375 290.441406 463.117188 290.683594 463.253906 C 290.71875 463.273438 290.742188 463.289062 290.769531 463.304688 C 291.027344 463.519531 291.289062 463.757812 291.507812 464 C 292.441406 465.046875 292.589844 465.78125 292.570312 466.785156 C 292.566406 466.832031 292.554688 466.949219 292.539062 467.042969 C 292.480469 467.34375 292.40625 467.648438 292.308594 467.941406 C 292.257812 468.101562 292.199219 468.257812 292.136719 468.417969 C 292.109375 468.476562 292.070312 468.542969 292.023438 468.625 C 291.824219 468.949219 291.628906 469.285156 291.433594 469.613281 C 291.339844 469.773438 291.304688 469.839844 291.292969 469.867188 C 290.347656 471.359375 290.285156 473.257812 291.640625 474.617188 C 292.953125 475.929688 295.601562 476.171875 296.878906 474.617188 C 300.9375 469.6875 301.050781 462.582031 296.109375 458.128906 C 291.675781 454.136719 285.226562 454.507812 279.894531 456.207031 C 268.121094 459.953125 255.125 470.125 256.515625 483.890625 C 256.988281 488.585938 259.105469 492.691406 262.992188 495.4375 C 266.367188 497.824219 270.984375 498.757812 274.898438 497.222656 C 276.757812 496.492188 278.054688 494.734375 277.484375 492.65625 C 276.996094 490.878906 274.800781 489.328125 272.929688 490.066406 C 270.804688 490.898438 269.125 490.671875 267.09375 489.285156 C 265.367188 488.105469 264.175781 486.007812 263.894531 483.660156 C 263.570312 480.945312 264.21875 478.019531 265.441406 475.597656 C 265.820312 474.839844 266.277344 474.132812 266.773438 473.453125 C 266.792969 473.433594 266.800781 473.421875 266.828125 473.394531 C 267.007812 473.175781 267.191406 472.957031 267.378906 472.742188 C 267.734375 472.34375 268.101562 471.957031 268.476562 471.578125 C 270.175781 469.871094 271.480469 468.851562 273.324219 467.621094 C 274.347656 466.9375 275.402344 466.300781 276.484375 465.707031 C 276.960938 465.445312 277.449219 465.195312 277.9375 464.949219 C 278.183594 464.828125 278.429688 464.710938 278.675781 464.59375 C 278.652344 464.605469 279.28125 464.320312 279.359375 464.277344 C 280.296875 463.882812 281.261719 463.539062 282.234375 463.246094 Z M 290.007812 462.863281 C 290.503906 463.003906 290.199219 462.933594 290.007812 462.863281 Z M 288.449219 462.449219 C 287.957031 462.402344 288.257812 462.414062 288.449219 462.449219 Z M 310.703125 489.101562 C 310.660156 489.082031 310.601562 489.050781 310.53125 489.011719 C 310.535156 489.011719 310.535156 489.015625 310.539062 489.015625 C 310.59375 489.042969 310.648438 489.074219 310.703125 489.101562 Z M 320.75 496.316406 C 321.050781 491.542969 319.542969 486.550781 315.722656 483.566406 C 315.503906 483.351562 315.257812 483.148438 314.957031 482.972656 C 308.175781 478.949219 300.210938 482.40625 294.582031 486.796875 C 287.167969 492.582031 278.921875 502.273438 281.917969 512.433594 C 283.035156 516.222656 285.5625 519.316406 288.777344 521.539062 C 291.777344 523.617188 295.195312 524.058594 298.636719 522.824219 C 305.820312 520.253906 311.761719 514.015625 316.277344 508.058594 C 318.910156 504.585938 320.472656 500.703125 320.75 496.316406 Z M 309.117188 488.640625 C 308.632812 488.617188 308.859375 488.617188 309.117188 488.640625 Z M 294.246094 516.109375 C 294.183594 516.101562 294.164062 516.09375 294.246094 516.109375 Z M 313.355469 496.09375 C 313.222656 498.667969 312.257812 500.992188 310.621094 503.304688 C 310.441406 503.558594 310.257812 503.804688 310.074219 504.050781 C 310.027344 504.113281 310.011719 504.140625 309.980469 504.179688 C 309.945312 504.222656 309.910156 504.269531 309.839844 504.351562 C 309.46875 504.8125 309.089844 505.273438 308.703125 505.726562 C 307.601562 507.011719 306.445312 508.25 305.234375 509.433594 C 302.980469 511.636719 301.167969 513.203125 298.566406 514.710938 C 298.019531 515.027344 297.453125 515.320312 296.875 515.582031 C 296.71875 515.640625 296.417969 515.757812 296.367188 515.769531 C 296.074219 515.859375 295.773438 515.9375 295.480469 516.03125 C 295.351562 516.066406 294.960938 516.109375 294.894531 516.121094 C 294.804688 516.125 294.714844 516.125 294.625 516.132812 C 294.574219 516.140625 294.507812 516.136719 294.445312 516.132812 C 294.277344 516.09375 294.113281 516.046875 293.949219 515.996094 C 294.082031 515.984375 292.90625 515.394531 292.65625 515.226562 C 292.613281 515.195312 292.199219 514.878906 292.132812 514.835938 C 291.976562 514.707031 291.824219 514.578125 291.679688 514.441406 C 291.265625 514.058594 290.878906 513.644531 290.515625 513.210938 C 290.417969 513.074219 290.179688 512.757812 290.15625 512.726562 C 289.902344 512.339844 289.679688 511.9375 289.464844 511.53125 C 289.40625 511.421875 289.371094 511.355469 289.339844 511.300781 C 289.320312 511.25 289.308594 511.210938 289.28125 511.132812 C 289.160156 510.796875 289.054688 510.457031 288.964844 510.113281 C 288.902344 509.878906 288.851562 509.644531 288.804688 509.410156 C 288.78125 509.304688 288.769531 509.246094 288.753906 509.1875 C 288.753906 509.125 288.75 509.050781 288.742188 508.925781 C 288.640625 507.132812 288.792969 506.058594 289.507812 504.195312 C 290.984375 500.367188 294.046875 497.171875 297.007812 494.429688 C 298.585938 492.964844 300.257812 491.648438 302.121094 490.566406 C 303.722656 489.640625 304.367188 489.328125 306.105469 488.882812 C 306.421875 488.804688 306.746094 488.753906 307.0625 488.671875 C 307.105469 488.664062 307.125 488.660156 307.160156 488.65625 C 307.304688 488.644531 307.449219 488.628906 307.597656 488.617188 C 308.121094 488.609375 308.640625 488.625 309.164062 488.644531 C 309.238281 488.652344 309.3125 488.664062 309.363281 488.675781 C 309.691406 488.761719 310.019531 488.851562 310.34375 488.941406 C 310.398438 488.957031 310.464844 488.984375 310.53125 489.011719 C 310.480469 488.984375 310.441406 488.964844 310.375 488.929688 C 310.429688 488.957031 310.484375 488.988281 310.539062 489.015625 C 310.742188 489.109375 310.925781 489.21875 310.703125 489.105469 C 310.875 489.195312 311.050781 489.28125 311.21875 489.378906 C 311.324219 489.453125 311.398438 489.496094 311.453125 489.527344 C 311.492188 489.570312 311.539062 489.621094 311.617188 489.695312 C 311.628906 489.707031 312.019531 490.183594 312.085938 490.234375 C 312.46875 490.804688 312.703125 491.308594 312.808594 491.628906 C 313.359375 493.253906 313.449219 494.257812 313.355469 496.09375 Z M 358.472656 522.648438 C 352.886719 531.371094 347.296875 540.09375 341.714844 548.816406 C 339.660156 552.023438 335.082031 550.585938 334.808594 546.941406 C 334.453125 542.132812 334.210938 537.308594 334.03125 532.488281 C 333.902344 529.035156 333.773438 525.546875 333.75 522.058594 C 329.597656 528.164062 325.445312 534.269531 321.296875 540.375 C 318.625 544.300781 312.210938 540.585938 314.898438 536.628906 C 315.738281 535.390625 316.578125 534.15625 317.417969 532.921875 C 323.238281 524.363281 329.054688 515.808594 334.871094 507.253906 C 335.800781 505.886719 337.398438 505.09375 339.054688 505.550781 C 340.484375 505.945312 341.964844 507.542969 341.773438 509.128906 C 340.835938 516.839844 341.148438 524.746094 341.4375 532.488281 C 341.472656 533.429688 341.523438 534.371094 341.5625 535.316406 C 345.875 528.582031 350.183594 521.855469 354.496094 515.125 C 357.0625 511.113281 363.472656 514.839844 360.890625 518.871094 C 360.085938 520.128906 359.277344 521.390625 358.472656 522.648438 Z M 355.984375 557.4375 C 355.929688 557.511719 355.894531 557.589844 355.847656 557.671875 C 355.753906 557.777344 355.742188 557.6875 356.007812 557.386719 C 356.007812 557.390625 356.007812 557.390625 356.007812 557.390625 C 356 557.410156 355.992188 557.417969 355.984375 557.4375 Z M 388.847656 526.28125 C 384.660156 524.730469 380.46875 523.175781 376.28125 521.625 C 374.832031 521.085938 372.789062 521.964844 372.097656 523.328125 C 368.574219 530.273438 365.328125 537.363281 362.0625 544.429688 C 360.660156 547.464844 359.269531 550.5 357.855469 553.527344 C 357.390625 554.527344 356.925781 555.527344 356.441406 556.515625 C 356.300781 556.804688 356.132812 557.089844 356.007812 557.386719 C 356.078125 557.308594 356.164062 557.21875 356.277344 557.109375 C 356.175781 557.21875 356.070312 557.320312 355.984375 557.4375 C 355.933594 557.546875 355.882812 557.625 355.847656 557.671875 C 355.152344 558.800781 355.152344 560.25 355.753906 561.53125 C 355.753906 561.535156 355.753906 561.539062 355.757812 561.539062 C 356.472656 563.066406 358.4375 563.578125 359.9375 563.246094 C 362.113281 562.765625 362.953125 560.039062 363.78125 558.277344 C 365.207031 555.242188 366.605469 552.1875 368.011719 549.140625 C 368.980469 547.042969 369.949219 544.9375 370.925781 542.839844 C 373.507812 543.78125 376.09375 544.726562 378.675781 545.667969 C 379.097656 545.824219 379.519531 545.976562 379.941406 546.132812 C 380.800781 546.445312 382.03125 546.207031 382.792969 545.757812 C 383.5625 545.308594 384.296875 544.425781 384.496094 543.539062 C 384.710938 542.589844 384.664062 541.523438 384.125 540.679688 C 383.578125 539.832031 382.859375 539.324219 381.910156 538.976562 C 379.300781 538.023438 376.6875 537.070312 374.078125 536.117188 C 375.078125 534.011719 376.097656 531.914062 377.128906 529.824219 C 380.378906 531.027344 383.628906 532.230469 386.878906 533.4375 C 388.757812 534.132812 390.9375 532.660156 391.4375 530.847656 C 392.003906 528.773438 390.734375 526.980469 388.847656 526.28125 Z M 358.007812 556.105469 C 357.980469 556.113281 357.949219 556.117188 357.921875 556.125 C 357.9375 556.113281 357.957031 556.101562 357.976562 556.09375 C 357.988281 556.09375 357.996094 556.101562 358.007812 556.105469 Z M 407.851562 534.789062 C 405.769531 546.503906 403.691406 558.21875 401.609375 569.933594 C 401.257812 571.917969 398.84375 573.019531 397.054688 572.527344 C 394.996094 571.960938 394.117188 569.933594 394.464844 567.960938 C 396.546875 556.246094 398.628906 544.53125 400.710938 532.816406 C 401.0625 530.832031 403.472656 529.730469 405.265625 530.222656 C 407.320312 530.789062 408.203125 532.816406 407.851562 534.789062 Z M 433.753906 528.761719 C 430.25 528 426.621094 527.859375 423.082031 528.410156 C 421.542969 528.648438 420.3125 530.5 420.363281 531.988281 C 420.722656 542.777344 421.078125 553.566406 421.476562 564.359375 C 421.539062 566.152344 421.464844 568.035156 421.789062 569.808594 C 422 570.949219 422.9375 571.84375 424.050781 572.269531 C 424.144531 572.308594 424.25 572.328125 424.347656 572.355469 C 425.121094 572.59375 425.945312 572.601562 426.667969 572.308594 C 434.417969 570.265625 442.621094 565.273438 446.488281 558.121094 C 449.796875 551.992188 449.777344 544.328125 446.625 538.132812 C 444.09375 533.15625 439.105469 529.929688 433.753906 528.761719 Z M 440.425781 553.722656 C 439.265625 556.050781 438.421875 557.109375 436.457031 558.902344 C 436.0625 559.261719 435.652344 559.605469 435.234375 559.9375 C 435.195312 559.957031 434.386719 560.554688 434.25 560.648438 C 433.363281 561.253906 432.441406 561.816406 431.503906 562.335938 C 430.640625 562.808594 429.757812 563.234375 428.863281 563.644531 C 428.769531 561.125 428.679688 558.605469 428.59375 556.085938 C 428.367188 549.550781 428.144531 543.011719 427.925781 536.476562 C 427.914062 536.152344 427.902344 535.828125 427.894531 535.503906 C 427.957031 535.507812 428.019531 535.5 428.082031 535.503906 C 428.484375 535.511719 428.882812 535.53125 429.28125 535.5625 C 429.464844 535.574219 430.058594 535.632812 430.324219 535.65625 C 430.554688 535.699219 431.210938 535.800781 431.367188 535.832031 C 431.792969 535.917969 432.214844 536.011719 432.636719 536.125 C 433.117188 536.25 433.59375 536.394531 434.0625 536.554688 C 434.296875 536.636719 434.527344 536.722656 434.757812 536.808594 C 434.890625 536.871094 435.027344 536.933594 435.160156 537 C 435.953125 537.414062 436.730469 537.847656 437.449219 538.382812 C 437.503906 538.453125 438.179688 539.042969 438.332031 539.195312 C 438.570312 539.433594 438.800781 539.683594 439.019531 539.941406 C 439.09375 540.027344 439.136719 540.074219 439.164062 540.101562 C 439.191406 540.148438 439.230469 540.210938 439.292969 540.300781 C 440.664062 542.390625 441.378906 544.425781 441.546875 547.066406 C 441.703125 549.503906 441.277344 552.015625 440.425781 553.722656 Z M 487.609375 554.140625 C 488.175781 556.195312 486.898438 558.003906 485.023438 558.703125 C 480.054688 560.5625 475.082031 562.417969 470.113281 564.277344 C 468.242188 564.976562 466.042969 563.496094 465.558594 561.683594 C 465.164062 560.210938 464.769531 558.738281 464.375 557.265625 C 461.589844 546.855469 458.800781 536.441406 456.011719 526.027344 C 455.441406 523.886719 456.742188 522.242188 458.601562 521.464844 C 462.921875 519.652344 467.242188 517.839844 471.5625 516.027344 C 473.421875 515.25 475.640625 516.878906 476.121094 518.621094 C 476.699219 520.726562 475.378906 522.410156 473.53125 523.183594 C 470.351562 524.515625 467.171875 525.851562 463.992188 527.183594 C 464.109375 527.613281 464.222656 528.046875 464.339844 528.472656 C 465.03125 531.058594 465.722656 533.644531 466.414062 536.230469 C 468.785156 535.226562 471.160156 534.226562 473.53125 533.222656 C 474.425781 532.847656 475.570312 533.164062 476.386719 533.597656 C 477.242188 534.050781 477.796875 534.917969 478.089844 535.816406 C 478.375 536.707031 478.179688 537.878906 477.714844 538.671875 C 477.484375 539.105469 477.164062 539.453125 476.761719 539.714844 C 476.40625 540.039062 475.984375 540.261719 475.503906 540.375 C 475.128906 540.535156 474.753906 540.691406 474.378906 540.851562 C 472.367188 541.699219 470.351562 542.550781 468.335938 543.402344 C 469.441406 547.539062 470.546875 551.675781 471.65625 555.808594 C 475.453125 554.386719 479.253906 552.96875 483.054688 551.550781 C 484.9375 550.847656 487.117188 552.335938 487.609375 554.140625 Z M 574.191406 488.921875 C 570.175781 492.621094 566.15625 496.320312 562.140625 500.015625 C 560.414062 501.609375 557.546875 501.414062 556.324219 499.265625 C 550.242188 488.585938 544.152344 477.863281 538.671875 466.859375 C 537.917969 465.347656 538.046875 463.621094 539.25 462.363281 C 542.085938 459.398438 544.921875 456.433594 547.753906 453.472656 C 551.0625 450.015625 556.292969 455.269531 552.996094 458.71875 C 550.785156 461.027344 548.578125 463.335938 546.371094 465.644531 C 547.792969 468.445312 549.246094 471.230469 550.734375 474.003906 C 552.171875 472.546875 553.613281 471.09375 555.050781 469.640625 C 555.757812 468.929688 556.691406 468.597656 557.671875 468.554688 C 558.660156 468.511719 559.585938 468.992188 560.292969 469.640625 C 560.972656 470.269531 561.375 471.355469 561.375 472.265625 C 561.375 473.222656 560.960938 474.210938 560.292969 474.890625 C 558.339844 476.863281 556.386719 478.835938 554.433594 480.808594 C 556.417969 484.390625 558.425781 487.953125 560.445312 491.511719 C 563.285156 488.898438 566.121094 486.289062 568.957031 483.675781 C 572.464844 480.445312 577.710938 485.683594 574.191406 488.921875 Z M 521.582031 530.566406 C 522.816406 533.585938 518.660156 536.441406 516.136719 534.757812 C 514.90625 533.933594 513.671875 533.109375 512.4375 532.285156 C 506.890625 528.582031 501.339844 524.875 495.789062 521.167969 C 498.550781 528.558594 501.3125 535.949219 504.078125 543.335938 C 504.785156 545.222656 503.289062 547.40625 501.492188 547.902344 C 499.441406 548.46875 497.636719 547.1875 496.9375 545.308594 C 496.433594 543.964844 495.929688 542.621094 495.429688 541.277344 C 491.867188 531.757812 488.308594 522.234375 484.746094 512.714844 C 483.617188 509.695312 487.613281 506.804688 490.1875 508.527344 C 491.421875 509.347656 492.65625 510.171875 493.886719 510.996094 C 499.261719 514.585938 504.636719 518.175781 510.011719 521.761719 C 506.789062 513.914062 503.566406 506.0625 500.34375 498.210938 C 499.578125 496.347656 501.183594 494.128906 502.933594 493.648438 C 505.027344 493.070312 506.726562 494.386719 507.488281 496.238281 C 508.078125 497.679688 508.671875 499.121094 509.261719 500.558594 C 513.367188 510.5625 517.472656 520.566406 521.582031 530.566406 Z M 357.671875 475.632812 C 357.988281 468.5 358.871094 461.386719 360.285156 454.390625 C 360.683594 452.414062 363.011719 451.292969 364.84375 451.800781 C 366.867188 452.355469 367.828125 454.402344 367.429688 456.363281 C 366.820312 459.378906 366.339844 462.386719 365.957031 465.402344 C 367.539062 463.546875 369.0625 461.648438 370.46875 459.6875 C 371.4375 458.339844 372.96875 457.519531 374.652344 457.984375 C 376.257812 458.425781 377.316406 459.925781 377.371094 461.5625 C 377.429688 463.371094 377.546875 465.15625 377.703125 466.9375 C 378.683594 464.605469 379.664062 462.277344 380.644531 459.949219 C 381.421875 458.097656 383.058594 456.769531 385.199219 457.359375 C 386.949219 457.839844 388.5625 460.074219 387.785156 461.921875 C 385.058594 468.402344 382.335938 474.878906 379.609375 481.359375 C 378.964844 482.886719 377.808594 484.082031 376.035156 484.082031 C 374.46875 484.082031 372.816406 482.9375 372.464844 481.359375 C 371.71875 478.011719 371.140625 474.628906 370.71875 471.222656 C 368.59375 473.671875 366.355469 476.023438 363.996094 478.257812 C 361.761719 480.367188 357.523438 478.964844 357.671875 475.632812 Z M 397.421875 486.863281 C 398.394531 479.453125 399.367188 472.042969 400.339844 464.636719 C 400.609375 462.5625 401.820312 461.023438 404.042969 460.925781 C 405.863281 460.84375 408 462.703125 407.746094 464.636719 C 406.773438 472.042969 405.800781 479.453125 404.828125 486.863281 C 404.558594 488.933594 403.347656 490.472656 401.125 490.574219 C 399.304688 490.65625 397.167969 488.796875 397.421875 486.863281 Z M 424.640625 465.035156 C 422.585938 465.214844 420.53125 465.394531 418.472656 465.574219 C 416.40625 465.753906 414.851562 463.730469 414.769531 461.863281 C 414.675781 459.738281 416.550781 458.320312 418.472656 458.152344 C 419.28125 458.082031 420.085938 458.011719 420.890625 457.941406 C 426.492188 457.453125 432.089844 456.964844 437.691406 456.472656 C 439.757812 456.292969 441.3125 458.320312 441.394531 460.183594 C 441.488281 462.308594 439.617188 463.726562 437.691406 463.894531 C 436.886719 463.964844 436.078125 464.035156 435.273438 464.105469 C 434.171875 464.203125 433.074219 464.296875 431.976562 464.394531 C 432.679688 470.664062 433.382812 476.933594 434.089844 483.203125 C 434.320312 485.269531 432.207031 486.832031 430.386719 486.914062 C 428.230469 487.011719 426.898438 485.125 426.679688 483.203125 C 426.003906 477.148438 425.324219 471.089844 424.640625 465.035156 Z M 454.21875 477.398438 C 453.988281 476.566406 453.757812 475.738281 453.527344 474.910156 C 451.910156 469.105469 450.292969 463.300781 448.679688 457.5 C 448.121094 455.496094 449.363281 453.550781 451.265625 452.933594 C 453.171875 452.316406 455.300781 453.65625 455.824219 455.527344 C 456.054688 456.355469 456.285156 457.1875 456.515625 458.015625 C 456.847656 459.210938 457.179688 460.402344 457.511719 461.597656 C 457.558594 461.578125 457.597656 461.558594 457.640625 461.539062 C 461.15625 460.0625 464.742188 458.769531 468.378906 457.648438 C 467.78125 455.515625 467.183594 453.382812 466.585938 451.25 C 466.023438 449.25 467.269531 447.304688 469.171875 446.6875 C 471.082031 446.070312 473.203125 447.410156 473.726562 449.277344 C 473.960938 450.113281 474.195312 450.945312 474.429688 451.777344 C 476.066406 457.601562 477.699219 463.429688 479.335938 469.253906 C 479.898438 471.253906 478.652344 473.203125 476.75 473.816406 C 474.839844 474.4375 472.71875 473.09375 472.195312 471.226562 C 471.960938 470.394531 471.726562 469.558594 471.492188 468.726562 C 471.121094 467.414062 470.753906 466.101562 470.386719 464.789062 C 466.734375 465.917969 463.136719 467.214844 459.609375 468.691406 C 459.574219 468.707031 459.53125 468.707031 459.496094 468.71875 C 460.117188 470.953125 460.738281 473.191406 461.363281 475.425781 C 461.917969 477.429688 460.679688 479.371094 458.773438 479.992188 C 456.867188 480.609375 454.738281 479.265625 454.21875 477.398438 Z M 454.21875 477.398438 " fill-opacity="1" fill-rule="nonzero"/></g><path fill="#0088fc" d="M 301.195312 423.59375 C 301.175781 423.613281 301.160156 423.636719 301.144531 423.660156 C 301.160156 423.632812 301.175781 423.609375 301.199219 423.582031 C 301.195312 423.585938 301.195312 423.589844 301.195312 423.59375 Z M 305.925781 420.417969 C 303.960938 419.96875 301.929688 421.007812 301.371094 423.007812 C 301.316406 423.199219 301.261719 423.394531 301.195312 423.582031 C 301.210938 423.558594 301.226562 423.539062 301.246094 423.519531 C 301.226562 423.539062 301.210938 423.570312 301.195312 423.59375 C 301.191406 423.597656 301.191406 423.597656 301.191406 423.601562 C 301.03125 424.066406 301.027344 423.871094 301.144531 423.660156 C 300.960938 423.9375 300.820312 424.351562 300.660156 424.605469 C 300.570312 424.75 300.46875 424.886719 300.375 425.027344 C 300.367188 425.035156 300.363281 425.039062 300.355469 425.046875 C 300.066406 425.34375 299.796875 425.652344 299.488281 425.929688 C 299.464844 425.949219 299.414062 425.992188 299.359375 426.039062 C 299.25 426.117188 299.085938 426.242188 299.058594 426.257812 C 298.714844 426.484375 298.351562 426.675781 297.984375 426.867188 C 297.984375 426.867188 297.984375 426.867188 297.984375 426.871094 C 297.820312 426.925781 297.660156 426.988281 297.496094 427.039062 C 297.175781 427.132812 296.820312 427.175781 296.496094 427.261719 C 296.253906 427.269531 296.011719 427.28125 295.769531 427.277344 C 295.601562 427.273438 295.433594 427.261719 295.265625 427.253906 C 295.253906 427.253906 295.253906 427.253906 295.242188 427.253906 C 294.835938 427.164062 294.425781 427.074219 294.027344 426.941406 C 293.921875 426.910156 293.757812 426.824219 293.628906 426.796875 C 293.628906 426.792969 293.625 426.792969 293.621094 426.792969 C 293.242188 426.605469 292.878906 426.398438 292.523438 426.164062 C 292.496094 426.144531 292.492188 426.140625 292.46875 426.121094 C 292.5 426.15625 292.53125 426.179688 292.558594 426.222656 C 292.523438 426.167969 292.457031 426.117188 292.394531 426.066406 C 292.414062 426.082031 292.4375 426.101562 292.46875 426.125 C 292.375 426.023438 292.300781 425.972656 292.296875 425.984375 C 292.21875 425.921875 292.136719 425.863281 292.078125 425.8125 C 291.78125 425.542969 291.527344 425.25 291.257812 424.957031 C 291.257812 424.949219 291.257812 424.949219 291.253906 424.945312 C 291.125 424.726562 290.980469 424.519531 290.855469 424.296875 C 289.886719 422.613281 287.460938 421.886719 285.785156 422.964844 C 284.09375 424.054688 283.421875 426.238281 284.457031 428.039062 C 287.195312 432.796875 292.644531 435.292969 298.011719 434.5 C 302.980469 433.769531 307.171875 429.765625 308.511719 424.980469 C 309.035156 423.113281 307.871094 420.863281 305.925781 420.417969 Z M 531.160156 426.742188 C 531.15625 426.730469 531.152344 426.722656 531.148438 426.714844 C 531.148438 426.71875 531.148438 426.71875 531.148438 426.722656 C 531.152344 426.730469 531.15625 426.734375 531.160156 426.742188 Z M 544.773438 426.652344 C 542.878906 425.652344 540.890625 426.28125 539.703125 427.984375 C 539.703125 427.988281 539.703125 427.988281 539.699219 427.992188 C 539.582031 428.121094 539.472656 428.246094 539.351562 428.371094 C 539.21875 428.503906 539.082031 428.632812 538.941406 428.761719 C 538.757812 428.804688 538.175781 429.265625 538.027344 429.34375 C 537.90625 429.410156 537.78125 429.46875 537.660156 429.527344 C 537.269531 429.65625 536.878906 429.777344 536.476562 429.863281 C 536.382812 429.882812 536.28125 429.894531 536.179688 429.90625 C 536.121094 429.914062 536.0625 429.917969 536.003906 429.917969 C 535.65625 429.933594 535.3125 429.914062 534.96875 429.894531 C 534.964844 429.894531 534.964844 429.894531 534.964844 429.894531 C 534.785156 429.84375 534.597656 429.8125 534.417969 429.761719 C 534.265625 429.71875 534.117188 429.667969 533.964844 429.617188 C 533.640625 429.445312 533.3125 429.28125 533 429.078125 C 532.972656 429.054688 532.910156 429.011719 532.847656 428.96875 C 532.785156 428.917969 532.726562 428.867188 532.699219 428.84375 C 532.40625 428.578125 532.152344 428.285156 531.878906 428 C 531.777344 427.851562 531.675781 427.703125 531.582031 427.550781 C 531.425781 427.292969 531.308594 427.003906 531.160156 426.742188 C 531.265625 426.96875 531.308594 427.179688 531.152344 426.734375 C 531.152344 426.730469 531.148438 426.726562 531.148438 426.722656 C 531.121094 426.671875 531.097656 426.617188 531.066406 426.570312 C 531.09375 426.613281 531.121094 426.664062 531.148438 426.714844 C 531.089844 426.546875 531.035156 426.378906 530.988281 426.207031 C 530.929688 425.992188 530.886719 425.777344 530.839844 425.558594 C 530.835938 425.546875 530.835938 425.546875 530.832031 425.535156 C 530.609375 423.65625 529.226562 421.863281 527.152344 421.957031 C 525.292969 422.035156 523.261719 423.59375 523.449219 425.664062 C 523.914062 430.847656 527.34375 435.476562 532.449219 436.917969 C 537.628906 438.375 543.089844 436.054688 546.101562 431.730469 C 547.214844 430.132812 546.445312 427.539062 544.773438 426.652344 Z M 544.773438 426.652344 " fill-opacity="1" fill-rule="nonzero"/><g fill="#000000" fill-opacity="1"><g transform="translate(278.501607, 661.101812)"><g><path d="M 7.890625 -20.6875 C 3.796875 -20.6875 0.890625 -18.15625 0.890625 -14.34375 C 0.890625 -12.375 1.65625 -10.609375 4.515625 -8.921875 C 7.015625 -7.453125 7.65625 -7.015625 7.65625 -6.21875 C 7.65625 -5.484375 6.953125 -4.953125 5.515625 -4.953125 C 3.765625 -4.953125 2.234375 -5.65625 0.796875 -6.625 L 0.796875 -1.15625 C 2.625 -0.125 4.65625 0.234375 7.015625 0.234375 C 10.46875 0.234375 12.90625 -0.9375 14.03125 -2.953125 C 14.59375 -3.921875 14.859375 -4.921875 14.859375 -5.859375 C 14.859375 -7.890625 13.828125 -9.71875 10.484375 -11.546875 C 8.1875 -12.8125 7.546875 -13.40625 7.546875 -14.203125 C 7.546875 -14.875 8.1875 -15.5 9.21875 -15.5 C 10.546875 -15.5 12.203125 -14.59375 13.96875 -12.90625 L 13.96875 -18.359375 C 12.46875 -19.78125 10.109375 -20.6875 7.890625 -20.6875 Z M 7.890625 -20.6875 "/></g></g></g><g fill="#000000" fill-opacity="1"><g transform="translate(294.122234, 661.101812)"><g><path d="M 1.703125 -20.421875 L 1.703125 0 L 8.953125 0 L 8.953125 -9.75 L 13.828125 -3.484375 L 18.65625 -9.640625 L 18.65625 0 L 25.90625 0 L 25.90625 -20.421875 L 19.328125 -20.421875 L 13.828125 -13.375 L 8.375 -20.421875 Z M 1.703125 -20.421875 "/></g></g></g><g fill="#000000" fill-opacity="1"><g transform="translate(321.738329, 661.101812)"><g><path d="M 2.03125 -20.421875 L 2.03125 0 L 9.28125 0 L 9.28125 -20.421875 Z M 2.03125 -20.421875 "/></g></g></g><g fill="#000000" fill-opacity="1"><g transform="translate(333.026445, 661.101812)"><g><path d="M 1.703125 -20.421875 L 1.703125 0 L 16.53125 0 L 16.53125 -5.1875 L 8.953125 -5.1875 L 8.953125 -20.421875 Z M 1.703125 -20.421875 "/></g></g></g><g fill="#000000" fill-opacity="1"><g transform="translate(350.002826, 661.101812)"><g><path d="M 1.703125 -20.421875 L 1.703125 0 L 16.703125 0 L 16.703125 -4.59375 L 8.953125 -4.59375 L 8.953125 -8.046875 L 16.125 -8.046875 L 16.125 -12.640625 L 8.953125 -12.640625 L 8.953125 -15.828125 L 16.5625 -15.828125 L 16.5625 -20.421875 Z M 1.703125 -20.421875 "/></g></g></g><g fill="#000000" fill-opacity="1"><g transform="translate(367.450772, 661.101812)"><g/></g></g><g fill="#000000" fill-opacity="1"><g transform="translate(377.442082, 661.101812)"><g><path d="M 7.890625 -20.6875 C 3.796875 -20.6875 0.890625 -18.15625 0.890625 -14.34375 C 0.890625 -12.375 1.65625 -10.609375 4.515625 -8.921875 C 7.015625 -7.453125 7.65625 -7.015625 7.65625 -6.21875 C 7.65625 -5.484375 6.953125 -4.953125 5.515625 -4.953125 C 3.765625 -4.953125 2.234375 -5.65625 0.796875 -6.625 L 0.796875 -1.15625 C 2.625 -0.125 4.65625 0.234375 7.015625 0.234375 C 10.46875 0.234375 12.90625 -0.9375 14.03125 -2.953125 C 14.59375 -3.921875 14.859375 -4.921875 14.859375 -5.859375 C 14.859375 -7.890625 13.828125 -9.71875 10.484375 -11.546875 C 8.1875 -12.8125 7.546875 -13.40625 7.546875 -14.203125 C 7.546875 -14.875 8.1875 -15.5 9.21875 -15.5 C 10.546875 -15.5 12.203125 -14.59375 13.96875 -12.90625 L 13.96875 -18.359375 C 12.46875 -19.78125 10.109375 -20.6875 7.890625 -20.6875 Z M 7.890625 -20.6875 "/></g></g></g><g fill="#000000" fill-opacity="1"><g transform="translate(393.062709, 661.101812)"><g><path d="M 11.546875 -20.6875 C 4.21875 -20.6875 0.796875 -15.234375 0.796875 -10.21875 C 0.796875 -4.390625 5.0625 0.234375 11.546875 0.234375 C 18.828125 0.234375 22.3125 -5.15625 22.3125 -10.21875 C 22.3125 -15.96875 18.09375 -20.6875 11.546875 -20.6875 Z M 8.046875 -10.21875 C 8.046875 -12.875 9.375 -14.609375 11.515625 -14.609375 C 13.828125 -14.609375 15.0625 -12.765625 15.0625 -10.21875 C 15.0625 -7.6875 13.765625 -5.828125 11.546875 -5.828125 C 9.34375 -5.828125 8.046875 -7.6875 8.046875 -10.21875 Z M 8.046875 -10.21875 "/></g></g></g><g fill="#000000" fill-opacity="1"><g transform="translate(416.169444, 661.101812)"><g><path d="M 1.703125 -20.421875 L 1.703125 0 L 16.53125 0 L 16.53125 -5.1875 L 8.953125 -5.1875 L 8.953125 -20.421875 Z M 1.703125 -20.421875 "/></g></g></g><g fill="#000000" fill-opacity="1"><g transform="translate(433.14582, 661.101812)"><g><path d="M 1.5 -20.421875 L 1.5 -9.90625 C 1.5 -2.859375 6.015625 0.234375 12.375 0.234375 C 19.328125 0.234375 23.375 -3.125 23.375 -9.953125 L 23.375 -20.421875 L 16.125 -20.421875 L 16.125 -11.046875 C 16.125 -7.71875 15.625 -5.25 12.4375 -5.25 C 8.84375 -5.25 8.75 -8.34375 8.75 -10.78125 L 8.75 -20.421875 Z M 1.5 -20.421875 "/></g></g></g><g fill="#000000" fill-opacity="1"><g transform="translate(458.020942, 661.101812)"><g><path d="M 0.625 -20.421875 L 0.625 -15.234375 L 6.515625 -15.234375 L 6.515625 0 L 13.765625 0 L 13.765625 -15.234375 L 19.65625 -15.234375 L 19.65625 -20.421875 Z M 0.625 -20.421875 "/></g></g></g><g fill="#000000" fill-opacity="1"><g transform="translate(478.298287, 661.101812)"><g><path d="M 2.03125 -20.421875 L 2.03125 0 L 9.28125 0 L 9.28125 -20.421875 Z M 2.03125 -20.421875 "/></g></g></g><g fill="#000000" fill-opacity="1"><g transform="translate(489.586414, 661.101812)"><g><path d="M 11.546875 -20.6875 C 4.21875 -20.6875 0.796875 -15.234375 0.796875 -10.21875 C 0.796875 -4.390625 5.0625 0.234375 11.546875 0.234375 C 18.828125 0.234375 22.3125 -5.15625 22.3125 -10.21875 C 22.3125 -15.96875 18.09375 -20.6875 11.546875 -20.6875 Z M 8.046875 -10.21875 C 8.046875 -12.875 9.375 -14.609375 11.515625 -14.609375 C 13.828125 -14.609375 15.0625 -12.765625 15.0625 -10.21875 C 15.0625 -7.6875 13.765625 -5.828125 11.546875 -5.828125 C 9.34375 -5.828125 8.046875 -7.6875 8.046875 -10.21875 Z M 8.046875 -10.21875 "/></g></g></g><g fill="#000000" fill-opacity="1"><g transform="translate(512.693159, 661.101812)"><g><path d="M 1.703125 -20.421875 L 1.703125 0 L 8.953125 0 L 8.953125 -9.640625 L 17.859375 0 L 24.171875 0 L 24.171875 -20.421875 L 16.921875 -20.421875 L 16.921875 -10.734375 L 7.953125 -20.421875 Z M 1.703125 -20.421875 "/></g></g></g><g fill="#000000" fill-opacity="1"><g transform="translate(538.570342, 661.101812)"><g><path d="M 7.890625 -20.6875 C 3.796875 -20.6875 0.890625 -18.15625 0.890625 -14.34375 C 0.890625 -12.375 1.65625 -10.609375 4.515625 -8.921875 C 7.015625 -7.453125 7.65625 -7.015625 7.65625 -6.21875 C 7.65625 -5.484375 6.953125 -4.953125 5.515625 -4.953125 C 3.765625 -4.953125 2.234375 -5.65625 0.796875 -6.625 L 0.796875 -1.15625 C 2.625 -0.125 4.65625 0.234375 7.015625 0.234375 C 10.46875 0.234375 12.90625 -0.9375 14.03125 -2.953125 C 14.59375 -3.921875 14.859375 -4.921875 14.859375 -5.859375 C 14.859375 -7.890625 13.828125 -9.71875 10.484375 -11.546875 C 8.1875 -12.8125 7.546875 -13.40625 7.546875 -14.203125 C 7.546875 -14.875 8.1875 -15.5 9.21875 -15.5 C 10.546875 -15.5 12.203125 -14.59375 13.96875 -12.90625 L 13.96875 -18.359375 C 12.46875 -19.78125 10.109375 -20.6875 7.890625 -20.6875 Z M 7.890625 -20.6875 "/></g></g></g></svg>