<svg xmlns="http://www.w3.org/2000/svg" xmlns:xlink="http://www.w3.org/1999/xlink" width="1080" zoomAndPan="magnify" viewBox="0 0 810 809.999993" height="1080" preserveAspectRatio="xMidYMid meet" version="1.0"><defs><g/><clipPath id="b8357340c6"><path d="M 394 249.304688 L 409 249.304688 L 409 309 L 394 309 Z M 394 249.304688 " clip-rule="nonzero"/></clipPath></defs><path fill="#0095d9" d="M 324.902344 415.214844 C 325.941406 373.339844 360.070312 339.84375 402.085938 339.84375 C 444.089844 339.84375 478.199219 373.339844 478.734375 415.214844 Z M 327 429.351562 L 530.1875 429.351562 C 534.382812 429.351562 537.539062 426.214844 537.539062 422.554688 C 537.539062 418.351562 534.382812 415.214844 530.1875 415.214844 L 491.324219 415.214844 C 490.804688 366.527344 450.902344 327.292969 402.085938 327.292969 C 353.234375 327.292969 313.351562 366.527344 312.8125 415.214844 L 273.441406 415.214844 C 269.761719 415.214844 266.617188 418.351562 266.617188 422.554688 C 266.617188 426.214844 269.765625 429.351562 273.441406 429.351562 Z M 340.648438 497.386719 C 339.070312 485.875 334.335938 462.851562 330.136719 443.484375 L 316.488281 443.484375 C 320.703125 462.332031 324.902344 481.175781 327.519531 499.484375 C 337.488281 564.382812 353.234375 573.292969 375.292969 526.1875 C 381.070312 514.136719 384.226562 501.0625 389.460938 489.550781 C 393.15625 481.695312 397.875 477.5 402.085938 477.5 C 406.804688 477.5 411 481.695312 414.675781 489.550781 C 420.453125 501.0625 423.609375 514.136719 429.382812 526.1875 C 451.421875 573.292969 467.1875 564.382812 477.15625 499.484375 C 479.257812 481.175781 483.453125 462.332031 488.1875 443.484375 L 474.539062 443.484375 C 469.804688 462.851562 465.089844 485.875 463.511719 497.386719 C 461.933594 508.378906 459.832031 520.429688 456.15625 530.886719 L 456.15625 532.464844 C 455.097656 534.042969 454.058594 535.082031 452.480469 535.601562 C 450.902344 535.601562 449.324219 534.558594 448.285156 533.503906 L 447.746094 532.460938 C 439.355469 518.332031 435.675781 506.296875 430.421875 491.628906 C 425.707031 478.039062 417.296875 464.425781 402.605469 463.890625 L 401.550781 463.890625 C 387.382812 464.425781 378.96875 478.039062 374.253906 491.628906 C 368.480469 506.300781 364.785156 518.332031 356.929688 532.460938 L 356.390625 533.503906 C 355.351562 534.558594 353.773438 535.601562 352.195312 535.601562 C 350.617188 535.082031 349.039062 534.042969 348.519531 532.464844 L 348 530.886719 C 344.324219 520.429688 342.226562 508.378906 340.648438 497.386719 Z M 340.648438 497.386719 " fill-opacity="1" fill-rule="evenodd"/><g clip-path="url(#b8357340c6)"><path fill="#0095d9" d="M 408.902344 256.101562 L 408.902344 301.648438 C 408.902344 305.828125 405.746094 308.964844 402.085938 308.964844 C 397.875 308.964844 394.734375 305.828125 394.734375 301.648438 L 394.734375 256.101562 C 394.734375 252.441406 397.875 249.304688 402.085938 249.304688 C 405.746094 249.304688 408.902344 252.441406 408.902344 256.101562 Z M 408.902344 256.101562 " fill-opacity="1" fill-rule="evenodd"/></g><path fill="#0095d9" d="M 463.511719 288.019531 L 453 313.679688 C 451.421875 316.820312 447.226562 318.898438 443.550781 317.339844 C 440.410156 315.242188 438.296875 311.582031 439.875 307.925781 L 450.902344 282.785156 C 451.960938 279.125 456.15625 277.566406 459.832031 279.125 C 463.511719 280.183594 465.089844 284.363281 463.511719 288.019531 Z M 463.511719 288.019531 " fill-opacity="1" fill-rule="evenodd"/><path fill="#0095d9" d="M 355.351562 281.746094 L 365.84375 307.386719 C 367.421875 311.0625 365.324219 315.242188 361.648438 316.820312 C 357.972656 317.859375 354.292969 316.28125 352.734375 312.625 L 342.226562 286.980469 C 340.648438 283.324219 342.746094 279.664062 346.421875 278.085938 C 349.578125 276.507812 353.773438 278.085938 355.351562 281.746094 Z M 355.351562 281.746094 " fill-opacity="1" fill-rule="evenodd"/><path fill="#0095d9" d="M 274.488281 353.972656 L 299.695312 364.445312 C 303.371094 366.023438 305.46875 370.203125 303.371094 373.878906 C 301.792969 377 298.117188 379.097656 294.441406 377.539062 L 268.714844 366.527344 C 265.039062 365.488281 263.46875 361.308594 265.039062 357.632812 C 266.617188 353.972656 270.8125 352.398438 274.488281 353.972656 Z M 274.488281 353.972656 " fill-opacity="1" fill-rule="evenodd"/><path fill="#0095d9" d="M 535.960938 368.644531 L 510.226562 379.097656 C 506.550781 380.65625 502.355469 379.097656 500.777344 375.4375 C 499.738281 371.761719 501.316406 367.585938 504.992188 366.027344 L 530.707031 356.074219 C 533.863281 354.511719 538.0625 356.074219 539.640625 359.730469 C 541.21875 363.40625 539.640625 367.585938 535.960938 368.644531 Z M 535.960938 368.644531 " fill-opacity="1" fill-rule="evenodd"/><path fill="#0095d9" d="M 519.679688 307.925781 L 487.648438 339.84375 C 484.511719 342.460938 480.3125 342.460938 477.679688 339.84375 C 474.539062 337.226562 474.539062 333.03125 477.679688 329.910156 L 509.707031 297.972656 C 512.34375 295.355469 517.058594 295.355469 519.679688 297.972656 C 522.316406 300.589844 522.316406 305.308594 519.679688 307.925781 Z M 519.679688 307.925781 " fill-opacity="1" fill-rule="evenodd"/><path fill="#0095d9" d="M 294.441406 297.972656 L 326.480469 329.910156 C 329.097656 333.03125 329.097656 337.226562 326.480469 339.84375 C 323.84375 342.460938 319.125 342.460938 316.488281 339.84375 L 284.46875 307.925781 C 281.3125 305.308594 281.3125 300.589844 284.46875 297.972656 C 287.085938 295.355469 291.292969 295.355469 294.441406 297.972656 Z M 294.441406 297.972656 " fill-opacity="1" fill-rule="evenodd"/><g fill="#000000" fill-opacity="1"><g transform="translate(220.158348, 674.947594)"><g><path d="M 1.703125 -20.421875 L 1.703125 0 L 8.953125 0 L 8.953125 -9.75 L 13.828125 -3.484375 L 18.65625 -9.640625 L 18.65625 0 L 25.90625 0 L 25.90625 -20.421875 L 19.328125 -20.421875 L 13.828125 -13.375 L 8.375 -20.421875 Z M 1.703125 -20.421875 "/></g></g></g><g fill="#000000" fill-opacity="1"><g transform="translate(247.774221, 674.947594)"><g><path d="M 8.875 -20.421875 L 0.234375 0 L 7.65625 0 L 8.875 -3.15625 L 16.4375 -3.15625 L 17.59375 0 L 25.046875 0 L 16.4375 -20.421875 Z M 12.671875 -13.703125 L 14.90625 -7.390625 L 10.375 -7.390625 Z M 12.671875 -13.703125 "/></g></g></g><g fill="#000000" fill-opacity="1"><g transform="translate(273.061749, 674.947594)"><g><path d="M 0.171875 -20.421875 L 8.25 -10.015625 L 0.171875 0 L 8.15625 0 L 12.203125 -4.984375 L 16.0625 0 L 25.109375 0 L 16.828125 -10.703125 L 24.578125 -20.421875 L 16.5625 -20.421875 L 12.84375 -15.828125 L 9.25 -20.421875 Z M 0.171875 -20.421875 "/></g></g></g><g fill="#000000" fill-opacity="1"><g transform="translate(298.349276, 674.947594)"><g><path d="M 12.171875 -20.6875 C 3.265625 -20.6875 0.796875 -13.96875 0.796875 -10.109375 C 0.796875 -4.390625 5.0625 0.234375 12.015625 0.234375 C 14.5625 0.234375 16.234375 -0.125 18.984375 -1.4375 L 18.984375 -7.015625 C 17.15625 -5.828125 15.40625 -5.28125 13.578125 -5.28125 C 10.375 -5.28125 8.046875 -7.375 8.046875 -10.28125 C 8.046875 -13.234375 10.171875 -15.234375 13.234375 -15.234375 C 15.140625 -15.234375 16.96875 -14.59375 18.796875 -13.234375 L 18.796875 -19.328125 C 16.5625 -20.296875 14.640625 -20.6875 12.171875 -20.6875 Z M 12.171875 -20.6875 "/></g></g></g><g fill="#000000" fill-opacity="1"><g transform="translate(318.037004, 674.947594)"><g><path d="M 8.875 -20.421875 L 0.234375 0 L 7.65625 0 L 8.875 -3.15625 L 16.4375 -3.15625 L 17.59375 0 L 25.046875 0 L 16.4375 -20.421875 Z M 12.671875 -13.703125 L 14.90625 -7.390625 L 10.375 -7.390625 Z M 12.671875 -13.703125 "/></g></g></g><g fill="#000000" fill-opacity="1"><g transform="translate(343.324532, 674.947594)"><g><path d="M 1.703125 -20.421875 L 1.703125 0 L 8.953125 0 L 8.953125 -8.609375 C 10.734375 -8.609375 11.4375 -8.078125 12.40625 -6.453125 C 12.875 -5.65625 13.4375 -4.53125 14.0625 -3.0625 L 15.359375 0 L 22.546875 0 L 19.828125 -5.78125 C 18.765625 -8.015625 17.796875 -9.453125 16.734375 -9.8125 C 18.765625 -10.609375 19.984375 -12.40625 19.984375 -14.40625 C 19.984375 -16.671875 19.0625 -18.390625 16.828125 -19.53125 C 15.703125 -20.125 14.0625 -20.421875 11.8125 -20.421875 Z M 8.953125 -17 L 9.8125 -17 C 12 -17 13 -16.296875 13 -14.5 C 13 -12.90625 12.078125 -11.96875 9.71875 -11.96875 L 8.953125 -11.96875 Z M 8.953125 -17 "/></g></g></g><g fill="#000000" fill-opacity="1"><g transform="translate(365.930056, 674.947594)"><g><path d="M 1.703125 -20.421875 L 1.703125 0 L 16.703125 0 L 16.703125 -4.59375 L 8.953125 -4.59375 L 8.953125 -8.046875 L 16.125 -8.046875 L 16.125 -12.640625 L 8.953125 -12.640625 L 8.953125 -15.828125 L 16.5625 -15.828125 L 16.5625 -20.421875 Z M 1.703125 -20.421875 "/></g></g></g><g fill="#000000" fill-opacity="1"><g transform="translate(383.377866, 674.947594)"><g/></g></g><g fill="#000000" fill-opacity="1"><g transform="translate(393.369096, 674.947594)"><g><path d="M 1.703125 -20.421875 L 1.703125 0 L 10.671875 0 C 12.9375 0 14.671875 -0.140625 15.796875 -0.46875 C 20.03125 -1.625 22.421875 -6.015625 22.421875 -10.015625 C 22.421875 -12.90625 21.421875 -15.375 19.421875 -17.421875 C 17.421875 -19.453125 14.5625 -20.421875 10.75 -20.421875 Z M 8.953125 -15.53125 L 9.90625 -15.53125 C 12.3125 -15.53125 13.609375 -14.875 14.5 -13.234375 C 14.9375 -12.40625 15.171875 -11.375 15.171875 -10.140625 C 15.171875 -7.484375 14.03125 -5.953125 12.796875 -5.390625 C 12.171875 -5.125 11.3125 -4.953125 10.34375 -4.953125 L 8.953125 -4.953125 Z M 8.953125 -15.53125 "/></g></g></g><g fill="#000000" fill-opacity="1"><g transform="translate(416.564083, 674.947594)"><g><path d="M 1.703125 -20.421875 L 1.703125 0 L 16.703125 0 L 16.703125 -4.59375 L 8.953125 -4.59375 L 8.953125 -8.046875 L 16.125 -8.046875 L 16.125 -12.640625 L 8.953125 -12.640625 L 8.953125 -15.828125 L 16.5625 -15.828125 L 16.5625 -20.421875 Z M 1.703125 -20.421875 "/></g></g></g><g fill="#000000" fill-opacity="1"><g transform="translate(434.011882, 674.947594)"><g><path d="M 1.703125 -20.421875 L 1.703125 0 L 8.953125 0 L 8.953125 -9.640625 L 17.859375 0 L 24.171875 0 L 24.171875 -20.421875 L 16.921875 -20.421875 L 16.921875 -10.734375 L 7.953125 -20.421875 Z M 1.703125 -20.421875 "/></g></g></g><g fill="#000000" fill-opacity="1"><g transform="translate(459.888872, 674.947594)"><g><path d="M 0.625 -20.421875 L 0.625 -15.234375 L 6.515625 -15.234375 L 6.515625 0 L 13.765625 0 L 13.765625 -15.234375 L 19.65625 -15.234375 L 19.65625 -20.421875 Z M 0.625 -20.421875 "/></g></g></g><g fill="#000000" fill-opacity="1"><g transform="translate(480.166039, 674.947594)"><g><path d="M 8.875 -20.421875 L 0.234375 0 L 7.65625 0 L 8.875 -3.15625 L 16.4375 -3.15625 L 17.59375 0 L 25.046875 0 L 16.4375 -20.421875 Z M 12.671875 -13.703125 L 14.90625 -7.390625 L 10.375 -7.390625 Z M 12.671875 -13.703125 "/></g></g></g><g fill="#000000" fill-opacity="1"><g transform="translate(505.453566, 674.947594)"><g><path d="M 1.703125 -20.421875 L 1.703125 0 L 16.53125 0 L 16.53125 -5.1875 L 8.953125 -5.1875 L 8.953125 -20.421875 Z M 1.703125 -20.421875 "/></g></g></g><g fill="#000000" fill-opacity="1"><g transform="translate(522.43177, 674.947594)"><g/></g></g></svg>