<svg xmlns="http://www.w3.org/2000/svg" xmlns:xlink="http://www.w3.org/1999/xlink" width="1080" zoomAndPan="magnify" viewBox="0 0 810 809.999993" height="1080" preserveAspectRatio="xMidYMid meet" version="1.0"><defs><g/><clipPath id="6f2299c1c9"><path d="M 265.296875 236 L 589 236 L 589 555.3125 L 265.296875 555.3125 Z M 265.296875 236 " clip-rule="nonzero"/></clipPath></defs><g clip-path="url(#6f2299c1c9)"><path fill="#231f20" d="M 585.902344 367.394531 C 579.660156 331.390625 560.007812 298.144531 532.179688 274.625 C 517.03125 261.75 499.507812 251.734375 480.730469 245.25 C 461.953125 238.714844 442.011719 235.8125 422.167969 236.296875 C 408.90625 236.925781 395.644531 238.765625 382.867188 242.394531 C 348.40625 251.78125 317.234375 273.125 296.375 302.160156 C 279.824219 324.761719 269.464844 351.8125 266.609375 379.6875 C 265.304688 392.464844 265.351562 405.433594 267.289062 418.164062 C 272.613281 456.394531 293.085938 491.914062 322.367188 516.886719 C 337.128906 529.421875 354.066406 539.34375 372.316406 545.777344 C 389.835938 551.925781 408.324219 555.3125 426.910156 555.117188 C 446.898438 555.167969 466.886719 551.585938 485.617188 544.519531 C 510.933594 534.839844 533.726562 518.582031 551.054688 497.722656 C 570.511719 474.542969 583.53125 445.84375 587.304688 415.742188 C 589.289062 399.722656 588.710938 383.316406 585.902344 367.394531 Z M 387.464844 411.53125 C 395.789062 423.390625 404.839844 434.714844 412.972656 446.714844 C 407.550781 442.699219 401.9375 438.921875 396.613281 434.714844 C 379.625 444.441406 362.441406 453.828125 345.40625 463.410156 C 334.707031 469.316406 324.15625 475.414062 313.460938 481.171875 C 310.265625 476.621094 307.023438 472.074219 304.070312 467.332031 C 302.523438 464.71875 300.683594 462.25 299.523438 459.492188 C 305.378906 455.28125 310.992188 450.683594 316.753906 446.328125 C 322.027344 442.359375 327.15625 438.246094 332.386719 434.230469 C 327.789062 441.390625 322.851562 448.3125 318.203125 455.472656 C 325.078125 452.328125 331.949219 449.328125 338.824219 446.183594 C 340.03125 445.699219 340.273438 444.296875 340.855469 443.277344 C 344.824219 435.050781 348.890625 426.824219 352.953125 418.644531 C 357.699219 414.773438 362.730469 411.339844 367.570312 407.613281 C 376.089844 401.320312 384.464844 394.882812 392.980469 388.59375 C 393.949219 387.914062 394.820312 386.949219 395.933594 386.511719 C 407.742188 398.757812 419.214844 411.386719 430.878906 423.824219 C 438.378906 431.90625 446.027344 439.792969 453.191406 448.117188 C 431.21875 436.117188 409.484375 423.582031 387.464844 411.53125 Z M 296.714844 424.792969 C 304.84375 416.757812 313.605469 409.355469 322.074219 401.707031 C 326.09375 404.222656 330.011719 406.835938 333.933594 409.5 C 335.046875 410.175781 336.160156 410.855469 337.078125 411.773438 C 332.046875 411.191406 326.914062 411.191406 321.882812 410.902344 C 320.671875 410.660156 319.753906 411.53125 318.738281 412.066406 C 311.378906 416.371094 304.023438 420.535156 296.714844 424.792969 Z M 569.058594 414.917969 C 561.558594 409.644531 554.105469 404.320312 546.699219 398.949219 C 544.859375 397.691406 543.167969 396.238281 541.132812 395.367188 C 540.164062 394.933594 539.101562 395.367188 538.277344 395.902344 C 535.761719 397.59375 533.582031 399.628906 531.210938 401.464844 C 519.402344 388.0625 507.785156 374.511719 496.074219 361.058594 C 477.777344 340.148438 459.675781 319.050781 441.332031 298.242188 C 427.683594 311.9375 414.324219 325.875 400.726562 339.617188 C 390.269531 350.3125 379.769531 360.863281 369.460938 371.75 C 370.816406 371.074219 371.976562 370.105469 373.234375 369.1875 C 381.414062 363.1875 389.738281 357.378906 398.015625 351.425781 C 412.4375 341.117188 426.714844 330.664062 440.945312 320.164062 C 449.996094 330.519531 459.578125 340.390625 468.292969 351.039062 C 457.304688 344.214844 446.511719 337.003906 435.378906 330.375 C 444.382812 347.070312 453.433594 363.765625 462.433594 380.511719 C 454.304688 374.074219 446.316406 367.394531 438.1875 360.910156 C 432.378906 356.410156 426.765625 351.570312 420.859375 347.167969 C 439.058594 371.171875 456.578125 395.660156 474.488281 419.90625 C 482.472656 412.257812 490.214844 404.371094 498.105469 396.625 C 513.933594 408.097656 529.757812 419.566406 545.585938 431.082031 C 551.054688 434.953125 556.425781 439.019531 561.992188 442.796875 C 560.636719 446.859375 558.703125 450.683594 557.105469 454.699219 C 542.828125 447.441406 528.550781 440.132812 514.222656 432.875 C 506.480469 428.808594 498.636719 425.082031 490.992188 420.871094 C 498.976562 431.953125 507.6875 442.554688 515.53125 453.730469 C 505.753906 447.296875 496.21875 440.375 486.488281 433.84375 C 483.246094 435.972656 480.054688 438.199219 476.859375 440.375 C 472.019531 437.566406 467.179688 434.808594 462.339844 432.003906 C 463.546875 430.648438 464.953125 429.4375 466.210938 428.132812 C 458.613281 422.277344 450.675781 416.902344 442.882812 411.289062 C 427.828125 400.5 412.875 389.609375 397.773438 378.816406 C 393.515625 382.351562 389.351562 385.980469 385.285156 389.609375 C 382.816406 388.882812 380.542969 387.433594 377.976562 386.996094 C 376.863281 386.753906 375.945312 387.578125 375.121094 388.207031 C 371.976562 390.769531 368.925781 393.433594 365.78125 395.949219 C 362.296875 394.253906 359.441406 391.59375 356.003906 389.851562 C 354.648438 389.269531 353.148438 389.851562 352.082031 390.722656 C 347.390625 394.59375 342.886719 398.660156 338.242188 402.578125 C 332.964844 398.851562 327.789062 394.980469 322.464844 391.304688 C 316.945312 395.851562 311.234375 400.207031 305.667969 404.707031 C 299.132812 410.03125 292.40625 415.066406 286.066406 420.582031 C 284.082031 408.097656 283.308594 395.367188 284.664062 382.738281 C 287.324219 355.25 297.875 328.4375 315.492188 307.097656 C 331.03125 287.980469 351.550781 272.882812 374.542969 264.027344 C 393.175781 256.910156 413.261719 253.574219 433.25 254.445312 C 455.078125 255.410156 476.714844 261.316406 495.976562 271.671875 C 512.285156 280.527344 526.902344 292.53125 538.566406 307 C 549.699219 320.695312 558.265625 336.425781 563.542969 353.265625 C 569.785156 373.105469 571.722656 394.304688 569.058594 414.917969 Z M 569.058594 414.917969 " fill-opacity="1" fill-rule="nonzero"/></g><g fill="#000000" fill-opacity="1"><g transform="translate(177.428594, 658.028435)"><g><path d="M 0.390625 -20.421875 L 0.390625 -15.234375 L 9.9375 -15.234375 L 0.671875 0 L 21.125 0 L 21.125 -5.1875 L 12.28125 -5.1875 L 21.453125 -20.21875 L 21.453125 -20.421875 Z M 0.390625 -20.421875 "/></g></g></g><g fill="#000000" fill-opacity="1"><g transform="translate(199.267822, 658.028435)"><g><path d="M 1.703125 -20.421875 L 1.703125 0 L 16.703125 0 L 16.703125 -4.59375 L 8.953125 -4.59375 L 8.953125 -8.046875 L 16.125 -8.046875 L 16.125 -12.640625 L 8.953125 -12.640625 L 8.953125 -15.828125 L 16.5625 -15.828125 L 16.5625 -20.421875 Z M 1.703125 -20.421875 "/></g></g></g><g fill="#000000" fill-opacity="1"><g transform="translate(216.715633, 658.028435)"><g><path d="M 1.703125 -20.421875 L 1.703125 0 L 8.953125 0 L 8.953125 -9.640625 L 17.859375 0 L 24.171875 0 L 24.171875 -20.421875 L 16.921875 -20.421875 L 16.921875 -10.734375 L 7.953125 -20.421875 Z M 1.703125 -20.421875 "/></g></g></g><g fill="#000000" fill-opacity="1"><g transform="translate(242.592622, 658.028435)"><g><path d="M 2.03125 -20.421875 L 2.03125 0 L 9.28125 0 L 9.28125 -20.421875 Z M 2.03125 -20.421875 "/></g></g></g><g fill="#000000" fill-opacity="1"><g transform="translate(253.880651, 658.028435)"><g><path d="M 0.625 -20.421875 L 0.625 -15.234375 L 6.515625 -15.234375 L 6.515625 0 L 13.765625 0 L 13.765625 -15.234375 L 19.65625 -15.234375 L 19.65625 -20.421875 Z M 0.625 -20.421875 "/></g></g></g><g fill="#000000" fill-opacity="1"><g transform="translate(274.15783, 658.028435)"><g><path d="M 1.703125 -20.421875 L 1.703125 0 L 8.953125 0 L 8.953125 -7.6875 L 16.328125 -7.6875 L 16.328125 0 L 23.578125 0 L 23.578125 -20.421875 L 16.328125 -20.421875 L 16.328125 -13.078125 L 8.953125 -13.078125 L 8.953125 -20.421875 Z M 1.703125 -20.421875 "/></g></g></g><g fill="#000000" fill-opacity="1"><g transform="translate(299.445357, 658.028435)"><g/></g></g><g fill="#000000" fill-opacity="1"><g transform="translate(309.436587, 658.028435)"><g><path d="M 1.703125 -20.421875 L 1.703125 0 L 10.671875 0 C 12.9375 0 14.671875 -0.140625 15.796875 -0.46875 C 20.03125 -1.625 22.421875 -6.015625 22.421875 -10.015625 C 22.421875 -12.90625 21.421875 -15.375 19.421875 -17.421875 C 17.421875 -19.453125 14.5625 -20.421875 10.75 -20.421875 Z M 8.953125 -15.53125 L 9.90625 -15.53125 C 12.3125 -15.53125 13.609375 -14.875 14.5 -13.234375 C 14.9375 -12.40625 15.171875 -11.375 15.171875 -10.140625 C 15.171875 -7.484375 14.03125 -5.953125 12.796875 -5.390625 C 12.171875 -5.125 11.3125 -4.953125 10.34375 -4.953125 L 8.953125 -4.953125 Z M 8.953125 -15.53125 "/></g></g></g><g fill="#000000" fill-opacity="1"><g transform="translate(332.631562, 658.028435)"><g><path d="M 1.703125 -20.421875 L 1.703125 0 L 16.703125 0 L 16.703125 -4.59375 L 8.953125 -4.59375 L 8.953125 -8.046875 L 16.125 -8.046875 L 16.125 -12.640625 L 8.953125 -12.640625 L 8.953125 -15.828125 L 16.5625 -15.828125 L 16.5625 -20.421875 Z M 1.703125 -20.421875 "/></g></g></g><g fill="#000000" fill-opacity="1"><g transform="translate(350.079373, 658.028435)"><g><path d="M 1.703125 -20.421875 L 1.703125 0 L 8.953125 0 L 8.953125 -9.640625 L 17.859375 0 L 24.171875 0 L 24.171875 -20.421875 L 16.921875 -20.421875 L 16.921875 -10.734375 L 7.953125 -20.421875 Z M 1.703125 -20.421875 "/></g></g></g><g fill="#000000" fill-opacity="1"><g transform="translate(375.956363, 658.028435)"><g><path d="M 0.625 -20.421875 L 0.625 -15.234375 L 6.515625 -15.234375 L 6.515625 0 L 13.765625 0 L 13.765625 -15.234375 L 19.65625 -15.234375 L 19.65625 -20.421875 Z M 0.625 -20.421875 "/></g></g></g><g fill="#000000" fill-opacity="1"><g transform="translate(396.23353, 658.028435)"><g><path d="M 8.875 -20.421875 L 0.234375 0 L 7.65625 0 L 8.875 -3.15625 L 16.4375 -3.15625 L 17.59375 0 L 25.046875 0 L 16.4375 -20.421875 Z M 12.671875 -13.703125 L 14.90625 -7.390625 L 10.375 -7.390625 Z M 12.671875 -13.703125 "/></g></g></g><g fill="#000000" fill-opacity="1"><g transform="translate(421.521057, 658.028435)"><g><path d="M 1.703125 -20.421875 L 1.703125 0 L 16.53125 0 L 16.53125 -5.1875 L 8.953125 -5.1875 L 8.953125 -20.421875 Z M 1.703125 -20.421875 "/></g></g></g><g fill="#000000" fill-opacity="1"><g transform="translate(438.49729, 658.028435)"><g/></g></g><g fill="#000000" fill-opacity="1"><g transform="translate(448.488531, 658.028435)"><g><path d="M 7.890625 -20.6875 C 3.796875 -20.6875 0.890625 -18.15625 0.890625 -14.34375 C 0.890625 -12.375 1.65625 -10.609375 4.515625 -8.921875 C 7.015625 -7.453125 7.65625 -7.015625 7.65625 -6.21875 C 7.65625 -5.484375 6.953125 -4.953125 5.515625 -4.953125 C 3.765625 -4.953125 2.234375 -5.65625 0.796875 -6.625 L 0.796875 -1.15625 C 2.625 -0.125 4.65625 0.234375 7.015625 0.234375 C 10.46875 0.234375 12.90625 -0.9375 14.03125 -2.953125 C 14.59375 -3.921875 14.859375 -4.921875 14.859375 -5.859375 C 14.859375 -7.890625 13.828125 -9.71875 10.484375 -11.546875 C 8.1875 -12.8125 7.546875 -13.40625 7.546875 -14.203125 C 7.546875 -14.875 8.1875 -15.5 9.21875 -15.5 C 10.546875 -15.5 12.203125 -14.59375 13.96875 -12.90625 L 13.96875 -18.359375 C 12.46875 -19.78125 10.109375 -20.6875 7.890625 -20.6875 Z M 7.890625 -20.6875 "/></g></g></g><g fill="#000000" fill-opacity="1"><g transform="translate(464.10903, 658.028435)"><g><path d="M 11.546875 -20.6875 C 4.21875 -20.6875 0.796875 -15.234375 0.796875 -10.21875 C 0.796875 -4.390625 5.0625 0.234375 11.546875 0.234375 C 18.828125 0.234375 22.3125 -5.15625 22.3125 -10.21875 C 22.3125 -15.96875 18.09375 -20.6875 11.546875 -20.6875 Z M 8.046875 -10.21875 C 8.046875 -12.875 9.375 -14.609375 11.515625 -14.609375 C 13.828125 -14.609375 15.0625 -12.765625 15.0625 -10.21875 C 15.0625 -7.6875 13.765625 -5.828125 11.546875 -5.828125 C 9.34375 -5.828125 8.046875 -7.6875 8.046875 -10.21875 Z M 8.046875 -10.21875 "/></g></g></g><g fill="#000000" fill-opacity="1"><g transform="translate(487.215588, 658.028435)"><g><path d="M 1.703125 -20.421875 L 1.703125 0 L 16.53125 0 L 16.53125 -5.1875 L 8.953125 -5.1875 L 8.953125 -20.421875 Z M 1.703125 -20.421875 "/></g></g></g><g fill="#000000" fill-opacity="1"><g transform="translate(504.191821, 658.028435)"><g><path d="M 1.5 -20.421875 L 1.5 -9.90625 C 1.5 -2.859375 6.015625 0.234375 12.375 0.234375 C 19.328125 0.234375 23.375 -3.125 23.375 -9.953125 L 23.375 -20.421875 L 16.125 -20.421875 L 16.125 -11.046875 C 16.125 -7.71875 15.625 -5.25 12.4375 -5.25 C 8.84375 -5.25 8.75 -8.34375 8.75 -10.78125 L 8.75 -20.421875 Z M 1.5 -20.421875 "/></g></g></g><g fill="#000000" fill-opacity="1"><g transform="translate(529.066744, 658.028435)"><g><path d="M 0.625 -20.421875 L 0.625 -15.234375 L 6.515625 -15.234375 L 6.515625 0 L 13.765625 0 L 13.765625 -15.234375 L 19.65625 -15.234375 L 19.65625 -20.421875 Z M 0.625 -20.421875 "/></g></g></g><g fill="#000000" fill-opacity="1"><g transform="translate(549.343934, 658.028435)"><g><path d="M 2.03125 -20.421875 L 2.03125 0 L 9.28125 0 L 9.28125 -20.421875 Z M 2.03125 -20.421875 "/></g></g></g><g fill="#000000" fill-opacity="1"><g transform="translate(560.631974, 658.028435)"><g><path d="M 11.546875 -20.6875 C 4.21875 -20.6875 0.796875 -15.234375 0.796875 -10.21875 C 0.796875 -4.390625 5.0625 0.234375 11.546875 0.234375 C 18.828125 0.234375 22.3125 -5.15625 22.3125 -10.21875 C 22.3125 -15.96875 18.09375 -20.6875 11.546875 -20.6875 Z M 8.046875 -10.21875 C 8.046875 -12.875 9.375 -14.609375 11.515625 -14.609375 C 13.828125 -14.609375 15.0625 -12.765625 15.0625 -10.21875 C 15.0625 -7.6875 13.765625 -5.828125 11.546875 -5.828125 C 9.34375 -5.828125 8.046875 -7.6875 8.046875 -10.21875 Z M 8.046875 -10.21875 "/></g></g></g><g fill="#000000" fill-opacity="1"><g transform="translate(583.738509, 658.028435)"><g><path d="M 1.703125 -20.421875 L 1.703125 0 L 8.953125 0 L 8.953125 -9.640625 L 17.859375 0 L 24.171875 0 L 24.171875 -20.421875 L 16.921875 -20.421875 L 16.921875 -10.734375 L 7.953125 -20.421875 Z M 1.703125 -20.421875 "/></g></g></g><g fill="#000000" fill-opacity="1"><g transform="translate(609.615523, 658.028435)"><g><path d="M 7.890625 -20.6875 C 3.796875 -20.6875 0.890625 -18.15625 0.890625 -14.34375 C 0.890625 -12.375 1.65625 -10.609375 4.515625 -8.921875 C 7.015625 -7.453125 7.65625 -7.015625 7.65625 -6.21875 C 7.65625 -5.484375 6.953125 -4.953125 5.515625 -4.953125 C 3.765625 -4.953125 2.234375 -5.65625 0.796875 -6.625 L 0.796875 -1.15625 C 2.625 -0.125 4.65625 0.234375 7.015625 0.234375 C 10.46875 0.234375 12.90625 -0.9375 14.03125 -2.953125 C 14.59375 -3.921875 14.859375 -4.921875 14.859375 -5.859375 C 14.859375 -7.890625 13.828125 -9.71875 10.484375 -11.546875 C 8.1875 -12.8125 7.546875 -13.40625 7.546875 -14.203125 C 7.546875 -14.875 8.1875 -15.5 9.21875 -15.5 C 10.546875 -15.5 12.203125 -14.59375 13.96875 -12.90625 L 13.96875 -18.359375 C 12.46875 -19.78125 10.109375 -20.6875 7.890625 -20.6875 Z M 7.890625 -20.6875 "/></g></g></g></svg>