<?xml version="1.0" encoding="UTF-8" standalone="no"?>
<svg
   width="990.46027"
   zoomAndPan="magnify"
   viewBox="0 0 742.8452 616.67866"
   height="822.23822"
   preserveAspectRatio="xMidYMid"
   version="1.0"
   id="svg354"
   xml:space="preserve"
   xmlns="http://www.w3.org/2000/svg"
   xmlns:svg="http://www.w3.org/2000/svg"><defs
     id="defs4" /><path
     style="fill:#ffffff;stroke-width:1.70062"
     d="m 489.94047,615.33726 c -2.58783,-1.54751 -4.84199,-5.54648 -4.84199,-8.58996 0,-3.30364 2.26964,-6.98685 5.37717,-8.72666 l 2.90755,-1.62776 v -22.5364 -22.5364 l -4.22127,-4.18324 -4.22144,-4.18323 -4.8158,0.37909 c -4.80968,0.37859 -4.81937,0.37539 -7.84596,-2.59252 -2.67184,-2.62016 -3.03015,-3.37985 -3.03015,-6.42355 0,-4.37185 1.50776,-7.23795 4.88399,-9.28422 l 2.65806,-1.61092 v -11.96533 -11.9653 l -14.70709,-14.40801 -14.70692,-14.40802 v 15.41809 15.41808 l 1.88548,1.45442 c 3.5553,2.74244 1.38719,8.74308 -3.15907,8.74308 -4.39371,0 -6.37952,-6.03948 -2.87455,-8.74308 l 1.88547,-1.45442 v -16.54384 -16.54384 l -11.313,-11.07553 -11.313,-11.07553 v -3.84179 c 0,-3.42878 -0.24455,-4.0125 -2.27406,-5.42967 -6.59278,-4.6036 -5.72444,-13.66972 1.67085,-17.44296 1.1202,-0.57152 2.82319,-1.03912 3.78455,-1.03912 1.21305,0 4.10886,-2.32323 9.46494,-7.59356 l 7.71723,-7.59353 v -14.42697 -14.42694 l -5.94893,-5.79939 -5.94875,-5.79937 -2.72455,0.88177 -2.72456,0.88178 0.0187,7.89336 0.0187,7.89337 2.96826,3.08347 c 1.63259,1.6959 3.56398,3.19595 4.29201,3.33343 0.72786,0.13741 1.83309,1.14021 2.45586,2.2283 2.49089,4.35192 -2.15383,8.90467 -6.59975,6.46914 -2.69207,-1.47476 -3.16943,-5.34048 -0.94605,-7.66143 l 1.56184,-1.63024 -2.27185,-2.13444 -2.27185,-2.13445 -3.76125,3.63291 c -3.47249,3.35407 -3.76108,3.90468 -3.76108,7.17382 0,2.47307 0.30577,3.54092 1.01442,3.54092 3.13984,0 4.69386,6.11681 2.13155,8.39079 -1.83071,1.62464 -5.62207,1.55677 -7.17728,-0.12857 -2.41521,-2.61703 -0.77973,-8.26227 2.39362,-8.26227 0.57327,0 0.88347,-1.50205 0.88347,-4.27798 0,-4.20542 0.0697,-4.34611 4.14814,-8.29525 l 4.14797,-4.01727 v -7.53385 -7.53383 l -2.42372,-0.82854 -2.42372,-0.82855 -9.6435,9.43584 -9.64351,9.43585 v 21.22771 21.22772 l 2.55483,-0.40656 c 1.96013,-0.31193 2.92574,-0.0429 4.14814,1.15591 4.05308,3.97461 -0.43842,10.39829 -5.47785,7.83441 l -1.97935,-1.00702 v 5.33212 5.33213 l 7.56349,7.38213 c 7.11214,6.94156 7.74783,7.38215 10.65333,7.38215 2.48885,0 3.39324,0.39528 4.64983,2.03241 1.88904,2.46097 1.14298,5.56749 -1.66712,6.94133 -3.85597,1.88523 -8.42178,-2.01173 -6.91385,-5.90114 0.60304,-1.55574 -0.14115,-2.53852 -7.01061,-9.25155 l -7.68525,-7.5109 -5.0743,5.01449 -5.07429,5.01446 v 7.51252 c 0,6.72065 0.14965,7.55934 1.42715,7.95676 0.78501,0.24432 1.85333,1.45281 2.37406,2.68554 2.15077,5.09185 -5.1294,8.71441 -8.53199,4.2454 -1.88394,-2.47469 -1.2678,-5.50671 1.3576,-6.67976 1.78361,-0.79698 1.86473,-1.1242 1.86473,-7.53262 v -6.69944 l -4.55612,4.41446 c -3.63693,3.52393 -4.47007,4.75322 -4.12977,6.09373 0.43467,1.71291 -0.67957,4.54166 -2.17441,5.52052 -1.83054,1.19859 -4.88842,0.54118 -6.43173,-1.38272 -1.96761,-2.45306 -1.95808,-3.27622 0.068,-5.80145 1.44331,-1.79935 1.98989,-1.98455 4.75832,-1.61244 l 3.12777,0.42041 9.9486,-9.77614 9.94877,-9.77614 v -7.01085 -7.01085 l -19.16831,18.78628 c -17.64032,17.2888 -19.11322,18.92821 -18.47804,20.56665 1.0855,2.7997 0.81136,5.54803 -0.81408,8.16234 -5.76764,9.2765 -18.84775,5.62014 -18.85643,-5.27099 -0.002,-3.19753 0.32465,-3.92121 2.9254,-6.4715 2.56759,-2.518 3.3628,-2.87141 6.4603,-2.87141 1.94261,0 4.23453,0.36864 5.09317,0.81921 1.41406,0.74219 3.43014,-1.01292 21.4451,-18.6697 l 19.88444,-19.48891 v -11.09232 -11.09233 l -15.03871,14.73369 c -14.54332,14.24837 -15.03497,14.8268 -14.92375,17.55989 0.12755,3.15612 -1.03822,4.69203 -4.12739,5.4344 -1.58446,0.38075 -2.46283,0.0709 -3.95954,-1.39692 -2.4397,-2.39251 -2.43851,-4.47396 0,-6.86911 1.55198,-1.52201 2.39889,-1.80324 4.34966,-1.44438 2.27339,0.41827 2.88374,-0.009 9.93721,-6.95159 l 7.51485,-7.39721 h -3.80343 c -3.36773,0 -3.99917,0.25919 -5.5088,2.26164 -1.3639,1.8091 -2.16965,2.21608 -4.02689,2.03391 -3.26552,-0.32035 -5.66543,-3.56016 -4.67754,-6.3148 1.27835,-3.56455 7.92078,-4.25682 8.99506,-0.93744 0.41546,1.2833 1.14265,1.47747 5.53329,1.47747 h 5.05491 l 7.1351,-7.02621 7.1351,-7.02621 h -6.0501 -6.05028 l -3.331,3.32821 c -4.51632,4.51273 -7.47165,4.60622 -11.69003,0.3698 -2.49225,-2.5028 -3.42316,-2.95841 -6.045,-2.95841 -2.56878,0 -3.38508,0.37961 -4.77176,2.21881 -2.92982,3.88611 -9.16972,2.12461 -9.16972,-2.58861 0,-4.43241 6.10776,-6.45907 8.91565,-2.95841 1.18091,1.47211 2.16012,1.84902 4.80407,1.84902 2.8805,0 3.71142,0.39222 6.26676,2.9584 4.21838,4.23642 7.17371,4.14292 11.69003,-0.3698 l 3.331,-3.32822 h 6.25367 6.25367 v -9.78979 -9.78982 l 9.76578,-9.62473 9.76562,-9.62473 -0.82888,-2.98822 c -1.22036,-4.39989 -0.26955,-7.95887 2.8419,-10.63791 1.45351,-1.25142 3.13984,-2.27531 3.74764,-2.27531 0.94894,0 1.10506,-3.55253 1.10506,-25.14645 V 294.2656 h -5.27939 -5.27939 v 26.06419 26.06419 l -14.69637,14.42899 -14.69638,14.429 0.85949,2.73923 c 0.70814,2.2573 0.63093,3.32562 -0.43876,6.07224 -2.53511,6.50956 -10.62068,8.5806 -15.8664,4.06399 -8.87636,-7.64265 -0.14795,-21.57621 10.52766,-16.80618 1.89874,0.84836 2.41232,0.43587 15.87388,-12.75061 L 408.15427,344.9433 V 319.60446 294.2656 h -4.89267 -4.89284 l -0.19812,26.44075 -0.19812,26.44076 -17.34661,0.19635 -17.34679,0.19637 -17.91224,17.5483 -17.91241,17.5483 v 25.2474 25.24741 l 2.28223,0.927 c 3.46806,1.40872 5.54995,4.78439 5.54995,8.9992 0,6.17264 -5.12038,10.68258 -11.26997,9.92642 l -3.06077,-0.37636 -10.82067,10.63003 -10.82051,10.63002 0.96867,2.29338 c 3.15924,7.47927 -4.51071,15.92072 -12.20361,13.43104 -8.34662,-2.70133 -9.87649,-13.50959 -2.57626,-18.20033 2.09175,-1.34399 5.75284,-1.69505 9.14301,-0.87675 2.14482,0.51767 2.80721,0.0102 12.71414,-9.72808 10.23856,-10.0648 10.42835,-10.3101 9.31308,-12.03386 -3.22539,-4.98522 -1.46831,-12.10428 3.56891,-14.45987 l 2.68663,-1.25636 v -8.17973 -8.17973 l -27.52853,26.98784 -27.52837,26.98786 v 4.15677 c 0,4.62887 -1.52035,7.25735 -5.30864,9.17844 -6.55288,3.32302 -15.05494,-1.69747 -15.05494,-8.89 0,-7.4564 9.05734,-12.45546 15.54165,-8.57797 l 2.34311,1.4011 28.76778,-28.21799 28.76794,-28.21798 v -13.2997 -13.29971 l -10.93597,10.70509 -10.93598,10.7051 v 5.93628 5.93629 l -10.51337,10.2901 c -9.38978,9.19023 -10.46967,10.50507 -10.10319,12.30136 0.29268,1.4351 -0.0442,2.4571 -1.17682,3.56752 -4.35732,4.27297 -11.45279,-0.9425 -7.81416,-5.74374 1.57868,-2.08322 5.11137,-2.96536 6.48411,-1.61919 0.60014,0.58863 3.78319,-2.08229 11.59819,-9.73233 l 10.77102,-10.54361 v -5.74148 -5.74149 h -3.60615 c -3.39885,0 -3.85819,0.24989 -7.99426,4.3486 -3.83522,3.80065 -4.28402,4.53945 -3.56143,5.86324 2.48971,4.56214 -4.42619,9.03877 -8.21856,5.3198 -3.21535,-3.15313 -0.77463,-8.13561 3.98539,-8.13561 2.00299,0 3.26076,-0.77837 6.57356,-4.06782 l 4.09661,-4.0678 h 4.93774 4.93791 l 10.73768,-10.54858 c 5.90573,-5.80172 10.73768,-11.05216 10.73768,-11.66765 0,-0.61548 8.75426,-9.68068 19.45402,-20.14489 l 19.45419,-19.0258 h 15.99344 15.99343 V 318.67245 294.2656 h -6.03361 -6.03361 v 19.96925 19.96924 h -34.31621 -34.31637 v 14.61132 14.61133 l -24.88868,24.39846 -24.88884,24.39843 v 10.7366 10.73658 l -12.73036,12.46774 c -12.57819,12.31864 -12.71804,12.491 -11.69481,14.41405 2.2552,4.23848 0.49541,10.31151 -3.78496,13.06182 -2.43606,1.56526 -8.26774,1.56526 -10.70381,0 -9.28886,-5.96847 -3.89626,-20.07197 7.1091,-18.59273 l 3.48749,0.46876 12.2732,-12.01898 12.27321,-12.01898 v -8.5054 -8.50543 l -12.26416,12.01012 -12.26416,12.01012 h -9.49087 c -11.06217,0 -12.28654,0.57697 -11.4863,5.41277 0.5803,3.50682 -1.19909,5.68125 -4.64912,5.68125 -4.53415,0 -6.55974,-5.0311 -3.30901,-8.21887 1.20601,-1.18268 2.19599,-1.46656 4.0727,-1.16792 1.96338,0.31246 2.83637,0.0219 4.19469,-1.39593 1.63138,-1.70291 2.16168,-1.79051 10.83948,-1.79051 h 9.12419 l 6.37743,-6.28661 6.37744,-6.28662 h -5.45134 c -4.06363,0 -5.45132,0.25324 -5.45132,0.99478 0,1.57062 -2.77988,3.62773 -4.90233,3.62773 -4.3539,0 -6.50385,-5.2708 -3.39392,-8.32051 2.05833,-2.01846 4.98593,-1.86595 7.09888,0.3698 1.58018,1.67203 2.31848,1.84901 7.71346,1.84901 h 5.96603 l 5.4491,-5.37951 c 2.99701,-2.95873 5.44913,-5.6213 5.44913,-5.91681 0,-0.29552 -7.36161,-0.53731 -16.35911,-0.53731 h -16.35908 l -7.2927,7.02621 c -6.98199,6.72685 -7.43408,7.02623 -10.61085,7.02623 -2.50133,0 -3.55003,0.36412 -4.26016,1.47919 -1.22509,1.92369 -5.49559,1.99858 -7.22309,0.1267 -2.87232,-3.11243 -0.67523,-8.26227 3.52497,-8.26227 2.1928,0 5.03149,2.29498 5.03149,4.0678 0,0.78994 0.81871,1.1094 2.84317,1.1094 2.58784,0 3.48388,-0.63095 9.97831,-7.02621 l 7.13515,-7.02621 9.06535,-0.0335 9.06534,-0.0335 -4.10321,-3.66443 -4.1032,-3.66444 h -11.80674 c -13.3299,0 -14.30314,0.36525 -14.30314,5.36754 0,4.5586 -4.00966,6.94497 -7.44414,4.43042 -2.77824,-2.0341 -2.74549,-5.75216 0.0689,-7.81267 1.76402,-1.29154 2.33502,-1.37624 4.06539,-0.60309 1.74431,0.77935 2.23211,0.69774 3.65287,-0.61115 1.50447,-1.386 2.59727,-1.51064 13.24582,-1.51064 h 11.60607 l -2.93269,-2.94521 c -2.65121,-2.6625 -3.20086,-2.90316 -5.7265,-2.5071 -2.21881,0.34793 -3.12134,0.11683 -4.38531,-1.12261 -3.29307,-3.22932 -1.20386,-8.21712 3.44186,-8.21712 2.93404,0 4.77128,2.03392 4.77128,5.28198 0,1.89776 0.59632,3.13714 2.26262,4.70266 l 2.26262,2.12575 v -8.0611 -8.06109 l -3.09334,-3.09087 c -2.79226,-2.79001 -3.37103,-3.05434 -5.94608,-2.71563 -5.20922,0.68518 -8.0049,-4.3892 -4.2991,-7.8032 0.96006,-0.88447 2.63239,-1.60814 3.71628,-1.60814 2.65777,0 5.30728,3.2943 4.72836,5.87906 -0.34946,1.5603 0.19535,2.50766 2.98743,5.19484 l 3.41486,3.28652 v 9.2973 9.2973 l 4.73407,4.60113 4.73407,4.60115 h 7.53007 7.53003 l 12.80479,-12.57324 12.80496,-12.57322 h -9.6078 c -9.46001,0 -9.60779,0.0255 -9.61069,1.6641 0,4.29089 -5.05184,8.69032 -9.96458,8.69032 -10.34908,0 -14.26755,-14.21934 -5.18744,-18.82394 4.55891,-2.31185 11.49128,-0.65687 13.62487,3.25273 0.78211,1.43316 1.49773,1.51878 12.69237,1.51878 h 11.86349 l 9.22771,-9.07081 9.22771,-9.07079 V 349.73785 336.8181 l -8.1201,7.9381 -8.11992,7.93811 h -32.42784 -32.43795 l -1.48889,3.134 c -4.62094,9.72674 -19.19829,6.82649 -19.34854,-3.84951 -0.14404,-10.24072 13.72497,-14.01945 18.87462,-5.14253 l 1.24764,2.15069 17.32648,0.005 17.32641,0.005 -5.23892,-5.17722 -5.23898,-5.17721 h -6.02531 -6.02532 l -3.14787,-3.02958 c -2.70452,-2.60291 -3.36543,-2.9154 -4.69273,-2.21881 -2.31892,1.21703 -4.48603,0.98222 -6.16927,-0.66843 -3.10991,-3.04969 -0.95998,-8.32051 3.39392,-8.32051 2.74096,0 4.90233,2.18541 4.90233,4.95685 0,1.71541 0.74885,3.04094 2.86006,5.06258 2.81496,2.69551 2.95502,2.7387 8.87961,2.7387 h 6.01951 l 5.99826,5.91682 5.99826,5.91681 h 9.02074 9.02057 l -2.1676,-2.21881 c -1.65232,-1.69121 -2.83884,-2.21881 -4.98961,-2.21881 -4.74948,0 -7.21707,-3.89509 -4.62482,-7.29999 3.35106,-4.40128 10.67629,-0.75664 8.71582,4.33648 -0.78381,2.03671 -0.64351,2.35602 2.10553,4.79162 2.58494,2.29 3.43168,2.60951 6.91573,2.60951 h 3.97025 l 8.2706,-8.13562 8.27044,-8.13563 h -10.93802 -10.93785 l -7.13527,-7.02621 -7.1351,-7.02621 h -3.92366 c -3.25736,0 -4.00461,0.25043 -4.40102,1.47482 -1.26475,3.90798 -6.78687,5.16981 -9.00904,2.05862 -1.57503,-2.20512 -1.47888,-3.69357 0.38908,-6.02231 1.86976,-2.331 4.31145,-2.49623 6.9389,-0.46954 1.37614,1.06149 3.05958,1.47921 5.96168,1.47921 h 4.04406 l 7.1351,7.02622 7.13527,7.02621 h 11.47184 c 6.8346,0 11.66044,-0.29899 11.93815,-0.7396 0.29982,-0.47551 12.7036,-0.7396 34.73796,-0.7396 h 34.27182 v -17.75024 -17.75045 h -6.78784 -6.78784 v -5.54699 -5.54702 H 346.8689 329.31703 l -6.37748,6.28661 c -3.50769,3.45764 -6.73495,6.28662 -7.17201,6.28662 -0.43688,0 -2.81145,1.99885 -5.27666,4.44188 -4.00716,3.97092 -4.45783,4.72212 -4.25018,7.0847 0.42787,4.86946 -4.73417,7.39382 -8.19,4.00505 -3.3514,-3.28659 -0.58416,-8.53702 4.21022,-7.98815 2.25467,0.25812 3.01638,-0.16666 6.49958,-3.62555 l 3.94577,-3.91793 H 288.20618 263.7061 l -7.51366,7.39601 -7.51374,7.39601 H 222.25075 195.8228 l -6.12795,6.10172 c -5.06331,5.04163 -6.0196,6.3587 -5.50435,7.58092 0.34298,0.81355 0.6462,2.81048 0.6738,4.4376 0.15051,8.87025 -10.61954,13.17392 -17.08975,6.82899 -7.96997,-7.81565 0.66208,-20.11071 11.32748,-16.13425 1.64361,0.6128 2.51519,-0.003 8.8961,-6.28661 l 7.07396,-6.96598 h 26.05384 26.05381 l 5.62256,-5.55074 5.62254,-5.55072 -9.40112,-9.2413 -9.40114,-9.24129 h -44.14035 -44.14035 l -13.08219,12.84461 c -11.79364,11.57949 -12.99999,12.99522 -12.24774,14.37362 1.29092,2.36538 0.98345,6.92453 -0.64343,9.54103 -3.94488,6.34455 -14.27321,6.0826 -17.71772,-0.44936 -2.54477,-4.82578 -0.62234,-11.35149 4.04071,-13.71616 2.52785,-1.28189 7.02454,-1.5061 9.03581,-0.45054 1.09525,0.57481 3.65707,-1.59598 14.83811,-12.57323 L 149.0797,272.8182 h 44.86533 44.86532 l -5.99824,-5.91681 -5.99825,-5.91681 h -8.85307 c -8.04695,0 -8.92571,0.13315 -9.65107,1.46225 -2.57667,4.72134 -9.05971,2.87329 -9.05971,-2.58255 0,-1.73864 0.5076,-2.8425 1.67623,-3.64519 2.46562,-1.69354 4.20095,-1.41855 6.73605,1.06748 2.2534,2.20976 2.29847,2.21886 11.0665,2.23361 l 8.80388,0.0153 16.96961,16.21935 16.96955,16.21934 26.83707,0.0371 c 14.76049,0.0204 27.07516,-0.19626 27.36596,-0.48143 0.29081,-0.2852 -3.6354,-4.61185 -8.72484,-9.61482 l -9.25372,-9.0963 h -7.60005 c -7.56995,0 -7.60668,0.008 -9.27295,2.21879 -2.92982,3.88613 -9.16971,2.12461 -9.16971,-2.58861 0,-4.7132 6.23989,-6.47472 9.16971,-2.58859 l 1.6729,2.21879 h 7.95497 7.95496 l 9.24659,9.0459 9.24675,9.04589 5.86491,-5.71769 5.86509,-5.71769 h 17.89557 17.89574 v -5.91679 -5.91682 h -23.96456 -23.96608 l -5.23909,-5.17721 -5.23892,-5.17722 h -32.08805 -32.08804 l -7.51375,-7.39601 -7.51374,-7.39601 h -20.39182 -20.39182 l -7.51375,7.39601 -7.51374,7.39601 h -22.65798 -22.65797 l -5.99824,5.91681 -5.99826,5.91682 H 93.669992 73.654982 l -9.622141,9.45685 -9.62215,9.45683 0.86944,2.44577 c 1.21675,3.4228 -0.15935,7.48907 -3.510856,10.37483 -2.224235,1.91508 -3.280623,2.28739 -6.49016,2.28739 -3.433083,0 -4.132818,-0.29352 -6.699029,-2.81004 -3.65583,-3.58505 -4.456224,-7.10781 -2.502778,-11.01557 2.572826,-5.14679 8.527343,-7.4756 13.468906,-5.26767 1.887173,0.8432 2.347053,0.49758 12.301057,-9.24502 L 72.187862,263.9435 h 20.38212 20.382108 l 3.71431,-3.69801 3.71432,-3.69802 h -9.05362 -9.05361 l -3.271388,-3.26875 c -2.93181,-2.92947 -3.45926,-3.18485 -5.08115,-2.46016 -4.27493,1.91006 -8.25586,-4.91789 -4.82747,-8.27991 2.00014,-1.9614 4.58557,-1.93749 6.77486,0.0626 1.3984,1.27757 1.66155,2.12538 1.35514,4.36567 -0.33649,2.46006 -0.0604,3.08655 2.39819,5.44074 l 2.778458,2.66057 h 9.86906 c 7.85241,0 10.06091,-0.2267 10.80796,-1.1094 0.76342,-0.90206 3.20787,-1.10941 13.07876,-1.10941 h 12.13986 l -4.47801,-4.43761 -4.47801,-4.43762 h -6.90764 c -4.99981,0 -7.14962,-0.28589 -7.78371,-1.03513 -0.60151,-0.71075 -1.81752,-0.9113 -3.8803,-0.63999 -3.81827,0.50223 -5.9872,-1.19466 -5.9872,-4.68417 0,-4.28982 5.20511,-6.28682 8.34944,-3.20335 1.05891,1.0384 1.49481,2.29182 1.35408,3.89356 -0.33961,3.86558 0.27159,4.18989 7.89647,4.18989 h 6.9521 l 5.23898,5.17722 5.23898,5.1772 h 9.46442 9.46443 l 6.37745,-6.28662 6.37742,-6.28661 h -9.80687 -9.80688 l -5.61879,-5.547 c -5.01433,-4.9503 -5.92506,-5.54701 -8.46591,-5.54701 -1.56593,0 -2.84716,0.33281 -2.84716,0.73959 0,1.41376 -3.02815,3.69801 -4.90233,3.69801 -4.59924,0 -6.58012,-5.99445 -2.91509,-8.82154 2.66213,-2.05349 3.74999,-1.93734 6.42505,0.68593 1.5707,1.54028 3.00022,2.21879 4.67465,2.21879 1.99938,0 3.37327,0.94898 8.03079,5.54702 l 5.61879,5.54701 10.57774,-0.0119 c 5.81775,-0.007 11.00087,-0.27482 11.51803,-0.59686 0.67648,-0.42126 0.18711,-1.29992 -1.74436,-3.13198 -2.2618,-2.14536 -3.22661,-2.54645 -6.12539,-2.54645 -2.83396,0 -3.7042,-0.34301 -4.93453,-1.94502 -2.54208,-3.31001 -0.15985,-7.3 4.35843,-7.3 3.19518,0 5.30209,2.63244 4.52788,5.65734 -0.42757,1.67058 0.0429,2.5147 3.09388,5.55239 l 3.59811,3.58231 h 21.16021 21.16023 l 7.51374,7.39601 7.51375,7.39601 h 32.08811 32.08805 l 5.23892,5.17721 5.23891,5.17722 h 22.83501 22.83484 v -4.43762 -4.4376 h -17.56361 -17.56361 l -3.71432,-3.698 c -2.85227,-2.83978 -4.25034,-3.69803 -6.02409,-3.69803 -1.8722,0 -3.37436,-1.05093 -7.9286,-5.54699 l -5.61884,-5.54702 h -27.56085 -27.56073 l -7.8922,-7.76583 -7.89219,-7.7658 h -22.66322 -22.66321 l -4.47801,-4.43761 -4.47801,-4.43762 h -20.90195 c -19.7477,0 -20.92665,0.0764 -21.34914,1.38167 -1.13545,3.5082 -7.16081,6.20447 -11.63069,5.2046 -2.66692,-0.59658 -2.86338,-0.48186 -8.40398,4.90687 l -5.67322,5.51771 H 98.537512 84.212982 l -9.40491,9.245 -9.404931,9.24502 H 48.402006 31.400854 l -5.099057,5.03896 -5.099073,5.03896 1.155075,2.17216 c 4.619993,8.68805 -5.858671,18.06259 -14.4487496,12.92632 -6.561127,-3.92309 -6.19495,-14.00079 0.63455,-17.46409 1.7525176,-0.88871 3.5287086,-1.124 6.3382606,-0.83964 l 3.903439,0.39507 5.933209,-5.85267 5.933208,-5.85267 h 16.624347 16.624328 l 7.513741,-7.39601 7.51375,-7.39602 H 66.839281 54.750671 l -2.953982,-2.96659 -2.954003,-2.96659 -4.948586,4.8156 -4.948603,4.8156 -7.900208,0.005 -7.900225,0.005 -1.28478,2.21413 c -2.48897,4.28938 -8.896973,2.32903 -8.896973,-2.72178 0,-2.68986 2.029123,-4.6789 4.773168,-4.6789 1.978649,0 5.031491,2.24374 5.031491,3.698 0,0.44378 2.941299,0.73215 7.353494,0.72098 l 7.353477,-0.0185 5.226688,-4.81942 5.226671,-4.81943 -4.827775,-4.77677 -4.827791,-4.77677 H 24.628545 10.984356 l -1.7051216,2.26164 c -1.363927,1.8091 -2.169695,2.21609 -4.026835,2.03391 -3.265641,-0.32033 -5.66548095,-3.56014 -4.67759295,-6.3148 1.27833495,-3.56455 7.92080195,-4.25681 8.99513195,-0.93744 0.4555596,1.40753 1.1460606,1.47749 14.5815666,1.47749 h 14.103372 l 8.270517,8.13561 8.270537,8.13562 h 12.97836 c 7.838711,0 13.162981,-0.29289 13.444501,-0.73959 0.2846,-0.45157 6.11106,-0.73962 14.96029,-0.73962 h 14.494148 l 5.14686,-5.08618 c 4.6027,-4.54843 5.05626,-5.2522 4.28991,-6.65641 -0.76576,-1.40311 -1.51023,-1.57023 -6.9955,-1.57023 h -6.13854 l -5.44471,-5.1772 -5.444688,-5.17722 H 81.094902 66.103271 l -6.75639,-6.65641 -6.756396,-6.65641 H 36.567289 20.544092 l -1.073462,2.03565 c -3.537824,6.70893 -11.8985746,7.69078 -16.9972916,1.9961 -4.41665,-4.93289 -2.72222495,-12.25504 3.521906,-15.21923 5.2029136,-2.46993 10.6759516,-0.59445 13.4132286,4.59637 l 1.135619,2.15349 h 16.399475 16.399457 l 7.135157,7.02622 7.13515,7.02622 h 12.822211 12.82224 l -7.51375,-7.39603 -7.51374,-7.39601 h -5.68416 -5.684171 l -7.8922,-7.76581 -7.892177,-7.76582 h -9.164513 c -8.492992,0 -9.193084,0.10713 -9.554227,1.46139 -0.580028,2.17507 -3.848067,3.4207 -6.208061,2.36623 -4.16865,-1.8626 -4.165657,-7.44757 0.0051,-9.00249 2.311051,-0.86164 5.430625,0.33393 6.076247,2.3287 0.395529,1.2221 1.335425,1.36697 8.868198,1.36697 h 8.425783 l -4.149978,-4.06964 c -4.025016,-3.94708 -4.221216,-4.04326 -6.514971,-3.19423 -1.979721,0.73279 -2.682602,0.67132 -4.314648,-0.37733 -2.537182,-1.63025 -3.242189,-4.42182 -1.699731,-6.73032 1.504636,-2.25191 3.491142,-2.88614 6.050772,-1.93182 2.133762,0.79555 3.828034,3.99274 3.100765,5.85129 -0.301008,0.76921 3.573775,5.06848 12.216711,13.5551 l 12.65754,12.42858 h 5.677711 5.67771 l 8.27053,8.13561 c 4.54879,4.47459 8.70056,8.13563 9.22615,8.13563 1.25941,0 1.3242,-12.01453 0.0753,-13.97552 -0.69462,-1.09074 -1.4934,-1.30155 -3.78793,-0.99976 -3.68247,0.48437 -5.89069,-1.24909 -5.89069,-4.62416 0,-4.44638 5.13044,-6.43273 8.38117,-3.24496 1.21238,1.18891 1.496,2.15049 1.1863,4.02202 -0.27072,1.63591 -0.0466,2.75287 0.66929,3.3355 0.79628,0.64806 1.07632,2.73377 1.07632,8.01634 v 7.14039 l 5.109798,4.97248 5.10981,4.97248 h 5.74441 c 5.54936,0 5.761,-0.065 6.23392,-1.91269 0.26924,-1.05199 1.27844,-2.68635 2.24267,-3.63191 l 1.75315,-1.7192 -5.17773,-5.03858 c -4.48454,-4.364 -5.17774,-5.39395 -5.17774,-7.69284 0,-2.09155 -0.47966,-3.00201 -2.26262,-4.29468 -3.67073,-2.66136 -2.81537,-7.27663 1.60351,-8.65196 2.32246,-0.72285 5.5052,1.84338 5.79367,4.67142 0.18578,1.82117 -0.22924,2.61134 -2.07405,3.94886 -3.70829,2.68857 -3.15005,4.68035 2.98506,10.65056 5.23468,5.09399 5.33505,5.14922 9.37214,5.15737 4.78061,0.0102 7.52789,1.6271 9.84814,5.79808 l 1.5084,2.71158 20.99445,0.002 20.99445,0.002 4.71256,4.4376 4.71256,4.43762 h 22.57554 22.57555 l 7.8922,7.76581 7.8922,7.76582 h 27.18244 27.18264 l 5.99824,5.9168 c 4.89267,4.82633 6.42373,5.91682 8.30682,5.91682 1.77238,0 3.17148,0.85906 6.02307,3.698 l 3.71431,3.69802 h 16.80939 16.80939 v -5.91681 -5.91682 h -19.8057 -19.8057 l -13.56003,-13.31282 -13.56003,-13.31284 h -21.51499 -21.51491 l -8.56409,-8.42216 -8.56409,-8.42218 -2.65337,1.76577 c -4.81281,3.20283 -12.48597,1.61024 -14.64657,-3.03996 l -0.8599,-1.85071 H 195.58689 171.80035 L 155.14789,175.9306 138.49545,159.65937 H 104.19096 69.886491 l -10.85375,-10.66264 c -9.899317,-9.72498 -11.013663,-10.60299 -12.672273,-9.98461 -2.8579,1.06553 -5.659681,0.7973 -8.326484,-0.7972 -9.459655,-5.65596 -5.731107,-18.4829 5.37505,-18.49127 3.260657,-0.002 3.998639,0.31834 6.599288,2.86864 2.567708,2.51798 2.928085,3.29771 2.928085,6.33523 0,1.90511 -0.375138,4.15122 -0.833641,4.99134 -0.748237,1.37104 0.197152,2.54043 9.228525,11.41521 l 10.062171,9.88768 h 34.333208 34.33321 l 16.57964,16.27125 16.57964,16.27123 h 22.82109 c 18.74226,0 22.82112,-0.17984 22.82112,-1.0062 0,-0.5534 0.81104,-2.17818 1.8023,-3.61061 l 1.80231,-2.60441 -6.16273,-6.012 -6.1627,-6.01199 -3.08674,3.1511 c -2.67903,2.73488 -3.04122,3.49497 -2.74224,5.75468 0.26082,1.9713 -0.0309,2.93674 -1.20121,3.97535 -3.37298,2.99341 -8.38352,0.7712 -8.38352,-3.71812 0,-2.90314 2.69846,-5.08334 5.61498,-4.53659 1.40019,0.26247 2.52042,-0.33698 4.6769,-2.50266 l 2.83571,-2.8478 h -8.99723 -8.99722 l -5.48773,5.34556 -5.48772,5.34554 -7.00196,-6.83783 c -6.60736,-6.45249 -7.14037,-6.81069 -9.45819,-6.3561 -4.66116,0.91418 -7.88293,-4.22758 -4.84211,-7.72777 3.12323,-3.59506 8.4848,-1.64334 8.4848,3.08864 0,1.98716 1.02987,3.3719 6.41458,8.62493 l 6.41458,6.2577 3.94674,-3.87033 3.94675,-3.87034 -2.63073,-0.10748 c -1.4469,-0.0592 -3.70994,-0.0357 -5.02896,0.0519 -6.44795,0.42866 -7.5609,-7.99014 -1.30275,-9.85449 2.52534,-0.75233 5.58649,2.07312 5.58649,5.15635 v 2.53494 h 11.85036 11.85036 l -3.71431,-3.69801 -3.71432,-3.69802 h -8.34821 -8.34821 l -4.478,-4.4376 -4.47801,-4.4376 h -31.04247 c -26.13963,0 -31.18495,-0.1687 -31.94614,-1.06812 -0.49718,-0.58747 -2.11713,-1.16989 -3.5999,-1.29431 -6.92943,-0.58137 -6.80501,-9.4712 0.13265,-9.4712 2.9746,0 4.2791,1.34233 4.88923,5.03106 l 0.45235,2.73475 10.54703,0.17543 10.54701,0.17542 -8.47542,-8.12613 -8.47543,-8.12616 H 96.164982 75.267692 l -2.14265,-2.01305 c -1.59411,-1.49768 -2.77127,-1.95992 -4.598091,-1.80559 -4.46092,0.37689 -6.92705,-4.73559 -3.87803,-8.03947 3.16418,-3.42868 9.179321,-0.49791 8.418201,4.10161 -0.31193,1.88496 -0.0235,2.78042 1.28355,3.98454 1.47884,1.3624 2.60514,1.55317 9.1696,1.55317 h 7.48368 l -10.88789,-10.69617 c -10.00621,-9.83002 -11.098941,-10.68838 -13.494171,-10.60007 -4.78965,0.17657 -7.09322,-4.9812 -3.64393,-8.158907 2.074,-1.91069 4.07544,-2.04167 6.43482,-0.42109 1.384351,0.95087 1.685721,1.76368 1.514771,4.085457 -0.20881,2.83603 0.0376,3.14488 11.44054,14.3446 l 11.65394,11.44618 h 10.551328 10.55133 l -6.20552,-6.11716 c -5.85769,-5.77427 -6.20555,-6.2969 -6.20555,-9.32349 0,-2.53915 -0.39233,-3.50895 -1.8855,-4.66074 -2.308688,-1.78085 -2.571638,-5.68609 -0.50628,-7.519047 3.04892,-2.7058 8.42543,-0.39767 8.42543,3.617007 0,1.03543 -0.84849,2.71467 -1.88552,3.73162 -1.30524,1.27997 -1.88551,2.65956 -1.88551,4.48277 0,2.42239 1.24908,3.90353 15.56483,18.45642 l 15.56483,15.82265 h 20.09709 20.09708 l 4.0966,4.06782 4.09659,4.0678 h 7.91312 7.91312 l 2.86006,2.7387 2.86006,2.73871 v -3.28445 c 0,-3.24374 -0.13775,-3.4198 -11.11509,-14.20253 l -11.11508,-10.9181 h -20.00099 -20.00099 l -20.73546,-20.37798 -20.73548,-20.377977 -3.141798,0.44471 c -3.98837,0.56452 -7.5646,-0.8558 -10.36119,-4.11501 -1.87699,-2.18749 -2.08144,-2.92018 -1.78687,-6.40355 0.39432,-4.66292 3.05544,-7.93844 7.37639,-9.07941 8.474788,-2.23784 15.649158,6.53553 11.609208,14.19665 l -1.20657,2.28809 20.24499,19.863237 20.24501,19.86323 h 17.54048 c 9.64727,0 17.54049,-0.2562 17.54049,-0.56931 0,-0.31312 -3.14575,-3.64133 -6.99055,-7.39601 l -6.99056,-6.82671 h -8.68098 -8.68096 l -4.78223,-4.73171 c -4.08716,-4.04396 -5.1545,-4.72133 -7.34352,-4.66049 -1.45994,0.0406 -3.0967,-0.45387 -3.80647,-1.1499 -1.84363,-1.807937 -1.59366,-5.682947 0.47245,-7.323597 2.35214,-1.86775 4.28213,-1.7109 6.57145,0.53408 1.56026,1.53006 1.84372,2.34807 1.46209,4.21933 -0.42643,2.090797 -0.044,2.746867 3.85167,6.607377 l 4.32512,4.2861 h 8.28159 8.28159 l 8.7815,8.50542 c 4.82983,4.67798 9.26313,8.50542 9.85177,8.50542 0.58865,0 6.41171,5.2457 12.94013,11.65712 l 11.86989,11.65714 v 6.20383 6.20383 l 8.06425,8.0251 c 7.26963,7.23433 8.32978,8.02508 10.75918,8.02508 5.72646,0 10.59053,4.71756 10.59053,10.27155 0,2.22833 1.00324,3.52595 8.44307,10.92065 l 8.44308,8.39186 h 19.63536 19.6353 l -6.75637,-6.65641 -6.75638,-6.65642 H 271.66345 261.4584 L 247.70176,181.6552 233.94518,168.15017 v -4.05022 -4.05024 l -9.55997,-9.39573 c -8.56369,-8.41654 -9.77679,-9.35323 -11.64019,-8.98776 -1.57531,0.30896 -2.54993,-0.0527 -4.01569,-1.49005 -2.45037,-2.40292 -2.45401,-4.48245 -0.0119,-6.87713 1.49677,-1.46777 2.37517,-1.77767 3.95958,-1.39691 3.04087,0.73076 4.19912,2.23977 4.25155,5.53899 0.0444,2.7942 0.60991,3.52094 9.66327,12.41844 l 9.61612,9.45056 v 4.06569 4.06568 l 12.82146,12.5569 12.8215,12.55692 v -5.93003 -5.93001 l -4.90235,-4.76468 c -4.63788,-4.50766 -4.90233,-4.9507 -4.90233,-8.21289 0,-2.79943 -0.27735,-3.51934 -1.47406,-3.82623 -0.81073,-0.2079 -1.70797,-1.29192 -1.99386,-2.40894 -1.27593,-4.98527 3.20418,-8.58023 7.12855,-5.72014 2.81765,2.05343 3.06117,5.47753 0.52877,7.431 -1.45848,1.12502 -1.92678,2.16503 -1.92678,4.27902 0,2.43342 0.63073,3.43342 4.90236,7.77235 l 4.90237,4.97961 v 6.76698 6.76697 l 3.95954,-0.22354 3.95954,-0.22357 0.22295,-4.99231 c 0.12245,-2.74576 0.53145,-4.99231 0.9083,-4.99231 0.37686,0 0.78569,2.24655 0.9083,4.99231 l 0.22312,4.99231 4.12518,0.22919 c 2.26896,0.12602 4.55986,0.58284 5.09097,1.01507 0.77446,0.6304 0.9656,-0.80067 0.9656,-7.23396 v -8.021 l -4.3131,-4.27416 c -3.47044,-3.43902 -4.78604,-4.27416 -6.73307,-4.27416 -1.71609,0 -2.87472,-0.56684 -3.98318,-1.94873 -1.95571,-2.43804 -1.95571,-3.27931 0,-5.71733 3.30939,-4.12575 9.51817,-1.27441 8.62348,3.96029 -0.41291,2.41623 -0.12755,2.90266 4.11225,7.01084 l 4.55612,4.41445 v 9.62059 9.62056 l 5.44911,5.37951 c 2.997,2.95873 5.80063,5.3795 6.23004,5.3795 0.42957,0 6.8829,5.99078 14.34095,13.31283 l 13.56002,13.31284 h 19.05148 19.05148 v -5.54702 -5.54701 h -12.66228 -12.66244 l -16.74885,-16.45614 -16.74884,-16.45612 v -6.39134 c 0,-6.12009 -0.0799,-6.41015 -1.80419,-6.83472 -0.99095,-0.24387 -2.85754,-1.62281 -4.14814,-3.06432 -1.93054,-2.15608 -2.34191,-3.23949 -2.31998,-6.10831 0.017,-1.91805 0.50475,-4.31942 1.08891,-5.33637 1.03312,-1.79839 0.86238,-2.04644 -6.2348,-9.06012 l -7.29683,-7.21112 H 266.38474 247.88421 L 235.07937,134.51173 222.27454,121.9385 h -16.23096 -16.23096 l -14.51118,-14.24427 c -7.98116,-7.834337 -14.51118,-14.749987 -14.51118,-15.368097 0,-0.6181 -2.13034,-3.19433 -4.73407,-5.72497 l -4.73407,-4.60115 h -5.41342 c -4.76869,0 -5.63796,0.22022 -7.29892,1.84901 -2.29499,2.25058 -4.13521,2.3367 -6.75469,0.31613 -2.94274,-2.26996 -2.39154,-6.28646 1.11532,-8.12693 1.98536,-1.04195 5.69854,0.32815 6.35076,2.34333 0.39563,1.22238 1.23189,1.39967 6.6025,1.39967 h 6.14949 l 4.35854,4.22955 4.35856,4.22957 v -9.98675 -9.98672 l -3.95958,-3.83232 c -3.00811,-2.91144 -4.23142,-3.6634 -5.09087,-3.12937 -3.1305,1.94516 -9.81917,-0.26868 -12.1535,-4.02262 -0.86099,-1.38458 -1.41765,-3.66008 -1.41937,-5.80196 -0.002,-2.94796 0.39783,-3.9517 2.44834,-6.14082 2.98531,-3.18709 6.75262,-4.21002 10.65705,-2.89373 3.58124,1.20734 5.00329,2.4204 6.24083,5.32364 1.30879,3.07039 1.28539,5.68519 -0.074,8.26292 -1.06651,2.02247 -1.00581,2.14396 3.01682,6.03971 l 4.10522,3.97574 v 12.6131 12.61309 l 7.16495,6.99701 7.16493,6.996997 V 89.118073 72.967893 l -1.88551,-1.45443 c -3.73769,-2.88314 -1.69854,-8.74309 3.04242,-8.74309 2.20981,0 4.87673,2.66317 4.87673,4.86985 0,1.01959 -0.84848,2.68587 -1.88552,3.70282 l -1.8855,1.84899 v 17.14474 17.144717 l 5.44911,5.3795 5.44911,5.37951 h 13.406 13.406 v -9.20378 c 0,-8.64784 -0.10935,-9.328387 -1.8094,-11.266597 l -1.80941,-2.06283 -2.74141,1.28198 c -1.50778,0.70509 -4.29709,1.28199 -6.19847,1.28199 -3.01017,0 -3.83558,-0.37119 -6.38516,-2.8714 -2.61573,-2.56509 -2.92809,-3.26348 -2.92809,-6.54705 0,-4.62287 2.31359,-8.2371 6.20179,-9.6883 7.85645,-2.93229 15.99704,4.43641 13.54756,12.263 -0.82208,2.62674 -0.74434,2.86409 1.76259,5.38172 l 2.62262,2.63379 v 9.398737 c 0,9.26735 0.0238,9.39874 1.70527,9.39874 1.20188,0 5.48528,3.71162 14.51011,12.57322 l 12.80483,12.57323 h 14.90384 c 8.19713,0 14.90385,-0.25193 14.90385,-0.55984 0,-0.30792 -9.07874,-9.42275 -20.17491,-20.2552 -18.61699,-18.17439 -20.37337,-19.69232 -22.74369,-19.65593 -4.90743,0.0753 -7.12413,-5.388007 -3.36324,-8.289047 2.39291,-1.84582 3.89232,-1.92624 6.21165,-0.33317 1.42515,0.97887 1.69519,1.72907 1.46701,4.07539 -0.24994,2.570117 0.0631,3.205587 2.94638,5.980477 l 3.22603,3.10482 v -6.63128 -6.631277 L 229.60538,76.632123 211.68726,59.072373 H 201.12239 190.5575 l -8.97307,-8.82232 c -7.39906,-7.27475 -9.34879,-8.81185 -11.11499,-8.7626 -4.5285,0.12635 -6.84982,-5.15914 -3.64579,-8.30113 1.95792,-1.92001 4.86696,-1.88369 6.8754,0.0859 1.24519,1.22108 1.51234,2.17643 1.21551,4.34664 -0.37184,2.71858 -0.18143,2.97621 8.40858,11.37796 l 8.78901,8.59639 h 10.54151 10.54151 l 17.16418,16.8199 17.16415,16.8199 v -4.56664 c 0,-3.83057 -0.23004,-4.63824 -1.42729,-5.01086 -0.785,-0.24433 -1.85331,-1.45284 -2.37401,-2.68557 -2.1568,-5.10618 5.1311,-8.71225 8.54508,-4.2281 1.32674,1.7426 1.39629,2.26226 0.56595,4.2281 -0.52069,1.23273 -1.60694,2.44682 -2.41389,2.69798 -1.40836,0.43833 -1.44719,1.00996 -0.96841,14.26192 l 0.49876,13.805267 17.07021,16.82594 c 9.38859,9.25425 17.5762,16.82594 18.19471,16.82594 0.61869,0 4.61547,3.4114 8.88214,7.58091 l 7.75753,7.58092 h 4.82635 c 4.10664,0 5.12718,0.27565 6.84531,1.849 1.11067,1.01695 2.53341,2.81842 3.16179,4.00328 2.29175,4.32126 -0.33026,11.08762 -5.03723,12.9996 -2.25875,0.91745 -2.28222,0.98536 -2.28222,6.58075 v 5.65375 l 9.0505,8.85209 9.05034,8.8521 v -7.29964 c 0,-6.83627 -0.11905,-7.40842 -1.88548,-9.01324 -3.48881,-3.17066 -1.65146,-8.44065 2.94275,-8.44065 3.07233,0 4.97634,1.92596 4.97634,5.0335 0,1.6675 -0.53518,2.67229 -1.88547,3.53993 -1.83276,1.17764 -1.88547,1.45265 -1.88547,9.83661 v 8.62508 l 5.10983,4.97248 5.10984,4.97248 h 12.23678 12.23695 v -4.43762 -4.4376 h 7.54205 7.54206 v -12.3939 -12.39386 L 360.83725,167.60337 342.165,149.30378 h -12.82264 -12.82263 l -15.73001,-15.43861 -15.73001,-15.43861 -2.87728,1.10834 c -9.58058,3.69051 -18.04862,-7.06185 -12.05855,-15.31138 0.82225,-1.13239 2.52201,-2.47605 3.77724,-2.98589 l 2.28222,-0.92701 v -7.129317 -7.1293 l -13.01786,-12.75021 -13.01796,-12.75019 h -9.05091 -9.05091 l -12.7562,-12.52549 -12.75621,-12.52547 -2.09356,1.06166 c -2.93014,1.48589 -7.38846,1.31712 -10.23954,-0.38761 -6.64565,-3.97364 -6.21286,-14.04824 0.74252,-17.28488 3.3602,-1.56363 6.01749,-1.56363 9.37769,0 4.76677,2.2182 6.8807,8.28164 4.59919,13.19205 -0.86323,1.85788 -0.47098,2.33866 11.49305,14.08723 l 12.38677,12.1637 h 7.50316 7.50317 l -2.02662,-2.07438 c -1.99164,-2.03858 -2.02661,-2.24404 -2.02661,-11.90668 v -9.83231 l -2.26262,-2.07268 c -2.57124,-2.3554 -2.85526,-4.32652 -0.94275,-6.54295 2.19536,-2.54422 5.08377,-2.77629 7.31554,-0.58773 2.5299,2.48093 2.42938,4.59455 -0.33916,7.13068 l -2.2626,2.07268 v 9.13948 9.13949 l 16.59253,16.25861 16.59239,16.25863 v 7.24063 c 0,6.25017 0.18061,7.29543 1.31985,7.641217 4.72652,1.43449 6.38309,2.67991 7.82929,5.88607 1.55215,3.44104 1.42818,6.52612 -0.376,9.35932 -0.72685,1.14128 1.23872,3.35883 14.60743,16.4804 l 15.4472,15.1617 h 11.31062 11.31045 L 328.77963,136.16689 317.66458,125.24882 V 106.7624 88.275983 L 298.0553,69.057003 278.44584,49.838053 v -10.81399 -10.81398 l -3.38439,-1.26748 c -7.64155,-2.86183 -9.42617,-11.97046 -3.33083,-17.0000803 6.11082,-5.04245 15.17595,-1.81138 16.86619,6.0115903 0.77787,3.60018 -1.81404,8.74884 -5.20167,10.33304 l -2.68663,1.25634 v 10.78476 10.78474 l 8.29628,8.1104 8.29628,8.11039 v -8.96245 c 0,-8.74379 -0.0459,-8.992 -1.88564,-10.17396 -3.81822,-2.45343 -1.64653,-8.75832 3.01689,-8.75832 4.617,0 6.55723,5.44008 3.01689,8.45877 -1.83836,1.56738 -1.88564,1.85966 -1.88564,11.65495 v 10.04723 l 9.42753,9.22283 9.4277,9.22281 v -12.37721 c 0,-7.56371 -0.28655,-12.37723 -0.73687,-12.37723 -1.42036,0 -3.21366,-3.63616 -2.7283,-5.53227 1.14962,-4.49177 7.30397,-5.11357 9.1022,-0.91961 1.19775,2.79333 0.69861,4.74448 -1.58956,6.21476 -1.76524,1.13421 -1.78497,1.29041 -1.78497,14.17429 v 13.02744 l 6.78784,-6.62558 6.78783,-6.62556 v -16.77968 -16.77967 l -1.8438,-1.35598 c -2.67303,-1.96581 -3.11604,-4.68246 -1.16084,-7.11992 2.14328,-2.67197 5.35625,-2.69483 7.47522,-0.0531 2.14499,2.6741 1.96166,4.48868 -0.69946,6.92647 l -2.26267,2.07268 v 17.28201 17.28202 l -7.91909,7.73938 -7.91925,7.73939 v 16.304287 16.30429 l 5.27956,5.13752 5.27939,5.13754 V 123.3514 111.86089 l 2.20178,-2.06858 c 1.82323,-1.71306 2.13173,-2.4914 1.79466,-4.52872 -0.33077,-1.9986 -0.0357,-2.79712 1.56916,-4.25632 1.59705,-1.451337 1.97646,-2.469427 1.97646,-5.302917 0,-2.85962 -0.34795,-3.77517 -1.88548,-4.96119 -2.59156,-1.99899 -2.52303,-5.1856 0.15646,-7.252 5.27973,-4.07262 10.83003,3.18833 5.87767,7.68916 -1.44025,1.30888 -1.88547,2.4545 -1.88547,4.85056 0,2.46516 0.40372,3.44842 1.88547,4.591367 3.91379,3.01894 1.58497,9.13397 -3.28746,8.63277 -1.59246,-0.16377 -2.85516,0.30023 -4.20766,1.54628 -1.92323,1.77186 -1.93241,1.83842 -1.93241,14.05953 v 12.27924 l 5.27939,5.13753 5.27939,5.13754 v -11.60286 c 0,-10.93633 -0.0884,-11.64943 -1.5445,-12.41347 -3.54357,-1.85979 -3.2492,-7.08525 0.49335,-8.75752 3.15804,-1.41098 7.08476,1.14047 7.08476,4.6033 0,0.6057 -0.84844,2.09012 -1.88547,3.2987 -1.69892,1.97995 -1.88547,2.84213 -1.88547,8.71226 v 6.51484 l 2.95736,-2.83186 c 2.63137,-2.51974 2.86639,-3.02778 2.13156,-4.60908 -0.676,-1.45496 -0.54913,-2.14213 0.6998,-3.78975 2.17475,-2.86921 5.60897,-3.08067 7.6997,-0.47407 0.87769,1.09408 1.59569,2.60999 1.59569,3.36868 0,2.18181 -2.73187,4.33788 -5.49639,4.33788 -1.96251,0 -3.22062,0.73787 -6.03361,3.53851 -3.4366,3.42158 -3.55411,3.6845 -3.55411,7.95661 v 4.41812 l 17.72381,17.36882 17.72381,17.36884 v 13.13382 13.13384 h 6.41064 6.41081 v -16.83489 -16.83488 l -11.6902,-11.44592 -11.6902,-11.44593 v -18.51055 -18.51055 l -9.05034,-8.85209 -9.0505,-8.852087 v -34.75546 -34.75544 l -5.3566,-5.28825 -5.35676,-5.28825 -4.63656,0.32559 c -5.54333,0.38928 -8.57688,-1.09411 -10.54195,-5.15506 -1.66218,-3.43482 -1.5865,-6.2817203 0.24489,-9.2273203 5.70353,-9.17336 18.84741,-5.62933998 18.85625,5.0842303 0,2.37159 -0.48994,4.02782 -1.61201,5.42661 l -1.6149,2.01324 6.14007,6.05266 6.14024,6.05268 v 34.38922 34.38925 l 7.91908,7.739377 7.91909,7.73938 v -3.78462 c 0,-3.22081 -0.28077,-3.96512 -1.88547,-4.99615 -3.81839,-2.45343 -1.64654,-8.758317 3.01689,-8.758317 4.63928,0 6.53716,5.426167 3.01672,8.625537 l -1.88547,1.71359 v 23.22188 23.22189 l 11.313,11.07552 11.31317,11.07553 v 17.57479 17.57479 h 6.41064 6.41081 V 183.13068 155.57061 L 397.61067,145.23601 387.05189,134.9014 V 116.38888 97.876333 l -8.29628,-8.11039 -8.29628,-8.11039 v -14.37564 -14.37562 l 4.90236,-4.97961 4.90237,-4.97962 v -9.48637 -9.48639 l -6.1411,-6.05358 c -5.63124,-5.55103 -6.34142,-6.02165 -8.55596,-5.66925 -1.98683,0.31618 -2.70313,0.025 -4.04066,-1.64254 -1.92952,-2.4055203 -2.0387,-3.8786503 -0.45169,-6.1004003 0.80388,-1.12565 1.94721,-1.64378 3.62691,-1.64378 3.69084,0 5.27666,1.50683 5.33278,5.06719 0.0442,2.7910003 0.55066,3.5317703 6.27017,9.1695303 l 6.22221,6.13323 v 9.98901 9.98901 l -5.27956,5.13754 -5.27939,5.13754 v 13.34586 13.34589 l 7.9349,7.75259 7.93508,7.75261 -0.20442,-14.42223 -0.20441,-14.42222 -3.52232,-0.22302 c -3.80869,-0.24115 -4.75288,-0.92235 -5.53975,-3.99662 -0.39829,-1.55657 -0.0884,-2.40525 1.41355,-3.87876 2.4397,-2.39251 4.56224,-2.39137 7.00483,0.003 1.59756,1.56669 1.84381,2.32581 1.43992,4.4376 -0.60934,3.18536 0.13775,3.21071 3.20395,0.10867 l 2.41063,-2.43892 v -23.38545 -23.38544 l -1.84381,-1.35601 c -2.86265,-2.10521 -3.2191,-4.9636903 -0.90235,-7.2355703 2.49838,-2.45006 5.22021,-2.42647 7.21656,0.0626 2.14499,2.67412 1.96183,4.4886703 -0.69946,6.9264703 l -2.2625,2.07268 v 12.05178 12.05177 l 2.6397,-2.50897 c 1.94465,-1.8484 2.63969,-3.13842 2.63969,-4.89966 0,-6.44093 9.00136,-6.8835 9.65746,-0.47485 0.31189,3.04694 -2.8936,5.64931 -6.1064,4.95735 -1.89228,-0.40759 -2.67337,-0.0235 -5.51748,2.71377 l -3.31297,3.18859 v 10.42514 10.42515 l -2.63969,2.50897 -2.6397,2.50896 v 13.34737 13.34736 l 6.42884,-6.30452 c 6.36965,-6.24627 6.42118,-6.32666 5.57614,-8.70359 -1.63548,-4.60087 0.72566,-10.00574 5.4083,-12.38035 2.11557,-1.07288 2.19601,-1.30777 2.19601,-6.42053 v -5.30693 l 9.05033,-8.97737 c 8.85272,-8.78123 9.0505,-9.04969 9.0505,-12.28754 0,-3.05608 -0.20305,-3.40511 -2.64479,-4.54701 -3.53252,-1.65191 -5.64503,-5.19612 -5.6486,-9.47671 0,-10.1095603 14.67308,-13.2939803 19.10114,-4.14309 2.1154,4.37136 1.53872,7.62672 -2.04005,11.51784 -0.88143,0.95842 -2.36641,2.03185 -3.29971,2.3854 -1.48889,0.56403 -1.69687,1.16775 -1.69687,4.92539 v 4.28258 l -9.05051,8.85211 -9.0505,8.85209 v 5.00388 c 0,4.41767 0.16666,5.00385 1.42869,5.00385 2.15332,0 5.8627,3.79897 6.73528,6.89819 1.46015,5.18597 -1.06798,10.04963 -6.22867,11.98236 -3.07709,1.15238 -3.732,1.17093 -6.76539,0.19165 l -3.35854,-1.08426 -7.21877,7.10559 -7.21878,7.10561 v 17.007517 17.00751 l 10.55895,10.3346 10.55878,10.33461 v 28.66946 28.66947 h 13.57568 13.57567 v -12.76404 -12.76402 l 17.67755,-17.3234 c 15.06762,-14.76588 17.56787,-17.52416 16.93524,-18.68316 -1.73837,-3.18551 3.57809,-7.96227 6.71981,-6.03746 0.70405,0.43135 1.78905,1.66664 2.4113,2.7451 1.00796,1.74687 1.00523,2.18279 -0.0238,3.99475 -0.91646,1.61342 -1.78394,2.07952 -4.19627,2.2546 -2.7737,0.2013 -3.83148,0.99789 -12.03151,9.06012 l -8.99047,8.83942 h 19.6035 19.6035 l 17.90646,-17.5712 17.90646,-17.5712 v -14.05704 -14.05703 l 10.18175,-9.964077 10.18175,-9.96407 v -15.54191 l -0.017,-15.5419 -2.97812,-1.22639 c -7.80837,-3.21547 -8.26499,-14.20636 -0.74844,-18.01803 6.64668,-3.37064 15.05487,1.60062 15.05487,8.90107 0,3.28955 -2.97353,7.62899 -6.17749,9.01523 l -2.87285,1.24298 v 15.95427 15.95429 l -10.18175,9.96406 -10.18175,9.964067 v 14.06826 14.06825 l -18.67225,18.29959 -18.67207,18.29959 h -21.12641 -21.12623 l -7.33934,7.22435 -7.33935,7.22435 v 12.00529 12.00529 h 7.54206 7.54189 v 5.17721 5.1772 h 12.27079 12.27079 l 6.96146,-6.85521 6.96147,-6.8552 v -7.48789 c 0,-5.83913 -0.23927,-7.57799 -1.08737,-7.89708 -0.59794,-0.22504 -1.64433,-1.24281 -2.32508,-2.26172 -2.07441,-3.10459 0.22006,-7.10217 4.07637,-7.10217 2.66538,0 4.40766,1.33887 5.02838,3.86429 0.40016,1.6276 0.0459,2.45665 -1.84415,4.30961 -2.25637,2.21257 -2.3397,2.52235 -2.3397,8.69571 v 6.4014 l 7.91925,-7.73938 7.91909,-7.73938 v -3.68345 c 0,-3.10417 -0.31632,-3.93075 -2.01115,-5.25607 -2.62915,-2.05581 -2.77217,-5.87508 -0.2937,-7.84321 2.32968,-1.84981 4.27892,-1.71417 6.48717,0.45145 2.35858,2.31284 2.34787,4.42129 -0.034,6.75726 -1.2253,1.20167 -1.88598,2.67877 -1.88717,4.21909 v 2.37009 l 5.84688,-0.2357 5.84672,-0.23569 3.95954,-3.80684 3.95971,-3.80687 v -6.04191 c 0,-5.62857 -0.12925,-6.1248 -1.88564,-7.25343 -1.38481,-0.88984 -1.88547,-1.86385 -1.88547,-3.66843 0,-3.00794 1.94669,-4.905 5.03348,-4.905 4.61411,0 6.40604,5.24125 2.88577,8.44065 -1.7234,1.56623 -1.88564,2.24874 -1.88564,7.93677 v 6.22316 l -4.734,4.60115 -4.73401,4.60114 h -5.27411 -5.27395 l -7.13527,7.02621 -7.1351,7.02623 h 11.68203 11.68204 l 15.64294,-15.35319 15.64294,-15.35319 v -5.71553 -5.71553 l -2.52746,-1.03566 c -6.88358,-2.82042 -8.12265,-11.68649 -2.33018,-16.67378 2.12424,-1.82903 3.323,-2.27966 6.0649,-2.27966 1.87935,0 4.11787,0.36776 4.9743,0.81723 1.39553,0.73236 2.52593,-0.13043 10.88649,-8.30942 l 9.32923,-9.12664 v -10.35442 -10.3544 l 8.81174,-8.663837 c 8.45291,-8.3108 8.77552,-8.74213 7.91926,-10.58524 -4.86308,-10.46667 9.34709,-19.02401 17.13931,-10.32115 4.45034,4.97051 2.51436,12.97006 -3.732,15.42096 -3.86278,1.5157 -5.07447,1.48924 -8.42094,-0.18391 l -2.73612,-1.36792 -8.35937,8.22081 -8.35938,8.220817 v 10.33257 10.33256 l -9.543,9.3791 -9.543,9.37909 1.32937,2.74719 c 2.49378,5.15362 0.26581,10.58426 -5.44707,13.27645 l -3.13883,1.4792 -0.0272,5.92327 -0.0272,5.92326 -16.03323,15.71008 -16.03323,15.71008 h -13.2034 -13.20358 l -9.40491,9.24502 -9.40491,9.24502 H 468.3296 455.68536 v 7.02621 7.02621 h 25.83915 25.83914 l 13.93757,-13.68262 13.93739,-13.68262 h 7.12506 7.12507 l 13.33504,-13.00386 13.33503,-13.00384 -0.36699,-3.19282 c -0.32465,-2.82547 -0.13945,-3.33883 1.6081,-4.46185 1.82629,-1.17344 1.97492,-1.66801 1.97492,-6.56592 v -5.29687 l 5.27956,-5.13755 5.27939,-5.13754 v -5.90169 -5.90168 l 9.42753,-9.34354 9.42753,-9.34354 v -5.82785 -5.82784 l 3.58252,-3.56702 c 3.09699,-3.08366 3.58252,-3.97694 3.58252,-6.59206 0,-5.111797 4.75185,-7.314147 8.29169,-3.842877 2.9708,2.913297 -0.0646,8.945447 -4.10189,8.153477 -1.74109,-0.34149 -2.67184,0.19922 -5.95504,3.45932 -3.68524,3.65933 -3.89135,4.06855 -3.89135,7.72372 0,2.12279 0.26359,3.85965 0.58586,3.85965 0.32227,0 2.94343,-2.32974 5.82495,-5.17722 l 5.23891,-5.17722 h 6.47833 c 6.12017,0 6.59107,-0.11513 8.51379,-2.08334 1.645,-1.68374 1.94533,-2.52551 1.56524,-4.38859 -0.3777,-1.85263 -0.0901,-2.67787 1.46542,-4.20325 2.43035,-2.383257 4.56871,-2.408717 6.94072,-0.0827 2.2154,2.17245 2.34617,4.07766 0.43893,6.38754 -1.02462,1.24068 -2.14345,1.69007 -4.07467,1.6364 -2.09193,-0.0582 -3.1941,0.46427 -5.14623,2.43935 -2.46504,2.49402 -2.53681,2.51335 -9.31971,2.51335 h -6.83546 l -14.88854,14.6139 -14.88838,14.6139 v 6.29969 6.29967 l -5.27956,5.13754 -5.27939,5.13754 v 5.03535 c 0,3.92688 0.26479,5.13501 1.20302,5.48804 0.85439,0.32154 4.67771,-2.94995 13.19847,-11.29346 l 11.99563,-11.74615 v -5.16847 -5.1685 l 5.46799,-5.3978 c 4.91495,-4.85175 5.47275,-5.69721 5.51526,-8.35774 0.0272,-1.70327 0.57226,-3.47487 1.2838,-4.17278 1.83632,-1.80072 5.78991,-1.5508 7.45992,0.47158 1.90452,2.30657 1.74466,4.19921 -0.54471,6.44419 -1.46814,1.43976 -2.43936,1.79921 -4.02213,1.48878 -1.81744,-0.35644 -2.78424,0.27931 -7.49206,4.92706 l -5.4054,5.33631 v 4.79842 4.79842 l -12.44442,12.18663 c -6.8443,6.70263 -12.44425,12.77283 -12.44425,13.48931 0,1.15862 0.84962,1.30271 7.68184,1.30271 6.79464,0 7.87912,-0.18154 9.38808,-1.57166 0.93823,-0.8644 2.65704,-1.55906 3.81958,-1.54368 1.73225,0.023 4.18879,-1.9938 13.6153,-11.17753 12.1463,-11.83365 13.08861,-13.36169 9.61613,-15.59298 -1.38498,-0.88984 -1.88565,-1.86385 -1.88565,-3.66845 0,-3.03102 1.95146,-4.90498 5.10763,-4.90498 4.46667,0 6.24024,5.32459 2.81163,8.44065 -1.03704,0.94248 -1.88547,2.49604 -1.88547,3.45238 0,1.07874 -1.34927,3.08203 -3.55412,5.2773 l -3.55411,3.53852 h 6.40417 6.40418 l 4.69183,-4.64241 4.69199,-4.64242 v -7.60529 -7.60528 l 3.93574,-4.08078 c 3.3264,-3.44905 3.9024,-4.4584 3.72128,-6.52013 -0.16836,-1.9121 0.22602,-2.77894 1.82255,-4.01056 2.53783,-1.95749 3.38491,-1.963 5.88005,-0.0383 1.96183,1.51334 2.63221,4.51204 1.40998,6.3071 -1.00659,1.47825 -3.97927,2.60438 -5.569,2.10962 -1.20693,-0.37569 -2.40501,0.3258 -5.25082,3.07454 l -3.68711,3.56127 v 7.81346 7.81346 l -5.10984,4.97247 -5.10983,4.97248 h -7.81722 -7.81739 l -7.29496,7.02852 c -7.20789,6.94441 -7.29462,7.07002 -7.24785,10.49693 0.0408,2.97568 -0.22805,3.62193 -1.89058,4.54902 -2.55466,1.42463 -5.78787,0.59976 -6.88239,-1.75583 -0.82581,-1.77765 -1.07223,-1.8286 -8.84336,-1.8286 -7.17694,0 -8.09,0.15118 -8.93572,1.47919 -0.67004,1.05224 -1.75877,1.47921 -3.77179,1.47921 -2.66316,0 -3.62792,0.78371 -16.38968,13.31283 l -13.55986,13.31282 h -6.81062 -6.81062 l -7.1351,7.02621 -7.13527,7.02623 h 13.95745 13.95746 l 1.48889,-3.14332 c 2.57592,-5.43829 8.4689,-7.87034 13.55935,-5.59592 1.88156,0.84073 2.32627,0.51692 11.17083,-8.13561 l 9.21121,-9.01122 h 29.36418 29.36418 l 14.67784,-14.34035 14.67767,-14.34035 -1.60895,-2.00591 c -4.85236,-6.04926 -1.24791,-14.85909 6.64754,-16.24809 4.27806,-0.75261 9.05305,2.059 10.86166,6.39583 1.38991,3.33259 1.39518,3.59819 0.13605,6.83196 -1.83344,4.70795 -4.83842,6.64113 -10.38447,6.68046 l -4.36973,0.0309 -14.53261,14.23733 -14.53261,14.23733 h -29.39394 -29.39598 l -9.10816,8.91043 -9.10832,8.9104 1.55538,3.29243 1.55521,3.29243 9.82139,5.9e-4 9.82123,5.8e-4 6.3904,-6.29928 6.39023,-6.29927 -2.196,-1.71709 c -2.81367,-2.20012 -3.03849,-5.95466 -0.47822,-7.98767 2.32951,-1.84981 4.27875,-1.71417 6.48717,0.45144 2.35841,2.31284 2.3477,4.42129 -0.034,6.75728 -1.03704,1.01695 -1.88564,2.00028 -1.88564,2.18517 0,0.18491 2.3363,0.33619 5.19146,0.33619 4.42347,0 5.24572,-0.20315 5.55761,-1.37304 0.20153,-0.75518 1.38652,-1.72184 2.63358,-2.14813 4.84063,-1.65477 8.71531,3.1008 5.7326,7.03577 -2.09941,2.76977 -4.99488,3.0035 -7.44495,0.60096 -1.72,-1.68674 -2.53885,-1.89677 -7.39615,-1.89677 h -5.46203 l -3.70973,3.6934 c -4.2551,4.23639 -3.9643,5.51885 1.26951,5.5987 5.36102,0.0818 7.6157,4.61525 4.03947,8.12217 -2.37184,2.32607 -4.51037,2.30061 -6.94055,-0.0827 -1.48327,-1.45459 -1.83615,-2.38561 -1.50997,-3.98492 0.29795,-1.46076 0.0204,-2.4464 -0.92463,-3.28516 -1.25029,-1.10962 -1.45164,-1.08839 -2.72081,0.28691 -1.25029,1.35487 -2.31403,1.48518 -12.12233,1.48518 h -10.7518 l -1.5598,3.15947 c -1.88955,3.82772 -4.90661,5.71576 -9.13366,5.71576 -4.22722,0 -7.24428,-1.88804 -9.13384,-5.71576 l -1.55963,-3.15947 h -14.7318 -14.73192 l -6.18157,5.91682 -6.18156,5.91681 h -26.53419 -26.53419 v 6.28662 6.28661 h 38.29258 38.29241 l 6.37748,6.28661 6.37748,6.28661 h 12.4701 12.47027 l 11.67183,-11.46383 11.67183,-11.46381 h 17.7432 17.74303 l 10.53854,-10.35443 10.53872,-10.35442 h 9.07176 9.07193 l 9.34301,-9.1842 9.34318,-9.18419 -1.24672,-2.57632 c -1.45199,-3.00053 -1.55504,-4.78667 -0.44216,-7.66669 2.74003,-7.09184 11.38511,-8.93902 16.83286,-3.59667 3.3866,3.32108 4.01583,6.77039 2.0358,11.16 -1.22478,2.71532 -2.17355,3.64161 -4.97395,4.85643 -3.5281,1.5304 -7.11589,1.41682 -9.27822,-0.29373 -0.75746,-0.5993 -3.32487,1.50237 -10.94601,8.96063 l -9.95642,9.74355 h -9.42753 -9.42753 l -10.53872,10.35442 -10.53854,10.35441 h -17.366 -17.366 L 582.39442,254.69618 570.72241,266.16 h -13.22432 -13.22432 l -6.37748,-6.28662 -6.37731,-6.28659 h -10.56847 -10.56847 l 15.07,14.79202 15.06983,14.79203 h 33.96128 33.96112 l 6.99599,-6.88915 c 6.64277,-6.54147 6.95603,-6.99183 6.20725,-8.92337 -2.06438,-5.32454 0.0918,-11.12981 4.97906,-13.40396 5.00423,-2.32864 10.50725,-0.26366 13.46445,5.05246 l 1.50844,2.71158 9.0568,0.002 9.05697,0.002 16.53049,-16.2231 c 14.55131,-14.28065 16.4094,-16.36642 15.51777,-17.42005 -1.44382,-1.70592 -1.25233,-7.10158 0.34624,-9.75521 3.98727,-6.61942 14.06596,-6.33698 17.89456,0.50148 4.69931,8.39351 -5.11154,17.94039 -13.84488,13.47251 l -2.76163,-1.4128 -15.70977,15.41858 -15.70961,15.41859 h 11.70364 11.70363 l 5.07073,-5.01086 c 2.78883,-2.75599 5.07072,-5.40342 5.07072,-5.8832 0,-0.47977 -0.84861,-1.70439 -1.88564,-2.72134 -2.38205,-2.33596 -2.39277,-4.44442 -0.034,-6.75726 2.01829,-1.97914 3.47452,-2.23899 5.77648,-1.03081 3.30939,1.73682 3.28099,7.41264 -0.0425,8.44699 -0.93381,0.29067 -1.55147,1.1177 -1.55147,2.0773 0,0.96441 -1.85401,3.42865 -4.692,6.23677 l -4.692,4.64241 h 8.29458 8.29476 l 5.07072,-5.01086 c 4.29167,-4.24117 5.07242,-5.40566 5.08212,-7.58092 0,-1.41353 0.26087,-2.93625 0.56562,-3.38383 0.66902,-0.98248 3.52453,-2.51443 4.6869,-2.51443 1.53991,0 4.54064,3.60809 4.54064,5.45972 0,2.44571 -3.47351,5.12476 -6.01695,4.64074 -1.57102,-0.29896 -2.90499,0.59323 -7.66076,5.12319 l -5.75845,5.4852 h -8.17758 -8.17775 l 6.37748,6.28661 6.37748,6.28662 h 10.21542 10.21543 l 1.47086,-2.67827 c 4.24627,-7.73222 16.00109,-6.47174 18.58721,1.99317 2.32645,7.6148 -4.66938,14.55817 -12.5252,12.43108 -3.10311,-0.84023 -7.18986,-5.21916 -7.18986,-7.70391 v -1.82328 h -10.76149 -10.76166 l -7.51366,-7.39601 -7.51383,-7.39601 -22.26309,0.0269 -22.26327,0.0269 -1.50844,3.07803 c -0.82956,1.69293 -2.39073,3.70552 -3.46926,4.47245 -2.40841,1.71243 -8.31363,1.86627 -10.78105,0.28085 -1.67902,-1.07892 -1.96489,-0.8853 -9.18842,6.22497 l -7.45533,7.33854 h -34.71415 -34.71397 l -16.20228,-15.90143 -16.20227,-15.90143 h -25.83795 -25.83813 v 13.31282 13.31283 h 7.8446 7.84477 l 1.47715,-2.45513 c 3.89968,-6.48149 13.31582,-6.23469 17.60426,0.46141 1.47256,2.29905 1.63599,6.40472 0.37396,9.39185 -0.32124,0.7603 2.4778,3.99493 8.85783,10.23636 l 9.32736,9.12482 37.50537,0.003 37.50537,0.003 1.78462,-1.64404 c 1.34876,-1.24254 1.68123,-2.15101 1.36117,-3.71991 -0.32362,-1.58654 0.0323,-2.52329 1.51219,-3.97391 2.2892,-2.24498 4.21923,-2.40185 6.57135,-0.53408 2.06234,1.63761 2.31726,5.51462 0.48093,7.31533 -0.70558,0.69185 -2.51538,1.23271 -4.21344,1.25909 -2.0018,0.0311 -3.56806,0.59122 -4.78264,1.71036 -1.65402,1.52414 -2.52644,1.6641 -10.37358,1.6641 h -8.5677 l 1.77136,1.84901 c 1.73769,1.81384 1.98768,1.84899 13.15324,1.84899 h 11.38204 l 9.03027,-8.87853 c 7.9065,-7.77369 9.00136,-9.14795 8.79864,-11.04358 -0.45882,-4.28859 5.5117,-7.03151 8.42774,-3.87179 1.7013,1.84352 1.58446,5.51576 -0.22652,7.12301 -1.01374,0.89958 -2.30927,1.21327 -4.14355,1.00328 -2.29481,-0.26273 -3.0606,0.0881 -5.46612,2.50383 -1.53854,1.54515 -2.35314,2.80937 -1.81013,2.80937 0.543,0 1.6547,-0.83206 2.47048,-1.84901 2.80789,-3.50067 8.91565,-1.47401 8.91565,2.9584 0,4.43242 -6.10776,6.45908 -8.91565,2.95841 -2.63918,-3.29011 -5.13177,-2.54075 -11.07083,3.32821 l -5.23892,5.17721 H 583.2536 571.62751 l -3.27283,-2.9584 -3.27284,-2.95841 H 553.752 c -6.23156,0 -11.33,0.25462 -11.33,0.56579 0,0.3112 4.16242,4.63787 9.24998,9.61482 l 9.24982,9.04903 h 28.66455 28.66472 l 6.6074,-6.50979 6.60757,-6.50978 -1.15523,-2.71148 c -1.55249,-3.64357 -1.45046,-6.34304 0.34897,-9.23727 3.03219,-4.87683 8.25716,-6.49774 13.33248,-4.13601 l 2.62031,1.21934 4.88671,-4.73244 c 4.48232,-4.34085 4.84931,-4.93136 4.43589,-7.13624 -0.36206,-1.93025 -0.0799,-2.76802 1.43447,-4.25271 1.03703,-1.0169 2.59514,-1.84891 3.46245,-1.84891 1.63191,0 5.27939,3.04264 5.27939,4.40398 0,0.44932 1.83871,0.77322 4.38929,0.77322 3.74186,0 4.63094,-0.27271 6.02868,-1.84899 2.25314,-2.54132 5.56271,-2.47535 7.67079,0.15288 1.09775,1.36845 1.46015,2.57111 1.14537,3.80081 -0.34302,1.34032 0.0663,2.33831 1.60691,3.91492 l 2.06727,2.11601 h 11.51486 c 11.27678,0 11.55381,-0.0383 13.40034,-1.84901 2.35569,-2.31012 4.97192,-2.36068 7.10194,-0.13724 3.12913,3.2663 1.22155,7.90304 -3.25124,7.90304 -2.41793,0 -4.91358,-1.52946 -4.91358,-3.01124 0,-0.39366 -5.08705,-0.68676 -11.91928,-0.68676 h -11.91927 l -2.49871,-2.52808 c -2.10553,-2.13037 -2.88391,-2.4668 -4.94675,-2.13851 -2.89054,0.45998 -5.38024,-0.66314 -6.04875,-2.72866 -0.40934,-1.2644 -1.1406,-1.47997 -5.02107,-1.47997 -3.77094,0 -4.77039,0.27648 -5.88668,1.62844 -0.95387,1.15509 -2.11335,1.6071 -3.98879,1.55496 -2.30263,-0.0639 -3.28406,0.56159 -7.59699,4.84306 l -4.95287,4.91656 0.89759,2.7735 0.89758,2.77352 26.02401,0.0296 26.02417,0.0296 10.14842,9.88894 10.14842,9.88894 1.8319,-1.41316 c 2.40637,-1.85619 8.00939,-1.87656 11.08002,-0.0403 3.12233,1.86726 5.22276,6.58041 4.53486,10.17622 -0.61103,3.19355 -4.43996,7.34471 -7.4606,8.08815 -7.64596,1.88185 -14.57886,-5.09642 -12.47758,-12.55923 l 0.80524,-2.85996 -10.0491,-9.87485 -10.04911,-9.87484 h -25.07761 -25.07761 l -1.04435,2.4037 c -2.32185,5.34495 -7.68729,7.82664 -13.01974,6.02212 l -2.92591,-0.99012 -7.1783,7.00638 -7.17846,7.00637 h -28.99212 -28.99192 l -11.0239,-10.72353 -11.02406,-10.72422 h -13.88434 -13.88433 l 9.02687,8.87522 9.02686,8.87522 h 6.07375 6.07375 l 3.65207,3.63594 c 3.16909,3.15528 3.96294,3.58756 6.00521,3.27009 4.66955,-0.72589 7.72062,5.16582 4.26378,8.23362 -3.41466,3.03042 -8.32128,0.66815 -8.32128,-4.00626 0,-2.19121 -0.59929,-3.26671 -3.23389,-5.8022 -2.87574,-2.76778 -3.62741,-3.11239 -6.78783,-3.11239 h -3.55395 v 5.83175 c 0,5.4044 0.13775,5.92053 1.88564,7.04326 2.32594,1.49452 2.60109,5.49022 0.50628,7.3494 -1.83072,1.62467 -5.62207,1.55678 -7.17728,-0.12857 -1.93394,-2.09561 -1.60895,-5.77756 0.63722,-7.22089 1.74738,-1.12273 1.88564,-1.63887 1.88564,-7.04327 0,-5.00614 -0.18247,-5.83175 -1.28804,-5.83175 -0.70848,0 -2.57507,-1.23242 -4.14814,-2.73871 l -2.8601,-2.7387 v 4.63547 c 0,4.24254 0.19183,4.79369 2.26267,6.50245 4.63112,3.82139 1.03602,10.18225 -4.65526,8.23668 -3.72622,-1.27381 -4.15495,-6.86697 -0.66681,-8.69765 1.36066,-0.71408 1.55096,-1.51842 1.55096,-6.55466 0,-5.67512 -0.0323,-5.77211 -2.87319,-8.49202 l -2.87336,-2.75134 -1.65198,1.7244 c -1.4411,1.5044 -1.65198,2.55395 -1.65198,8.2267 0,6.05488 0.12925,6.60238 1.88564,7.95673 2.30859,1.78085 2.5715,5.68611 0.50628,7.51905 -3.04972,2.70641 -8.42553,0.3975 -8.42553,-3.61869 0,-1.05992 0.82497,-2.63403 1.88564,-3.59792 1.68208,-1.52885 1.88547,-2.30064 1.88547,-7.15845 v -5.44484 l -6.03361,5.8821 c -5.86168,5.71446 -6.03378,5.98273 -6.03378,9.41257 0,2.54432 0.42141,3.94364 1.50844,5.00965 3.08458,3.02489 0.78909,8.13563 -3.65411,8.13563 -2.71044,0 -4.64217,-2.05397 -4.64217,-4.93592 0,-2.20344 1.9268,-4.6789 3.64187,-4.6789 0.56256,0 0.88347,-1.40636 0.88347,-3.87224 v -3.87221 l 9.22907,-9.07215 9.22907,-9.07216 -12.43422,-12.21031 c -8.65732,-8.50139 -12.77808,-12.06515 -13.56581,-11.73239 -4.37262,1.84697 -6.4574,2.24753 -8.89337,1.70878 -3.3968,-0.75129 -6.94582,-4.21643 -7.61535,-7.4352 l -0.52005,-2.50084 -7.70106,-0.21077 -7.70124,-0.21077 v 5.94268 5.94268 h -6.78784 -6.78783 v 15.35489 15.3549 l 12.68608,12.42425 12.68591,12.42426 3.49918,-0.86402 c 3.10141,-0.76584 3.86873,-0.68858 6.75128,0.67979 3.19409,1.51632 5.85878,4.72347 5.85878,7.05148 0,1.06152 3.14257,1.18018 31.2551,1.18018 20.02304,0 31.42244,0.26579 31.72107,0.73961 0.25628,0.40677 3.08304,0.7396 6.28156,0.7396 h 5.81542 l 7.13527,-7.02621 7.1351,-7.02623 h 9.11207 9.11207 l 1.67289,-2.21879 c 2.92982,-3.88613 9.16955,-2.12462 9.16955,2.58861 0,4.7132 -6.23973,6.47471 -9.16955,2.58859 l -1.67289,-2.2188 h -8.3587 -8.35869 l -6.75637,6.65642 -6.75638,6.65641 h 23.76746 23.76746 l 4.09661,-4.06781 4.09661,-4.06782 h 6.86096 c 6.52696,0 6.95943,-0.10067 8.88062,-2.06708 1.83224,-1.87542 1.93751,-2.27998 1.13584,-4.36296 -1.26101,-3.27613 0.68279,-6.14318 4.16497,-6.14318 3.05414,0 4.79472,1.23111 5.43721,3.84568 0.6947,2.82729 -2.59548,6.05642 -5.71356,5.60763 -1.73582,-0.24984 -2.71095,0.20128 -4.62839,2.1413 -2.40076,2.42898 -2.50977,2.45783 -9.28349,2.45783 h -6.85416 l -4.09661,4.0678 -4.09661,4.0678 H 597.53295 586.5997 l 3.71431,3.69801 3.71431,3.69802 h 6.62764 c 4.10767,0 6.62764,-0.29399 6.62764,-0.77322 0,-1.36136 3.64748,-4.404 5.27939,-4.404 2.03478,0 5.27939,3.18177 5.27939,5.17722 0,1.99543 -3.24461,5.1772 -5.27939,5.1772 -0.86731,0 -2.42542,-0.83204 -3.46245,-1.84899 -1.72341,-1.69008 -2.45195,-1.84902 -8.47417,-1.84902 h -6.58869 l -4.47789,-4.4376 -4.47806,-4.43762 H 566.9695 548.85726 l 8.60478,8.46208 c 7.07405,6.95694 8.84064,8.33823 9.93125,7.76582 2.21641,-1.16318 7.67385,-0.78803 10.15947,0.69839 1.27768,0.76402 2.88442,2.54904 3.57028,3.96671 l 1.2474,2.57757 15.33104,0.53438 c 22.97531,0.80084 20.58391,1.62407 34.52402,-11.88504 6.45894,-6.25916 12.23338,-11.38029 12.83233,-11.38029 0.59896,0 5.41136,-4.24811 10.69415,-9.44022 l 9.60525,-9.4402 v -7.79033 -7.79033 l 2.96077,-2.83513 c 2.36147,-2.26121 2.84139,-3.15248 2.371,-4.40281 -1.7916,-4.76128 4.54421,-8.52394 8.2439,-4.89588 1.95792,1.92001 1.92101,4.77272 -0.0884,6.74227 -1.24928,1.22509 -2.2171,1.48336 -4.45579,1.1889 -2.47898,-0.32606 -3.17045,-0.0619 -5.1918,1.98326 -2.30366,2.33073 -2.33206,2.45319 -2.33206,10.07263 v 7.7132 l -5.44911,5.37951 -5.44911,5.3795 h 4.89318 4.89318 l 10.92628,-10.7346 c 9.10102,-8.94151 10.88479,-11.04856 10.67817,-12.61409 -0.39472,-2.99181 1.73462,-5.49576 4.6738,-5.49576 4.58826,0 6.84293,4.91462 3.77825,8.23558 -1.14264,1.23815 -1.99958,1.45119 -4.49098,1.11632 -2.91077,-0.39124 -3.27947,-0.21392 -6.76148,3.25275 l -3.68268,3.66658 h 5.81678 c 4.36974,0 5.81662,-0.24748 5.81662,-0.99478 0,-1.58349 2.57779,-3.44282 4.77329,-3.44282 2.53408,0 5.03144,2.38613 5.03144,4.8074 0,4.71322 -6.2399,6.47473 -9.16972,2.5886 -1.603,-2.12616 -1.91166,-2.21881 -7.39377,-2.21881 h -5.72087 l -5.99841,5.91682 -5.99824,5.91681 h 8.37928 c 7.72793,0 8.40954,-0.11428 8.77109,-1.4703 0.21564,-0.80866 1.34876,-1.82693 2.51776,-2.26282 6.19653,-2.31027 9.72633,6.34199 3.68795,9.03994 -2.35994,1.05447 -5.62801,-0.19114 -6.20809,-2.36623 -0.37176,-1.39452 -1.08568,-1.46139 -15.60587,-1.46139 h -15.21608 l -3.36042,3.35771 -3.36041,3.3577 30.54322,-0.50956 c 21.10412,-0.35208 30.6376,-0.76118 30.8483,-1.32379 0.81579,-2.17764 6.02018,-6.27849 8.56141,-6.74599 5.50438,-1.01263 11.87421,4.23794 11.87421,9.78774 0,6.69036 -6.89566,11.86654 -13.12331,9.851 -2.56606,-0.83049 -5.92749,-3.8908 -6.72882,-6.12607 -0.43196,-1.20479 -2.64514,-1.29431 -31.99606,-1.29431 h -31.53179 l -5.23908,5.1772 -5.23892,5.17722 h 24.00028 24.00027 l 2.11352,-2.21881 c 2.66691,-2.79952 5.3799,-2.89737 7.4873,-0.27006 1.86796,2.32874 1.96421,3.81719 0.3891,6.02231 -0.80065,1.12104 -1.93989,1.64017 -3.58251,1.63245 -2.84411,-0.0136 -3.75904,-0.52275 -4.96172,-2.76219 -0.85201,-1.58678 -1.3207,-1.6641 -10.08584,-1.6641 h -9.19216 l 5.23891,5.17721 5.23892,5.1772 h 8.29628 8.29611 l 4.73111,4.59818 4.73094,4.59817 2.10434,-2.47181 c 2.55637,-3.00281 5.769,-3.33771 7.84936,-0.81823 1.8535,2.2445 1.71609,4.6069 -0.38008,6.53801 -2.40348,2.21424 -4.80509,2.01346 -7.30483,-0.61069 -1.16254,-1.22034 -2.41334,-2.21879 -2.77965,-2.21879 -0.36614,0 -2.50926,-1.83053 -4.7624,-4.06782 l -4.09662,-4.0678 h -7.54427 -7.54409 l 4.31293,4.27415 4.3131,4.27416 v 5.86015 c 0,5.56191 0.12074,5.98155 2.35756,8.24538 1.97152,1.99484 2.65109,2.27578 4.15103,1.71652 2.3091,-0.86091 5.12548,0.36491 6.21218,2.70372 1.51491,3.26045 -1.17802,6.94759 -5.0743,6.94759 -2.36793,0 -4.81801,-3.591 -4.29949,-6.30139 0.36597,-1.91248 0.017,-2.67242 -2.21029,-4.78747 -2.59531,-2.4668 -2.64514,-2.62694 -2.64514,-8.50488 V 396.63 l -10.43072,-10.13543 -10.43073,-10.13541 h -14.91779 -14.91763 l -5.00831,4.79425 -5.00814,4.79427 9.81952,0.0136 9.81952,0.0136 7.1351,7.02621 7.13527,7.02623 h 7.74546 7.74545 v 7.65119 c 0,8.91568 0.79214,10.35391 5.31408,9.64934 5.3049,-0.82655 8.18982,5.309 4.01175,8.53183 -2.49514,1.92468 -3.34222,1.91917 -5.87988,-0.0383 -1.59806,-1.23272 -1.99074,-2.09783 -1.8222,-4.01563 0.13264,-1.52042 -0.27516,-2.97536 -1.0816,-3.84912 -1.04672,-1.13433 -1.29637,-2.8528 -1.29637,-8.9274 v -7.52268 h -7.16487 -7.16503 v 7.59159 7.59158 l 9.66222,9.45406 c 8.79524,8.60578 9.82717,9.39412 11.5016,8.78584 3.46857,-1.26007 6.74175,1.04078 6.74175,4.7391 0,4.32608 -4.89846,6.20097 -8.23557,3.15216 -1.34043,-1.22454 -1.64331,-2.11986 -1.33924,-3.95779 0.36921,-2.2308 -0.19914,-2.9547 -9.3459,-11.90449 l -9.73908,-9.52928 v -8.16089 -8.1609 l -7.01283,-6.84855 -7.013,-6.84854 -10.52221,0.20674 -10.52239,0.20674 -0.22125,6.23691 -0.22125,6.2369 5.48176,5.41182 c 6.37833,6.2969 8.50614,6.87911 11.66895,3.19301 2.11131,-2.46047 4.34813,-2.80747 6.88137,-1.06746 2.11318,1.45147 2.27848,5.48094 0.29692,7.23945 -2.13699,1.89651 -5.89161,1.57783 -7.36332,-0.62498 -0.84538,-1.26504 -1.92272,-1.84899 -3.41144,-1.84899 h -2.17576 v 5.01756 5.01758 l 3.98318,3.85764 c 3.90954,3.78613 4.06702,3.85764 8.49984,3.85764 h 4.51633 l 7.15006,7.05339 c 6.24959,6.16507 7.38748,6.99038 9.03554,6.55327 2.84377,-0.75424 4.54354,-0.50684 6.11797,0.89048 2.97811,2.64289 0.70541,8.43051 -3.31042,8.43051 -3.05329,0 -5.07022,-2.00845 -5.07022,-5.04886 0,-2.47995 -0.67752,-3.40795 -6.99054,-9.57288 -6.93647,-6.77399 -7.01946,-6.82669 -10.73905,-6.82669 h -3.7485 l 12.75904,12.52834 c 11.42796,11.22119 12.97161,12.48668 14.79518,12.12904 4.13284,-0.81056 7.70906,3.22855 5.87835,6.63921 -1.17717,2.19313 -2.10451,2.70045 -4.9607,2.71374 -3.0441,0.0136 -5.12667,-2.67186 -4.4903,-5.7917 0.37328,-1.83015 -0.22023,-2.71638 -4.80985,-7.18264 l -5.23568,-5.09489 v 8.54155 c 0,8.19882 0.0765,8.61264 1.92288,10.3129 1.42886,1.3164 2.60636,1.71358 4.58486,1.54642 3.44885,-0.2914 5.55965,1.52275 5.55965,4.77859 0,4.31316 -5.20779,6.28427 -8.38114,3.17226 -1.20438,-1.18104 -1.49552,-2.15423 -1.1923,-3.98661 0.33026,-1.99528 0.017,-2.7901 -1.80061,-4.49272 l -2.20162,-2.06858 v -9.67677 -9.67676 l -6.78784,-6.62558 -6.78783,-6.62556 v 6.76899 c 0,6.53497 0.0782,6.84571 2.2625,8.98781 2.63408,2.58309 2.86945,4.6959 0.75422,6.7702 -4.15035,4.0701 -11.11692,-0.86485 -7.93779,-5.62297 0.68093,-1.01891 1.72714,-2.03667 2.32525,-2.26173 0.85201,-0.32059 1.08737,-2.09883 1.08737,-8.21389 v -7.80472 l -4.14814,-4.26468 -4.14814,-4.26467 v -5.80818 -5.80818 l -4.90236,-4.76468 -4.90236,-4.76468 v 6.81994 c 0,3.75098 0.27549,6.81996 0.61205,6.81996 0.33655,0 1.35471,0.6786 2.26267,1.50801 4.53911,4.14693 -1.2821,11.08153 -6.15011,7.32649 -1.35386,-1.04433 -2.004,-2.24829 -2.004,-3.71097 0,-2.09429 2.22967,-5.12353 3.77111,-5.12353 0.47481,0 0.75422,-4.93067 0.75422,-13.31284 v -13.31282 h -19.93563 c -19.68581,0 -19.94209,0.0197 -20.44599,1.5771 -0.43042,1.32947 2.10775,4.14659 16.16452,17.94137 l 16.67504,16.36427 v 7.94468 c 0,7.40473 0.10034,7.9447 1.48209,7.9447 2.21896,0 6.68019,4.21395 7.48407,7.06915 0.74589,2.64893 0.4993,4.7764 -0.87718,7.56884 -0.768,1.55792 -0.18503,2.33542 7.20993,9.61482 l 8.04561,7.91985 0.20645,11.46381 0.20646,11.46383 8.81531,0.20797 8.81531,0.20799 1.25811,-2.60002 c 2.81418,-5.81558 10.8785,-7.50523 15.76011,-3.3021 8.14986,7.01719 1.36083,19.93738 -9.12091,17.3576 -2.40518,-0.592 -7.0499,-4.95362 -7.0499,-6.62026 0,-1.03215 -1.44569,-1.18337 -11.31317,-1.18337 h -11.313 v -12.40154 -12.40154 l -7.73066,-7.55487 -7.73049,-7.55488 -3.77111,0.4008 c -5.89314,0.62635 -10.45589,-2.86892 -11.43,-8.75618 -0.54624,-3.30093 1.55351,-7.76133 4.40136,-9.34955 2.09788,-1.16999 2.11675,-1.24681 2.12152,-8.58303 v -7.40247 l -16.03562,-15.71237 -16.03561,-15.71238 -2.29821,0.85072 c -3.50173,1.2961 -7.77011,0.20009 -10.57374,-2.71503 -2.66606,-2.77223 -3.4679,-6.06976 -2.39906,-9.866 0.71239,-2.53004 0.69283,-2.55673 -8.57994,-11.6717 l -9.29387,-9.13586 h -30.47332 c -28.14348,0 -30.54917,0.099 -31.46087,1.29431 -0.87905,1.15233 0.14455,2.40975 9.33434,11.46381 l 10.32154,10.16952 h 13.62652 13.62635 l 2.42014,-2.44869 c 1.97391,-1.99714 2.33818,-2.85175 1.97459,-4.6342 -0.57481,-2.81867 1.97866,-6.22993 4.6636,-6.22993 2.84495,0 5.82868,3.2969 5.22122,5.76913 -0.68007,2.76765 -2.55313,3.95734 -5.86916,3.72782 -2.37372,-0.16428 -3.27657,0.2405 -5.68839,2.5499 l -2.86689,2.74517 h -12.77911 -12.77927 l 10.16084,9.98463 10.16083,9.98462 h 7.88099 c 6.93851,0 8.08031,-0.18358 9.54726,-1.53499 1.33243,-1.22762 1.58905,-2.09897 1.2809,-4.35174 -0.3022,-2.20865 -0.0408,-3.15464 1.21067,-4.38182 2.02101,-1.98183 3.8689,-1.98193 6.43785,-3.6e-4 2.65806,2.05035 2.44242,5.41809 -0.48349,7.55073 -1.68633,1.22914 -2.3778,1.35041 -3.87808,0.68006 -1.56066,-0.6973 -2.07594,-0.55481 -3.54714,0.98095 -1.61185,1.6824 -2.22781,1.79677 -9.67736,1.79677 h -7.95598 l 5.23891,5.17722 5.23909,5.1772 h 11.49531 c 10.81285,0 11.54428,-0.09 12.3218,-1.51461 2.89717,-5.30845 11.21165,-1.52096 9.02772,4.11231 -1.58463,4.08706 -7.28051,4.08818 -9.17924,0.002 l -0.86408,-1.85989 H 545.8887 533.76484 l -9.24998,-9.04903 -9.24982,-9.04902 v 10.35593 10.35595 l 8.11993,7.9381 8.1201,7.93809 h 22.2937 22.29388 l 1.71098,-1.78607 c 1.1651,-1.21616 1.55471,-2.26925 1.22105,-3.30028 -0.49913,-1.54247 0.65728,-4.45923 2.15757,-5.44165 1.80809,-1.18388 5.63754,-0.57878 6.82065,1.07775 1.58549,2.21965 1.47801,3.69472 -0.44352,6.09023 -1.44093,1.79649 -1.95944,1.96639 -4.74896,1.55616 -2.70585,-0.39791 -3.37522,-0.20613 -4.92465,1.41129 -1.74109,1.81745 -2.07917,1.87179 -11.64972,1.87179 h -9.85643 l 20.35314,19.96923 c 19.10267,18.7425 20.51979,19.96924 23.06952,19.96924 3.19852,0 5.21307,1.80887 5.21307,4.68075 0,4.30739 -5.26817,6.42437 -8.38386,3.36901 -1.24417,-1.22009 -1.51219,-2.17696 -1.21628,-4.34096 l 0.37974,-2.7759 -20.8492,-20.43569 -20.8492,-20.43568 h -10.535 -10.53497 l 5.61883,5.54701 5.61866,5.547 h 4.82482 4.82481 l 6.31864,6.04802 c 5.1078,4.88911 6.31846,6.46718 6.31846,8.2357 0,1.38352 0.69317,2.8176 1.88565,3.9013 3.29868,2.99794 2.12083,7.40919 -2.33274,8.73592 -2.3494,0.69994 -5.58652,-2.07356 -5.58652,-4.78657 0,-2.30947 2.27832,-5.12353 4.14814,-5.12353 0.67379,0 1.13142,-0.67978 1.13142,-1.68044 0,-1.12154 -2.07475,-3.70431 -6.23803,-7.76581 l -6.23785,-6.08538 h -4.51667 -4.51649 l -14.88838,-14.6139 -14.88854,-14.61389 v -11.09837 -11.09835 l -9.42753,-9.22281 -9.42753,-9.22283 v 12.2981 c 0,10.02846 0.20067,12.37361 1.08737,12.70727 0.59794,0.22506 1.64433,1.24283 2.32508,2.26173 3.17913,4.75812 -3.78727,9.69307 -7.93779,5.62297 -2.11522,-2.07429 -1.87986,-4.1871 0.75422,-6.7702 l 2.26267,-2.21879 v -12.71666 -12.71666 l -6.69498,-6.53486 c -5.46986,-5.33914 -6.988,-6.44365 -8.29628,-6.03646 -1.59297,0.4958 -1.6013,0.63733 -1.6013,26.89523 v 26.39682 l 17.68079,17.32659 17.68061,17.3266 4.10716,-0.18655 c 3.65904,-0.16615 4.39932,0.065 6.78494,2.119 3.11247,2.67993 4.61428,6.44351 3.87979,9.72306 -0.48689,2.17413 -0.0612,2.75748 7.28067,9.98205 l 7.79783,7.67297 h 18.11988 18.11989 l 19.13957,18.77971 c 18.76187,18.40921 19.18498,18.7669 21.44765,18.13055 5.96678,-1.67812 12.57316,3.4043 12.57316,9.67275 0,4.67634 -3.89628,9.16649 -8.72501,10.05482 -3.29919,0.60694 -8.5546,-1.82328 -10.33514,-4.77922 -1.5877,-2.6358 -1.70181,-8.15645 -0.20884,-10.11466 1.02479,-1.34425 -0.0918,-2.60113 -17.5296,-19.74079 l -18.62446,-18.30378 h -16.7866 -16.78677 v 11.271 11.271 l 12.60036,12.37245 c 11.82948,11.61546 12.68268,12.29943 13.94505,11.17901 0.73977,-0.6564 3.02352,-1.35163 5.07531,-1.54496 9.67055,-0.91122 14.73958,9.48797 8.09204,16.60115 -7.2118,7.71702 -19.83614,0.35953 -16.95292,-9.88018 l 0.74572,-2.64862 -12.88403,-12.7096 -12.8842,-12.70962 V 499.8146 488.38607 l -8.16874,-7.98575 -8.16873,-7.98576 -2.76724,1.29405 -2.76724,1.29403 v 6.73214 6.73212 l 3.59016,3.46761 c 3.27794,3.16619 3.82775,3.42976 6.32578,3.03225 2.16029,-0.34378 3.07097,-0.10663 4.32909,1.1271 4.6556,4.56547 -1.92085,11.35335 -6.80246,7.0211 -1.20625,-1.07047 -1.47461,-1.99286 -1.18839,-4.08521 0.33179,-2.42614 0.0306,-3.02856 -2.94224,-5.88998 l -3.31194,-3.18745 v 11.81229 11.81228 l 10.7569,10.52975 10.7569,10.52975 h 3.71295 c 2.79241,0 4.15273,0.40519 5.48687,1.63424 1.31644,1.21271 2.52439,1.58112 4.68332,1.42827 2.3176,-0.16411 3.15532,0.1386 4.11974,1.48871 2.54548,3.56398 0.34931,8.02201 -3.95206,8.02201 -2.97625,0 -4.82277,-2.21823 -4.5386,-5.45204 0.32261,-3.67321 -2.33784,-6.38159 -6.26864,-6.38159 h -2.88543 v 6.49467 6.49466 l 4.35867,4.22957 c 5.18535,5.03197 7.44411,5.45542 10.72544,2.01074 2.56572,-2.69333 4.73979,-2.81516 7.19922,-0.40342 2.20842,2.16561 2.34668,4.07714 0.46036,6.36158 -2.0069,2.43053 -5.90165,2.29035 -7.998,-0.28787 -1.18703,-1.45974 -2.28801,-1.97227 -4.23691,-1.97227 -2.23002,0 -3.3514,-0.71065 -7.32523,-4.64241 l -4.692,-4.64242 v -7.01659 -7.01658 l -10.18175,-9.96408 -10.18175,-9.96407 v 15.1576 15.15758 l 17.15818,16.80154 c 13.4653,13.18538 17.40172,16.64875 18.28944,16.09163 1.70419,-1.06942 5.87886,-0.87405 8.6245,0.40362 2.75295,1.28113 5.70539,5.83537 5.70539,8.80096 0,1.08346 -0.47685,2.86866 -1.05965,3.96711 -3.89764,7.3463 -13.69557,8.06178 -18.19437,1.32864 -1.75283,-2.62325 -1.61015,-8.28865 0.27159,-10.78445 l 1.50657,-1.99845 -17.28199,-16.93551 -17.28216,-16.93549 v -35.54323 -35.54321 l -2.60245,-0.92283 c -5.74978,-2.03888 -8.48607,-8.23604 -5.89995,-13.36185 l 1.46712,-2.9082 -16.84578,-16.50754 -16.84613,-16.50753 v 6.6734 6.6734 l 4.52517,4.39132 4.52534,4.39131 v 4.87709 c 0,4.45352 0.19659,5.06169 2.26267,7.00283 1.96812,1.84904 2.26267,2.64661 2.26267,6.12709 0,3.9289 0.0901,4.0933 4.99929,9.07947 4.93519,5.01304 5.04029,5.07259 8.20598,4.64708 2.62592,-0.35294 3.49647,-0.1471 4.80543,1.13659 2.01489,1.97586 2.02509,3.79475 0.0357,6.27529 -2.11318,2.63452 -5.33194,2.61872 -7.46196,-0.0366 -1.08244,-1.34953 -1.45623,-2.59358 -1.16713,-3.88441 0.36053,-1.61001 -0.38111,-2.68373 -4.87294,-7.0549 -5.22735,-5.08673 -5.29827,-5.20821 -5.29827,-9.05649 0,-3.41902 -0.32601,-4.2544 -2.63986,-6.7659 -2.43868,-2.64704 -2.6397,-3.22653 -2.6397,-7.60832 v -4.74303 l -4.14916,-4.01833 -4.14933,-4.01833 -4.52415,4.39025 -4.52414,4.39024 v 6.6959 6.69589 l 6.41081,6.25396 6.41081,6.25396 v 4.09229 4.09229 l 12.64101,12.38018 c 10.19434,9.9839 13.04083,12.38015 14.70692,12.38015 4.77329,0 6.84072,5.93268 3.07879,8.83449 -2.14209,1.65237 -4.1347,1.48905 -6.4807,-0.53118 -1.52222,-1.31072 -1.74585,-4.63131 -0.40101,-5.9502 0.72242,-0.70846 0.15816,-1.64734 -2.63969,-4.3909 l -3.55871,-3.48975 v 10.00269 10.0027 l 3.70139,3.5751 c 3.59034,3.46786 3.75377,3.53913 5.44724,2.3759 2.24702,-1.54336 3.8774,-1.51671 5.81985,0.0951 2.59445,2.15286 2.83101,4.98535 0.59929,7.17389 -1.05795,1.03743 -2.58,1.88624 -3.38252,1.88624 -2.27032,0 -4.71139,-2.37246 -5.28857,-5.13972 -0.2886,-1.38353 -0.9401,-2.65133 -1.44808,-2.81734 -0.67616,-0.22108 -0.92326,1.25886 -0.92326,5.53152 0,5.69574 0.0629,5.89257 2.63969,8.34234 l 2.6397,2.50898 v 7.78573 7.78574 l 4.63672,4.58778 c 4.49575,4.44816 4.69098,4.553 6.41524,3.44509 1.48548,-0.95451 2.15195,-0.991 4.0461,-0.22156 4.03981,1.64093 3.89475,7.76635 -0.21751,9.18453 -2.95856,1.02035 -6.12562,-1.38398 -6.4336,-4.88422 -0.17958,-2.04153 -1.23158,-3.5502 -5.09079,-7.30118 l -4.86461,-4.72791 v -7.57655 c 0,-7.36375 -0.0629,-7.64753 -2.2625,-10.10363 -2.17168,-2.4254 -2.26267,-2.80746 -2.26267,-9.49547 v -6.96839 l -2.63969,-2.50897 -2.63969,-2.50898 v -10.72651 -10.7265 l -8.67348,-8.61149 -8.67331,-8.61149 v -3.95114 -3.95114 l -6.41081,-6.4244 -6.41064,-6.42441 v -7.19337 -7.19336 l 4.9022,-4.97961 4.90236,-4.9796 v -7.10827 c 0,-3.94102 -0.33604,-7.31191 -0.75422,-7.56534 -0.48009,-0.29099 -0.75423,-10.09645 -0.75423,-26.98175 V 369.0804 l -2.61503,-0.84633 c -5.28841,-1.71157 -8.22095,-7.64528 -6.42119,-12.99299 l 0.91766,-2.72699 -13.28742,-13.04524 -13.28742,-13.04525 v -16.07908 -16.07884 h -5.65641 -5.65659 l 0.017,24.96156 0.017,24.96155 2.42763,1.1094 c 4.67057,2.13432 7.01385,7.95964 5.143,12.78515 -0.62395,1.60941 -0.0238,2.44132 6.03361,8.35324 l 6.72662,6.56583 v 15.56247 15.56247 l 6.78783,6.62558 6.78784,6.62558 v 7.75324 7.75324 l -3.01315,3.0107 c -2.85142,2.84921 -2.96553,3.13432 -2.12594,5.31546 1.28073,3.32729 -0.67157,6.15206 -4.25188,6.15206 -4.29422,0 -6.78392,-3.80418 -4.61479,-7.0507 1.25897,-1.88408 4.18947,-3.01058 6.03004,-2.31794 0.64981,0.24448 2.29889,-0.89294 4.14984,-2.86212 l 3.07166,-3.26783 v -6.87326 -6.87326 l -6.79328,-6.63102 -6.79345,-6.631 -7.70362,7.55444 c -6.71794,6.58784 -7.55158,7.67485 -6.51556,8.49544 5.10677,4.04453 4.83161,11.87602 -0.56342,16.03751 -1.10115,0.84949 -2.80499,1.54452 -3.78608,1.54452 -1.59602,0 -1.78377,0.33111 -1.78377,3.14716 v 3.14715 l 27.15134,26.61795 27.15134,26.61796 0.002,12.57707 0.002,12.57708 2.80296,1.4792 c 5.43006,2.86562 7.43305,7.97983 5.18874,13.24738 l -1.05489,2.47566 4.82584,4.69035 4.82583,4.69033 v 23.36674 23.36672 l 2.64497,1.23683 c 7.21792,3.37536 7.48849,14.28814 0.44267,17.86106 -3.0492,1.54636 -7.48951,1.439 -10.31287,-0.24934 z m -35.03607,-362.85909 0.0527,-41.04789 h -44.90968 -44.90968 l 0.0799,41.04789 0.0799,41.04788 h 44.77618 44.77601 z m -84.44507,0 V 215.8679 h 39.59576 39.59577 v 36.61027 36.61028 h -39.59577 -39.59576 z m 20.6487,19.20724 1.31474,-4.09022 9.12942,0.2073 9.12941,0.20731 1.25811,3.698 1.25812,3.69801 6.15929,0.21482 c 3.38745,0.11819 6.15282,0.11819 6.14483,0 0,-0.11819 -3.82825,-10.53225 -8.48981,-23.14246 l -8.4757,-22.92765 -6.888,-0.21157 -6.888,-0.21157 -0.75779,2.06056 c -0.41683,1.13333 -4.1876,11.34641 -8.37945,22.69575 -4.19201,11.34933 -7.62181,20.91792 -7.62181,21.26354 0,0.34562 2.65313,0.62839 5.89586,0.62839 h 5.89603 z m 6.93579,-20.13175 c 1.44688,-3.96611 2.81877,-7.71033 3.04886,-8.32051 0.33689,-0.89366 3.50888,6.63296 6.00028,14.23733 0.37992,1.15968 -0.20543,1.2943 -5.62785,1.2943 h -6.0518 z m 44.8192,0.92451 v -23.29745 h -6.03361 -6.03361 v 23.29745 23.29745 h 6.03361 6.03361 z m -18.10084,-76.39166 v -33.86457 l -3.60853,-3.48531 c -2.75874,-2.66474 -4.16668,-3.4853 -5.97971,-3.4853 -4.32143,0 -6.64243,-4.05225 -4.18113,-7.3 3.32998,-4.39391 9.95064,-1.43288 8.91395,3.98657 -0.36598,1.91248 -0.017,2.6724 2.21012,4.78747 l 2.6453,2.51414 v -7.37935 -7.37936 l -4.52533,-4.39131 -4.52517,-4.39129 v -4.97182 c 0,-5.58412 -0.47141,-6.18623 -4.6136,-5.89296 -2.16794,0.15357 -3.03339,-0.17227 -3.98063,-1.49858 -2.54565,-3.563957 -0.34931,-8.021987 3.95206,-8.021987 2.94631,0 4.64217,2.08205 4.64217,5.699577 0,1.75951 0.46648,3.37424 1.13125,3.91524 0.78194,0.63636 1.13142,2.32998 1.13142,5.48359 0,4.43085 0.0986,4.65733 3.39391,7.82924 l 3.39392,3.26639 v -5.58639 c 0,-4.64708 0.25356,-5.81144 1.50828,-6.92502 1.3411,-1.19008 1.50844,-2.27796 1.50844,-9.801357 v -8.46271 l 4.90237,-4.9796 4.90236,-4.97962 v -5.95743 c 0,-5.53846 -0.13265,-6.04264 -1.88564,-7.16896 -1.38481,-0.88985 -1.88547,-1.86386 -1.88547,-3.66843 0,-3.22617 2.09141,-5.08341 5.37394,-4.77211 4.69897,0.44563 6.00351,6.99471 1.77017,8.8862 -1.7268,0.77157 -1.86472,1.2187 -1.86472,6.04875 v 5.2156 l 3.77111,-3.64241 3.77094,-3.64239 v -8.04487 c 0,-7.35881 -0.13945,-8.15552 -1.63412,-9.34246 -3.38031,-2.68436 -1.1008,-8.92413 3.26042,-8.92413 1.84551,0 5.16154,3.19882 5.16154,4.97902 0,1.81714 -2.08955,4.6358 -3.4366,4.6358 -0.88687,0 -1.08857,1.61182 -1.08857,8.70141 v 8.70142 l -9.42753,9.22281 -9.42753,9.22283 v 8.21698 c 0,7.277697 -0.17244,8.370017 -1.50844,9.555657 -1.45131,1.28803 -1.50845,2.27794 -1.50845,26.17296 v 24.83432 l 8.29628,-8.1104 8.29628,-8.11039 v -19.95582 -19.95582 l 13.19848,-13.015687 13.19864,-13.01569 v -23.72534 -23.72535 l -1.82731,-0.44976 c -2.95108,-0.72631 -6.37578,-4.04141 -7.29989,-7.06628 -1.14655,-3.75239 0.0986,-7.39208 3.54289,-10.35778 2.16284,-1.86222 3.26875,-2.25576 6.33854,-2.25576 9.39691,0 13.83586,11.45151 6.71606,17.32634 -1.26882,1.04705 -3.12947,2.10611 -4.13453,2.35348 l -1.82731,0.44976 v 24.11575 24.11574 l -13.19865,13.01569 -13.19847,13.015697 v 18.80865 18.80866 l 23.0032,-22.54876 23.0032,-22.548737 v -11.36193 c 0,-11.23847 -0.0204,-11.37773 -1.88547,-12.81635 -3.74254,-2.88693 -1.69755,-8.74308 3.05328,-8.74308 2.04125,0 4.86597,2.94524 4.86597,5.0736 0,0.90751 -0.8486,2.48209 -1.88564,3.49904 -1.82748,1.79213 -1.88547,2.1604 -1.88547,11.97031 v 10.1213 l 7.16503,-6.99701 7.16486,-6.997 v -23.73783 -23.73783 l -1.88547,-1.73705 c -3.39902,-3.13139 -1.62715,-8.14545 2.87098,-8.12429 2.99342,0.0136 4.00648,0.62594 4.90474,2.96213 0.87191,2.26773 -0.0238,4.8017 -2.07662,5.87943 -1.42919,0.75004 -1.55096,1.49199 -1.55096,9.44736 v 8.63338 l 3.331,-3.20586 c 2.91417,-2.80461 3.28099,-3.50774 2.93186,-5.61775 -0.75797,-4.58103 5.26612,-7.50114 8.42144,-4.0821 3.0436,3.29795 0.58332,8.41641 -3.86481,8.04061 -2.05452,-0.17358 -3.10737,0.41609 -6.63087,3.7139 l -4.18862,3.92024 v 13.25353 13.25352 h 7.77113 7.77113 l 2.53783,-2.56764 c 2.03275,-2.05664 2.55008,-3.1909 2.59922,-5.69956 0.051,-2.59453 0.40832,-3.32367 2.08394,-4.24928 4.43996,-2.45254 9.0891,2.10043 6.60179,6.46511 -0.89164,1.56437 -1.77936,2.03049 -4.20069,2.20565 -2.3409,0.16938 -3.66891,0.82805 -5.5918,2.77352 l -2.52184,2.5514 h -8.34356 -8.34356 l -15.8249,15.53163 -15.82491,15.531627 h 6.58258 6.5824 l 1.05013,-2.46443 c 3.92196,-9.20485 17.78129,-7.73144 19.66013,2.09011 0.65814,3.44024 -1.65555,8.38987 -4.76342,10.19021 -5.21035,3.01818 -12.52725,0.70427 -14.71305,-4.65289 l -1.20131,-2.94419 h -7.74103 -7.74103 l -24.69583,24.22608 -24.69599,24.2261 v 23.4782 c 0,20.37645 -0.14965,23.47822 -1.13125,23.47822 -0.98908,0 -1.13125,-4.25581 -1.13125,-33.86458 z"
     id="path355" /></svg>
