<svg xmlns="http://www.w3.org/2000/svg" xmlns:xlink="http://www.w3.org/1999/xlink" width="1080" zoomAndPan="magnify" viewBox="0 0 810 809.999993" height="1080" preserveAspectRatio="xMidYMid meet" version="1.0"><defs><clipPath id="52809b6dc8"><path d="M 96.667969 256 L 138 256 L 138 298 L 96.667969 298 Z M 96.667969 256 " clip-rule="nonzero"/></clipPath></defs><rect x="-81" width="972" fill="#ffffff" y="-80.999999" height="971.999992" fill-opacity="1"/><rect x="-81" width="972" fill="#000000" y="-80.999999" height="971.999992" fill-opacity="1"/><path fill="#d9d9d9" d="M 487.921875 199.558594 C 458.113281 230.933594 386.894531 204.265625 362.421875 193.285156 C 350.1875 187.636719 336.382812 179.167969 320.695312 166.617188 C 296.539062 146.222656 245.085938 141.519531 215.277344 148.105469 C 180.453125 155.636719 148.453125 176.34375 127.117188 208.03125 L 126.804688 208.34375 C 110.804688 232.503906 104.527344 257.917969 105.785156 283.644531 C 105.785156 283.957031 105.785156 284.269531 105.785156 284.269531 C 106.410156 289.917969 107.039062 295.878906 107.980469 301.527344 C 114.566406 337.292969 134.648438 372.117188 161.628906 402.238281 C 194.257812 438.632812 203.984375 495.105469 212.769531 546.871094 C 216.847656 569.460938 220.300781 591.109375 225.632812 610.246094 C 239.75 660.445312 265.164062 692.132812 331.992188 673.308594 C 334.5 672.683594 336.382812 669.859375 335.441406 667.035156 C 335.441406 666.40625 334.816406 665.464844 334.5 665.152344 C 323.519531 651.347656 316.304688 634.71875 313.792969 617.777344 C 311.285156 600.519531 313.167969 582.953125 319.753906 566.324219 C 327.914062 545.929688 339.519531 530.871094 353.324219 521.144531 C 366.816406 511.734375 382.1875 507.027344 397.25 507.027344 C 412.308594 507.027344 427.996094 511.734375 441.171875 521.144531 C 454.976562 531.183594 467.214844 546.242188 475.058594 566.324219 C 481.332031 582.953125 483.214844 600.835938 480.703125 617.777344 C 478.195312 634.71875 471.292969 651.347656 459.996094 665.464844 C 458.429688 667.660156 458.429688 670.800781 460.625 672.367188 C 460.9375 672.683594 462.507812 673.308594 462.507812 673.308594 C 529.335938 692.132812 554.746094 660.445312 568.867188 610.246094 C 574.199219 591.109375 577.964844 569.460938 581.730469 546.871094 C 590.828125 495.105469 600.238281 438.632812 633.183594 402.238281 C 660.164062 372.429688 680.242188 337.292969 686.832031 301.527344 C 699.695312 229.367188 650.125 163.480469 579.53125 148.105469 C 493.882812 129.28125 462.507812 186.695312 415.132812 199.246094 C 440.230469 207.402344 464.390625 207.402344 487.921875 199.558594 Z M 392.542969 235.640625 L 392.542969 485.066406 L 374.03125 456.199219 L 374.03125 455.886719 L 329.167969 385.921875 Z M 324.460938 396.902344 L 353.011719 441.140625 L 316.304688 416.667969 Z M 312.226562 425.765625 L 362.421875 459.652344 L 245.398438 584.207031 Z M 318.1875 386.863281 L 307.832031 411.023438 L 273.007812 387.492188 L 297.480469 354.546875 Z M 377.167969 247.25 L 322.578125 375.882812 L 303.441406 346.078125 Z M 376.226562 231.875 L 297.792969 337.292969 L 274.578125 300.898438 Z M 264.851562 304.035156 L 291.832031 345.761719 L 264.851562 382.15625 L 129.941406 290.859375 Z M 116.765625 293.683594 L 258.890625 389.6875 L 204.613281 462.789062 C 196.453125 437.691406 185.789062 414.472656 169.160156 395.960938 C 143.117188 367.097656 123.667969 333.839844 117.707031 300.269531 C 117.078125 298.074219 117.078125 295.878906 116.765625 293.683594 Z M 385.640625 213.679688 L 278.027344 286.464844 L 319.753906 178.539062 C 332.617188 188.265625 344.855469 196.109375 357.089844 202.382812 C 366.816406 207.402344 376.226562 211.167969 385.640625 213.679688 Z M 308.148438 181.363281 L 266.734375 288.347656 L 226.886719 225.914062 Z M 218.101562 230.621094 L 258.261719 293.367188 L 127.117188 280.503906 Z M 212.769531 222.464844 L 124.609375 270.78125 L 182.335938 174.773438 Z M 237.867188 606.167969 L 369.324219 466.554688 L 388.777344 497.300781 C 374.660156 498.871094 360.542969 503.890625 347.679688 512.988281 C 332.304688 523.96875 319.128906 540.28125 310.34375 562.558594 C 303.125 580.753906 301.246094 600.207031 304.066406 619.03125 C 305.949219 630.953125 309.402344 642.25 315.050781 652.917969 Z M 238.496094 618.089844 L 318.1875 666.722656 C 272.066406 675.820312 250.730469 653.855469 238.496094 618.089844 Z M 267.046875 395.335938 L 304.066406 420.121094 L 231.28125 591.738281 C 228.140625 577.304688 225.320312 561.617188 222.496094 545.304688 C 218.417969 522.085938 214.339844 497.613281 208.0625 474.398438 Z M 167.589844 180.109375 L 116.136719 265.445312 C 118.019531 247.875 123.980469 230.933594 134.960938 213.992188 L 134.960938 213.679688 C 144.058594 200.5 155.039062 189.207031 167.589844 180.109375 Z M 307.519531 170.382812 L 221.242188 217.757812 L 189.238281 167.558594 C 198.335938 163.167969 207.75 160.34375 217.160156 158.144531 C 246.96875 151.558594 278.96875 155.324219 307.519531 170.382812 Z M 307.519531 170.382812 " fill-opacity="1" fill-rule="evenodd"/><path fill="#d9d9d9" d="M 183.277344 186.382812 C 194.570312 186.382812 203.671875 177.285156 203.671875 165.988281 C 203.671875 155.007812 194.570312 145.597656 183.277344 145.597656 C 172.296875 145.597656 162.882812 154.695312 162.882812 165.988281 C 163.199219 177.285156 172.296875 186.382812 183.277344 186.382812 Z M 183.277344 186.382812 " fill-opacity="1" fill-rule="evenodd"/><g clip-path="url(#52809b6dc8)"><path fill="#d9d9d9" d="M 117.078125 297.449219 C 128.371094 297.449219 137.472656 288.347656 137.472656 277.054688 C 137.472656 265.757812 128.371094 256.660156 117.078125 256.660156 C 106.097656 256.660156 96.683594 265.757812 96.683594 277.054688 C 96.683594 288.035156 105.785156 297.449219 117.078125 297.449219 Z M 117.078125 297.449219 " fill-opacity="1" fill-rule="evenodd"/></g><path fill="#d9d9d9" d="M 266.734375 308.742188 C 277.714844 308.742188 287.125 299.644531 287.125 288.347656 C 287.125 277.367188 278.027344 267.957031 266.734375 267.957031 C 255.4375 267.957031 246.339844 277.054688 246.339844 288.347656 C 246.652344 299.644531 255.4375 308.742188 266.734375 308.742188 Z M 266.734375 308.742188 " fill-opacity="1" fill-rule="evenodd"/><path fill="#d9d9d9" d="M 236.300781 624.992188 C 247.59375 624.992188 256.691406 615.894531 256.691406 604.601562 C 256.691406 593.304688 247.59375 584.207031 236.300781 584.207031 C 225.320312 584.207031 215.90625 593.304688 215.90625 604.601562 C 215.90625 615.894531 225.003906 624.992188 236.300781 624.992188 Z M 236.300781 624.992188 " fill-opacity="1" fill-rule="evenodd"/><path fill="#d9d9d9" d="M 265.476562 408.511719 C 276.773438 408.511719 285.871094 399.414062 285.871094 388.117188 C 285.871094 376.824219 276.773438 367.726562 265.476562 367.726562 C 254.496094 367.726562 245.085938 376.824219 245.085938 388.117188 C 245.398438 399.414062 254.496094 408.511719 265.476562 408.511719 Z M 265.476562 408.511719 " fill-opacity="1" fill-rule="evenodd"/></svg>