<svg xmlns="http://www.w3.org/2000/svg" xmlns:xlink="http://www.w3.org/1999/xlink" width="1080" zoomAndPan="magnify" viewBox="0 0 810 809.999993" height="1080" preserveAspectRatio="xMidYMid meet" version="1.0"><defs><g/><clipPath id="38119814eb"><path d="M 377 386.011719 L 539 386.011719 L 539 550 L 377 550 Z M 377 386.011719 " clip-rule="nonzero"/></clipPath></defs><path fill="#67a11d" d="M 433.625 455.554688 C 381.292969 468.394531 353.539062 407.875 311.859375 407.875 C 282.71875 407.875 243.070312 446.3125 304.242188 555.117188 C 304.242188 555.117188 273.019531 433.328125 312.625 430.140625 C 345.773438 430.523438 381.71875 497.695312 433.625 455.554688 Z M 433.625 455.554688 " fill-opacity="1" fill-rule="nonzero"/><g clip-path="url(#38119814eb)"><path fill="#006b8d" d="M 377.933594 433.691406 C 430.277344 446.53125 458.027344 386.011719 499.707031 386.011719 C 528.855469 386.011719 566.886719 440.445312 505.714844 549.253906 C 505.714844 549.253906 538.550781 411.46875 498.945312 408.277344 C 465.792969 408.664062 429.847656 475.835938 377.933594 433.691406 Z M 377.933594 433.691406 " fill-opacity="1" fill-rule="nonzero"/></g><path fill="#006b8d" d="M 336.113281 503.453125 C 336.113281 503.453125 411.15625 570.605469 461.554688 479.742188 C 461.554688 479.742188 427.417969 604.230469 336.113281 503.453125 Z M 336.113281 503.453125 " fill-opacity="1" fill-rule="nonzero"/><path fill="#006b8d" d="M 450.695312 473.238281 C 450.695312 473.238281 467.632812 462.222656 471.105469 483.640625 C 471.105469 483.640625 473.847656 451.511719 450.695312 473.238281 Z M 450.695312 473.238281 " fill-opacity="1" fill-rule="nonzero"/><path fill="#67a11d" d="M 344.308594 496.261719 C 344.308594 496.261719 325.21875 489.660156 327.019531 511.285156 C 327.015625 511.285156 316.589844 480.765625 344.308594 496.261719 Z M 344.308594 496.261719 " fill-opacity="1" fill-rule="nonzero"/><g fill="#000000" fill-opacity="1"><g transform="translate(251.953522, 649.019594)"><g><path d="M 2.109375 -25.21875 L 2.109375 0 L 11.0625 0 L 11.0625 -12.046875 L 17.0625 -4.296875 L 23.03125 -11.90625 L 23.03125 0 L 31.984375 0 L 31.984375 -25.21875 L 23.875 -25.21875 L 17.0625 -16.515625 L 10.328125 -25.21875 Z M 2.109375 -25.21875 "/></g></g></g><g fill="#000000" fill-opacity="1"><g transform="translate(286.053957, 649.019594)"><g><path d="M 10.953125 -25.21875 L 0.296875 0 L 9.46875 0 L 10.953125 -3.890625 L 20.3125 -3.890625 L 21.71875 0 L 30.9375 0 L 20.3125 -25.21875 Z M 15.640625 -16.921875 L 18.40625 -9.140625 L 12.8125 -9.140625 Z M 15.640625 -16.921875 "/></g></g></g><g fill="#000000" fill-opacity="1"><g transform="translate(317.279328, 649.019594)"><g><path d="M 0.359375 -25.21875 L 10.765625 0 L 18.015625 0 L 28.171875 -25.21875 L 20.015625 -25.21875 L 15.171875 -12.265625 L 10.046875 -25.21875 Z M 0.359375 -25.21875 "/></g></g></g><g fill="#000000" fill-opacity="1"><g transform="translate(345.811598, 649.019594)"><g><path d="M 2.109375 -25.21875 L 2.109375 0 L 20.640625 0 L 20.640625 -5.671875 L 11.0625 -5.671875 L 11.0625 -9.9375 L 19.90625 -9.9375 L 19.90625 -15.609375 L 11.0625 -15.609375 L 11.0625 -19.546875 L 20.453125 -19.546875 L 20.453125 -25.21875 Z M 2.109375 -25.21875 "/></g></g></g><g fill="#000000" fill-opacity="1"><g transform="translate(367.356367, 649.019594)"><g><path d="M 2.109375 -25.21875 L 2.109375 0 L 11.0625 0 L 11.0625 -11.90625 L 22.046875 0 L 29.84375 0 L 29.84375 -25.21875 L 20.890625 -25.21875 L 20.890625 -13.25 L 9.828125 -25.21875 Z M 2.109375 -25.21875 "/></g></g></g><g fill="#000000" fill-opacity="1"><g transform="translate(399.309601, 649.019594)"><g/></g></g><g fill="#000000" fill-opacity="1"><g transform="translate(411.6469, 649.019594)"><g><path d="M 2.109375 -25.21875 L 2.109375 0 L 13.171875 0 C 15.96875 0 18.125 -0.1875 19.5 -0.578125 C 24.75 -2 27.6875 -7.421875 27.6875 -12.375 C 27.6875 -15.9375 26.453125 -19 23.984375 -21.5 C 21.5 -24.015625 17.984375 -25.21875 13.28125 -25.21875 Z M 11.0625 -19.171875 L 12.234375 -19.171875 C 15.21875 -19.171875 16.8125 -18.375 17.90625 -16.34375 C 18.453125 -15.328125 18.734375 -14.046875 18.734375 -12.515625 C 18.734375 -9.25 17.328125 -7.34375 15.796875 -6.65625 C 15.03125 -6.328125 13.96875 -6.109375 12.765625 -6.109375 L 11.0625 -6.109375 Z M 11.0625 -19.171875 "/></g></g></g><g fill="#000000" fill-opacity="1"><g transform="translate(440.288348, 649.019594)"><g><path d="M 2.109375 -25.21875 L 2.109375 0 L 20.640625 0 L 20.640625 -5.671875 L 11.0625 -5.671875 L 11.0625 -9.9375 L 19.90625 -9.9375 L 19.90625 -15.609375 L 11.0625 -15.609375 L 11.0625 -19.546875 L 20.453125 -19.546875 L 20.453125 -25.21875 Z M 2.109375 -25.21875 "/></g></g></g><g fill="#000000" fill-opacity="1"><g transform="translate(461.833123, 649.019594)"><g><path d="M 2.109375 -25.21875 L 2.109375 0 L 11.0625 0 L 11.0625 -11.90625 L 22.046875 0 L 29.84375 0 L 29.84375 -25.21875 L 20.890625 -25.21875 L 20.890625 -13.25 L 9.828125 -25.21875 Z M 2.109375 -25.21875 "/></g></g></g><g fill="#000000" fill-opacity="1"><g transform="translate(493.786345, 649.019594)"><g><path d="M 0.765625 -25.21875 L 0.765625 -18.8125 L 8.046875 -18.8125 L 8.046875 0 L 17 0 L 17 -18.8125 L 24.265625 -18.8125 L 24.265625 -25.21875 Z M 0.765625 -25.21875 "/></g></g></g><g fill="#000000" fill-opacity="1"><g transform="translate(518.824872, 649.019594)"><g><path d="M 10.953125 -25.21875 L 0.296875 0 L 9.46875 0 L 10.953125 -3.890625 L 20.3125 -3.890625 L 21.71875 0 L 30.9375 0 L 20.3125 -25.21875 Z M 15.640625 -16.921875 L 18.40625 -9.140625 L 12.8125 -9.140625 Z M 15.640625 -16.921875 "/></g></g></g><g fill="#000000" fill-opacity="1"><g transform="translate(550.050236, 649.019594)"><g><path d="M 2.109375 -25.21875 L 2.109375 0 L 20.421875 0 L 20.421875 -6.40625 L 11.0625 -6.40625 L 11.0625 -25.21875 Z M 2.109375 -25.21875 "/></g></g></g><g fill="#000000" fill-opacity="1"><g transform="translate(571.014952, 649.019594)"><g/></g></g></svg>