<svg width="59" height="71" viewBox="0 0 59 71" fill="none" xmlns="http://www.w3.org/2000/svg">
<path d="M58.9998 15.4952V65.8303C58.9998 68.329 56.9733 70.3539 54.4746 70.3539H5.4375C2.93883 70.3539 0.91394 68.329 0.91394 65.8303V15.4952C0.91394 12.9965 2.93883 10.97 5.4375 10.97H54.4746C56.9733 10.97 58.9998 12.9965 58.9998 15.4952Z" fill="#666666"/>
<path d="M48.1686 38.9085C49.6024 37.0972 50.4615 34.8115 50.4615 32.3272C50.4615 26.4687 45.6953 21.7024 39.8365 21.7024H31.7412V20.3207C31.7412 19.335 30.9421 18.5359 29.9564 18.5359C28.9706 18.5359 28.1717 19.335 28.1717 20.3207V21.7024H20.0761C14.2174 21.7024 9.45129 26.4687 9.45129 32.3272C9.45129 34.8115 10.3104 37.0971 11.7442 38.9085C11.1562 40.1794 10.8256 41.5926 10.8256 43.0824C10.8256 45.6495 11.8007 47.9929 13.3995 49.7626C12.8514 50.9368 12.5435 52.2447 12.5435 53.6237C12.5435 58.6771 16.6548 62.7884 21.7081 62.7884C22.6937 62.7884 23.4928 61.9893 23.4928 61.0036C23.4928 60.0178 22.6937 59.2189 21.7081 59.2189C18.6229 59.2189 16.1128 56.7089 16.1128 53.6237C16.1128 53.0618 16.197 52.5194 16.3518 52.0073C17.6924 52.6782 19.2029 53.0582 20.8012 53.0582C21.7871 53.0582 22.586 52.2593 22.586 51.2734C22.586 50.2878 21.7871 49.4887 20.8012 49.4887C19.9848 49.4887 19.2044 49.3336 18.4858 49.0539C19.3974 48.4091 20.5089 48.0286 21.7081 48.0286H28.1713V56.6649C28.1713 57.6506 28.9703 58.4496 29.9561 58.4496C30.9418 58.4496 31.7409 57.6506 31.7409 56.6649V48.0286H38.2043C39.4035 48.0286 40.5147 48.4091 41.4264 49.0539C40.7077 49.3336 39.9272 49.4887 39.1108 49.4887C38.1251 49.4887 37.326 50.2878 37.326 51.2734C37.326 52.2593 38.1251 53.0582 39.1108 53.0582C40.7091 53.0582 42.2197 52.6782 43.5602 52.0071C43.7151 52.5192 43.7992 53.0618 43.7992 53.6237C43.7992 56.7089 41.2893 59.2189 38.2041 59.2189C37.2183 59.2189 36.4194 60.0178 36.4194 61.0036C36.4194 61.9893 37.2183 62.7884 38.2041 62.7884C43.2576 62.7884 47.3687 58.6771 47.3687 53.6237C47.3687 52.2445 47.0608 50.9366 46.5127 49.7624C48.1113 47.9927 49.0866 45.6493 49.0866 43.0824C49.0871 41.5926 48.7566 40.1794 48.1686 38.9085ZM39.8365 25.2721C43.727 25.2721 46.892 28.4371 46.892 32.3274C46.892 33.6035 46.5497 34.8004 45.9549 35.8341C44.167 34.1453 41.7589 33.1065 39.1113 33.1065H31.7412V25.2721H39.8365ZM20.0761 25.2721H28.1717V33.1065H20.8016C18.154 33.1065 15.7457 34.1453 13.958 35.8341C13.363 34.8003 13.0208 33.6033 13.0208 32.3274C13.0208 28.4369 16.1858 25.2721 20.0761 25.2721ZM21.7084 44.4591C19.3603 44.4591 17.2161 45.3476 15.5928 46.8051C14.8401 45.755 14.3952 44.4699 14.3952 43.0824C14.3952 42.5129 14.4709 41.9609 14.611 41.4349C16.2091 42.3973 18.0788 42.9522 20.0763 42.9522C21.0621 42.9522 21.8611 42.1532 21.8611 41.1675C21.8611 40.1818 21.0621 39.3827 20.0763 39.3827C18.7536 39.3827 17.5153 39.0162 16.4563 38.3805C17.5991 37.3234 19.1258 36.676 20.8017 36.676H28.1718V44.4592L21.7084 44.4591ZM31.7412 44.4591V36.6759H39.1113C40.787 36.6759 42.3138 37.3233 43.4567 38.3803C42.3977 39.016 41.1594 39.3826 39.8367 39.3826C38.851 39.3826 38.0519 40.1816 38.0519 41.1673C38.0519 42.153 38.851 42.9521 39.8367 42.9521C41.8342 42.9521 43.7041 42.3972 45.302 41.4347C45.4422 41.9607 45.5178 42.5127 45.5178 43.0822C45.5178 44.4698 45.0729 45.7548 44.3202 46.8049C42.6967 45.3475 40.5529 44.4589 38.2048 44.4589L31.7412 44.4591Z" fill="#E6E6E6"/>
<path d="M58.9998 7.56279V15.4952H0.91394V7.56279C0.91394 5.89485 2.26565 4.54346 3.93181 4.54346H55.9803C57.6483 4.54329 58.9998 5.89485 58.9998 7.56279Z" fill="#E6E6E6"/>
<path d="M33.3636 0H26.5491V8.76156H33.3636V0Z" fill="#FF5069"/>
<path d="M28.1716 43.6754L27.8948 44.4595H28.1716V43.6754ZM39.1112 36.6762H31.7411V44.4594H38.2046C40.5527 44.4594 42.6967 45.3479 44.32 46.8054C45.0727 45.7553 45.5175 44.4702 45.5175 43.0827C45.5175 42.5132 45.4418 41.9612 45.3018 41.4352C43.7039 42.3976 41.8341 42.9525 39.8365 42.9525C38.8508 42.9525 38.0517 42.1535 38.0517 41.1678C38.0517 40.1821 38.8508 39.383 39.8365 39.383C41.159 39.383 42.3975 39.0165 43.4565 38.3808C42.3137 37.3237 40.787 36.6762 39.1112 36.6762ZM39.8365 25.2724H34.6662L31.9014 33.1068H39.1112C41.759 33.1068 44.1671 34.1455 45.9548 35.8344C46.5496 34.8006 46.892 33.6036 46.892 32.3277C46.892 28.4372 43.727 25.2724 39.8365 25.2724ZM58.9998 15.4951H38.1165L35.9258 21.7028H39.8365C45.6952 21.7028 50.4615 26.4691 50.4615 32.3277C50.4615 34.8119 49.6024 37.0975 48.1686 38.9089C48.7566 40.1798 49.0871 41.593 49.0871 43.0828C49.0871 45.65 48.1119 47.9932 46.5131 49.7629C47.0612 50.9371 47.3692 52.245 47.3692 53.6241C47.3692 58.6776 43.258 62.7889 38.2046 62.7889C37.2187 62.7889 36.4198 61.9898 36.4198 61.0041C36.4198 60.0183 37.2187 59.2193 38.2046 59.2193C41.2898 59.2193 43.7996 56.7093 43.7996 53.6241C43.7996 53.0622 43.7154 52.5197 43.5606 52.0076C42.2201 52.6787 40.7096 53.0587 39.1112 53.0587C38.1256 53.0587 37.3265 52.2597 37.3265 51.2739C37.3265 50.2882 38.1256 49.4892 39.1112 49.4892C39.9277 49.4892 40.7081 49.334 41.4269 49.0543C40.5152 48.4095 39.4038 48.029 38.2047 48.029H31.7413V56.6653C31.7413 57.651 30.9422 58.4501 29.9565 58.4501C28.9707 58.4501 28.1718 57.651 28.1718 56.6653V48.029H26.6354L22.6019 59.4587C23.1349 59.7674 23.4933 60.3437 23.4933 61.0041C23.4933 61.9898 22.6942 62.7889 21.7085 62.7889C21.6147 62.7889 21.5213 62.7874 21.4281 62.7846L18.7568 70.354H54.4748C56.9734 70.354 59 68.3291 59 65.8304L58.9998 15.4951Z" fill="#959595"/>
<path d="M22.6017 59.4583L21.428 62.7843C21.5211 62.787 21.6146 62.7885 21.7083 62.7885C22.694 62.7885 23.4931 61.9894 23.4931 61.0037C23.4931 60.3435 23.1347 59.7671 22.6017 59.4583ZM31.7411 44.4592V36.676H39.1112C40.787 36.676 42.3137 37.3234 43.4566 38.3804C42.3976 39.0161 41.1593 39.3826 39.8367 39.3826C38.851 39.3826 38.0519 40.1817 38.0519 41.1674C38.0519 42.1531 38.851 42.9522 39.8367 42.9522C41.8341 42.9522 43.7041 42.3973 45.3019 41.4348C45.4421 41.9608 45.5177 42.5128 45.5177 43.0823C45.5177 44.4699 45.0728 45.7549 44.3201 46.805C42.6967 45.3476 40.5528 44.459 38.2047 44.459L31.7411 44.4592ZM39.8365 21.7026H35.9258L34.666 25.2722H39.8365C43.727 25.2722 46.892 28.4372 46.892 32.3275C46.892 33.6036 46.5496 34.8005 45.9548 35.8342C44.167 34.1453 41.7589 33.1066 39.1112 33.1066H31.9014L28.1718 43.6752V44.4593H27.895L26.6353 48.0288H28.1716V56.6651C28.1716 57.6508 28.9705 58.4499 29.9564 58.4499C30.9421 58.4499 31.7411 57.6508 31.7411 56.6651V48.0288H38.2046C39.4038 48.0288 40.515 48.4093 41.4267 49.0541C40.7079 49.3338 39.9275 49.4889 39.1111 49.4889C38.1254 49.4889 37.3263 50.288 37.3263 51.2737C37.3263 52.2595 38.1254 53.0585 39.1111 53.0585C40.7094 53.0585 42.22 52.6785 43.5605 52.0074C43.7154 52.5195 43.7995 53.062 43.7995 53.6239C43.7995 56.7091 41.2896 59.2191 38.2044 59.2191C37.2186 59.2191 36.4197 60.0181 36.4197 61.0039C36.4197 61.9896 37.2186 62.7887 38.2044 62.7887C43.2579 62.7887 47.369 58.6774 47.369 53.6239C47.369 52.2448 47.0611 50.9369 46.513 49.7627C48.1116 47.993 49.0869 45.6496 49.0869 43.0826C49.0869 41.5928 48.7564 40.1796 48.1684 38.9087C49.6022 37.0975 50.4613 34.8117 50.4613 32.3275C50.4615 26.4688 45.6952 21.7026 39.8365 21.7026Z" fill="#EEEEEE"/>
<path d="M55.9803 4.54297H41.9829L39.7146 10.9697L38.1165 15.4949H58.9998V7.56246C58.9998 5.89452 57.6482 4.54297 55.9803 4.54297Z" fill="#EEEEEE"/>
</svg>
