<svg width="98" height="71" viewBox="0 0 98 71" fill="none" xmlns="http://www.w3.org/2000/svg">
<path d="M3.54853 56.7765C1.65598 56.7765 0 55.1205 0 53.228C0 51.3354 1.65598 49.6794 3.54853 49.6794H93.9177C95.8103 49.6794 97.2297 51.3354 97.2297 53.228C97.2297 55.1205 95.8103 56.7765 93.9177 56.7765H3.54853Z" fill="#2554B0"/>
<path d="M35.722 38.7972C34.3025 40.2166 32.1734 40.2166 30.754 38.7972C29.3346 37.3778 29.3346 35.2487 30.754 33.8293L44.0019 20.5814C45.1847 19.162 47.5504 19.162 48.9698 20.5814L57.9594 29.8076L79.9603 7.80675C81.3797 6.38733 83.5088 6.38733 84.9282 7.80675C86.3476 9.22616 86.3476 11.3553 84.9282 12.7747L60.5616 37.1412C59.1422 38.5607 57.0131 38.5607 55.5937 37.1412L46.3675 28.1516L35.722 38.7972Z" fill="#479DFF"/>
<path d="M20.5814 66.9489C20.5814 68.8415 19.162 70.2609 17.2695 70.2609C15.1404 70.2609 13.7209 68.8415 13.7209 66.9489V3.54853C13.7209 1.65598 15.1404 0 17.2695 0C19.162 0 20.5814 1.65598 20.5814 3.54853V66.9489Z" fill="#2554B0"/>
</svg>
