<svg width="75" height="70" viewBox="0 0 75 70" fill="none" xmlns="http://www.w3.org/2000/svg">
<path d="M38.8745 52.7002C38.5962 52.7002 38.3142 52.6537 38.037 52.5562C36.7357 52.0925 36.0557 50.6642 36.5185 49.363L40.144 39.1627C40.6055 37.8615 42.0325 37.1827 43.3372 37.6442C44.6385 38.108 45.3185 39.5362 44.8557 40.8375L41.2302 51.0377C40.8667 52.0605 39.9022 52.7002 38.8745 52.7002Z" fill="#00ACBA"/>
<path d="M72.5 20H2.5C1.1195 20 0 18.8805 0 17.5V2.5C0 1.1195 1.1195 0 2.5 0H72.5C73.8805 0 75 1.1195 75 2.5V17.5C75 18.8805 73.8805 20 72.5 20ZM5 15H70V5H5V15Z" fill="#00ACBA"/>
<path d="M57.5 45C56.1195 45 55 43.8818 55 42.5C55 34.2285 47.1497 27.5 37.5 27.5C27.8503 27.5 20 34.2285 20 42.5C20 43.8818 18.8805 45 17.5 45C16.1195 45 15 43.8818 15 42.5C15 31.4722 25.094 22.5 37.5 22.5C49.906 22.5 60 31.4722 60 42.5C60 43.8818 58.8805 45 57.5 45Z" fill="#F5D803"/>
<path d="M37.5 62.5C33.3643 62.5 30 59.1357 30 55C30 50.8643 33.3643 47.5 37.5 47.5C41.6357 47.5 45 50.8643 45 55C45 59.1357 41.6357 62.5 37.5 62.5ZM37.5 52.5C36.1217 52.5 35 53.6205 35 55C35 56.3795 36.1217 57.5 37.5 57.5C38.8783 57.5 40 56.3795 40 55C40 53.6205 38.8783 52.5 37.5 52.5Z" fill="#00ACBA"/>
<path d="M37.5 32.5C36.1195 32.5 35 31.3805 35 30V25C35 23.6195 36.1195 22.5 37.5 22.5C38.8805 22.5 40 23.6195 40 25V30C40 31.3805 38.8805 32.5 37.5 32.5Z" fill="#F5D803"/>
<path d="M25.0001 40.0002C24.3604 40.0002 23.7209 39.756 23.2326 39.2677L19.9831 36.0182C19.0066 35.0417 19.0066 33.4597 19.9831 32.483C20.9596 31.5062 22.5416 31.5065 23.5184 32.483L26.7679 35.7325C27.7444 36.709 27.7444 38.291 26.7679 39.2677C26.2794 39.756 25.6399 40.0002 25.0001 40.0002Z" fill="#F5D803"/>
<path d="M50.0001 37.5001C49.3604 37.5001 48.7209 37.2559 48.2326 36.7676C47.2561 35.7911 47.2561 34.2091 48.2326 33.2324L51.4821 29.9829C52.4586 29.0064 54.0406 29.0064 55.0174 29.9829C55.9941 30.9594 55.9939 32.5414 55.0174 33.5181L51.7676 36.7676C51.2794 37.2559 50.6399 37.5001 50.0001 37.5001Z" fill="#F5D803"/>
<path d="M15 12.5H10C8.6195 12.5 7.5 11.3805 7.5 10C7.5 8.6195 8.6195 7.5 10 7.5H15C16.3805 7.5 17.5 8.6195 17.5 10C17.5 11.3805 16.3805 12.5 15 12.5Z" fill="#F5D803"/>
<path d="M27.5 12.5H22.5C21.1195 12.5 20 11.3805 20 10C20 8.6195 21.1195 7.5 22.5 7.5H27.5C28.8805 7.5 30 8.6195 30 10C30 11.3805 28.8805 12.5 27.5 12.5Z" fill="#F5D803"/>
<path d="M72.5 70H2.5C1.1195 70 0 68.8818 0 67.5V2.5C0 1.1195 1.1195 0 2.5 0H72.5C73.8805 0 75 1.1195 75 2.5V67.5C75 68.8818 73.8805 70 72.5 70ZM5 65H70V5H5V65Z" fill="#0181B0"/>
</svg>
