<svg width="73" height="70" viewBox="0 0 73 70" fill="none" xmlns="http://www.w3.org/2000/svg">
<path d="M44.1242 38.1467C45.1888 38.1467 46.0519 37.299 46.0519 36.2534C46.0519 35.2078 45.1888 34.3601 44.1242 34.3601C43.0596 34.3601 42.1965 35.2078 42.1965 36.2534C42.1965 37.299 43.0596 38.1467 44.1242 38.1467Z" fill="#FED298"/>
<path d="M23.5221 0.991211H22.2065V69.971H23.5221V0.991211Z" fill="#15BDB2"/>
<path d="M34.2045 14.5032L34.221 22.8932C34.2644 29.9693 34.3009 36.2135 34.7427 41.6149H33.8816C33.4807 36.1977 33.4725 29.9619 33.429 22.8992L33.4124 14.5112L34.2045 14.5032Z" fill="#FEFEFE"/>
<path d="M66.01 19.2585C68.4962 20.0272 69.8886 22.6656 69.12 25.1516C68.7667 26.293 68.0216 27.1037 67.0905 27.6026L66.4177 30.3929L62.6075 28.8036L63.1049 27.7093C60.9461 27.5187 60.0255 27.4028 60.7815 25.7808C60.4668 25.5943 60.3421 24.9983 60.7372 24.7496C60.7372 24.7496 60.5555 24.4617 60.623 24.2437C60.6903 24.0256 61.0293 23.6666 61.0391 23.6625C60.1881 23.5557 59.9778 23.1268 60.1605 22.8238C60.3945 22.4363 61.7937 21.9514 62.0361 20.8064C62.209 19.9904 62.7785 19.4199 63.0166 19.3281C63.9473 18.9914 64.9916 18.9434 66.01 19.2585Z" fill="#FED298"/>
<path d="M63.0212 19.327C63.0212 19.327 66.2108 19.3254 66.8642 20.4629C67.5177 21.6003 66.0265 21.8256 66.5444 22.4902C67.0626 23.1546 66.602 24.678 66.602 24.678L67.1719 24.7525C67.1719 24.7525 67.4041 23.7862 68.131 24.1643C68.8581 24.5422 68.1913 26.0625 67.3514 26.4383C66.5112 26.8144 67.1651 27.7243 67.1651 27.7243C70.2855 25.7678 70.7323 21.6694 69.421 19.9914C67.9758 18.1419 63.507 17.2911 63.0212 19.327Z" fill="#666666"/>
<path d="M41.9289 37.8627H53.0485L57.7205 31.4502C61.2827 24.7245 70.2953 29.5618 66.1247 35.9268L61.0158 43.7243C59.8041 45.5736 58.696 46.4034 56.437 46.3024H41.9287L41.9289 37.8627Z" fill="#15BDB2"/>
<path d="M5.57596 37.2971H40.9393V47.4837H0.482666V42.3902C0.482666 39.5891 2.77482 37.2971 5.57596 37.2971Z" fill="#FAD24D"/>
<path d="M0 47.4431H69.0424V50.3066H0V47.4431Z" fill="#EEF3F7"/>
<path d="M70.5457 34.3289H70.546C71.3729 34.3289 72.0494 35.0054 72.0494 35.8325V68.2784H69.0425V35.8325C69.0423 35.0052 69.7188 34.3289 70.5457 34.3289Z" fill="#EEF3F7"/>
<path d="M0 50.3065H69.0424V49.552H0V50.3065Z" fill="#D9DADA"/>
<path d="M43.2541 37.3456V47.443H40.9399V37.3456C40.9399 36.5303 43.2541 36.5303 43.2541 37.3456Z" fill="#FFF985"/>
<path d="M68.0347 35.5496L68.0349 35.5498C69.1227 36.2854 69.4106 37.7769 68.6746 38.8646L64.7635 44.6464C64.0279 45.7341 62.5366 46.0221 61.4487 45.2861L61.4485 45.2857C60.3607 44.5501 60.0732 43.0587 60.8088 41.971L64.7199 36.1893C65.4555 35.1021 66.9468 34.814 68.0347 35.5496Z" fill="#FAD24D"/>
<path d="M61.5992 29.3879L53.7416 39.332L45.7412 35.0692C43.32 33.7785 41.6397 36.9522 43.6094 38.2661L53.2711 44.7097C54.0335 45.2179 55.0358 45.1051 55.6714 44.4932C55.9076 44.3481 56.1229 44.1604 56.304 43.9307L65.4138 32.4018C67.4075 29.8785 63.5928 26.8648 61.5992 29.3879Z" fill="#21D0C3"/>
<path d="M43.2539 45.5537H69.0421V47.4431H43.2539V45.5537Z" fill="#FEFEFE"/>
<path d="M14.6957 1.18817L14.3884 1.81693C14.1238 2.35884 13.7051 2.69555 13.2517 2.84312C12.9459 2.94253 12.6236 2.95488 12.3216 2.88614C12.0174 2.81637 11.7322 2.66345 11.5004 2.43561C11.1678 2.10816 10.9486 1.62861 10.9519 1.02454C10.9532 0.697711 11.2193 0.433857 11.5459 0.435092C11.8728 0.436327 12.1364 0.702446 12.1352 1.02907C12.1339 1.2847 12.2126 1.47384 12.3311 1.59136C12.4021 1.66092 12.4916 1.70908 12.5859 1.73049C12.681 1.75231 12.7855 1.74798 12.885 1.71547C13.05 1.66175 13.2095 1.52529 13.3207 1.29746L13.7842 0.348856C13.8776 0.143453 14.0846 0 14.3252 0C16.8605 0 28.567 0 31.102 0C31.3424 0 31.5497 0.143453 31.6433 0.348856L32.1068 1.29746C32.2177 1.52529 32.3773 1.66175 32.5423 1.71547C32.6417 1.74798 32.7463 1.75251 32.8414 1.73049C32.9356 1.70908 33.025 1.66113 33.0962 1.59136C33.2149 1.47384 33.2933 1.2847 33.2921 1.02907C33.2909 0.70224 33.5545 0.436121 33.8813 0.435092C34.2082 0.433857 34.4743 0.697917 34.4753 1.02454C34.4784 1.62841 34.2594 2.10816 33.9268 2.43561C33.6951 2.66345 33.4098 2.81616 33.1056 2.88614C32.8037 2.95488 32.4816 2.94253 32.1756 2.84312C31.7217 2.69535 31.3033 2.35905 31.0388 1.81693L30.7316 1.18817C28.4429 1.18817 16.9835 1.18817 14.6957 1.18817Z" fill="#15BDB2"/>
<path d="M18.0157 65.3782H27.7141C28.3488 65.3782 28.8681 65.8972 28.8681 66.532V67.686H27.6595V67.1846C27.6595 66.951 27.4689 66.7602 27.2351 66.7602H24.2481C24.0145 66.7602 23.8238 66.9508 23.8238 67.1846V67.686H21.9054V67.1846C21.9054 66.951 21.7148 66.7602 21.481 66.7602H18.4938C18.2602 66.7602 18.0694 66.9508 18.0694 67.1846V67.686H16.8608V66.532C16.8615 65.8974 17.3809 65.3782 18.0157 65.3782Z" fill="#15BDB2"/>
<path d="M28.8809 4.88281H36.3507V13.0257C36.3507 13.8386 35.6861 14.5034 34.873 14.5034H30.3586C29.5456 14.5034 28.8809 13.8386 28.8809 13.0257V4.88281Z" fill="#D9DADA"/>
<path d="M28.8809 4.88281H36.3507V12.2849C36.3507 13.1965 35.6048 13.9424 34.6933 13.9424H29.6284C29.4619 13.9424 29.3009 13.9173 29.1488 13.8714C28.9803 13.6314 28.8811 13.3393 28.8811 13.0255L28.8809 4.88281Z" fill="#EEF3F7"/>
<path d="M36.3515 6.55469H28.8806V10.9285H36.3515V6.55469Z" fill="#FEFEFE"/>
<path d="M31.5097 14.5042H30.686V15.462H31.5097V14.5042Z" fill="#EEF3F7"/>
<path d="M32.0821 15.4614H30.113V16.2559H32.0821V15.4614Z" fill="#FEFEFE"/>
<path d="M32.6149 11.1677C33.9555 11.1677 35.0423 10.081 35.0423 8.74037C35.0423 7.39976 33.9555 6.31299 32.6149 6.31299C31.2743 6.31299 30.1875 7.39976 30.1875 8.74037C30.1875 10.081 31.2743 11.1677 32.6149 11.1677Z" fill="#FF5B62"/>
<path d="M32.3293 1.30671C32.3293 1.1472 32.459 1.01733 32.6185 1.01733C32.7782 1.01733 32.9079 1.1472 32.9079 1.30671V4.88253C32.9079 5.04204 32.7782 5.1717 32.6185 5.1717C32.459 5.1717 32.3293 5.04204 32.3293 4.88253V1.30671Z" fill="#FEFEFE"/>
<path d="M32.1919 7.18091H33.0392V8.3168H34.1757V9.16496H33.0392V10.3015H32.1919V9.16496H31.0552V8.3168H32.1919V7.18091Z" fill="white"/>
</svg>
