<svg width="70" height="70" viewBox="0 0 70 70" fill="none" xmlns="http://www.w3.org/2000/svg">
<path fill-rule="evenodd" clip-rule="evenodd" d="M58.3333 11.6667V58.3333H11.6667V11.6667H58.3333ZM31.3085 23.3333H26.7637L18.1351 46.6667H22.2353L23.8644 42.1052H34.1934L35.7874 46.6667H40.1346L31.3085 23.3333ZM47.4129 23.3333H43.3292V46.6667H47.4129V23.3333ZM29.0016 27.2481L33.0694 38.8888H24.9986L29.0016 27.2481ZM62.2222 46.6667H70V54.4444H62.2222V46.6667ZM15.5556 62.2222H23.3333V70H15.5556V62.2222ZM31.1111 62.2222H38.8889V70H31.1111V62.2222ZM15.5556 0H23.3333V7.77778H15.5556V0ZM46.6667 62.2222H54.4444V70H46.6667V62.2222ZM31.1111 0H38.8889V7.77778H31.1111V0ZM46.6667 0H54.4444V7.77778H46.6667V0ZM62.2222 31.1111H70V38.8889H62.2222V31.1111ZM0 46.6667H7.77778V54.4444H0V46.6667ZM62.2222 15.5556H70V23.3333H62.2222V15.5556ZM0 31.1111H7.77778V38.8889H0V31.1111ZM0 15.5556H7.77778V23.3333H0V15.5556Z" fill="#5F91DB"/>
</svg>
