<svg width="80" height="70" viewBox="0 0 80 70" fill="none" xmlns="http://www.w3.org/2000/svg">
<path d="M74.9999 6.66675H4.99992C4.07944 6.66675 3.33325 7.41294 3.33325 8.33341C3.33325 9.25389 4.07944 10.0001 4.99992 10.0001H74.9999C75.9204 10.0001 76.6666 9.25389 76.6666 8.33341C76.6666 7.41294 75.9204 6.66675 74.9999 6.66675Z" fill="#B06550"/>
<path d="M74.9999 51.6667H4.99992C4.07944 51.6667 3.33325 52.4129 3.33325 53.3334C3.33325 54.2539 4.07944 55.0001 4.99992 55.0001H74.9999C75.9204 55.0001 76.6666 54.2539 76.6666 53.3334C76.6666 52.4129 75.9204 51.6667 74.9999 51.6667Z" fill="#B06550"/>
<path d="M74.9999 30H4.99992C4.07944 30 3.33325 30.7462 3.33325 31.6667C3.33325 32.5871 4.07944 33.3333 4.99992 33.3333H74.9999C75.9204 33.3333 76.6666 32.5871 76.6666 31.6667C76.6666 30.7462 75.9204 30 74.9999 30Z" fill="#B06550"/>
<path d="M78.3333 66.6667H1.66667C0.746192 66.6667 0 67.4129 0 68.3334C0 69.2539 0.746192 70.0001 1.66667 70.0001H78.3333C79.2538 70.0001 80 69.2539 80 68.3334C80 67.4129 79.2538 66.6667 78.3333 66.6667Z" fill="#4C5665"/>
<path d="M78.3333 65H1.66667C0.746192 65 0 65.7462 0 66.6667V68.3333C0 69.2538 0.746192 70 1.66667 70H78.3333C79.2538 70 80 69.2538 80 68.3333V66.6667C80 65.7462 79.2538 65 78.3333 65Z" fill="#C8785C"/>
<path d="M10.8333 0C11.4963 0 12.1322 0.263392 12.601 0.732233C13.0699 1.20107 13.3333 1.83696 13.3333 2.5V65H8.33325V2.5C8.33325 1.83696 8.59664 1.20107 9.06548 0.732233C9.53433 0.263392 10.1702 0 10.8333 0Z" fill="#C8785C"/>
<path d="M69.1667 0C69.8298 0 70.4657 0.263392 70.9345 0.732233C71.4034 1.20107 71.6667 1.83696 71.6667 2.5V65H66.6667V2.5C66.6667 1.83696 66.9301 1.20107 67.399 0.732233C67.8678 0.263392 68.5037 0 69.1667 0Z" fill="#C8785C"/>
<path d="M69.1667 0C69.8298 0 70.4657 0.263392 70.9345 0.732233C71.4034 1.20107 71.6667 1.83696 71.6667 2.5V65H66.6667V2.5C66.6667 1.83696 66.9301 1.20107 67.399 0.732233C67.8678 0.263392 68.5037 0 69.1667 0Z" fill="#C8785C"/>
<path d="M26.6667 5.00008C26.6667 3.15913 25.1743 1.66675 23.3333 1.66675C21.4924 1.66675 20 3.15913 20 5.00008V11.6667C20 13.5077 21.4924 15.0001 23.3333 15.0001C25.1743 15.0001 26.6667 13.5077 26.6667 11.6667V5.00008Z" fill="#FACE53"/>
<path d="M26.6667 5.00008C26.6667 3.15913 25.1743 1.66675 23.3333 1.66675C21.4924 1.66675 20 3.15913 20 5.00008V11.6667C20 13.5077 21.4924 15.0001 23.3333 15.0001C25.1743 15.0001 26.6667 13.5077 26.6667 11.6667V5.00008Z" fill="#FED049"/>
<path d="M36.6667 5.00008C36.6667 3.15913 35.1743 1.66675 33.3333 1.66675C31.4924 1.66675 30 3.15913 30 5.00008V11.6667C30 13.5077 31.4924 15.0001 33.3333 15.0001C35.1743 15.0001 36.6667 13.5077 36.6667 11.6667V5.00008Z" fill="#49AAEE"/>
<path d="M48.3334 28.3333C48.3334 26.4924 46.841 25 45.0001 25C43.1591 25 41.6667 26.4924 41.6667 28.3333V35C41.6667 36.8409 43.1591 38.3333 45.0001 38.3333C46.841 38.3333 48.3334 36.8409 48.3334 35V28.3333Z" fill="#A4B0C0"/>
<path d="M38.3334 28.3333C38.3334 26.4924 36.841 25 35.0001 25C33.1591 25 31.6667 26.4924 31.6667 28.3333V35C31.6667 36.8409 33.1591 38.3333 35.0001 38.3333C36.841 38.3333 38.3334 36.8409 38.3334 35V28.3333Z" fill="#FED049"/>
<path d="M58.3334 28.3333C58.3334 26.4924 56.841 25 55.0001 25C53.1591 25 51.6667 26.4924 51.6667 28.3333V35C51.6667 36.8409 53.1591 38.3333 55.0001 38.3333C56.841 38.3333 58.3334 36.8409 58.3334 35V28.3333Z" fill="#49AAEE"/>
<path d="M38.3334 49.9998C38.3334 48.1589 36.841 46.6665 35.0001 46.6665C33.1591 46.6665 31.6667 48.1589 31.6667 49.9998V56.6665C31.6667 58.5075 33.1591 59.9998 35.0001 59.9998C36.841 59.9998 38.3334 58.5075 38.3334 56.6665V49.9998Z" fill="#FED049"/>
<path d="M28.3334 49.9998C28.3334 48.1589 26.841 46.6665 25.0001 46.6665C23.1591 46.6665 21.6667 48.1589 21.6667 49.9998V56.6665C21.6667 58.5075 23.1591 59.9998 25.0001 59.9998C26.841 59.9998 28.3334 58.5075 28.3334 56.6665V49.9998Z" fill="#49AAEE"/>
<path d="M48.3334 49.9998C48.3334 48.1589 46.841 46.6665 45.0001 46.6665C43.1591 46.6665 41.6667 48.1589 41.6667 49.9998V56.6665C41.6667 58.5075 43.1591 59.9998 45.0001 59.9998C46.841 59.9998 48.3334 58.5075 48.3334 56.6665V49.9998Z" fill="#D0D7DF"/>
<path d="M14.9999 6.66675H13.3333V10.0001H14.9999V6.66675Z" fill="#9C5946"/>
<path d="M14.9999 30H13.3333V33.3333H14.9999V30Z" fill="#9C5946"/>
<path d="M14.9999 51.6667H13.3333V55.0001H14.9999V51.6667Z" fill="#9C5946"/>
</svg>
