<svg xmlns="http://www.w3.org/2000/svg" xmlns:xlink="http://www.w3.org/1999/xlink" width="1080" zoomAndPan="magnify" viewBox="0 0 810 809.999993" height="1080" preserveAspectRatio="xMidYMid meet" version="1.0"><defs><g/><clipPath id="6ea126b866"><path d="M 377 277.679688 L 539 277.679688 L 539 441 L 377 441 Z M 377 277.679688 " clip-rule="nonzero"/></clipPath></defs><path fill="#d9d9d9" d="M 433.625 347.234375 C 381.292969 360.078125 353.539062 299.546875 311.859375 299.546875 C 282.71875 299.546875 243.070312 337.992188 304.242188 446.816406 C 304.242188 446.816406 273.019531 325.007812 312.625 321.816406 C 345.773438 322.199219 381.71875 389.382812 433.625 347.234375 Z M 433.625 347.234375 " fill-opacity="1" fill-rule="nonzero"/><g clip-path="url(#6ea126b866)"><path fill="#a6a6a6" d="M 377.933594 325.367188 C 430.277344 338.210938 458.027344 277.679688 499.707031 277.679688 C 528.855469 277.679688 566.886719 332.125 505.714844 440.945312 C 505.714844 440.945312 538.550781 303.140625 498.945312 299.949219 C 465.792969 300.335938 429.847656 367.519531 377.933594 325.367188 Z M 377.933594 325.367188 " fill-opacity="1" fill-rule="nonzero"/></g><path fill="#a6a6a6" d="M 336.113281 395.140625 C 336.113281 395.140625 411.15625 462.304688 461.554688 371.425781 C 461.554688 371.425781 427.417969 495.933594 336.113281 395.140625 Z M 336.113281 395.140625 " fill-opacity="1" fill-rule="nonzero"/><path fill="#a6a6a6" d="M 450.695312 364.921875 C 450.695312 364.921875 467.632812 353.902344 471.105469 375.328125 C 471.105469 375.328125 473.847656 343.191406 450.695312 364.921875 Z M 450.695312 364.921875 " fill-opacity="1" fill-rule="nonzero"/><path fill="#d9d9d9" d="M 344.308594 387.949219 C 344.308594 387.949219 325.21875 381.347656 327.019531 402.972656 C 327.015625 402.972656 316.589844 372.449219 344.308594 387.949219 Z M 344.308594 387.949219 " fill-opacity="1" fill-rule="nonzero"/><g fill="#ffffff" fill-opacity="1"><g transform="translate(239.298167, 516.844281)"><g><path d="M 2.109375 -25.21875 L 2.109375 0 L 11.0625 0 L 11.0625 -12.046875 L 17.0625 -4.296875 L 23.03125 -11.90625 L 23.03125 0 L 31.984375 0 L 31.984375 -25.21875 L 23.875 -25.21875 L 17.0625 -16.515625 L 10.328125 -25.21875 Z M 2.109375 -25.21875 "/></g></g></g><g fill="#ffffff" fill-opacity="1"><g transform="translate(273.398602, 516.844281)"><g><path d="M 10.953125 -25.21875 L 0.296875 0 L 9.46875 0 L 10.953125 -3.890625 L 20.3125 -3.890625 L 21.71875 0 L 30.9375 0 L 20.3125 -25.21875 Z M 15.640625 -16.921875 L 18.40625 -9.140625 L 12.8125 -9.140625 Z M 15.640625 -16.921875 "/></g></g></g><g fill="#ffffff" fill-opacity="1"><g transform="translate(304.623972, 516.844281)"><g><path d="M 0.359375 -25.21875 L 10.765625 0 L 18.015625 0 L 28.171875 -25.21875 L 20.015625 -25.21875 L 15.171875 -12.265625 L 10.046875 -25.21875 Z M 0.359375 -25.21875 "/></g></g></g><g fill="#ffffff" fill-opacity="1"><g transform="translate(333.156243, 516.844281)"><g><path d="M 2.109375 -25.21875 L 2.109375 0 L 20.640625 0 L 20.640625 -5.671875 L 11.0625 -5.671875 L 11.0625 -9.9375 L 19.90625 -9.9375 L 19.90625 -15.609375 L 11.0625 -15.609375 L 11.0625 -19.546875 L 20.453125 -19.546875 L 20.453125 -25.21875 Z M 2.109375 -25.21875 "/></g></g></g><g fill="#ffffff" fill-opacity="1"><g transform="translate(354.701012, 516.844281)"><g><path d="M 2.109375 -25.21875 L 2.109375 0 L 11.0625 0 L 11.0625 -11.90625 L 22.046875 0 L 29.84375 0 L 29.84375 -25.21875 L 20.890625 -25.21875 L 20.890625 -13.25 L 9.828125 -25.21875 Z M 2.109375 -25.21875 "/></g></g></g><g fill="#ffffff" fill-opacity="1"><g transform="translate(386.654246, 516.844281)"><g/></g></g><g fill="#ffffff" fill-opacity="1"><g transform="translate(398.991545, 516.844281)"><g><path d="M 2.109375 -25.21875 L 2.109375 0 L 13.171875 0 C 15.96875 0 18.125 -0.1875 19.5 -0.578125 C 24.75 -2 27.6875 -7.421875 27.6875 -12.375 C 27.6875 -15.9375 26.453125 -19 23.984375 -21.5 C 21.5 -24.015625 17.984375 -25.21875 13.28125 -25.21875 Z M 11.0625 -19.171875 L 12.234375 -19.171875 C 15.21875 -19.171875 16.8125 -18.375 17.90625 -16.34375 C 18.453125 -15.328125 18.734375 -14.046875 18.734375 -12.515625 C 18.734375 -9.25 17.328125 -7.34375 15.796875 -6.65625 C 15.03125 -6.328125 13.96875 -6.109375 12.765625 -6.109375 L 11.0625 -6.109375 Z M 11.0625 -19.171875 "/></g></g></g><g fill="#ffffff" fill-opacity="1"><g transform="translate(427.632993, 516.844281)"><g><path d="M 2.109375 -25.21875 L 2.109375 0 L 20.640625 0 L 20.640625 -5.671875 L 11.0625 -5.671875 L 11.0625 -9.9375 L 19.90625 -9.9375 L 19.90625 -15.609375 L 11.0625 -15.609375 L 11.0625 -19.546875 L 20.453125 -19.546875 L 20.453125 -25.21875 Z M 2.109375 -25.21875 "/></g></g></g><g fill="#ffffff" fill-opacity="1"><g transform="translate(449.177768, 516.844281)"><g><path d="M 2.109375 -25.21875 L 2.109375 0 L 11.0625 0 L 11.0625 -11.90625 L 22.046875 0 L 29.84375 0 L 29.84375 -25.21875 L 20.890625 -25.21875 L 20.890625 -13.25 L 9.828125 -25.21875 Z M 2.109375 -25.21875 "/></g></g></g><g fill="#ffffff" fill-opacity="1"><g transform="translate(481.13099, 516.844281)"><g><path d="M 0.765625 -25.21875 L 0.765625 -18.8125 L 8.046875 -18.8125 L 8.046875 0 L 17 0 L 17 -18.8125 L 24.265625 -18.8125 L 24.265625 -25.21875 Z M 0.765625 -25.21875 "/></g></g></g><g fill="#ffffff" fill-opacity="1"><g transform="translate(506.169516, 516.844281)"><g><path d="M 10.953125 -25.21875 L 0.296875 0 L 9.46875 0 L 10.953125 -3.890625 L 20.3125 -3.890625 L 21.71875 0 L 30.9375 0 L 20.3125 -25.21875 Z M 15.640625 -16.921875 L 18.40625 -9.140625 L 12.8125 -9.140625 Z M 15.640625 -16.921875 "/></g></g></g><g fill="#ffffff" fill-opacity="1"><g transform="translate(537.394881, 516.844281)"><g><path d="M 2.109375 -25.21875 L 2.109375 0 L 20.421875 0 L 20.421875 -6.40625 L 11.0625 -6.40625 L 11.0625 -25.21875 Z M 2.109375 -25.21875 "/></g></g></g><g fill="#ffffff" fill-opacity="1"><g transform="translate(558.359597, 516.844281)"><g/></g></g></svg>