<svg xmlns="http://www.w3.org/2000/svg" xmlns:xlink="http://www.w3.org/1999/xlink" width="1080" zoomAndPan="magnify" viewBox="0 0 810 809.999993" height="1080" preserveAspectRatio="xMidYMid meet" version="1.0"><defs><g/><clipPath id="fa4a783075"><path d="M 143.34375 447 L 407 447 L 407 513.914062 L 143.34375 513.914062 Z M 143.34375 447 " clip-rule="nonzero"/></clipPath><clipPath id="d6885998bc"><path d="M 143.34375 296.414062 L 450 296.414062 L 450 364 L 143.34375 364 Z M 143.34375 296.414062 " clip-rule="nonzero"/></clipPath><clipPath id="f93d8eb924"><path d="M 395 447 L 666.84375 447 L 666.84375 513.914062 L 395 513.914062 Z M 395 447 " clip-rule="nonzero"/></clipPath><clipPath id="c2e54abd01"><path d="M 402 297 L 666.84375 297 L 666.84375 364 L 402 364 Z M 402 297 " clip-rule="nonzero"/></clipPath></defs><g clip-path="url(#fa4a783075)"><path fill="#8ddfff" d="M 319.257812 452.902344 C 319.9375 454.484375 320.628906 456.0625 321.316406 457.636719 C 323.363281 462.179688 325.171875 466.703125 327.417969 471.261719 L 333.566406 483.039062 L 333.554688 483.179688 L 334.355469 484.574219 C 336.761719 488.785156 339.214844 492.976562 342.027344 497.054688 C 343.4375 499.085938 345 501.074219 346.566406 503.050781 C 348.304688 504.980469 349.96875 506.933594 352.171875 508.675781 C 353.117188 509.582031 354.480469 510.375 355.710938 511.167969 C 356.714844 511.914062 359.441406 512.882812 360.75 513.121094 L 361.628906 513.21875 L 362.0625 513.261719 L 362.277344 513.285156 L 362.390625 513.300781 C 363.714844 513.398438 362.777344 513.324219 363.085938 513.34375 L 363.113281 513.339844 L 363.179688 513.328125 L 365.351562 513.027344 C 366.78125 512.746094 368.253906 512.738281 369.582031 512.078125 C 370.925781 511.511719 372.335938 511.074219 373.558594 510.339844 L 377.0625 507.917969 L 379.976562 504.976562 C 380.863281 503.945312 381.582031 502.808594 382.371094 501.734375 C 383.765625 499.472656 384.90625 497.117188 385.777344 494.460938 C 386.28125 493.140625 386.382812 492.136719 386.710938 490.945312 C 387.046875 489.449219 387.148438 488.550781 387.382812 487.328125 C 388.195312 482.738281 389.140625 478.230469 390.316406 473.808594 C 391.539062 469.429688 393.035156 465.070312 395.589844 461.40625 C 396.824219 459.535156 398.429688 457.96875 400.304688 456.707031 C 402.207031 455.480469 404.453125 454.878906 406.808594 454.582031 C 404.5 454.488281 402.042969 454.695312 399.777344 455.667969 C 397.558594 456.671875 395.480469 458.121094 393.800781 459.933594 C 390.433594 463.570312 388.226562 468.003906 386.3125 472.414062 C 384.402344 476.847656 383.015625 481.425781 381.636719 485.949219 C 381.3125 487 380.945312 488.40625 380.664062 489.15625 C 380.242188 490.195312 379.910156 491.511719 379.429688 492.320312 C 378.605469 494.035156 377.488281 495.820312 376.242188 497.425781 C 375.566406 498.164062 374.96875 498.984375 374.261719 499.664062 L 372.054688 501.527344 L 369.632812 502.875 C 368.816406 503.277344 367.914062 503.390625 367.089844 503.699219 C 366.28125 504.089844 365.320312 503.898438 364.453125 504.011719 L 363.347656 504.101562 L 362.957031 504.019531 L 362.097656 503.84375 C 361.457031 503.730469 361.699219 503.488281 361.457031 503.40625 C 361.351562 503.3125 361.183594 503.285156 360.785156 502.917969 C 360.113281 502.351562 359.429688 501.964844 358.757812 501.15625 C 357.382812 499.847656 356.089844 498.152344 354.789062 496.519531 C 353.570312 494.738281 352.332031 492.957031 351.195312 491.066406 C 348.917969 487.265625 346.890625 483.226562 344.894531 479.164062 L 344.90625 479.21875 L 344.746094 478.867188 L 338.980469 465.976562 C 337.054688 461.667969 335.382812 457.003906 333.578125 452.535156 C 332.894531 450.863281 332.238281 449.167969 331.585938 447.472656 L 143.542969 447.472656 Z M 319.257812 452.902344 " fill-opacity="1" fill-rule="nonzero"/></g><g clip-path="url(#d6885998bc)"><path fill="#008cce" d="M 143.542969 363.058594 L 313.03125 363.058594 L 313.785156 356.964844 L 315.132812 350.339844 L 317.015625 343.882812 C 318.578125 339.714844 320.210938 335.535156 322.402344 331.722656 C 324.550781 327.929688 327.058594 324.179688 329.882812 321.433594 C 331.601562 319.8125 333.4375 317.757812 335.050781 316.496094 C 336.722656 315.359375 338.082031 313.820312 339.960938 312.910156 L 342.609375 311.320312 C 343.511719 310.90625 344.429688 310.59375 345.335938 310.203125 C 346.230469 309.742188 347.144531 309.523438 348.0625 309.335938 C 348.976562 309.136719 349.894531 308.789062 350.804688 308.832031 C 354.464844 308.410156 358.171875 309.210938 361.675781 311.09375 C 365.242188 313.0625 368.273438 315.613281 371.257812 319.378906 L 371.015625 319.058594 L 374.722656 323.464844 C 375.988281 324.910156 377.144531 326.414062 378.492188 327.785156 L 382.789062 331.703125 C 384.195312 333.011719 385.625 334.308594 387.320312 335.332031 L 392.183594 338.570312 C 393.902344 339.496094 395.730469 340.269531 397.507812 341.078125 C 399.242188 341.972656 401.160156 342.449219 403.0625 342.929688 C 404.957031 343.421875 406.824219 343.992188 408.785156 344.066406 C 410.730469 344.179688 412.640625 344.609375 414.574219 344.429688 C 416.503906 344.292969 418.429688 344.316406 420.320312 344.023438 C 422.195312 343.65625 424.066406 343.335938 425.894531 342.859375 C 427.679688 342.253906 429.492188 341.746094 431.226562 341.066406 C 434.675781 339.617188 438.027344 338.03125 441.089844 335.957031 C 444.183594 333.984375 447.070312 331.707031 449.6875 329.195312 C 443.691406 333.269531 436.976562 336.082031 430.199219 337.84375 C 428.5 338.246094 426.757812 338.484375 425.0625 338.816406 C 423.34375 339.019531 421.609375 339.03125 419.910156 339.1875 C 418.203125 339.261719 416.5 339.023438 414.816406 338.964844 C 413.121094 338.949219 411.5 338.339844 409.859375 338.070312 C 408.195312 337.84375 406.664062 337.136719 405.109375 336.542969 C 403.554688 335.957031 401.996094 335.402344 400.609375 334.441406 C 399.191406 333.558594 397.714844 332.832031 396.332031 331.914062 L 392.441406 328.757812 C 391.082031 327.796875 389.941406 326.542969 388.816406 325.273438 L 385.398438 321.5625 C 384.328125 320.253906 383.40625 318.777344 382.40625 317.40625 L 379.457031 313.242188 L 379.21875 312.921875 C 376.386719 308.808594 372.195312 304.445312 367.324219 301.421875 C 362.433594 298.304688 356.253906 296.425781 350.132812 296.699219 C 344.070312 296.988281 338.152344 298.847656 333.410156 301.800781 C 330.835938 303.015625 328.671875 305.011719 326.308594 306.644531 C 324.046875 308.371094 322.5625 309.96875 320.652344 311.636719 C 316.3125 315.601562 313.175781 320.019531 310.3125 324.613281 C 307.394531 329.183594 305.332031 334.144531 303.4375 339.136719 C 302.613281 341.664062 301.828125 344.214844 301.097656 346.761719 C 300.53125 349.351562 299.914062 351.933594 299.414062 354.527344 L 298.992188 357.625 Z M 143.542969 363.058594 " fill-opacity="1" fill-rule="nonzero"/></g><g clip-path="url(#f93d8eb924)"><path fill="#008cce" d="M 666.65625 447.46875 L 477.871094 447.46875 C 474.792969 456.003906 471.644531 464.488281 467.988281 472.671875 C 465.796875 477.664062 463.371094 482.523438 460.859375 487.234375 C 458.324219 491.898438 455.484375 496.433594 452.28125 499.9375 C 450.734375 501.65625 448.878906 503.082031 447.8125 503.453125 C 447.605469 503.542969 447.324219 503.582031 447.425781 503.609375 L 445.363281 503.578125 C 444.953125 503.507812 444.550781 503.476562 444.121094 503.441406 L 442.621094 503.09375 C 438.679688 501.953125 435.058594 498.640625 432.585938 494.425781 C 431.316406 492.246094 430.453125 490.210938 429.71875 487.53125 L 427.457031 479.433594 C 425.925781 474.007812 424.40625 468.515625 422.257812 463.140625 C 420.039062 457.925781 417.496094 452.148438 412.101562 448.789062 C 410.917969 448.085938 409.621094 447.6875 408.304688 447.476562 L 404.488281 447.476562 C 404.089844 447.539062 403.675781 447.574219 403.292969 447.675781 C 400.433594 448.347656 397.929688 449.765625 395.605469 451.324219 C 400.480469 448.839844 406.75 447.46875 410.785156 450.8125 C 414.777344 453.980469 416.597656 459.40625 418.054688 464.566406 C 419.480469 469.832031 420.496094 475.292969 421.453125 480.792969 L 422.894531 489.113281 C 423.335938 491.914062 424.195312 495.269531 425.546875 498.054688 C 428.164062 503.738281 432.601562 509.296875 439.277344 512.109375 L 441.800781 512.992188 C 442.734375 513.230469 443.71875 513.421875 444.6875 513.601562 L 446.820312 513.835938 C 448.324219 513.929688 449.4375 513.75 450.585938 513.480469 C 454.9375 512.234375 457.550781 509.953125 459.988281 507.789062 C 464.691406 503.324219 468.144531 498.449219 471.355469 493.507812 C 474.554688 488.566406 477.257812 483.425781 479.839844 478.277344 C 483.933594 469.925781 487.683594 461.480469 491.050781 452.917969 Z M 666.65625 447.46875 " fill-opacity="1" fill-rule="nonzero"/></g><g clip-path="url(#c2e54abd01)"><path fill="#8ddfff" d="M 511.226562 357.621094 C 510.492188 353.136719 509.417969 348.605469 508.007812 344.527344 L 507.824219 343.96875 C 506.40625 340.664062 504.992188 337.351562 503.375 334.101562 C 501.78125 330.855469 500.097656 327.613281 498.140625 324.492188 C 497.21875 322.914062 496.136719 321.398438 495.09375 319.867188 C 494.089844 318.328125 492.847656 316.878906 491.742188 315.386719 C 489.324219 312.5 486.804688 309.660156 483.816406 307.167969 C 478.042969 302.125 470.402344 298.136719 462.144531 297.851562 C 458.074219 297.632812 454.039062 298.3125 450.316406 299.589844 C 448.464844 300.246094 446.679688 301.039062 444.96875 301.980469 C 443.292969 302.890625 441.585938 304.042969 440.199219 305.214844 L 439.945312 305.414062 C 437.171875 308.019531 434.417969 310.65625 431.527344 313.117188 C 428.652344 315.609375 425.679688 317.96875 422.648438 320.253906 C 421.125 321.367188 419.566406 322.453125 417.964844 323.46875 C 416.375 324.492188 414.726562 325.40625 413.050781 326.285156 C 411.359375 327.121094 409.632812 327.914062 407.8125 328.429688 C 406.015625 328.941406 404.082031 329.355469 402.203125 328.847656 C 403.972656 329.707031 406.070312 329.667969 408.015625 329.488281 C 409.996094 329.308594 411.933594 328.832031 413.84375 328.292969 C 417.65625 327.144531 421.222656 325.417969 424.75 323.640625 C 431.75 319.976562 438.207031 315.445312 444.527344 310.789062 L 444.277344 310.984375 C 445.65625 310.089844 446.941406 309.484375 448.363281 308.859375 C 449.769531 308.261719 451.207031 307.800781 452.65625 307.445312 C 455.566406 306.773438 458.511719 306.601562 461.328125 307.054688 C 466.984375 307.902344 472.085938 311.03125 476.414062 315.3125 C 478.613281 317.410156 480.527344 319.9375 482.375 322.484375 C 483.226562 323.84375 484.175781 325.09375 484.953125 326.519531 C 485.757812 327.921875 486.605469 329.28125 487.320312 330.75 C 488.855469 333.601562 490.296875 336.558594 491.597656 339.582031 C 492.898438 342.496094 494.027344 345.511719 495.164062 348.519531 C 496.605469 353.46875 497.308594 358.085938 497.699219 363.058594 L 666.652344 363.058594 Z M 511.226562 357.621094 " fill-opacity="1" fill-rule="nonzero"/></g><g fill="#ffffff" fill-opacity="1"><g transform="translate(221.223071, 422.565087)"><g><path d="M 1.015625 -11.765625 C 0.984375 -15.671875 1.382812 -19.226562 2.21875 -22.4375 C 3.0625 -25.644531 4.164062 -28.441406 5.53125 -30.828125 C 6.894531 -33.210938 8.421875 -35.140625 10.109375 -36.609375 C 11.796875 -38.085938 13.476562 -39.023438 15.15625 -39.421875 C 16.832031 -39.828125 18.410156 -39.671875 19.890625 -38.953125 C 21.378906 -38.242188 22.59375 -36.898438 23.53125 -34.921875 C 24.363281 -33.148438 24.929688 -31.09375 25.234375 -28.75 C 25.546875 -26.414062 25.601562 -24 25.40625 -21.5 C 25.207031 -19.007812 24.75 -16.550781 24.03125 -14.125 C 23.320312 -11.707031 22.351562 -9.515625 21.125 -7.546875 C 19.90625 -5.585938 18.441406 -3.960938 16.734375 -2.671875 C 15.035156 -1.390625 13.082031 -0.640625 10.875 -0.421875 C 9.144531 -0.328125 7.660156 -0.675781 6.421875 -1.46875 C 5.179688 -2.257812 4.164062 -3.25 3.375 -4.4375 C 2.582031 -5.632812 1.988281 -6.90625 1.59375 -8.25 C 1.207031 -9.601562 1.015625 -10.773438 1.015625 -11.765625 Z M 10.875 -34.265625 C 10.351562 -33.828125 9.765625 -33.066406 9.109375 -31.984375 C 8.460938 -30.898438 7.828125 -29.601562 7.203125 -28.09375 C 6.585938 -26.59375 6.023438 -24.957031 5.515625 -23.1875 C 5.003906 -21.425781 4.597656 -19.644531 4.296875 -17.84375 C 4.003906 -16.050781 3.863281 -14.300781 3.875 -12.59375 C 3.894531 -10.894531 4.132812 -9.351562 4.59375 -7.96875 C 5.0625 -6.59375 5.773438 -5.445312 6.734375 -4.53125 C 7.703125 -3.613281 8.988281 -3.050781 10.59375 -2.84375 C 11.832031 -2.6875 13.078125 -3.085938 14.328125 -4.046875 C 15.585938 -5.003906 16.742188 -6.304688 17.796875 -7.953125 C 18.859375 -9.597656 19.785156 -11.460938 20.578125 -13.546875 C 21.367188 -15.640625 21.945312 -17.726562 22.3125 -19.8125 C 22.625 -21.664062 22.78125 -23.484375 22.78125 -25.265625 C 22.78125 -27.046875 22.609375 -28.679688 22.265625 -30.171875 C 21.929688 -31.660156 21.4375 -32.945312 20.78125 -34.03125 C 20.132812 -35.113281 19.328125 -35.890625 18.359375 -36.359375 C 17.398438 -36.828125 16.289062 -36.910156 15.03125 -36.609375 C 13.78125 -36.316406 12.394531 -35.535156 10.875 -34.265625 Z M 10.875 -34.265625 "/></g></g></g><g fill="#ffffff" fill-opacity="1"><g transform="translate(247.581507, 422.565087)"><g><path d="M 1.296875 -38.921875 C 1.390625 -39.128906 1.582031 -39.296875 1.875 -39.421875 C 2.175781 -39.546875 2.488281 -39.609375 2.8125 -39.609375 C 3.132812 -39.609375 3.421875 -39.519531 3.671875 -39.34375 C 3.921875 -39.175781 4.078125 -38.910156 4.140625 -38.546875 L 4.421875 -35.984375 C 5.003906 -36.109375 5.695312 -36.363281 6.5 -36.75 C 7.3125 -37.132812 8.25 -37.515625 9.3125 -37.890625 C 10.382812 -38.265625 11.585938 -38.570312 12.921875 -38.8125 C 14.253906 -39.0625 15.742188 -39.097656 17.390625 -38.921875 C 19.929688 -38.421875 21.773438 -37.828125 22.921875 -37.140625 C 24.066406 -36.460938 24.675781 -35.710938 24.75 -34.890625 C 24.832031 -34.066406 24.492188 -33.179688 23.734375 -32.234375 C 22.972656 -31.296875 21.957031 -30.34375 20.6875 -29.375 C 19.414062 -28.414062 17.988281 -27.441406 16.40625 -26.453125 C 14.832031 -25.460938 13.289062 -24.507812 11.78125 -23.59375 C 10.28125 -22.675781 8.882812 -21.804688 7.59375 -20.984375 C 6.3125 -20.171875 5.347656 -19.421875 4.703125 -18.734375 L 26.5 -5.625 C 26.5 -5.125 26.296875 -4.648438 25.890625 -4.203125 C 25.492188 -3.753906 25.03125 -3.5625 24.5 -3.625 L 4 -15.4375 L 4 0 C 3.625 0.3125 3.304688 0.515625 3.046875 0.609375 C 2.785156 0.703125 2.578125 0.734375 2.421875 0.703125 C 2.265625 0.671875 2.125 0.582031 2 0.4375 C 1.875 0.300781 1.765625 0.15625 1.671875 0 Z M 4.421875 -32.5 C 4.359375 -31.875 4.3125 -31.128906 4.28125 -30.265625 C 4.25 -29.398438 4.234375 -28.476562 4.234375 -27.5 C 4.234375 -26.519531 4.234375 -25.554688 4.234375 -24.609375 C 4.234375 -23.671875 4.234375 -22.828125 4.234375 -22.078125 C 4.390625 -22.234375 4.875 -22.519531 5.6875 -22.9375 C 6.507812 -23.363281 7.507812 -23.882812 8.6875 -24.5 C 9.875 -25.125 11.140625 -25.8125 12.484375 -26.5625 C 13.828125 -27.320312 15.101562 -28.101562 16.3125 -28.90625 C 17.519531 -29.71875 18.582031 -30.519531 19.5 -31.3125 C 20.414062 -32.101562 21.003906 -32.835938 21.265625 -33.515625 C 21.535156 -34.203125 21.394531 -34.816406 20.84375 -35.359375 C 20.300781 -35.898438 19.195312 -36.328125 17.53125 -36.640625 C 16.601562 -36.703125 15.507812 -36.671875 14.25 -36.546875 C 13 -36.421875 11.742188 -36.191406 10.484375 -35.859375 C 9.222656 -35.535156 8.050781 -35.09375 6.96875 -34.53125 C 5.882812 -33.976562 5.035156 -33.300781 4.421875 -32.5 Z M 4.421875 -32.5 "/></g></g></g><g fill="#ffffff" fill-opacity="1"><g transform="translate(274.218869, 422.565087)"><g><path d="M 1.015625 -11.765625 C 0.984375 -15.671875 1.382812 -19.226562 2.21875 -22.4375 C 3.0625 -25.644531 4.164062 -28.441406 5.53125 -30.828125 C 6.894531 -33.210938 8.421875 -35.140625 10.109375 -36.609375 C 11.796875 -38.085938 13.476562 -39.023438 15.15625 -39.421875 C 16.832031 -39.828125 18.410156 -39.671875 19.890625 -38.953125 C 21.378906 -38.242188 22.59375 -36.898438 23.53125 -34.921875 C 24.363281 -33.148438 24.929688 -31.09375 25.234375 -28.75 C 25.546875 -26.414062 25.601562 -24 25.40625 -21.5 C 25.207031 -19.007812 24.75 -16.550781 24.03125 -14.125 C 23.320312 -11.707031 22.351562 -9.515625 21.125 -7.546875 C 19.90625 -5.585938 18.441406 -3.960938 16.734375 -2.671875 C 15.035156 -1.390625 13.082031 -0.640625 10.875 -0.421875 C 9.144531 -0.328125 7.660156 -0.675781 6.421875 -1.46875 C 5.179688 -2.257812 4.164062 -3.25 3.375 -4.4375 C 2.582031 -5.632812 1.988281 -6.90625 1.59375 -8.25 C 1.207031 -9.601562 1.015625 -10.773438 1.015625 -11.765625 Z M 10.875 -34.265625 C 10.351562 -33.828125 9.765625 -33.066406 9.109375 -31.984375 C 8.460938 -30.898438 7.828125 -29.601562 7.203125 -28.09375 C 6.585938 -26.59375 6.023438 -24.957031 5.515625 -23.1875 C 5.003906 -21.425781 4.597656 -19.644531 4.296875 -17.84375 C 4.003906 -16.050781 3.863281 -14.300781 3.875 -12.59375 C 3.894531 -10.894531 4.132812 -9.351562 4.59375 -7.96875 C 5.0625 -6.59375 5.773438 -5.445312 6.734375 -4.53125 C 7.703125 -3.613281 8.988281 -3.050781 10.59375 -2.84375 C 11.832031 -2.6875 13.078125 -3.085938 14.328125 -4.046875 C 15.585938 -5.003906 16.742188 -6.304688 17.796875 -7.953125 C 18.859375 -9.597656 19.785156 -11.460938 20.578125 -13.546875 C 21.367188 -15.640625 21.945312 -17.726562 22.3125 -19.8125 C 22.625 -21.664062 22.78125 -23.484375 22.78125 -25.265625 C 22.78125 -27.046875 22.609375 -28.679688 22.265625 -30.171875 C 21.929688 -31.660156 21.4375 -32.945312 20.78125 -34.03125 C 20.132812 -35.113281 19.328125 -35.890625 18.359375 -36.359375 C 17.398438 -36.828125 16.289062 -36.910156 15.03125 -36.609375 C 13.78125 -36.316406 12.394531 -35.535156 10.875 -34.265625 Z M 10.875 -34.265625 "/></g></g></g><g fill="#ffffff" fill-opacity="1"><g transform="translate(300.577305, 422.565087)"><g/></g></g><g fill="#ffffff" fill-opacity="1"><g transform="translate(324.378927, 422.565087)"><g><path d="M 8.328125 -1.71875 C 8.296875 -2.03125 8.679688 -2.601562 9.484375 -3.4375 C 10.285156 -4.28125 11.304688 -5.304688 12.546875 -6.515625 C 13.785156 -7.722656 15.140625 -9.109375 16.609375 -10.671875 C 18.085938 -12.234375 19.476562 -13.921875 20.78125 -15.734375 C 22.082031 -17.546875 23.191406 -19.453125 24.109375 -21.453125 C 25.023438 -23.453125 25.546875 -25.492188 25.671875 -27.578125 C 25.671875 -28.535156 25.40625 -29.394531 24.875 -30.15625 C 24.34375 -30.914062 23.664062 -31.597656 22.84375 -32.203125 C 22.03125 -32.804688 21.09375 -33.320312 20.03125 -33.75 C 18.976562 -34.1875 17.929688 -34.550781 16.890625 -34.84375 C 15.859375 -35.132812 14.859375 -35.347656 13.890625 -35.484375 C 12.929688 -35.628906 12.128906 -35.703125 11.484375 -35.703125 C 11.328125 -35.703125 11.101562 -35.691406 10.8125 -35.671875 C 10.519531 -35.660156 10.1875 -35.613281 9.8125 -35.53125 C 9.4375 -35.457031 9.054688 -35.367188 8.671875 -35.265625 C 8.285156 -35.160156 7.9375 -35.015625 7.625 -34.828125 L 9.765625 -6.5625 C 9.921875 -6.21875 9.910156 -5.84375 9.734375 -5.4375 C 9.566406 -5.03125 9.320312 -4.6875 9 -4.40625 C 8.675781 -4.132812 8.328125 -3.988281 7.953125 -3.96875 C 7.578125 -3.957031 7.28125 -4.171875 7.0625 -4.609375 L 4.78125 -33.5625 C 4.695312 -33.5 4.519531 -33.40625 4.25 -33.28125 C 3.988281 -33.164062 3.71875 -33.035156 3.4375 -32.890625 C 3.15625 -32.753906 2.890625 -32.613281 2.640625 -32.46875 C 2.398438 -32.332031 2.234375 -32.25 2.140625 -32.21875 C 2.109375 -32.21875 2.050781 -32.207031 1.96875 -32.1875 C 1.894531 -32.175781 1.84375 -32.171875 1.8125 -32.171875 C 1.625 -32.171875 1.414062 -32.21875 1.1875 -32.3125 C 0.957031 -32.40625 0.84375 -32.609375 0.84375 -32.921875 C 0.84375 -33.441406 0.957031 -33.863281 1.1875 -34.1875 C 1.414062 -34.519531 1.707031 -34.820312 2.0625 -35.09375 C 2.425781 -35.375 2.816406 -35.644531 3.234375 -35.90625 C 3.648438 -36.175781 4.035156 -36.523438 4.390625 -36.953125 C 4.742188 -37.390625 5.035156 -37.929688 5.265625 -38.578125 C 5.503906 -39.234375 5.625 -40.070312 5.625 -41.09375 C 6.3125 -41.09375 6.738281 -40.96875 6.90625 -40.71875 C 7.070312 -40.476562 7.171875 -40.191406 7.203125 -39.859375 C 7.234375 -39.535156 7.28125 -39.210938 7.34375 -38.890625 C 7.40625 -38.566406 7.65625 -38.328125 8.09375 -38.171875 C 9.050781 -38.265625 10.226562 -38.296875 11.625 -38.265625 C 13.019531 -38.234375 14.472656 -38.078125 15.984375 -37.796875 C 17.503906 -37.515625 19.007812 -37.117188 20.5 -36.609375 C 21.988281 -36.097656 23.320312 -35.410156 24.5 -34.546875 C 25.675781 -33.679688 26.601562 -32.632812 27.28125 -31.40625 C 27.96875 -30.175781 28.265625 -28.742188 28.171875 -27.109375 C 27.921875 -24.566406 27.269531 -22.109375 26.21875 -19.734375 C 25.164062 -17.367188 23.828125 -15.066406 22.203125 -12.828125 C 20.578125 -10.597656 18.691406 -8.421875 16.546875 -6.296875 C 14.410156 -4.171875 12.132812 -2.070312 9.71875 0 C 9.6875 0 9.628906 0.00390625 9.546875 0.015625 C 9.472656 0.0351562 9.421875 0.046875 9.390625 0.046875 C 9.078125 0.046875 8.820312 -0.164062 8.625 -0.59375 C 8.425781 -1.03125 8.328125 -1.40625 8.328125 -1.71875 Z M 8.328125 -1.71875 "/></g></g></g><g fill="#ffffff" fill-opacity="1"><g transform="translate(353.712566, 422.565087)"><g><path d="M 2.234375 -1.015625 C 2.234375 -3.992188 2.285156 -7.03125 2.390625 -10.125 C 2.503906 -13.226562 2.550781 -16.351562 2.53125 -19.5 C 2.519531 -22.644531 2.390625 -25.765625 2.140625 -28.859375 C 1.890625 -31.960938 1.425781 -35.003906 0.75 -37.984375 C 0.75 -38.140625 0.804688 -38.332031 0.921875 -38.5625 C 1.046875 -38.800781 1.203125 -39.007812 1.390625 -39.1875 C 1.578125 -39.375 1.785156 -39.519531 2.015625 -39.625 C 2.253906 -39.738281 2.5 -39.75 2.75 -39.65625 C 3.144531 -39.5 3.472656 -39.195312 3.734375 -38.75 C 4.003906 -38.300781 4.207031 -37.8125 4.34375 -37.28125 C 4.488281 -36.757812 4.582031 -36.257812 4.625 -35.78125 C 4.675781 -35.300781 4.703125 -34.953125 4.703125 -34.734375 L 22.59375 -39.1875 C 22.875 -39.125 23.097656 -38.960938 23.265625 -38.703125 C 23.441406 -38.441406 23.519531 -38.144531 23.5 -37.8125 C 23.488281 -37.488281 23.378906 -37.171875 23.171875 -36.859375 C 22.972656 -36.554688 22.671875 -36.34375 22.265625 -36.21875 L 4.65625 -31.421875 C 4.65625 -29.410156 4.707031 -27.410156 4.8125 -25.421875 C 4.914062 -23.441406 5.046875 -21.429688 5.203125 -19.390625 L 18.125 -23.890625 C 18.125 -23.890625 18.21875 -23.984375 18.40625 -24.171875 C 18.59375 -24.359375 18.816406 -24.515625 19.078125 -24.640625 C 19.347656 -24.765625 19.628906 -24.8125 19.921875 -24.78125 C 20.210938 -24.75 20.5 -24.515625 20.78125 -24.078125 C 20.78125 -23.460938 20.40625 -22.898438 19.65625 -22.390625 C 18.914062 -21.878906 17.992188 -21.40625 16.890625 -20.96875 C 15.796875 -20.53125 14.601562 -20.117188 13.3125 -19.734375 C 12.03125 -19.347656 10.835938 -18.953125 9.734375 -18.546875 C 8.640625 -18.148438 7.71875 -17.738281 6.96875 -17.3125 C 6.226562 -16.894531 5.859375 -16.457031 5.859375 -16 L 5.53125 -3.765625 C 6 -3.484375 6.671875 -3.394531 7.546875 -3.5 C 8.429688 -3.613281 9.414062 -3.828125 10.5 -4.140625 C 11.59375 -4.453125 12.742188 -4.832031 13.953125 -5.28125 C 15.160156 -5.726562 16.320312 -6.148438 17.4375 -6.546875 C 18.550781 -6.953125 19.578125 -7.3125 20.515625 -7.625 C 21.460938 -7.9375 22.234375 -8.109375 22.828125 -8.140625 C 23.109375 -8.109375 23.351562 -8.003906 23.5625 -7.828125 C 23.78125 -7.660156 23.9375 -7.46875 24.03125 -7.25 C 24.125 -7.03125 24.128906 -6.804688 24.046875 -6.578125 C 23.972656 -6.347656 23.769531 -6.15625 23.4375 -6 C 22.226562 -5.46875 20.769531 -4.875 19.0625 -4.21875 C 17.351562 -3.570312 15.59375 -2.945312 13.78125 -2.34375 C 11.96875 -1.738281 10.207031 -1.210938 8.5 -0.765625 C 6.800781 -0.316406 5.363281 -0.046875 4.1875 0.046875 C 3.75 -0.015625 3.398438 -0.113281 3.140625 -0.25 C 2.878906 -0.394531 2.578125 -0.648438 2.234375 -1.015625 Z M 2.234375 -1.015625 "/></g></g></g><g fill="#ffffff" fill-opacity="1"><g transform="translate(379.00179, 422.565087)"><g><path d="M 1.25 -39.09375 C 1.59375 -39.59375 2.003906 -39.738281 2.484375 -39.53125 C 2.960938 -39.332031 3.410156 -39.023438 3.828125 -38.609375 C 4.253906 -38.191406 4.585938 -37.773438 4.828125 -37.359375 C 5.078125 -36.941406 5.140625 -36.75 5.015625 -36.78125 L 22.078125 -7.625 C 22.171875 -8.09375 22.253906 -8.84375 22.328125 -9.875 C 22.410156 -10.914062 22.46875 -12.140625 22.5 -13.546875 C 22.53125 -14.960938 22.535156 -16.503906 22.515625 -18.171875 C 22.503906 -19.847656 22.472656 -21.519531 22.421875 -23.1875 C 22.378906 -24.863281 22.3125 -26.507812 22.21875 -28.125 C 22.125 -29.738281 22.015625 -31.1875 21.890625 -32.46875 C 21.773438 -33.757812 21.640625 -34.832031 21.484375 -35.6875 C 21.328125 -36.539062 21.140625 -37.054688 20.921875 -37.234375 C 20.921875 -37.734375 21.015625 -38.207031 21.203125 -38.65625 C 21.390625 -39.101562 21.757812 -39.328125 22.3125 -39.328125 C 22.84375 -39.328125 23.273438 -39.015625 23.609375 -38.390625 C 23.953125 -37.773438 24.21875 -37.082031 24.40625 -36.3125 C 24.59375 -35.539062 24.722656 -34.78125 24.796875 -34.03125 C 24.878906 -33.289062 24.921875 -32.8125 24.921875 -32.59375 C 24.953125 -31.96875 24.972656 -30.976562 24.984375 -29.625 C 25.003906 -28.28125 25.019531 -26.738281 25.03125 -25 C 25.050781 -23.269531 25.066406 -21.453125 25.078125 -19.546875 C 25.097656 -17.640625 25.113281 -15.816406 25.125 -14.078125 C 25.144531 -12.347656 25.15625 -10.800781 25.15625 -9.4375 C 25.15625 -8.070312 25.171875 -7.082031 25.203125 -6.46875 C 25.234375 -5.59375 25.347656 -4.828125 25.546875 -4.171875 C 25.742188 -3.523438 25.84375 -2.785156 25.84375 -1.953125 C 25.84375 -1.273438 25.585938 -0.765625 25.078125 -0.421875 C 24.566406 -0.078125 24.003906 0.09375 23.390625 0.09375 C 23.046875 0.09375 22.738281 0.046875 22.46875 -0.046875 C 22.207031 -0.140625 22 -0.296875 21.84375 -0.515625 C 21.695312 -0.734375 21.613281 -1.019531 21.59375 -1.375 C 21.582031 -1.726562 21.65625 -2.171875 21.8125 -2.703125 C 21.25 -3.347656 20.53125 -4.4375 19.65625 -5.96875 C 18.789062 -7.507812 17.835938 -9.25 16.796875 -11.1875 C 15.765625 -13.125 14.679688 -15.160156 13.546875 -17.296875 C 12.421875 -19.429688 11.335938 -21.453125 10.296875 -23.359375 C 9.253906 -25.265625 8.285156 -26.929688 7.390625 -28.359375 C 6.492188 -29.785156 5.765625 -30.765625 5.203125 -31.296875 C 5.046875 -29.273438 5 -26.9375 5.0625 -24.28125 C 5.125 -21.632812 5.234375 -18.925781 5.390625 -16.15625 C 5.546875 -13.382812 5.707031 -10.679688 5.875 -8.046875 C 6.050781 -5.410156 6.140625 -3.082031 6.140625 -1.0625 C 6.140625 -0.414062 5.953125 -0.0078125 5.578125 0.15625 C 5.203125 0.332031 4.8125 0.375 4.40625 0.28125 C 4.007812 0.1875 3.671875 0.0234375 3.390625 -0.203125 C 3.109375 -0.441406 3.0625 -0.625 3.25 -0.75 Z M 1.25 -39.09375 "/></g></g></g><g fill="#ffffff" fill-opacity="1"><g transform="translate(406.150515, 422.565087)"><g><path d="M 16 -35.75 C 14.789062 -35.90625 13.578125 -35.925781 12.359375 -35.8125 C 11.148438 -35.707031 9.945312 -35.578125 8.75 -35.421875 C 7.5625 -35.273438 6.363281 -35.128906 5.15625 -34.984375 C 3.945312 -34.847656 2.738281 -34.828125 1.53125 -34.921875 C 1.1875 -34.953125 0.835938 -35.023438 0.484375 -35.140625 C 0.128906 -35.265625 -0.015625 -35.59375 0.046875 -36.125 C 0.078125 -36.46875 0.242188 -36.804688 0.546875 -37.140625 C 0.859375 -37.484375 1.1875 -37.640625 1.53125 -37.609375 L 15.53125 -38.453125 C 15.5625 -38.609375 15.625 -38.832031 15.71875 -39.125 C 15.8125 -39.414062 15.929688 -39.703125 16.078125 -39.984375 C 16.234375 -40.265625 16.421875 -40.503906 16.640625 -40.703125 C 16.859375 -40.898438 17.109375 -40.984375 17.390625 -40.953125 C 17.796875 -40.929688 18.113281 -40.800781 18.34375 -40.5625 C 18.570312 -40.332031 18.765625 -40.082031 18.921875 -39.8125 C 19.078125 -39.550781 19.21875 -39.3125 19.34375 -39.09375 C 19.46875 -38.882812 19.625 -38.765625 19.8125 -38.734375 C 24.800781 -38.734375 29.929688 -38.828125 35.203125 -39.015625 C 35.285156 -39.015625 35.53125 -39.003906 35.9375 -38.984375 C 36.34375 -38.972656 36.625 -38.953125 36.78125 -38.921875 C 36.96875 -38.390625 36.769531 -37.972656 36.1875 -37.671875 C 35.613281 -37.378906 34.789062 -37.15625 33.71875 -37 C 32.65625 -36.851562 31.441406 -36.75 30.078125 -36.6875 C 28.710938 -36.625 27.351562 -36.578125 26 -36.546875 C 24.65625 -36.515625 23.382812 -36.46875 22.1875 -36.40625 C 21 -36.34375 20.066406 -36.25 19.390625 -36.125 C 19.140625 -34.507812 19 -32.769531 18.96875 -30.90625 C 18.9375 -29.050781 18.941406 -27.128906 18.984375 -25.140625 C 19.035156 -23.160156 19.125 -21.148438 19.25 -19.109375 C 19.375 -17.066406 19.488281 -15.050781 19.59375 -13.0625 C 19.707031 -11.082031 19.78125 -9.160156 19.8125 -7.296875 C 19.84375 -5.441406 19.796875 -3.707031 19.671875 -2.09375 C 19.859375 -1.101562 19.769531 -0.535156 19.40625 -0.390625 C 19.050781 -0.253906 18.378906 -0.265625 17.390625 -0.421875 C 17.140625 -1.691406 16.953125 -3.234375 16.828125 -5.046875 C 16.703125 -6.859375 16.609375 -8.828125 16.546875 -10.953125 C 16.484375 -13.078125 16.453125 -15.273438 16.453125 -17.546875 C 16.453125 -19.828125 16.4375 -22.066406 16.40625 -24.265625 C 16.375 -26.472656 16.332031 -28.554688 16.28125 -30.515625 C 16.238281 -32.484375 16.144531 -34.226562 16 -35.75 Z M 16 -35.75 "/></g></g></g><g fill="#ffffff" fill-opacity="1"><g transform="translate(437.669068, 422.565087)"><g><path d="M -0.046875 0 C 0.171875 -0.707031 0.519531 -1.882812 1 -3.53125 C 1.476562 -5.175781 2.101562 -7.523438 2.875 -10.578125 C 3.65625 -13.628906 4.609375 -17.507812 5.734375 -22.21875 C 6.867188 -26.9375 8.195312 -32.734375 9.71875 -39.609375 C 9.90625 -39.921875 10.164062 -40.128906 10.5 -40.234375 C 10.84375 -40.347656 11.1875 -40.378906 11.53125 -40.328125 C 11.875 -40.285156 12.160156 -40.175781 12.390625 -40 C 12.617188 -39.832031 12.71875 -39.640625 12.6875 -39.421875 L 21.859375 -17.15625 L 26.59375 -18.59375 C 27 -18.59375 27.335938 -18.484375 27.609375 -18.265625 C 27.890625 -18.054688 28.046875 -17.796875 28.078125 -17.484375 C 28.109375 -17.171875 28 -16.835938 27.75 -16.484375 C 27.507812 -16.128906 27.078125 -15.84375 26.453125 -15.625 C 26.203125 -15.53125 25.875 -15.425781 25.46875 -15.3125 C 25.070312 -15.207031 24.671875 -15.109375 24.265625 -15.015625 C 23.867188 -14.921875 23.53125 -14.828125 23.25 -14.734375 C 22.96875 -14.640625 22.828125 -14.546875 22.828125 -14.453125 L 27.984375 -0.703125 C 27.921875 -0.546875 27.859375 -0.347656 27.796875 -0.109375 C 27.734375 0.117188 27.609375 0.300781 27.421875 0.4375 C 27.242188 0.582031 26.96875 0.628906 26.59375 0.578125 C 26.21875 0.535156 25.691406 0.3125 25.015625 -0.09375 L 19.671875 -13.765625 C 19.015625 -13.578125 18.207031 -13.394531 17.25 -13.21875 C 16.289062 -13.050781 15.28125 -12.878906 14.21875 -12.703125 C 13.164062 -12.535156 12.101562 -12.335938 11.03125 -12.109375 C 9.96875 -11.878906 8.984375 -11.59375 8.078125 -11.25 C 7.179688 -10.90625 6.421875 -10.492188 5.796875 -10.015625 C 5.179688 -9.535156 4.816406 -8.957031 4.703125 -8.28125 C 4.640625 -7.84375 4.519531 -7.128906 4.34375 -6.140625 C 4.175781 -5.148438 4.015625 -4.15625 3.859375 -3.15625 C 3.671875 -1.976562 3.453125 -0.707031 3.203125 0.65625 C 2.648438 1.207031 2.144531 1.390625 1.6875 1.203125 C 1.238281 1.023438 0.660156 0.625 -0.046875 0 Z M 11.625 -34.5 L 6.6875 -13.8125 C 7.21875 -14 7.945312 -14.195312 8.875 -14.40625 C 9.8125 -14.625 10.820312 -14.859375 11.90625 -15.109375 C 12.988281 -15.359375 14.078125 -15.601562 15.171875 -15.84375 C 16.273438 -16.09375 17.273438 -16.359375 18.171875 -16.640625 Z M 11.625 -34.5 "/></g></g></g><g fill="#ffffff" fill-opacity="1"><g transform="translate(465.608082, 422.565087)"><g><path d="M 2.515625 -2 C 2.421875 -8.632812 2.3125 -14.160156 2.1875 -18.578125 C 2.0625 -22.992188 1.953125 -26.570312 1.859375 -29.3125 C 1.765625 -32.050781 1.6875 -34.078125 1.625 -35.390625 C 1.5625 -36.710938 1.53125 -37.578125 1.53125 -37.984375 C 1.53125 -38.453125 1.660156 -38.820312 1.921875 -39.09375 C 2.191406 -39.375 2.476562 -39.503906 2.78125 -39.484375 C 3.09375 -39.472656 3.390625 -39.304688 3.671875 -38.984375 C 3.953125 -38.660156 4.109375 -38.140625 4.140625 -37.421875 L 5.625 -3.34375 L 25.796875 -7.625 C 27.878906 -7.625 28.332031 -6.738281 27.15625 -4.96875 L 3.8125 0 C 2.945312 0 2.515625 -0.664062 2.515625 -2 Z M 2.515625 -2 "/></g></g></g><g fill="#ffffff" fill-opacity="1"><g transform="translate(494.01197, 422.565087)"><g/></g></g><g fill="#ffffff" fill-opacity="1"><g transform="translate(517.813592, 422.565087)"><g><path d="M 1.296875 -9.25 C 1.296875 -10.363281 1.410156 -11.878906 1.640625 -13.796875 C 1.878906 -15.722656 2.222656 -17.800781 2.671875 -20.03125 C 3.117188 -22.269531 3.695312 -24.523438 4.40625 -26.796875 C 5.125 -29.078125 5.960938 -31.140625 6.921875 -32.984375 C 7.890625 -34.828125 8.984375 -36.335938 10.203125 -37.515625 C 11.429688 -38.691406 12.789062 -39.28125 14.28125 -39.28125 C 15.113281 -39.28125 15.832031 -39.125 16.4375 -38.8125 C 17.039062 -38.507812 17.539062 -38.09375 17.9375 -37.5625 C 18.34375 -37.039062 18.640625 -36.4375 18.828125 -35.75 C 19.015625 -35.070312 19.109375 -34.34375 19.109375 -33.5625 C 18.273438 -33.164062 17.640625 -33.070312 17.203125 -33.28125 C 16.765625 -33.5 16.414062 -33.832031 16.15625 -34.28125 C 15.894531 -34.738281 15.640625 -35.210938 15.390625 -35.703125 C 15.140625 -36.203125 14.78125 -36.515625 14.3125 -36.640625 C 13.195312 -36.640625 12.175781 -36.101562 11.25 -35.03125 C 10.320312 -33.957031 9.484375 -32.597656 8.734375 -30.953125 C 7.992188 -29.316406 7.34375 -27.488281 6.78125 -25.46875 C 6.226562 -23.457031 5.765625 -21.5 5.390625 -19.59375 C 5.015625 -17.6875 4.734375 -15.957031 4.546875 -14.40625 C 4.367188 -12.863281 4.28125 -11.71875 4.28125 -10.96875 C 4.28125 -9.976562 4.316406 -9.023438 4.390625 -8.109375 C 4.472656 -7.191406 4.675781 -6.378906 5 -5.671875 C 5.320312 -4.960938 5.804688 -4.394531 6.453125 -3.96875 C 7.109375 -3.550781 8.023438 -3.34375 9.203125 -3.34375 C 10.597656 -3.34375 11.96875 -3.742188 13.3125 -4.546875 C 14.664062 -5.359375 15.90625 -6.367188 17.03125 -7.578125 C 18.164062 -8.785156 19.160156 -10.078125 20.015625 -11.453125 C 20.867188 -12.835938 21.484375 -14.085938 21.859375 -15.203125 C 21.910156 -15.234375 22.0625 -15.253906 22.3125 -15.265625 C 22.5625 -15.285156 22.71875 -15.296875 22.78125 -15.296875 C 23.1875 -15.296875 23.570312 -15.25 23.9375 -15.15625 C 24.3125 -15.0625 24.5 -14.753906 24.5 -14.234375 C 24.28125 -13.109375 23.789062 -11.929688 23.03125 -10.703125 C 22.28125 -9.484375 21.382812 -8.289062 20.34375 -7.125 C 19.300781 -5.96875 18.164062 -4.882812 16.9375 -3.875 C 15.71875 -2.875 14.519531 -2.03125 13.34375 -1.34375 C 12.164062 -0.664062 11.070312 -0.195312 10.0625 0.0625 C 9.0625 0.332031 8.25 0.3125 7.625 0 C 6.507812 0 5.546875 -0.316406 4.734375 -0.953125 C 3.929688 -1.585938 3.273438 -2.367188 2.765625 -3.296875 C 2.253906 -4.234375 1.878906 -5.234375 1.640625 -6.296875 C 1.410156 -7.367188 1.296875 -8.351562 1.296875 -9.25 Z M 1.296875 -9.25 "/></g></g></g><g fill="#ffffff" fill-opacity="1"><g transform="translate(542.963372, 422.565087)"><g><path d="M -0.046875 0 C 0.171875 -0.707031 0.519531 -1.882812 1 -3.53125 C 1.476562 -5.175781 2.101562 -7.523438 2.875 -10.578125 C 3.65625 -13.628906 4.609375 -17.507812 5.734375 -22.21875 C 6.867188 -26.9375 8.195312 -32.734375 9.71875 -39.609375 C 9.90625 -39.921875 10.164062 -40.128906 10.5 -40.234375 C 10.84375 -40.347656 11.1875 -40.378906 11.53125 -40.328125 C 11.875 -40.285156 12.160156 -40.175781 12.390625 -40 C 12.617188 -39.832031 12.71875 -39.640625 12.6875 -39.421875 L 21.859375 -17.15625 L 26.59375 -18.59375 C 27 -18.59375 27.335938 -18.484375 27.609375 -18.265625 C 27.890625 -18.054688 28.046875 -17.796875 28.078125 -17.484375 C 28.109375 -17.171875 28 -16.835938 27.75 -16.484375 C 27.507812 -16.128906 27.078125 -15.84375 26.453125 -15.625 C 26.203125 -15.53125 25.875 -15.425781 25.46875 -15.3125 C 25.070312 -15.207031 24.671875 -15.109375 24.265625 -15.015625 C 23.867188 -14.921875 23.53125 -14.828125 23.25 -14.734375 C 22.96875 -14.640625 22.828125 -14.546875 22.828125 -14.453125 L 27.984375 -0.703125 C 27.921875 -0.546875 27.859375 -0.347656 27.796875 -0.109375 C 27.734375 0.117188 27.609375 0.300781 27.421875 0.4375 C 27.242188 0.582031 26.96875 0.628906 26.59375 0.578125 C 26.21875 0.535156 25.691406 0.3125 25.015625 -0.09375 L 19.671875 -13.765625 C 19.015625 -13.578125 18.207031 -13.394531 17.25 -13.21875 C 16.289062 -13.050781 15.28125 -12.878906 14.21875 -12.703125 C 13.164062 -12.535156 12.101562 -12.335938 11.03125 -12.109375 C 9.96875 -11.878906 8.984375 -11.59375 8.078125 -11.25 C 7.179688 -10.90625 6.421875 -10.492188 5.796875 -10.015625 C 5.179688 -9.535156 4.816406 -8.957031 4.703125 -8.28125 C 4.640625 -7.84375 4.519531 -7.128906 4.34375 -6.140625 C 4.175781 -5.148438 4.015625 -4.15625 3.859375 -3.15625 C 3.671875 -1.976562 3.453125 -0.707031 3.203125 0.65625 C 2.648438 1.207031 2.144531 1.390625 1.6875 1.203125 C 1.238281 1.023438 0.660156 0.625 -0.046875 0 Z M 11.625 -34.5 L 6.6875 -13.8125 C 7.21875 -14 7.945312 -14.195312 8.875 -14.40625 C 9.8125 -14.625 10.820312 -14.859375 11.90625 -15.109375 C 12.988281 -15.359375 14.078125 -15.601562 15.171875 -15.84375 C 16.273438 -16.09375 17.273438 -16.359375 18.171875 -16.640625 Z M 11.625 -34.5 "/></g></g></g><g fill="#ffffff" fill-opacity="1"><g transform="translate(570.902404, 422.565087)"><g><path d="M 1.296875 -38.921875 C 1.390625 -39.128906 1.582031 -39.296875 1.875 -39.421875 C 2.175781 -39.546875 2.488281 -39.609375 2.8125 -39.609375 C 3.132812 -39.609375 3.421875 -39.519531 3.671875 -39.34375 C 3.921875 -39.175781 4.078125 -38.910156 4.140625 -38.546875 L 4.421875 -35.984375 C 5.003906 -36.109375 5.695312 -36.363281 6.5 -36.75 C 7.3125 -37.132812 8.25 -37.515625 9.3125 -37.890625 C 10.382812 -38.265625 11.585938 -38.570312 12.921875 -38.8125 C 14.253906 -39.0625 15.742188 -39.097656 17.390625 -38.921875 C 19.929688 -38.421875 21.773438 -37.828125 22.921875 -37.140625 C 24.066406 -36.460938 24.675781 -35.710938 24.75 -34.890625 C 24.832031 -34.066406 24.492188 -33.179688 23.734375 -32.234375 C 22.972656 -31.296875 21.957031 -30.34375 20.6875 -29.375 C 19.414062 -28.414062 17.988281 -27.441406 16.40625 -26.453125 C 14.832031 -25.460938 13.289062 -24.507812 11.78125 -23.59375 C 10.28125 -22.675781 8.882812 -21.804688 7.59375 -20.984375 C 6.3125 -20.171875 5.347656 -19.421875 4.703125 -18.734375 L 26.5 -5.625 C 26.5 -5.125 26.296875 -4.648438 25.890625 -4.203125 C 25.492188 -3.753906 25.03125 -3.5625 24.5 -3.625 L 4 -15.4375 L 4 0 C 3.625 0.3125 3.304688 0.515625 3.046875 0.609375 C 2.785156 0.703125 2.578125 0.734375 2.421875 0.703125 C 2.265625 0.671875 2.125 0.582031 2 0.4375 C 1.875 0.300781 1.765625 0.15625 1.671875 0 Z M 4.421875 -32.5 C 4.359375 -31.875 4.3125 -31.128906 4.28125 -30.265625 C 4.25 -29.398438 4.234375 -28.476562 4.234375 -27.5 C 4.234375 -26.519531 4.234375 -25.554688 4.234375 -24.609375 C 4.234375 -23.671875 4.234375 -22.828125 4.234375 -22.078125 C 4.390625 -22.234375 4.875 -22.519531 5.6875 -22.9375 C 6.507812 -23.363281 7.507812 -23.882812 8.6875 -24.5 C 9.875 -25.125 11.140625 -25.8125 12.484375 -26.5625 C 13.828125 -27.320312 15.101562 -28.101562 16.3125 -28.90625 C 17.519531 -29.71875 18.582031 -30.519531 19.5 -31.3125 C 20.414062 -32.101562 21.003906 -32.835938 21.265625 -33.515625 C 21.535156 -34.203125 21.394531 -34.816406 20.84375 -35.359375 C 20.300781 -35.898438 19.195312 -36.328125 17.53125 -36.640625 C 16.601562 -36.703125 15.507812 -36.671875 14.25 -36.546875 C 13 -36.421875 11.742188 -36.191406 10.484375 -35.859375 C 9.222656 -35.535156 8.050781 -35.09375 6.96875 -34.53125 C 5.882812 -33.976562 5.035156 -33.300781 4.421875 -32.5 Z M 4.421875 -32.5 "/></g></g></g><g fill="#ffffff" fill-opacity="1"><g transform="translate(597.539784, 422.565087)"><g><path d="M 2.234375 -1.015625 C 2.234375 -3.992188 2.285156 -7.03125 2.390625 -10.125 C 2.503906 -13.226562 2.550781 -16.351562 2.53125 -19.5 C 2.519531 -22.644531 2.390625 -25.765625 2.140625 -28.859375 C 1.890625 -31.960938 1.425781 -35.003906 0.75 -37.984375 C 0.75 -38.140625 0.804688 -38.332031 0.921875 -38.5625 C 1.046875 -38.800781 1.203125 -39.007812 1.390625 -39.1875 C 1.578125 -39.375 1.785156 -39.519531 2.015625 -39.625 C 2.253906 -39.738281 2.5 -39.75 2.75 -39.65625 C 3.144531 -39.5 3.472656 -39.195312 3.734375 -38.75 C 4.003906 -38.300781 4.207031 -37.8125 4.34375 -37.28125 C 4.488281 -36.757812 4.582031 -36.257812 4.625 -35.78125 C 4.675781 -35.300781 4.703125 -34.953125 4.703125 -34.734375 L 22.59375 -39.1875 C 22.875 -39.125 23.097656 -38.960938 23.265625 -38.703125 C 23.441406 -38.441406 23.519531 -38.144531 23.5 -37.8125 C 23.488281 -37.488281 23.378906 -37.171875 23.171875 -36.859375 C 22.972656 -36.554688 22.671875 -36.34375 22.265625 -36.21875 L 4.65625 -31.421875 C 4.65625 -29.410156 4.707031 -27.410156 4.8125 -25.421875 C 4.914062 -23.441406 5.046875 -21.429688 5.203125 -19.390625 L 18.125 -23.890625 C 18.125 -23.890625 18.21875 -23.984375 18.40625 -24.171875 C 18.59375 -24.359375 18.816406 -24.515625 19.078125 -24.640625 C 19.347656 -24.765625 19.628906 -24.8125 19.921875 -24.78125 C 20.210938 -24.75 20.5 -24.515625 20.78125 -24.078125 C 20.78125 -23.460938 20.40625 -22.898438 19.65625 -22.390625 C 18.914062 -21.878906 17.992188 -21.40625 16.890625 -20.96875 C 15.796875 -20.53125 14.601562 -20.117188 13.3125 -19.734375 C 12.03125 -19.347656 10.835938 -18.953125 9.734375 -18.546875 C 8.640625 -18.148438 7.71875 -17.738281 6.96875 -17.3125 C 6.226562 -16.894531 5.859375 -16.457031 5.859375 -16 L 5.53125 -3.765625 C 6 -3.484375 6.671875 -3.394531 7.546875 -3.5 C 8.429688 -3.613281 9.414062 -3.828125 10.5 -4.140625 C 11.59375 -4.453125 12.742188 -4.832031 13.953125 -5.28125 C 15.160156 -5.726562 16.320312 -6.148438 17.4375 -6.546875 C 18.550781 -6.953125 19.578125 -7.3125 20.515625 -7.625 C 21.460938 -7.9375 22.234375 -8.109375 22.828125 -8.140625 C 23.109375 -8.109375 23.351562 -8.003906 23.5625 -7.828125 C 23.78125 -7.660156 23.9375 -7.46875 24.03125 -7.25 C 24.125 -7.03125 24.128906 -6.804688 24.046875 -6.578125 C 23.972656 -6.347656 23.769531 -6.15625 23.4375 -6 C 22.226562 -5.46875 20.769531 -4.875 19.0625 -4.21875 C 17.351562 -3.570312 15.59375 -2.945312 13.78125 -2.34375 C 11.96875 -1.738281 10.207031 -1.210938 8.5 -0.765625 C 6.800781 -0.316406 5.363281 -0.046875 4.1875 0.046875 C 3.75 -0.015625 3.398438 -0.113281 3.140625 -0.25 C 2.878906 -0.394531 2.578125 -0.648438 2.234375 -1.015625 Z M 2.234375 -1.015625 "/></g></g></g></svg>