<svg xmlns="http://www.w3.org/2000/svg" xmlns:xlink="http://www.w3.org/1999/xlink" width="1080" zoomAndPan="magnify" viewBox="0 0 810 809.999993" height="1080" preserveAspectRatio="xMidYMid meet" version="1.0"><path fill="#ffffff" d="M 357.269531 324.136719 C 356.066406 321.097656 352.421875 320.523438 350.5 323.25 C 338.191406 340.707031 325.796875 358.097656 313.3125 375.425781 C 312.140625 377.050781 313.03125 379.554688 314.640625 380.496094 C 316.503906 381.585938 318.535156 380.796875 319.707031 379.167969 C 330.71875 363.882812 341.648438 348.542969 352.523438 333.160156 C 353.4375 336.304688 354.175781 339.496094 354.675781 342.738281 C 355.472656 347.953125 356.066406 353.835938 354.511719 358.964844 C 353.484375 362.339844 350.320312 366.582031 346.265625 366.007812 C 344.742188 365.789062 343.304688 364.605469 342.726562 363.1875 C 342.535156 362.71875 342.457031 362.175781 342.5625 361.789062 C 342.585938 361.6875 342.777344 361.34375 342.800781 361.191406 C 342.816406 361.109375 342.839844 361.0625 342.863281 361.011719 C 347.398438 362.011719 349.300781 354.996094 344.710938 353.851562 C 338.246094 352.234375 333.902344 359.179688 335.519531 364.902344 C 337.011719 370.167969 342.453125 373.902344 347.890625 373.363281 C 353.550781 372.804688 358.378906 368.769531 360.625 363.632812 C 363.164062 357.828125 363.0625 351.371094 362.398438 345.179688 C 361.621094 337.949219 359.945312 330.898438 357.269531 324.136719 Z M 342.859375 361.011719 C 343.078125 360.480469 343.585938 361.128906 342.859375 361.011719 Z M 491.570312 344.417969 C 488.78125 348.746094 485.523438 354.351562 480.292969 356.003906 C 477.933594 356.75 475.351562 356.773438 473.042969 355.808594 C 472.824219 355.714844 472.617188 355.597656 472.414062 355.480469 C 472.980469 354.820312 473.539062 354.15625 474.085938 353.5 C 477.421875 349.492188 481.070312 345.050781 482.730469 340.019531 C 485.113281 332.792969 478.148438 327.265625 471.398438 328.253906 C 460.613281 329.835938 458.679688 343.871094 461.511719 352.414062 C 461.8125 353.324219 462.1875 354.1875 462.597656 355.027344 C 462.039062 355.554688 461.484375 356.082031 460.902344 356.582031 C 460.785156 356.683594 460.636719 356.796875 460.535156 356.875 C 460.210938 357.101562 459.882812 357.328125 459.546875 357.539062 C 458.402344 358.253906 457.097656 359.023438 455.695312 358.890625 C 453.726562 358.699219 452.144531 357.039062 451.074219 355.496094 C 450.441406 354.578125 449.921875 353.574219 449.46875 352.558594 C 449.410156 352.414062 449.3125 352.179688 449.261719 352.046875 C 449.113281 351.652344 448.96875 351.257812 448.832031 350.863281 C 448.652344 350.339844 448.5 349.808594 448.335938 349.28125 C 452.15625 340.84375 455.289062 331.773438 456.132812 322.578125 C 456.464844 318.96875 456.371094 314.753906 454.261719 311.644531 C 452 308.3125 447.453125 306.902344 443.804688 308.824219 C 440.566406 310.527344 439.050781 314.257812 438.363281 317.664062 C 437.441406 322.238281 437.421875 326.976562 437.742188 331.613281 C 438.089844 336.636719 438.8125 341.667969 439.933594 346.578125 C 440.097656 347.292969 440.273438 348.015625 440.457031 348.738281 C 439.511719 350.699219 438.492188 352.660156 437.421875 354.5 C 437.007812 355.210938 436.578125 355.917969 436.132812 356.609375 C 435.925781 356.933594 435.714844 357.253906 435.5 357.570312 C 435.40625 357.707031 435.191406 357.980469 435.089844 358.121094 C 434.667969 358.597656 434.238281 359.054688 433.761719 359.484375 C 433.625 359.605469 433.601562 359.636719 433.609375 359.644531 C 433.570312 359.660156 433.492188 359.703125 433.308594 359.8125 C 433.105469 359.929688 432.210938 360.429688 432.382812 360.359375 C 431.859375 360.582031 431.398438 360.6875 430.804688 360.617188 C 430.683594 360.585938 430.417969 360.527344 430.261719 360.488281 C 430.1875 360.453125 429.898438 360.34375 429.882812 360.332031 C 429.609375 360.195312 429.308594 360.015625 429.070312 359.835938 C 427.257812 358.460938 426.199219 356.605469 425.695312 354.660156 C 425.171875 352.644531 425.125 350.59375 425.214844 348.371094 C 425.292969 346.375 425.453125 345.050781 425.699219 343.570312 C 425.855469 342.839844 426 342.105469 426.132812 341.375 C 426.160156 341.265625 426.171875 341.15625 426.199219 341.046875 C 426.195312 341.046875 426.195312 341.046875 426.195312 341.046875 C 426.542969 339.082031 425.660156 337.058594 423.609375 336.496094 C 421.722656 335.976562 419.527344 337.128906 419.050781 339.082031 C 418.824219 340.015625 418.625 340.996094 418.445312 342 C 418.296875 342.632812 418.148438 343.265625 417.988281 343.894531 C 417.585938 345.46875 417.144531 347.03125 416.640625 348.578125 C 416.375 349.394531 416.097656 350.207031 415.796875 351.011719 C 415.644531 351.417969 415.488281 351.824219 415.324219 352.226562 C 415.324219 352.226562 415.277344 352.339844 415.238281 352.4375 C 415.175781 352.574219 414.992188 352.992188 414.96875 353.039062 C 414.273438 354.550781 413.492188 356.023438 412.511719 357.367188 C 412.402344 357.5 412.289062 357.636719 412.171875 357.765625 C 412.136719 357.800781 412.097656 357.839844 412.058594 357.875 C 411.039062 352.449219 411.167969 346.261719 408.285156 341.371094 C 406.59375 338.5 403.65625 336.816406 400.300781 337.492188 C 397.269531 338.101562 394.855469 340.253906 393.164062 342.773438 C 392.792969 341.921875 392.371094 341.097656 391.839844 340.347656 C 390.382812 338.300781 388.113281 336.5625 385.480469 336.636719 C 383.25 336.699219 381.382812 338.128906 380.035156 339.792969 C 378.789062 341.328125 377.746094 343.023438 376.828125 344.792969 C 376.816406 342.683594 376.800781 340.574219 376.789062 338.460938 C 376.765625 333.699219 369.355469 333.6875 369.382812 338.460938 C 369.433594 347.335938 369.484375 356.207031 369.535156 365.082031 C 369.558594 369.257812 375.664062 370.109375 376.8125 366.066406 C 377.492188 363.667969 378.265625 361.289062 379.074219 358.929688 C 380.625 354.410156 381.832031 351 384.105469 346.964844 C 384.542969 346.1875 385.015625 345.433594 385.535156 344.703125 C 385.570312 344.652344 385.585938 344.625 385.601562 344.601562 C 385.632812 344.570312 385.675781 344.535156 385.726562 344.484375 C 385.734375 344.503906 385.734375 344.507812 385.746094 344.527344 C 385.832031 344.6875 385.9375 344.84375 386.027344 345.003906 C 386.121094 345.171875 386.199219 345.34375 386.289062 345.511719 C 386.296875 345.527344 386.300781 345.53125 386.308594 345.546875 C 386.3125 345.566406 386.3125 345.566406 386.320312 345.589844 C 386.664062 346.570312 386.9375 347.558594 387.136719 348.578125 C 387.417969 349.996094 387.371094 349.75 387.5 351.292969 C 387.589844 352.4375 387.640625 353.582031 387.660156 354.730469 C 387.695312 357.003906 387.628906 359.300781 387.445312 361.578125 C 387.339844 362.507812 387.246094 363.429688 387.171875 364.34375 C 387.003906 366.339844 388.996094 368.046875 390.875 368.046875 C 393.082031 368.046875 394.328125 366.335938 394.578125 364.34375 C 394.625 363.796875 394.6875 363.25 394.753906 362.699219 C 394.773438 362.542969 394.792969 362.386719 394.8125 362.226562 C 394.828125 362.132812 394.863281 361.863281 394.898438 361.640625 C 395.023438 360.828125 395.152344 360.023438 395.296875 359.214844 C 395.617188 357.449219 395.996094 355.691406 396.464844 353.960938 C 396.917969 352.285156 397.636719 350.085938 398.152344 349.027344 C 398.527344 348.257812 398.917969 347.5 399.386719 346.78125 C 399.460938 346.664062 399.769531 346.265625 399.839844 346.164062 C 400.078125 345.894531 400.324219 345.632812 400.585938 345.382812 C 400.65625 345.320312 400.6875 345.285156 400.703125 345.261719 C 400.753906 345.242188 400.820312 345.210938 400.921875 345.160156 C 401.144531 345.050781 401.363281 344.925781 401.585938 344.808594 C 401.613281 344.796875 401.636719 344.789062 401.664062 344.777344 C 401.671875 344.785156 401.675781 344.789062 401.679688 344.792969 C 401.785156 344.96875 401.894531 345.140625 402 345.3125 C 402.023438 345.355469 402.117188 345.539062 402.191406 345.691406 C 402.261719 345.863281 402.382812 346.15625 402.410156 346.234375 C 402.53125 346.570312 402.636719 346.914062 402.738281 347.261719 C 404.1875 352.230469 403.789062 357.75 405.636719 362.578125 C 406.988281 366.109375 410.109375 367.25 413.585938 365.769531 C 416.273438 364.625 418.25 362.324219 419.753906 359.84375 C 421.039062 362.597656 423.019531 364.96875 425.945312 366.621094 C 430.796875 369.367188 436.390625 367.679688 440.007812 363.742188 C 441.542969 362.074219 442.828125 360.132812 443.976562 358.109375 C 444.292969 358.65625 444.625 359.183594 444.988281 359.695312 C 446.964844 362.472656 449.597656 364.90625 452.9375 365.878906 C 456.855469 367.023438 460.824219 365.664062 464.070312 363.425781 C 465.191406 362.65625 466.253906 361.785156 467.277344 360.863281 C 468.617188 361.882812 470.132812 362.703125 471.878906 363.234375 C 479.203125 365.460938 486.535156 362.398438 491.53125 356.957031 C 493.988281 354.277344 495.996094 351.21875 497.957031 348.167969 C 500.554688 344.136719 494.144531 340.417969 491.570312 344.417969 Z M 385.199219 343.964844 C 385.203125 343.96875 385.210938 343.976562 385.21875 343.980469 C 385.175781 343.972656 385.144531 343.96875 385.097656 343.957031 C 385.148438 343.96875 385.179688 343.96875 385.199219 343.964844 Z M 401.949219 344.703125 C 401.949219 344.707031 401.945312 344.710938 401.945312 344.714844 C 401.925781 344.710938 401.910156 344.707031 401.886719 344.703125 C 401.921875 344.695312 401.945312 344.695312 401.949219 344.703125 Z M 401.480469 344.585938 C 401.375 344.527344 401.359375 344.511719 401.480469 344.585938 Z M 401.761719 344.742188 C 401.773438 344.738281 401.785156 344.730469 401.800781 344.726562 C 401.816406 344.730469 401.820312 344.734375 401.835938 344.738281 C 401.824219 344.734375 401.816406 344.730469 401.804688 344.726562 C 401.832031 344.71875 401.859375 344.710938 401.878906 344.707031 C 401.902344 344.710938 401.917969 344.710938 401.945312 344.71875 C 401.9375 344.761719 401.847656 344.761719 401.761719 344.742188 Z M 448.003906 315.5625 C 447.988281 315.542969 447.976562 315.527344 447.964844 315.515625 C 448.238281 315.519531 448.171875 315.546875 448.003906 315.5625 Z M 447.753906 315.359375 C 447.753906 315.359375 447.757812 315.363281 447.757812 315.363281 C 447.753906 315.363281 447.753906 315.363281 447.753906 315.359375 Z M 447.160156 315.398438 C 447.152344 315.402344 447.144531 315.410156 447.136719 315.414062 C 446.980469 315.453125 447.03125 315.425781 447.160156 315.398438 Z M 445.109375 322.707031 C 445.140625 322.289062 445.1875 321.875 445.222656 321.460938 C 445.242188 321.265625 445.246094 321.171875 445.25 321.117188 C 445.257812 321.09375 445.265625 321.042969 445.285156 320.914062 C 445.417969 320.078125 445.574219 319.25 445.789062 318.429688 C 445.929688 317.882812 446.113281 317.347656 446.308594 316.816406 C 446.328125 316.871094 446.808594 315.910156 446.96875 315.621094 C 446.984375 315.605469 446.996094 315.601562 447.015625 315.582031 C 447.0625 315.542969 447.15625 315.46875 447.246094 315.398438 C 447.257812 315.390625 447.269531 315.386719 447.28125 315.378906 C 447.273438 315.378906 447.273438 315.382812 447.265625 315.382812 C 447.265625 315.382812 447.269531 315.382812 447.269531 315.378906 C 447.273438 315.378906 447.28125 315.378906 447.285156 315.378906 C 447.390625 315.320312 447.507812 315.253906 447.546875 315.21875 C 447.488281 315.265625 447.457031 315.285156 447.410156 315.316406 C 447.390625 315.320312 447.386719 315.324219 447.394531 315.328125 C 447.378906 315.339844 447.359375 315.351562 447.347656 315.363281 C 447.328125 315.367188 447.304688 315.375 447.285156 315.378906 C 447.300781 315.375 447.316406 315.375 447.332031 315.375 C 447.320312 315.378906 447.304688 315.394531 447.292969 315.398438 C 447.316406 315.390625 447.355469 315.378906 447.382812 315.367188 C 447.429688 315.363281 447.472656 315.363281 447.515625 315.363281 C 447.527344 315.363281 447.527344 315.367188 447.539062 315.367188 C 447.609375 315.382812 447.644531 315.386719 447.691406 315.394531 C 447.691406 315.390625 447.695312 315.390625 447.695312 315.390625 C 447.699219 315.390625 447.703125 315.394531 447.707031 315.398438 C 447.753906 315.40625 447.796875 315.410156 447.820312 315.414062 C 447.851562 315.441406 447.886719 315.472656 447.921875 315.511719 C 447.921875 315.515625 447.925781 315.515625 447.925781 315.515625 C 447.941406 315.535156 447.957031 315.550781 447.972656 315.566406 C 447.96875 315.566406 447.964844 315.566406 447.957031 315.570312 C 448.042969 315.691406 448.167969 315.867188 448.214844 315.933594 C 448.246094 315.976562 448.261719 316.003906 448.285156 316.035156 C 448.386719 316.335938 448.492188 316.636719 448.570312 316.945312 C 448.648438 317.246094 448.699219 317.550781 448.761719 317.855469 C 448.773438 317.898438 448.777344 317.914062 448.78125 317.9375 C 448.785156 317.992188 448.785156 318.050781 448.789062 318.148438 C 448.828125 318.933594 448.871094 319.714844 448.851562 320.503906 C 448.828125 321.320312 448.765625 322.128906 448.6875 322.9375 C 448.664062 323.183594 448.636719 323.425781 448.605469 323.667969 C 448.628906 323.5 448.703125 323.035156 448.585938 323.804688 C 448.511719 324.320312 448.429688 324.835938 448.335938 325.347656 C 447.980469 327.34375 447.515625 329.320312 446.980469 331.277344 C 446.554688 332.84375 446.078125 334.394531 445.570312 335.9375 C 445.507812 335.402344 445.433594 334.863281 445.382812 334.339844 C 445 330.480469 444.820312 326.578125 445.109375 322.707031 Z M 467.757812 343.910156 C 467.816406 342.328125 468.023438 340.929688 468.730469 339.023438 C 469.058594 338.128906 469.746094 337.046875 470.703125 336.21875 C 470.71875 336.210938 470.726562 336.207031 470.75 336.195312 C 470.882812 336.117188 471.003906 336.023438 471.140625 335.953125 C 471.25 335.902344 471.355469 335.847656 471.460938 335.792969 C 471.484375 335.785156 471.5 335.785156 471.53125 335.773438 C 472.519531 335.503906 473.460938 335.328125 474.417969 335.65625 C 475.789062 336.121094 475.949219 336.859375 475.59375 338.042969 C 475.546875 338.191406 475.488281 338.335938 475.433594 338.484375 C 475.429688 338.488281 475.429688 338.488281 475.429688 338.488281 C 475.421875 338.507812 475.421875 338.511719 475.410156 338.53125 C 475.226562 338.925781 475.035156 339.308594 474.835938 339.691406 C 474.347656 340.605469 473.808594 341.496094 473.242188 342.363281 C 472.082031 344.148438 470.816406 345.855469 469.472656 347.503906 C 469.070312 348 468.652344 348.488281 468.242188 348.976562 C 468.238281 348.96875 468.238281 348.960938 468.234375 348.953125 C 467.8125 347.234375 467.683594 346 467.757812 343.910156 Z M 447.285156 315.378906 C 447.285156 315.378906 447.285156 315.378906 447.28125 315.378906 C 447.28125 315.378906 447.28125 315.378906 447.285156 315.378906 Z M 447.691406 315.390625 C 447.699219 315.390625 447.703125 315.390625 447.710938 315.394531 C 447.78125 315.441406 447.867188 315.511719 447.925781 315.511719 C 447.9375 315.527344 447.949219 315.546875 447.960938 315.566406 C 447.710938 315.585938 447.367188 315.5625 447.691406 315.390625 Z M 447.296875 315.398438 C 447.152344 315.488281 447.140625 315.464844 447.296875 315.398438 Z M 419.335938 323.265625 C 419.335938 320.71875 421.402344 318.65625 423.945312 318.65625 C 426.492188 318.65625 428.554688 320.71875 428.554688 323.265625 C 428.554688 325.8125 426.492188 327.875 423.945312 327.875 C 421.402344 327.875 419.335938 325.8125 419.335938 323.265625 Z M 419.335938 323.265625 " fill-opacity="1" fill-rule="nonzero"/><path fill="#a6a6a6" d="M 522.441406 367.707031 C 522.382812 367.871094 522.3125 368.027344 522.257812 368.191406 C 520.941406 371.988281 518.925781 375.671875 516.929688 379.144531 C 513.023438 385.945312 508.339844 392.324219 503.128906 398.179688 C 487.0625 416.246094 465.503906 428.722656 442.195312 434.832031 C 412.257812 442.683594 378.714844 441.957031 349.929688 430.066406 C 329.257812 421.53125 311.199219 407.609375 297.457031 389.980469 C 291.3125 382.101562 285.53125 373.507812 281.757812 364.195312 C 281.003906 362.332031 282.589844 360.121094 284.347656 359.644531 C 286.367188 359.085938 288.03125 360.300781 288.820312 362.058594 C 288.683594 361.746094 288.519531 361.355469 288.742188 361.851562 C 290.316406 365.328125 292.09375 368.699219 294.042969 371.980469 C 295.738281 374.839844 297.550781 377.628906 299.464844 380.347656 C 300.066406 381.199219 300.671875 382.042969 301.292969 382.882812 C 301.5625 383.242188 301.828125 383.601562 302.101562 383.960938 C 302.265625 384.179688 302.433594 384.398438 302.597656 384.617188 C 302.625 384.648438 302.628906 384.660156 302.652344 384.6875 C 302.667969 384.710938 302.675781 384.714844 302.699219 384.746094 C 304.011719 386.425781 305.355469 388.078125 306.746094 389.695312 C 309.882812 393.355469 313.222656 396.84375 316.746094 400.132812 C 320.773438 403.890625 324.613281 407.035156 328.742188 409.980469 C 338.65625 417.050781 349.390625 422.492188 360.769531 426.191406 C 374.980469 430.808594 389.875 432.703125 404.792969 432.421875 C 420.132812 432.128906 435.429688 429.765625 449.949219 424.742188 C 470.519531 417.621094 488.375 405.21875 501.976562 388.085938 C 502.175781 387.832031 502.375 387.582031 502.570312 387.328125 C 502.585938 387.308594 502.589844 387.304688 502.601562 387.289062 C 502.621094 387.261719 502.628906 387.253906 502.65625 387.21875 C 502.921875 386.863281 503.191406 386.511719 503.457031 386.15625 C 504.019531 385.402344 504.574219 384.636719 505.117188 383.867188 C 506.125 382.445312 507.097656 380.996094 508.039062 379.523438 C 509.605469 377.066406 511.074219 374.542969 512.421875 371.957031 C 513.300781 370.273438 514.097656 368.558594 514.875 366.828125 C 514.878906 366.8125 514.882812 366.808594 514.886719 366.792969 C 514.960938 366.609375 515.035156 366.425781 515.105469 366.242188 C 515.175781 366.074219 515.238281 365.90625 515.296875 365.738281 C 515.972656 363.847656 517.804688 362.589844 519.855469 363.152344 C 521.683594 363.652344 523.113281 365.820312 522.441406 367.707031 Z M 522.441406 367.707031 " fill-opacity="1" fill-rule="nonzero"/><path fill="#d9d9d9" d="M 533.375 430.335938 C 531.402344 430.878906 530.300781 432.945312 530.785156 434.894531 C 530.867188 435.214844 530.945312 435.535156 531.007812 435.863281 C 531.027344 435.957031 531.078125 436.402344 531.09375 436.488281 C 531.128906 436.945312 531.152344 437.398438 531.140625 437.859375 C 531.136719 437.96875 531.125 438.078125 531.117188 438.191406 C 531.117188 438.1875 531.113281 438.265625 531.105469 438.367188 C 531.097656 438.46875 531.089844 438.570312 531.085938 438.675781 C 531.089844 438.570312 531.09375 438.492188 531.097656 438.425781 C 531.089844 438.535156 531.074219 438.652344 531.054688 438.722656 C 530.996094 438.964844 530.945312 439.210938 530.871094 439.453125 C 530.832031 439.589844 530.691406 439.910156 530.632812 440.050781 C 530.46875 440.335938 530.296875 440.621094 530.15625 440.910156 C 530.152344 440.914062 530.152344 440.917969 530.148438 440.921875 C 530.007812 441.066406 529.882812 441.226562 529.738281 441.367188 C 529.601562 441.503906 529.453125 441.625 529.3125 441.757812 C 529.304688 441.761719 529.300781 441.761719 529.296875 441.765625 C 529.019531 441.902344 527.894531 442.417969 528.304688 442.3125 C 527.980469 442.425781 527.664062 442.539062 527.328125 442.621094 C 527.210938 442.644531 527.03125 442.699219 526.867188 442.726562 C 526.820312 442.722656 526.769531 442.71875 526.71875 442.71875 C 526.320312 442.726562 525.929688 442.746094 525.53125 442.726562 C 525.425781 442.71875 525.320312 442.707031 525.214844 442.695312 C 525.535156 442.71875 524.777344 442.621094 524.574219 442.574219 C 524.070312 442.457031 523.59375 442.269531 523.101562 442.121094 C 523.089844 442.117188 523.089844 442.117188 523.078125 442.117188 C 523.054688 442.101562 523.046875 442.09375 523.011719 442.074219 C 522.773438 441.945312 522.523438 441.832031 522.289062 441.699219 C 521.863281 441.460938 521.46875 441.191406 521.074219 440.914062 C 520.953125 440.820312 520.75 440.667969 520.695312 440.621094 C 520.386719 440.355469 520.089844 440.074219 519.804688 439.785156 C 519.582031 439.558594 519.367188 439.328125 519.160156 439.089844 C 519.128906 439.054688 518.914062 438.785156 518.808594 438.660156 C 518.4375 438.15625 518.085938 437.632812 517.765625 437.097656 C 517.410156 436.492188 517.089844 435.871094 516.789062 435.238281 C 516.652344 434.949219 516.523438 434.65625 516.390625 434.367188 C 516.375 434.332031 516.367188 434.3125 516.351562 434.28125 C 516.28125 434.109375 516.210938 433.933594 516.144531 433.757812 C 515.183594 431.308594 514.46875 428.765625 513.96875 426.183594 C 513.847656 425.546875 513.746094 424.90625 513.640625 424.265625 C 513.632812 424.199219 513.625 424.175781 513.617188 424.128906 C 513.613281 424.082031 513.613281 424.058594 513.605469 423.988281 C 513.574219 423.675781 513.535156 423.363281 513.503906 423.050781 C 513.378906 421.75 513.316406 420.441406 513.332031 419.136719 C 513.339844 418.570312 513.359375 418.007812 513.398438 417.445312 C 513.414062 417.203125 513.570312 416.089844 513.53125 416.234375 C 513.679688 415.40625 513.84375 414.589844 514.109375 413.789062 C 514.125 413.734375 514.148438 413.652344 514.171875 413.566406 C 514.183594 413.539062 514.1875 413.527344 514.207031 413.492188 C 514.261719 413.371094 514.320312 413.25 514.382812 413.136719 C 514.476562 412.964844 514.582031 412.804688 514.671875 412.632812 C 514.683594 412.613281 514.6875 412.605469 514.695312 412.585938 C 514.796875 412.492188 514.90625 412.375 514.984375 412.277344 C 514.992188 412.273438 515 412.269531 515.007812 412.261719 C 515.003906 412.261719 514.996094 412.261719 514.992188 412.265625 C 515 412.253906 515.003906 412.25 515.011719 412.238281 C 515.023438 412.238281 515.03125 412.242188 515.039062 412.242188 C 515.050781 412.234375 515.0625 412.230469 515.070312 412.222656 C 515.070312 412.21875 515.070312 412.21875 515.066406 412.21875 C 515.070312 412.21875 515.078125 412.21875 515.082031 412.214844 C 515.105469 412.203125 515.125 412.191406 515.148438 412.175781 C 515.164062 412.179688 515.191406 412.191406 515.210938 412.191406 C 515.238281 412.1875 515.242188 412.183594 515.261719 412.183594 C 515.25 412.1875 515.242188 412.195312 515.230469 412.199219 C 515.273438 412.207031 515.304688 412.214844 515.363281 412.234375 C 515.390625 412.238281 515.414062 412.246094 515.4375 412.253906 C 515.515625 412.253906 515.574219 412.25 515.585938 412.238281 C 515.566406 412.257812 515.539062 412.265625 515.511719 412.277344 C 515.71875 412.34375 515.925781 412.410156 516.132812 412.464844 C 516.136719 412.46875 516.136719 412.46875 516.144531 412.472656 C 516.429688 412.660156 516.757812 412.796875 517.050781 412.976562 C 517.292969 413.121094 517.527344 413.277344 517.761719 413.4375 C 517.886719 413.523438 518.007812 413.613281 518.128906 413.703125 C 518.167969 413.734375 518.199219 413.761719 518.257812 413.808594 C 519.808594 415.066406 521.976562 415.324219 523.496094 413.808594 C 524.796875 412.503906 525.058594 409.832031 523.496094 408.566406 C 521.121094 406.636719 518.410156 404.84375 515.226562 404.808594 C 512.414062 404.777344 510.039062 406.316406 508.484375 408.578125 C 505.425781 413.027344 505.613281 419.503906 506.277344 424.609375 C 507.160156 431.457031 509.1875 438.703125 513.710938 444.078125 C 517.53125 448.617188 523.972656 451.375 529.84375 449.613281 C 532.84375 448.710938 535.5625 446.664062 537.019531 443.855469 C 538.789062 440.441406 538.84375 436.59375 537.925781 432.917969 C 537.445312 430.984375 535.269531 429.816406 533.375 430.335938 Z M 514.890625 412.257812 C 514.882812 412.265625 514.875 412.273438 514.867188 412.28125 C 514.816406 412.28125 514.820312 412.273438 514.890625 412.257812 Z M 515.316406 412.097656 C 515.328125 412.117188 515.320312 412.132812 515.308594 412.152344 C 515.28125 412.152344 515.25 412.148438 515.203125 412.152344 C 515.261719 412.117188 515.3125 412.089844 515.316406 412.097656 Z M 514.1875 413.519531 C 514.222656 413.382812 514.269531 413.242188 514.335938 413.179688 C 514.269531 413.324219 514.222656 413.433594 514.1875 413.519531 Z M 515.101562 412.246094 C 515.105469 412.246094 515.105469 412.246094 515.109375 412.246094 C 515.105469 412.246094 515.101562 412.246094 515.097656 412.246094 C 515.101562 412.246094 515.101562 412.246094 515.101562 412.246094 Z M 515.441406 412.257812 C 515.464844 412.265625 515.492188 412.273438 515.515625 412.28125 C 515.382812 412.335938 515.207031 412.296875 515.109375 412.246094 C 515.21875 412.253906 515.34375 412.257812 515.441406 412.257812 Z M 515.101562 412.246094 C 515.089844 412.238281 515.085938 412.230469 515.074219 412.222656 C 515.078125 412.222656 515.082031 412.21875 515.082031 412.21875 C 515.121094 412.210938 515.144531 412.207031 515.195312 412.199219 C 515.207031 412.195312 515.203125 412.195312 515.210938 412.195312 C 515.21875 412.195312 515.226562 412.199219 515.234375 412.203125 C 515.195312 412.21875 515.152344 412.234375 515.101562 412.246094 Z M 531.105469 438.367188 C 531.105469 438.386719 531.105469 438.40625 531.101562 438.425781 C 531.113281 438.261719 531.117188 438.195312 531.117188 438.191406 C 531.113281 438.25 531.113281 438.308594 531.105469 438.367188 Z M 515.042969 412.242188 C 515.058594 412.246094 515.082031 412.246094 515.097656 412.246094 C 515.066406 412.253906 515.039062 412.257812 515.007812 412.261719 C 515.019531 412.257812 515.03125 412.25 515.042969 412.242188 Z M 270.886719 393.519531 C 271.429688 393.355469 271.980469 393.207031 272.535156 393.078125 C 272.773438 393.019531 273.015625 392.96875 273.257812 392.921875 C 273.359375 392.898438 274.042969 392.78125 274.078125 392.769531 C 274.484375 392.726562 275.828125 392.664062 276.574219 392.6875 C 276.753906 392.691406 276.933594 392.710938 277.113281 392.730469 C 277.132812 392.730469 277.152344 392.738281 277.167969 392.738281 C 277.648438 392.867188 278.132812 392.996094 278.613281 393.128906 C 278.851562 393.257812 279.09375 393.390625 279.332031 393.527344 C 279.371094 393.550781 279.390625 393.5625 279.421875 393.578125 C 279.679688 393.796875 279.941406 394.035156 280.160156 394.277344 C 281.09375 395.316406 281.242188 396.050781 281.21875 397.054688 C 281.21875 397.101562 281.203125 397.214844 281.191406 397.308594 C 281.128906 397.613281 281.054688 397.914062 280.960938 398.207031 C 280.910156 398.367188 280.851562 398.527344 280.789062 398.683594 C 280.761719 398.742188 280.722656 398.8125 280.675781 398.890625 C 280.476562 399.214844 280.28125 399.546875 280.085938 399.878906 C 279.992188 400.035156 279.957031 400.101562 279.945312 400.128906 C 279 401.621094 278.9375 403.519531 280.292969 404.875 C 281.601562 406.183594 284.25 406.425781 285.53125 404.875 C 289.589844 399.953125 289.699219 392.859375 284.761719 388.414062 C 280.328125 384.429688 273.875 384.800781 268.546875 386.492188 C 256.773438 390.234375 243.773438 400.390625 245.167969 414.128906 C 245.640625 418.816406 247.757812 422.917969 251.640625 425.660156 C 255.015625 428.039062 259.632812 428.972656 263.546875 427.4375 C 265.410156 426.707031 266.707031 424.953125 266.136719 422.882812 C 265.648438 421.105469 263.453125 419.558594 261.578125 420.296875 C 259.457031 421.128906 257.777344 420.898438 255.746094 419.515625 C 254.019531 418.339844 252.828125 416.242188 252.546875 413.898438 C 252.21875 411.191406 252.871094 408.269531 254.089844 405.851562 C 254.472656 405.097656 254.925781 404.390625 255.425781 403.710938 C 255.441406 403.691406 255.453125 403.679688 255.476562 403.652344 C 255.660156 403.433594 255.84375 403.214844 256.03125 403.003906 C 256.386719 402.605469 256.753906 402.21875 257.128906 401.839844 C 258.828125 400.136719 260.128906 399.117188 261.972656 397.890625 C 262.996094 397.207031 264.050781 396.570312 265.132812 395.980469 C 265.613281 395.71875 266.101562 395.464844 266.589844 395.222656 C 266.835938 395.101562 267.078125 394.984375 267.328125 394.867188 C 267.304688 394.878906 267.933594 394.59375 268.011719 394.554688 C 268.949219 394.15625 269.914062 393.816406 270.886719 393.519531 Z M 278.65625 393.140625 C 279.15625 393.28125 278.847656 393.210938 278.65625 393.140625 Z M 277.101562 392.726562 C 276.609375 392.679688 276.910156 392.691406 277.101562 392.726562 Z M 299.355469 419.332031 C 299.3125 419.3125 299.253906 419.28125 299.183594 419.242188 C 299.183594 419.242188 299.1875 419.246094 299.1875 419.246094 C 299.242188 419.273438 299.296875 419.304688 299.355469 419.332031 Z M 309.402344 426.535156 C 309.703125 421.769531 308.191406 416.785156 304.375 413.808594 C 304.152344 413.59375 303.90625 413.390625 303.609375 413.214844 C 296.824219 409.195312 288.863281 412.648438 283.234375 417.03125 C 275.816406 422.808594 267.574219 432.480469 270.570312 442.621094 C 271.6875 446.40625 274.214844 449.492188 277.429688 451.714844 C 280.429688 453.789062 283.847656 454.230469 287.289062 452.996094 C 294.472656 450.429688 300.414062 444.203125 304.929688 438.257812 C 307.558594 434.789062 309.121094 430.914062 309.402344 426.535156 Z M 297.765625 418.871094 C 297.285156 418.847656 297.511719 418.847656 297.765625 418.871094 Z M 282.898438 446.292969 C 282.835938 446.285156 282.816406 446.277344 282.898438 446.292969 Z M 302.003906 426.3125 C 301.875 428.882812 300.910156 431.203125 299.269531 433.511719 C 299.09375 433.765625 298.910156 434.011719 298.726562 434.257812 C 298.679688 434.316406 298.660156 434.34375 298.632812 434.382812 C 298.59375 434.429688 298.558594 434.472656 298.492188 434.554688 C 298.121094 435.019531 297.742188 435.476562 297.355469 435.929688 C 296.253906 437.210938 295.09375 438.449219 293.886719 439.628906 C 291.628906 441.828125 289.820312 443.394531 287.21875 444.898438 C 286.671875 445.214844 286.105469 445.503906 285.527344 445.765625 C 285.367188 445.824219 285.070312 445.941406 285.019531 445.957031 C 284.722656 446.042969 284.425781 446.125 284.128906 446.214844 C 284.003906 446.253906 283.609375 446.292969 283.546875 446.304688 C 283.457031 446.308594 283.367188 446.308594 283.277344 446.316406 C 283.222656 446.324219 283.160156 446.320312 283.097656 446.316406 C 282.929688 446.277344 282.761719 446.230469 282.597656 446.179688 C 282.730469 446.167969 281.558594 445.578125 281.304688 445.410156 C 281.265625 445.382812 280.851562 445.0625 280.78125 445.019531 C 280.628906 444.890625 280.476562 444.761719 280.332031 444.628906 C 279.917969 444.246094 279.53125 443.832031 279.167969 443.402344 C 279.070312 443.265625 278.828125 442.949219 278.808594 442.914062 C 278.554688 442.53125 278.328125 442.128906 278.113281 441.722656 C 278.058594 441.613281 278.019531 441.546875 277.992188 441.496094 C 277.972656 441.441406 277.960938 441.40625 277.933594 441.324219 C 277.8125 440.988281 277.707031 440.652344 277.617188 440.308594 C 277.554688 440.074219 277.503906 439.839844 277.453125 439.605469 C 277.433594 439.5 277.417969 439.441406 277.40625 439.382812 C 277.402344 439.320312 277.402344 439.246094 277.394531 439.121094 C 277.292969 437.332031 277.441406 436.257812 278.160156 434.402344 C 279.632812 430.578125 282.699219 427.390625 285.65625 424.648438 C 287.238281 423.1875 288.910156 421.875 290.773438 420.796875 C 292.371094 419.871094 293.019531 419.558594 294.757812 419.113281 C 295.070312 419.035156 295.398438 418.984375 295.710938 418.902344 C 295.757812 418.898438 295.777344 418.894531 295.808594 418.886719 C 295.953125 418.875 296.101562 418.859375 296.25 418.851562 C 296.773438 418.839844 297.292969 418.855469 297.816406 418.878906 C 297.890625 418.882812 297.960938 418.894531 298.011719 418.910156 C 298.34375 418.992188 298.667969 419.082031 298.996094 419.171875 C 299.046875 419.1875 299.113281 419.214844 299.183594 419.242188 C 299.132812 419.214844 299.089844 419.195312 299.027344 419.160156 C 299.078125 419.191406 299.132812 419.21875 299.1875 419.246094 C 299.390625 419.339844 299.574219 419.449219 299.351562 419.335938 C 299.527344 419.425781 299.699219 419.511719 299.867188 419.609375 C 299.976562 419.683594 300.050781 419.726562 300.105469 419.757812 C 300.144531 419.800781 300.191406 419.847656 300.269531 419.925781 C 300.28125 419.9375 300.671875 420.414062 300.738281 420.464844 C 301.121094 421.03125 301.355469 421.535156 301.460938 421.855469 C 302.011719 423.480469 302.097656 424.480469 302.003906 426.3125 Z M 347.121094 452.820312 C 341.535156 461.527344 335.949219 470.234375 330.363281 478.941406 C 328.308594 482.144531 323.734375 480.710938 323.460938 477.074219 C 323.105469 472.269531 322.859375 467.457031 322.679688 462.644531 C 322.550781 459.195312 322.425781 455.714844 322.398438 452.234375 C 318.246094 458.328125 314.097656 464.421875 309.945312 470.515625 C 307.277344 474.4375 300.859375 470.726562 303.550781 466.777344 C 304.390625 465.542969 305.230469 464.308594 306.070312 463.074219 C 311.886719 454.535156 317.707031 445.996094 323.523438 437.453125 C 324.453125 436.089844 326.050781 435.296875 327.703125 435.753906 C 329.136719 436.148438 330.617188 437.742188 330.421875 439.324219 C 329.488281 447.023438 329.800781 454.914062 330.089844 462.644531 C 330.125 463.582031 330.175781 464.523438 330.214844 465.464844 C 334.523438 458.746094 338.835938 452.027344 343.144531 445.308594 C 345.714844 441.308594 352.125 445.027344 349.542969 449.050781 C 348.734375 450.304688 347.929688 451.5625 347.121094 452.820312 Z M 344.636719 487.546875 C 344.582031 487.621094 344.542969 487.703125 344.496094 487.78125 C 344.402344 487.890625 344.394531 487.800781 344.660156 487.5 C 344.660156 487.503906 344.660156 487.503906 344.660156 487.503906 C 344.652344 487.523438 344.644531 487.53125 344.636719 487.546875 Z M 377.5 456.449219 C 373.3125 454.898438 369.121094 453.347656 364.929688 451.796875 C 363.484375 451.261719 361.441406 452.136719 360.75 453.5 C 357.226562 460.433594 353.980469 467.511719 350.714844 474.566406 C 349.3125 477.59375 347.917969 480.625 346.507812 483.648438 C 346.042969 484.644531 345.578125 485.644531 345.09375 486.632812 C 344.953125 486.921875 344.78125 487.203125 344.660156 487.5 C 344.730469 487.421875 344.816406 487.332031 344.929688 487.222656 C 344.828125 487.332031 344.722656 487.433594 344.636719 487.546875 C 344.585938 487.65625 344.535156 487.738281 344.496094 487.78125 C 343.800781 488.910156 343.800781 490.355469 344.402344 491.636719 C 344.40625 491.640625 344.40625 491.644531 344.40625 491.644531 C 345.125 493.167969 347.089844 493.679688 348.589844 493.347656 C 350.761719 492.871094 351.605469 490.148438 352.433594 488.390625 C 353.859375 485.355469 355.253906 482.3125 356.664062 479.269531 C 357.632812 477.171875 358.601562 475.074219 359.574219 472.976562 C 362.160156 473.917969 364.746094 474.863281 367.328125 475.800781 C 367.75 475.957031 368.167969 476.109375 368.59375 476.261719 C 369.449219 476.578125 370.679688 476.335938 371.445312 475.890625 C 372.214844 475.441406 372.945312 474.558594 373.148438 473.675781 C 373.363281 472.726562 373.316406 471.664062 372.773438 470.824219 C 372.226562 469.976562 371.507812 469.46875 370.5625 469.121094 C 367.949219 468.167969 365.339844 467.214844 362.730469 466.265625 C 363.730469 464.164062 364.746094 462.070312 365.78125 459.984375 C 369.03125 461.1875 372.28125 462.386719 375.53125 463.589844 C 377.40625 464.285156 379.589844 462.816406 380.085938 461.003906 C 380.65625 458.933594 379.382812 457.144531 377.5 456.449219 Z M 346.660156 486.21875 C 346.628906 486.226562 346.601562 486.230469 346.574219 486.238281 C 346.589844 486.226562 346.609375 486.21875 346.628906 486.207031 C 346.636719 486.210938 346.648438 486.214844 346.660156 486.21875 Z M 396.503906 464.9375 C 394.421875 476.636719 392.339844 488.332031 390.261719 500.027344 C 389.910156 502.003906 387.496094 503.105469 385.703125 502.613281 C 383.648438 502.046875 382.765625 500.023438 383.117188 498.058594 C 385.199219 486.363281 387.277344 474.664062 389.359375 462.96875 C 389.714844 460.992188 392.125 459.890625 393.917969 460.382812 C 395.972656 460.949219 396.851562 462.972656 396.503906 464.9375 Z M 422.402344 458.925781 C 418.902344 458.164062 415.273438 458.023438 411.730469 458.570312 C 410.191406 458.808594 408.964844 460.660156 409.011719 462.144531 C 409.375 472.917969 409.730469 483.6875 410.125 494.457031 C 410.191406 496.246094 410.113281 498.128906 410.441406 499.898438 C 410.652344 501.039062 411.589844 501.929688 412.703125 502.359375 C 412.792969 502.398438 412.898438 502.414062 412.996094 502.445312 C 413.773438 502.679688 414.597656 502.6875 415.320312 502.394531 C 423.066406 500.359375 431.273438 495.375 435.136719 488.230469 C 438.449219 482.117188 438.425781 474.460938 435.277344 468.277344 C 432.742188 463.308594 427.757812 460.089844 422.402344 458.925781 Z M 429.078125 483.84375 C 427.917969 486.164062 427.074219 487.222656 425.105469 489.011719 C 424.710938 489.371094 424.304688 489.714844 423.886719 490.046875 C 423.847656 490.0625 423.035156 490.660156 422.902344 490.753906 C 422.015625 491.363281 421.09375 491.921875 420.152344 492.4375 C 419.292969 492.910156 418.40625 493.335938 417.511719 493.746094 C 417.421875 491.230469 417.332031 488.71875 417.246094 486.203125 C 417.019531 479.675781 416.796875 473.148438 416.578125 466.625 C 416.566406 466.300781 416.554688 465.976562 416.542969 465.65625 C 416.609375 465.65625 416.671875 465.652344 416.734375 465.652344 C 417.132812 465.664062 417.535156 465.683594 417.933594 465.710938 C 418.117188 465.722656 418.707031 465.785156 418.972656 465.808594 C 419.207031 465.847656 419.863281 465.953125 420.015625 465.984375 C 420.445312 466.070312 420.867188 466.164062 421.285156 466.273438 C 421.769531 466.398438 422.242188 466.542969 422.714844 466.703125 C 422.949219 466.785156 423.175781 466.871094 423.410156 466.957031 C 423.542969 467.019531 423.679688 467.082031 423.8125 467.148438 C 424.605469 467.5625 425.378906 467.996094 426.101562 468.527344 C 426.15625 468.601562 426.832031 469.1875 426.984375 469.339844 C 427.222656 469.578125 427.449219 469.828125 427.671875 470.085938 C 427.746094 470.167969 427.789062 470.214844 427.816406 470.246094 C 427.84375 470.289062 427.882812 470.351562 427.945312 470.445312 C 429.316406 472.53125 430.027344 474.5625 430.199219 477.195312 C 430.355469 479.628906 429.929688 482.140625 429.078125 483.84375 Z M 476.261719 484.257812 C 476.824219 486.308594 475.546875 488.117188 473.675781 488.816406 C 468.703125 490.667969 463.734375 492.523438 458.765625 494.375 C 456.890625 495.074219 454.695312 493.597656 454.207031 491.789062 C 453.816406 490.320312 453.421875 488.847656 453.027344 487.378906 C 450.238281 476.984375 447.453125 466.589844 444.664062 456.195312 C 444.089844 454.054688 445.394531 452.417969 447.25 451.640625 C 451.574219 449.832031 455.894531 448.019531 460.214844 446.210938 C 462.070312 445.433594 464.292969 447.058594 464.769531 448.800781 C 465.351562 450.90625 464.027344 452.582031 462.183594 453.355469 C 459.003906 454.6875 455.824219 456.015625 452.644531 457.347656 C 452.761719 457.777344 452.875 458.207031 452.988281 458.636719 C 453.679688 461.21875 454.375 463.796875 455.066406 466.378906 C 457.4375 465.378906 459.8125 464.378906 462.183594 463.378906 C 463.074219 463 464.222656 463.320312 465.039062 463.75 C 465.894531 464.203125 466.449219 465.066406 466.738281 465.964844 C 467.027344 466.855469 466.832031 468.023438 466.367188 468.816406 C 466.132812 469.25 465.816406 469.597656 465.414062 469.855469 C 465.054688 470.183594 464.632812 470.40625 464.152344 470.519531 C 463.777344 470.675781 463.40625 470.835938 463.03125 470.992188 C 461.015625 471.839844 459 472.691406 456.984375 473.539062 C 458.09375 477.667969 459.199219 481.796875 460.308594 485.925781 C 464.105469 484.507812 467.90625 483.089844 471.703125 481.671875 C 473.589844 480.96875 475.765625 482.460938 476.261719 484.257812 Z M 562.84375 419.152344 C 558.824219 422.84375 554.808594 426.535156 550.792969 430.230469 C 549.0625 431.816406 546.199219 431.625 544.972656 429.480469 C 538.894531 418.816406 532.804688 408.113281 527.324219 397.128906 C 526.570312 395.621094 526.699219 393.898438 527.902344 392.640625 C 530.738281 389.679688 533.574219 386.722656 536.40625 383.765625 C 539.714844 380.3125 544.945312 385.558594 541.644531 389.003906 C 539.4375 391.308594 537.230469 393.613281 535.019531 395.917969 C 536.445312 398.714844 537.898438 401.492188 539.386719 404.261719 C 540.824219 402.808594 542.261719 401.355469 543.703125 399.90625 C 544.410156 399.195312 545.34375 398.867188 546.324219 398.820312 C 547.308594 398.777344 548.238281 399.257812 548.941406 399.90625 C 549.625 400.53125 550.027344 401.617188 550.027344 402.523438 C 550.027344 403.480469 549.613281 404.46875 548.941406 405.144531 C 546.992188 407.113281 545.039062 409.085938 543.085938 411.054688 C 545.066406 414.628906 547.078125 418.1875 549.097656 421.738281 C 551.933594 419.128906 554.773438 416.523438 557.609375 413.914062 C 561.113281 410.691406 566.363281 415.921875 562.84375 419.152344 Z M 510.230469 460.726562 C 511.46875 463.738281 507.308594 466.589844 504.789062 464.910156 C 503.558594 464.085938 502.324219 463.265625 501.089844 462.441406 C 495.539062 458.742188 489.992188 455.042969 484.4375 451.34375 C 487.203125 458.722656 489.964844 466.097656 492.730469 473.476562 C 493.433594 475.359375 491.941406 477.539062 490.144531 478.03125 C 488.089844 478.59375 486.289062 477.316406 485.585938 475.445312 C 485.085938 474.101562 484.582031 472.757812 484.078125 471.417969 C 480.519531 461.914062 476.957031 452.410156 473.398438 442.90625 C 472.269531 439.890625 476.261719 437.003906 478.839844 438.722656 C 480.074219 439.546875 481.308594 440.367188 482.539062 441.191406 C 487.914062 444.773438 493.289062 448.355469 498.664062 451.9375 C 495.441406 444.101562 492.21875 436.265625 488.996094 428.425781 C 488.230469 426.566406 489.832031 424.351562 491.582031 423.871094 C 493.679688 423.296875 495.378906 424.609375 496.140625 426.457031 C 496.730469 427.898438 497.320312 429.335938 497.914062 430.769531 C 502.019531 440.757812 506.125 450.742188 510.230469 460.726562 Z M 346.324219 405.886719 C 346.640625 398.765625 347.519531 391.667969 348.9375 384.679688 C 349.335938 382.710938 351.664062 381.589844 353.496094 382.09375 C 355.515625 382.648438 356.476562 384.691406 356.082031 386.648438 C 355.472656 389.660156 354.988281 392.664062 354.605469 395.675781 C 356.191406 393.820312 357.710938 391.925781 359.121094 389.96875 C 360.089844 388.625 361.621094 387.804688 363.300781 388.269531 C 364.90625 388.710938 365.96875 390.207031 366.019531 391.839844 C 366.078125 393.644531 366.199219 395.429688 366.355469 397.207031 C 367.332031 394.878906 368.316406 392.554688 369.292969 390.230469 C 370.074219 388.378906 371.710938 387.054688 373.851562 387.644531 C 375.601562 388.125 377.214844 390.355469 376.4375 392.199219 C 373.710938 398.667969 370.984375 405.136719 368.261719 411.601562 C 367.617188 413.128906 366.460938 414.320312 364.6875 414.320312 C 363.121094 414.320312 361.46875 413.179688 361.117188 411.601562 C 360.371094 408.261719 359.792969 404.882812 359.367188 401.484375 C 357.246094 403.929688 355.007812 406.273438 352.648438 408.507812 C 350.414062 410.613281 346.175781 409.214844 346.324219 405.886719 Z M 386.074219 417.097656 C 387.042969 409.703125 388.019531 402.304688 388.988281 394.910156 C 389.261719 392.839844 390.46875 391.304688 392.695312 391.203125 C 394.511719 391.125 396.652344 392.980469 396.398438 394.910156 C 395.425781 402.304688 394.453125 409.703125 393.480469 417.097656 C 393.210938 419.164062 392 420.703125 389.777344 420.800781 C 387.957031 420.882812 385.820312 419.027344 386.074219 417.097656 Z M 413.292969 395.308594 C 411.234375 395.484375 409.179688 395.664062 407.125 395.84375 C 405.054688 396.027344 403.503906 394.003906 403.421875 392.140625 C 403.324219 390.019531 405.199219 388.605469 407.125 388.4375 C 407.929688 388.367188 408.738281 388.296875 409.542969 388.226562 C 415.144531 387.738281 420.742188 387.25 426.34375 386.761719 C 428.410156 386.582031 429.964844 388.601562 430.046875 390.464844 C 430.140625 392.585938 428.265625 394 426.34375 394.167969 C 425.535156 394.238281 424.730469 394.308594 423.925781 394.378906 C 422.824219 394.476562 421.726562 394.570312 420.628906 394.667969 C 421.332031 400.925781 422.035156 407.1875 422.742188 413.445312 C 422.972656 415.507812 420.855469 417.066406 419.035156 417.148438 C 416.878906 417.246094 415.546875 415.363281 415.332031 413.445312 C 414.652344 407.398438 413.972656 401.351562 413.292969 395.308594 Z M 442.871094 407.648438 C 442.640625 406.820312 442.410156 405.992188 442.175781 405.164062 C 440.5625 399.371094 438.945312 393.578125 437.332031 387.785156 C 436.773438 385.785156 438.015625 383.84375 439.917969 383.226562 C 441.824219 382.609375 443.953125 383.949219 444.472656 385.816406 C 444.703125 386.644531 444.9375 387.472656 445.167969 388.300781 C 445.5 389.492188 445.832031 390.683594 446.164062 391.875 C 446.207031 391.855469 446.25 391.835938 446.292969 391.816406 C 449.808594 390.34375 453.394531 389.054688 457.03125 387.933594 C 456.433594 385.804688 455.835938 383.675781 455.234375 381.546875 C 454.671875 379.550781 455.921875 377.605469 457.824219 376.992188 C 459.730469 376.375 461.855469 377.714844 462.378906 379.578125 C 462.613281 380.410156 462.847656 381.242188 463.082031 382.074219 C 464.714844 387.890625 466.351562 393.703125 467.988281 399.519531 C 468.550781 401.515625 467.300781 403.460938 465.402344 404.074219 C 463.492188 404.691406 461.371094 403.351562 460.84375 401.488281 C 460.609375 400.65625 460.375 399.824219 460.144531 398.992188 C 459.773438 397.683594 459.40625 396.371094 459.039062 395.0625 C 455.386719 396.1875 451.789062 397.480469 448.261719 398.960938 C 448.226562 398.972656 448.183594 398.972656 448.144531 398.984375 C 448.769531 401.21875 449.390625 403.449219 450.011719 405.679688 C 450.570312 407.679688 449.332031 409.621094 447.425781 410.238281 C 445.519531 410.855469 443.390625 409.515625 442.871094 407.648438 Z M 442.871094 407.648438 " fill-opacity="1" fill-rule="nonzero"/><path fill="#a6a6a6" d="M 289.84375 353.9375 C 289.828125 353.957031 289.8125 353.980469 289.796875 354.003906 C 289.8125 353.976562 289.828125 353.953125 289.847656 353.925781 C 289.847656 353.929688 289.847656 353.933594 289.84375 353.9375 Z M 294.578125 350.769531 C 292.613281 350.320312 290.582031 351.359375 290.023438 353.355469 C 289.96875 353.546875 289.910156 353.738281 289.847656 353.925781 C 289.863281 353.90625 289.878906 353.882812 289.898438 353.863281 C 289.878906 353.882812 289.863281 353.914062 289.84375 353.9375 C 289.84375 353.941406 289.84375 353.941406 289.84375 353.945312 C 289.683594 354.410156 289.675781 354.214844 289.796875 354.003906 C 289.609375 354.28125 289.472656 354.691406 289.3125 354.949219 C 289.222656 355.09375 289.121094 355.230469 289.027344 355.371094 C 289.015625 355.378906 289.015625 355.378906 289.007812 355.390625 C 288.71875 355.683594 288.449219 355.992188 288.136719 356.269531 C 288.117188 356.289062 288.066406 356.332031 288.011719 356.378906 C 287.902344 356.457031 287.738281 356.582031 287.710938 356.597656 C 287.363281 356.824219 287.003906 357.015625 286.636719 357.207031 C 286.472656 357.265625 286.3125 357.324219 286.144531 357.375 C 285.828125 357.472656 285.472656 357.515625 285.148438 357.597656 C 284.902344 357.605469 284.664062 357.621094 284.421875 357.617188 C 284.25 357.613281 284.085938 357.597656 283.917969 357.59375 C 283.90625 357.59375 283.90625 357.59375 283.894531 357.59375 C 283.484375 357.5 283.078125 357.410156 282.675781 357.28125 C 282.574219 357.25 282.410156 357.164062 282.28125 357.132812 C 282.277344 357.132812 282.277344 357.132812 282.273438 357.132812 C 281.894531 356.945312 281.527344 356.734375 281.175781 356.503906 C 281.144531 356.484375 281.144531 356.480469 281.121094 356.460938 C 281.152344 356.496094 281.179688 356.519531 281.210938 356.5625 C 281.171875 356.507812 281.105469 356.457031 281.042969 356.40625 C 281.066406 356.421875 281.089844 356.441406 281.121094 356.464844 C 281.023438 356.363281 280.953125 356.3125 280.945312 356.324219 C 280.867188 356.261719 280.789062 356.207031 280.730469 356.152344 C 280.433594 355.882812 280.179688 355.589844 279.910156 355.296875 C 279.90625 355.292969 279.90625 355.292969 279.902344 355.285156 C 279.773438 355.070312 279.632812 354.859375 279.503906 354.640625 C 278.539062 352.960938 276.113281 352.234375 274.4375 353.3125 C 272.742188 354.398438 272.074219 356.578125 273.109375 358.375 C 275.84375 363.125 281.296875 365.617188 286.664062 364.828125 C 291.632812 364.097656 295.824219 360.097656 297.164062 355.324219 C 297.6875 353.460938 296.523438 351.210938 294.578125 350.769531 Z M 519.808594 357.078125 C 519.804688 357.070312 519.800781 357.0625 519.796875 357.054688 C 519.800781 357.058594 519.800781 357.058594 519.800781 357.0625 C 519.804688 357.066406 519.808594 357.074219 519.808594 357.078125 Z M 533.425781 356.992188 C 531.53125 355.992188 529.542969 356.621094 528.355469 358.320312 C 528.351562 358.324219 528.351562 358.324219 528.351562 358.328125 C 528.234375 358.457031 528.125 358.582031 528.003906 358.707031 C 527.871094 358.839844 527.734375 358.96875 527.59375 359.097656 C 527.59375 359.097656 527.59375 359.097656 527.589844 359.097656 C 527.410156 359.140625 526.824219 359.597656 526.679688 359.679688 C 526.558594 359.742188 526.433594 359.800781 526.3125 359.859375 C 525.921875 359.988281 525.53125 360.109375 525.125 360.199219 C 525.035156 360.21875 524.933594 360.226562 524.832031 360.242188 C 524.773438 360.246094 524.710938 360.25 524.65625 360.253906 C 524.308594 360.269531 523.964844 360.246094 523.617188 360.230469 C 523.4375 360.179688 523.25 360.144531 523.070312 360.097656 C 522.917969 360.054688 522.765625 360 522.617188 359.953125 C 522.289062 359.78125 521.960938 359.613281 521.652344 359.410156 C 521.621094 359.390625 521.5625 359.347656 521.496094 359.300781 C 521.4375 359.25 521.378906 359.203125 521.351562 359.179688 C 521.054688 358.914062 520.800781 358.621094 520.53125 358.335938 C 520.429688 358.1875 520.328125 358.042969 520.234375 357.886719 C 520.078125 357.628906 519.957031 357.34375 519.808594 357.078125 C 519.914062 357.304688 519.957031 357.519531 519.804688 357.074219 C 519.800781 357.070312 519.800781 357.066406 519.800781 357.0625 C 519.773438 357.011719 519.75 356.953125 519.714844 356.90625 C 519.746094 356.949219 519.773438 357.003906 519.796875 357.054688 C 519.742188 356.886719 519.6875 356.714844 519.640625 356.546875 C 519.582031 356.332031 519.539062 356.117188 519.488281 355.898438 C 519.488281 355.886719 519.488281 355.886719 519.484375 355.875 C 519.261719 354 517.878906 352.210938 515.800781 352.304688 C 513.945312 352.382812 511.914062 353.9375 512.101562 356.003906 C 512.5625 361.175781 515.996094 365.800781 521.101562 367.238281 C 526.28125 368.691406 531.742188 366.375 534.753906 362.058594 C 535.863281 360.464844 535.097656 357.875 533.425781 356.992188 Z M 533.425781 356.992188 " fill-opacity="1" fill-rule="nonzero"/></svg>