<svg xmlns="http://www.w3.org/2000/svg" xmlns:xlink="http://www.w3.org/1999/xlink" width="1080" zoomAndPan="magnify" viewBox="0 0 810 809.999993" height="1080" preserveAspectRatio="xMidYMid meet" version="1.0"><defs><g/><clipPath id="65c8ea7e77"><path d="M 397 214.179688 L 412 214.179688 L 412 274 L 397 274 Z M 397 214.179688 " clip-rule="nonzero"/></clipPath></defs><path fill="#ffffff" d="M 327.535156 380.089844 C 328.574219 338.214844 362.699219 304.71875 404.714844 304.71875 C 446.714844 304.71875 480.820312 338.214844 481.359375 380.089844 Z M 329.632812 394.226562 L 532.804688 394.226562 C 537 394.226562 540.15625 391.089844 540.15625 387.429688 C 540.15625 383.226562 537 380.089844 532.804688 380.089844 L 493.945312 380.089844 C 493.425781 331.402344 453.527344 292.167969 404.714844 292.167969 C 355.867188 292.167969 315.988281 331.402344 315.449219 380.089844 L 276.078125 380.089844 C 272.402344 380.089844 269.257812 383.226562 269.257812 387.429688 C 269.257812 391.089844 272.402344 394.226562 276.078125 394.226562 Z M 343.28125 462.261719 C 341.703125 450.75 336.96875 427.726562 332.773438 408.359375 L 319.125 408.359375 C 323.339844 427.207031 327.535156 446.050781 330.152344 464.359375 C 340.125 529.257812 355.867188 538.167969 377.925781 491.0625 C 383.699219 479.011719 386.855469 465.9375 392.089844 454.425781 C 395.785156 446.574219 400.503906 442.375 404.714844 442.375 C 409.433594 442.375 413.628906 446.570312 417.304688 454.425781 C 423.078125 465.9375 426.234375 479.011719 432.007812 491.0625 C 454.046875 538.167969 469.808594 529.257812 479.78125 464.359375 C 481.878906 446.050781 486.074219 427.207031 490.808594 408.359375 L 477.160156 408.359375 C 472.429688 427.726562 467.710938 450.75 466.132812 462.261719 C 464.554688 473.253906 462.457031 485.304688 458.78125 495.761719 L 458.78125 497.339844 C 457.722656 498.917969 456.683594 499.957031 455.105469 500.476562 C 453.527344 500.476562 451.949219 499.433594 450.910156 498.378906 L 450.371094 497.335938 C 441.980469 483.207031 438.300781 471.175781 433.046875 456.503906 C 428.332031 442.914062 419.921875 429.304688 405.234375 428.765625 L 404.179688 428.765625 C 390.011719 429.304688 381.601562 442.914062 376.886719 456.503906 C 371.109375 471.175781 367.417969 483.207031 359.5625 497.335938 L 359.023438 498.378906 C 357.984375 499.4375 356.40625 500.476562 354.828125 500.476562 C 353.25 499.957031 351.671875 498.917969 351.152344 497.339844 L 350.632812 495.761719 C 346.957031 485.304688 344.859375 473.253906 343.28125 462.261719 Z M 343.28125 462.261719 " fill-opacity="1" fill-rule="evenodd"/><g clip-path="url(#65c8ea7e77)"><path fill="#ffffff" d="M 411.53125 220.976562 L 411.53125 266.523438 C 411.53125 270.703125 408.375 273.839844 404.714844 273.839844 C 400.503906 273.839844 397.363281 270.703125 397.363281 266.523438 L 397.363281 220.976562 C 397.363281 217.316406 400.503906 214.179688 404.714844 214.179688 C 408.375 214.179688 411.53125 217.316406 411.53125 220.976562 Z M 411.53125 220.976562 " fill-opacity="1" fill-rule="evenodd"/></g><path fill="#ffffff" d="M 466.132812 252.894531 L 455.625 278.554688 C 454.046875 281.695312 449.851562 283.773438 446.175781 282.214844 C 443.035156 280.117188 440.921875 276.457031 442.5 272.800781 L 453.527344 247.660156 C 454.585938 244 458.78125 242.441406 462.457031 244 C 466.132812 245.058594 467.710938 249.238281 466.132812 252.894531 Z M 466.132812 252.894531 " fill-opacity="1" fill-rule="evenodd"/><path fill="#ffffff" d="M 357.984375 246.621094 L 368.476562 272.261719 C 370.054688 275.9375 367.957031 280.117188 364.28125 281.695312 C 360.601562 282.734375 356.925781 281.15625 355.367188 277.5 L 344.859375 251.855469 C 343.28125 248.199219 345.378906 244.539062 349.054688 242.960938 C 352.210938 241.382812 356.40625 242.960938 357.984375 246.621094 Z M 357.984375 246.621094 " fill-opacity="1" fill-rule="evenodd"/><path fill="#ffffff" d="M 277.128906 318.851562 L 302.332031 329.324219 C 306.007812 330.898438 308.105469 335.078125 306.007812 338.753906 C 304.429688 341.875 300.753906 343.972656 297.078125 342.414062 L 271.355469 331.402344 C 267.679688 330.363281 266.109375 326.183594 267.679688 322.507812 C 269.257812 318.851562 273.453125 317.273438 277.128906 318.851562 Z M 277.128906 318.851562 " fill-opacity="1" fill-rule="evenodd"/><path fill="#ffffff" d="M 538.578125 333.519531 L 512.847656 343.972656 C 509.171875 345.535156 504.976562 343.972656 503.398438 340.316406 C 502.355469 336.640625 503.933594 332.460938 507.609375 330.902344 L 533.324219 320.949219 C 536.480469 319.386719 540.679688 320.949219 542.253906 324.605469 C 543.832031 328.28125 542.253906 332.460938 538.578125 333.519531 Z M 538.578125 333.519531 " fill-opacity="1" fill-rule="evenodd"/><path fill="#ffffff" d="M 522.296875 272.800781 L 490.269531 304.71875 C 487.132812 307.335938 482.9375 307.335938 480.300781 304.71875 C 477.164062 302.101562 477.164062 297.90625 480.300781 294.785156 L 512.328125 262.847656 C 514.960938 260.230469 519.679688 260.230469 522.296875 262.847656 C 524.933594 265.464844 524.933594 270.183594 522.296875 272.800781 Z M 522.296875 272.800781 " fill-opacity="1" fill-rule="evenodd"/><path fill="#ffffff" d="M 297.078125 262.847656 L 329.113281 294.785156 C 331.730469 297.90625 331.730469 302.101562 329.113281 304.71875 C 326.476562 307.335938 321.761719 307.335938 319.125 304.71875 L 287.109375 272.800781 C 283.953125 270.183594 283.953125 265.464844 287.109375 262.847656 C 289.726562 260.230469 293.929688 260.230469 297.078125 262.847656 Z M 297.078125 262.847656 " fill-opacity="1" fill-rule="evenodd"/><g fill="#ffffff" fill-opacity="1"><g transform="translate(248.868742, 583.017639)"><g><path d="M 1.703125 -20.421875 L 1.703125 0 L 8.953125 0 L 8.953125 -9.75 L 13.828125 -3.484375 L 18.65625 -9.640625 L 18.65625 0 L 25.90625 0 L 25.90625 -20.421875 L 19.328125 -20.421875 L 13.828125 -13.375 L 8.375 -20.421875 Z M 1.703125 -20.421875 "/></g></g></g><g fill="#ffffff" fill-opacity="1"><g transform="translate(276.484616, 583.017639)"><g><path d="M 8.875 -20.421875 L 0.234375 0 L 7.65625 0 L 8.875 -3.15625 L 16.4375 -3.15625 L 17.59375 0 L 25.046875 0 L 16.4375 -20.421875 Z M 12.671875 -13.703125 L 14.90625 -7.390625 L 10.375 -7.390625 Z M 12.671875 -13.703125 "/></g></g></g><g fill="#ffffff" fill-opacity="1"><g transform="translate(301.772144, 583.017639)"><g><path d="M 0.171875 -20.421875 L 8.25 -10.015625 L 0.171875 0 L 8.15625 0 L 12.203125 -4.984375 L 16.0625 0 L 25.109375 0 L 16.828125 -10.703125 L 24.578125 -20.421875 L 16.5625 -20.421875 L 12.84375 -15.828125 L 9.25 -20.421875 Z M 0.171875 -20.421875 "/></g></g></g><g fill="#ffffff" fill-opacity="1"><g transform="translate(327.059671, 583.017639)"><g><path d="M 12.171875 -20.6875 C 3.265625 -20.6875 0.796875 -13.96875 0.796875 -10.109375 C 0.796875 -4.390625 5.0625 0.234375 12.015625 0.234375 C 14.5625 0.234375 16.234375 -0.125 18.984375 -1.4375 L 18.984375 -7.015625 C 17.15625 -5.828125 15.40625 -5.28125 13.578125 -5.28125 C 10.375 -5.28125 8.046875 -7.375 8.046875 -10.28125 C 8.046875 -13.234375 10.171875 -15.234375 13.234375 -15.234375 C 15.140625 -15.234375 16.96875 -14.59375 18.796875 -13.234375 L 18.796875 -19.328125 C 16.5625 -20.296875 14.640625 -20.6875 12.171875 -20.6875 Z M 12.171875 -20.6875 "/></g></g></g><g fill="#ffffff" fill-opacity="1"><g transform="translate(346.747399, 583.017639)"><g><path d="M 8.875 -20.421875 L 0.234375 0 L 7.65625 0 L 8.875 -3.15625 L 16.4375 -3.15625 L 17.59375 0 L 25.046875 0 L 16.4375 -20.421875 Z M 12.671875 -13.703125 L 14.90625 -7.390625 L 10.375 -7.390625 Z M 12.671875 -13.703125 "/></g></g></g><g fill="#ffffff" fill-opacity="1"><g transform="translate(372.034926, 583.017639)"><g><path d="M 1.703125 -20.421875 L 1.703125 0 L 8.953125 0 L 8.953125 -8.609375 C 10.734375 -8.609375 11.4375 -8.078125 12.40625 -6.453125 C 12.875 -5.65625 13.4375 -4.53125 14.0625 -3.0625 L 15.359375 0 L 22.546875 0 L 19.828125 -5.78125 C 18.765625 -8.015625 17.796875 -9.453125 16.734375 -9.8125 C 18.765625 -10.609375 19.984375 -12.40625 19.984375 -14.40625 C 19.984375 -16.671875 19.0625 -18.390625 16.828125 -19.53125 C 15.703125 -20.125 14.0625 -20.421875 11.8125 -20.421875 Z M 8.953125 -17 L 9.8125 -17 C 12 -17 13 -16.296875 13 -14.5 C 13 -12.90625 12.078125 -11.96875 9.71875 -11.96875 L 8.953125 -11.96875 Z M 8.953125 -17 "/></g></g></g><g fill="#ffffff" fill-opacity="1"><g transform="translate(394.640451, 583.017639)"><g><path d="M 1.703125 -20.421875 L 1.703125 0 L 16.703125 0 L 16.703125 -4.59375 L 8.953125 -4.59375 L 8.953125 -8.046875 L 16.125 -8.046875 L 16.125 -12.640625 L 8.953125 -12.640625 L 8.953125 -15.828125 L 16.5625 -15.828125 L 16.5625 -20.421875 Z M 1.703125 -20.421875 "/></g></g></g><g fill="#ffffff" fill-opacity="1"><g transform="translate(412.088261, 583.017639)"><g/></g></g><g fill="#ffffff" fill-opacity="1"><g transform="translate(422.07949, 583.017639)"><g><path d="M 1.703125 -20.421875 L 1.703125 0 L 10.671875 0 C 12.9375 0 14.671875 -0.140625 15.796875 -0.46875 C 20.03125 -1.625 22.421875 -6.015625 22.421875 -10.015625 C 22.421875 -12.90625 21.421875 -15.375 19.421875 -17.421875 C 17.421875 -19.453125 14.5625 -20.421875 10.75 -20.421875 Z M 8.953125 -15.53125 L 9.90625 -15.53125 C 12.3125 -15.53125 13.609375 -14.875 14.5 -13.234375 C 14.9375 -12.40625 15.171875 -11.375 15.171875 -10.140625 C 15.171875 -7.484375 14.03125 -5.953125 12.796875 -5.390625 C 12.171875 -5.125 11.3125 -4.953125 10.34375 -4.953125 L 8.953125 -4.953125 Z M 8.953125 -15.53125 "/></g></g></g><g fill="#ffffff" fill-opacity="1"><g transform="translate(445.274478, 583.017639)"><g><path d="M 1.703125 -20.421875 L 1.703125 0 L 16.703125 0 L 16.703125 -4.59375 L 8.953125 -4.59375 L 8.953125 -8.046875 L 16.125 -8.046875 L 16.125 -12.640625 L 8.953125 -12.640625 L 8.953125 -15.828125 L 16.5625 -15.828125 L 16.5625 -20.421875 Z M 1.703125 -20.421875 "/></g></g></g><g fill="#ffffff" fill-opacity="1"><g transform="translate(462.722276, 583.017639)"><g><path d="M 1.703125 -20.421875 L 1.703125 0 L 8.953125 0 L 8.953125 -9.640625 L 17.859375 0 L 24.171875 0 L 24.171875 -20.421875 L 16.921875 -20.421875 L 16.921875 -10.734375 L 7.953125 -20.421875 Z M 1.703125 -20.421875 "/></g></g></g><g fill="#ffffff" fill-opacity="1"><g transform="translate(488.599266, 583.017639)"><g><path d="M 0.625 -20.421875 L 0.625 -15.234375 L 6.515625 -15.234375 L 6.515625 0 L 13.765625 0 L 13.765625 -15.234375 L 19.65625 -15.234375 L 19.65625 -20.421875 Z M 0.625 -20.421875 "/></g></g></g><g fill="#ffffff" fill-opacity="1"><g transform="translate(508.876433, 583.017639)"><g><path d="M 8.875 -20.421875 L 0.234375 0 L 7.65625 0 L 8.875 -3.15625 L 16.4375 -3.15625 L 17.59375 0 L 25.046875 0 L 16.4375 -20.421875 Z M 12.671875 -13.703125 L 14.90625 -7.390625 L 10.375 -7.390625 Z M 12.671875 -13.703125 "/></g></g></g><g fill="#ffffff" fill-opacity="1"><g transform="translate(534.163961, 583.017639)"><g><path d="M 1.703125 -20.421875 L 1.703125 0 L 16.53125 0 L 16.53125 -5.1875 L 8.953125 -5.1875 L 8.953125 -20.421875 Z M 1.703125 -20.421875 "/></g></g></g><g fill="#ffffff" fill-opacity="1"><g transform="translate(551.142164, 583.017639)"><g/></g></g></svg>