<svg xmlns="http://www.w3.org/2000/svg" xmlns:xlink="http://www.w3.org/1999/xlink" width="1080" zoomAndPan="magnify" viewBox="0 0 810 809.999993" height="1080" preserveAspectRatio="xMidYMid meet" version="1.0"><defs><g/><clipPath id="f165107209"><path d="M 237.402344 191.058594 L 561 191.058594 L 561 510.558594 L 237.402344 510.558594 Z M 237.402344 191.058594 " clip-rule="nonzero"/></clipPath></defs><g clip-path="url(#f165107209)"><path fill="#ffffff" d="M 558.007812 322.660156 C 551.765625 286.648438 532.117188 253.398438 504.285156 229.878906 C 489.136719 217.003906 471.617188 206.984375 452.835938 200.5 C 434.058594 193.964844 414.117188 191.058594 394.273438 191.542969 C 381.011719 192.171875 367.75 194.011719 354.972656 197.644531 C 320.511719 207.03125 289.34375 228.375 268.484375 257.417969 C 251.929688 280.019531 241.570312 307.074219 238.714844 334.953125 C 237.410156 347.730469 237.457031 360.703125 239.394531 373.429688 C 244.71875 411.667969 265.191406 447.191406 294.472656 472.167969 C 309.234375 484.703125 326.175781 494.625 344.421875 501.0625 C 361.941406 507.207031 380.429688 510.59375 399.015625 510.402344 C 419.003906 510.449219 438.996094 506.867188 457.726562 499.800781 C 483.039062 490.121094 505.835938 473.859375 523.160156 453 C 542.617188 429.816406 555.636719 401.117188 559.414062 371.011719 C 561.398438 354.992188 560.816406 338.582031 558.007812 322.660156 Z M 359.570312 366.800781 C 367.894531 378.65625 376.945312 389.984375 385.078125 401.988281 C 379.65625 397.96875 374.042969 394.195312 368.71875 389.984375 C 351.730469 399.710938 334.546875 409.101562 317.511719 418.683594 C 306.816406 424.589844 296.265625 430.6875 285.566406 436.445312 C 282.375 431.898438 279.128906 427.347656 276.179688 422.605469 C 274.628906 419.992188 272.789062 417.523438 271.628906 414.765625 C 277.484375 410.554688 283.097656 405.957031 288.859375 401.597656 C 294.132812 397.628906 299.265625 393.515625 304.492188 389.5 C 299.894531 396.664062 294.957031 403.582031 290.3125 410.746094 C 297.183594 407.601562 304.054688 404.601562 310.929688 401.453125 C 312.140625 400.96875 312.382812 399.566406 312.960938 398.550781 C 316.929688 390.320312 320.996094 382.09375 325.0625 373.914062 C 329.804688 370.042969 334.839844 366.605469 339.679688 362.878906 C 348.195312 356.585938 356.570312 350.152344 365.089844 343.859375 C 366.054688 343.179688 366.925781 342.210938 368.039062 341.777344 C 379.851562 354.023438 391.320312 366.65625 402.984375 379.09375 C 410.488281 387.175781 418.132812 395.066406 425.296875 403.390625 C 403.324219 391.386719 381.59375 378.851562 359.570312 366.800781 Z M 268.820312 380.0625 C 276.953125 372.027344 285.710938 364.621094 294.183594 356.976562 C 298.199219 359.492188 302.121094 362.105469 306.039062 364.765625 C 307.152344 365.445312 308.265625 366.121094 309.1875 367.042969 C 304.152344 366.460938 299.023438 366.460938 293.988281 366.171875 C 292.777344 365.929688 291.859375 366.800781 290.84375 367.332031 C 283.488281 371.640625 276.128906 375.800781 268.820312 380.0625 Z M 541.167969 370.1875 C 533.664062 364.914062 526.210938 359.589844 518.804688 354.214844 C 516.964844 352.957031 515.273438 351.503906 513.238281 350.632812 C 512.273438 350.199219 511.207031 350.632812 510.382812 351.167969 C 507.867188 352.859375 505.691406 354.894531 503.316406 356.734375 C 491.507812 343.324219 479.890625 329.773438 468.179688 316.320312 C 449.882812 295.410156 431.78125 274.308594 413.441406 253.496094 C 399.789062 267.191406 386.433594 281.132812 372.832031 294.878906 C 362.378906 305.574219 351.875 316.125 341.566406 327.015625 C 342.921875 326.335938 344.082031 325.371094 345.339844 324.449219 C 353.519531 318.449219 361.84375 312.640625 370.121094 306.6875 C 384.546875 296.378906 398.824219 285.925781 413.050781 275.421875 C 422.101562 285.777344 431.6875 295.652344 440.398438 306.300781 C 429.410156 299.476562 418.617188 292.265625 407.488281 285.632812 C 416.488281 302.332031 425.539062 319.03125 434.542969 335.777344 C 426.410156 329.339844 418.425781 322.660156 410.292969 316.171875 C 404.484375 311.671875 398.871094 306.832031 392.964844 302.429688 C 411.164062 326.433594 428.6875 350.925781 446.59375 375.171875 C 454.578125 367.527344 462.324219 359.636719 470.210938 351.894531 C 486.039062 363.363281 501.867188 374.835938 517.691406 386.351562 C 523.160156 390.226562 528.535156 394.289062 534.101562 398.066406 C 532.746094 402.132812 530.808594 405.957031 529.210938 409.972656 C 514.933594 402.710938 500.65625 395.402344 486.328125 388.144531 C 478.585938 384.078125 470.746094 380.351562 463.097656 376.140625 C 471.082031 387.226562 479.796875 397.824219 487.636719 409.003906 C 477.859375 402.566406 468.324219 395.644531 458.597656 389.113281 C 455.355469 391.242188 452.160156 393.46875 448.964844 395.644531 C 444.125 392.839844 439.285156 390.082031 434.445312 387.273438 C 435.65625 385.917969 437.058594 384.707031 438.316406 383.402344 C 430.71875 377.542969 422.78125 372.171875 414.988281 366.558594 C 399.9375 355.765625 384.980469 344.875 369.878906 334.082031 C 365.621094 337.613281 361.457031 341.246094 357.394531 344.875 C 354.925781 344.148438 352.648438 342.695312 350.085938 342.261719 C 348.972656 342.019531 348.050781 342.84375 347.230469 343.472656 C 344.082031 346.035156 341.035156 348.699219 337.886719 351.214844 C 334.402344 349.519531 331.546875 346.859375 328.109375 345.117188 C 326.753906 344.535156 325.253906 345.117188 324.191406 345.988281 C 319.496094 349.859375 314.996094 353.925781 310.347656 357.847656 C 305.074219 354.121094 299.894531 350.246094 294.570312 346.570312 C 289.050781 351.117188 283.339844 355.472656 277.773438 359.976562 C 271.242188 365.300781 264.511719 370.332031 258.171875 375.851562 C 256.1875 363.363281 255.414062 350.632812 256.769531 338.003906 C 259.433594 310.511719 269.984375 283.699219 287.601562 262.351562 C 303.136719 243.234375 323.65625 228.132812 346.648438 219.277344 C 365.28125 212.164062 385.367188 208.824219 405.355469 209.695312 C 427.183594 210.664062 448.820312 216.566406 468.082031 226.925781 C 484.394531 235.78125 499.011719 247.785156 510.675781 262.257812 C 521.808594 275.953125 530.375 291.683594 535.648438 308.527344 C 541.894531 328.371094 543.828125 349.570312 541.167969 370.1875 Z M 541.167969 370.1875 " fill-opacity="1" fill-rule="nonzero"/></g><g fill="#ffffff" fill-opacity="1"><g transform="translate(181.093749, 564.887104)"><g><path d="M 0.390625 -20.421875 L 0.390625 -15.234375 L 9.9375 -15.234375 L 0.671875 0 L 21.125 0 L 21.125 -5.1875 L 12.28125 -5.1875 L 21.453125 -20.21875 L 21.453125 -20.421875 Z M 0.390625 -20.421875 "/></g></g></g><g fill="#ffffff" fill-opacity="1"><g transform="translate(202.932977, 564.887104)"><g><path d="M 1.703125 -20.421875 L 1.703125 0 L 16.703125 0 L 16.703125 -4.59375 L 8.953125 -4.59375 L 8.953125 -8.046875 L 16.125 -8.046875 L 16.125 -12.640625 L 8.953125 -12.640625 L 8.953125 -15.828125 L 16.5625 -15.828125 L 16.5625 -20.421875 Z M 1.703125 -20.421875 "/></g></g></g><g fill="#ffffff" fill-opacity="1"><g transform="translate(220.380788, 564.887104)"><g><path d="M 1.703125 -20.421875 L 1.703125 0 L 8.953125 0 L 8.953125 -9.640625 L 17.859375 0 L 24.171875 0 L 24.171875 -20.421875 L 16.921875 -20.421875 L 16.921875 -10.734375 L 7.953125 -20.421875 Z M 1.703125 -20.421875 "/></g></g></g><g fill="#ffffff" fill-opacity="1"><g transform="translate(246.257778, 564.887104)"><g><path d="M 2.03125 -20.421875 L 2.03125 0 L 9.28125 0 L 9.28125 -20.421875 Z M 2.03125 -20.421875 "/></g></g></g><g fill="#ffffff" fill-opacity="1"><g transform="translate(257.545806, 564.887104)"><g><path d="M 0.625 -20.421875 L 0.625 -15.234375 L 6.515625 -15.234375 L 6.515625 0 L 13.765625 0 L 13.765625 -15.234375 L 19.65625 -15.234375 L 19.65625 -20.421875 Z M 0.625 -20.421875 "/></g></g></g><g fill="#ffffff" fill-opacity="1"><g transform="translate(277.822985, 564.887104)"><g><path d="M 1.703125 -20.421875 L 1.703125 0 L 8.953125 0 L 8.953125 -7.6875 L 16.328125 -7.6875 L 16.328125 0 L 23.578125 0 L 23.578125 -20.421875 L 16.328125 -20.421875 L 16.328125 -13.078125 L 8.953125 -13.078125 L 8.953125 -20.421875 Z M 1.703125 -20.421875 "/></g></g></g><g fill="#ffffff" fill-opacity="1"><g transform="translate(303.110512, 564.887104)"><g/></g></g><g fill="#ffffff" fill-opacity="1"><g transform="translate(313.101742, 564.887104)"><g><path d="M 1.703125 -20.421875 L 1.703125 0 L 10.671875 0 C 12.9375 0 14.671875 -0.140625 15.796875 -0.46875 C 20.03125 -1.625 22.421875 -6.015625 22.421875 -10.015625 C 22.421875 -12.90625 21.421875 -15.375 19.421875 -17.421875 C 17.421875 -19.453125 14.5625 -20.421875 10.75 -20.421875 Z M 8.953125 -15.53125 L 9.90625 -15.53125 C 12.3125 -15.53125 13.609375 -14.875 14.5 -13.234375 C 14.9375 -12.40625 15.171875 -11.375 15.171875 -10.140625 C 15.171875 -7.484375 14.03125 -5.953125 12.796875 -5.390625 C 12.171875 -5.125 11.3125 -4.953125 10.34375 -4.953125 L 8.953125 -4.953125 Z M 8.953125 -15.53125 "/></g></g></g><g fill="#ffffff" fill-opacity="1"><g transform="translate(336.296717, 564.887104)"><g><path d="M 1.703125 -20.421875 L 1.703125 0 L 16.703125 0 L 16.703125 -4.59375 L 8.953125 -4.59375 L 8.953125 -8.046875 L 16.125 -8.046875 L 16.125 -12.640625 L 8.953125 -12.640625 L 8.953125 -15.828125 L 16.5625 -15.828125 L 16.5625 -20.421875 Z M 1.703125 -20.421875 "/></g></g></g><g fill="#ffffff" fill-opacity="1"><g transform="translate(353.744528, 564.887104)"><g><path d="M 1.703125 -20.421875 L 1.703125 0 L 8.953125 0 L 8.953125 -9.640625 L 17.859375 0 L 24.171875 0 L 24.171875 -20.421875 L 16.921875 -20.421875 L 16.921875 -10.734375 L 7.953125 -20.421875 Z M 1.703125 -20.421875 "/></g></g></g><g fill="#ffffff" fill-opacity="1"><g transform="translate(379.621518, 564.887104)"><g><path d="M 0.625 -20.421875 L 0.625 -15.234375 L 6.515625 -15.234375 L 6.515625 0 L 13.765625 0 L 13.765625 -15.234375 L 19.65625 -15.234375 L 19.65625 -20.421875 Z M 0.625 -20.421875 "/></g></g></g><g fill="#ffffff" fill-opacity="1"><g transform="translate(399.898685, 564.887104)"><g><path d="M 8.875 -20.421875 L 0.234375 0 L 7.65625 0 L 8.875 -3.15625 L 16.4375 -3.15625 L 17.59375 0 L 25.046875 0 L 16.4375 -20.421875 Z M 12.671875 -13.703125 L 14.90625 -7.390625 L 10.375 -7.390625 Z M 12.671875 -13.703125 "/></g></g></g><g fill="#ffffff" fill-opacity="1"><g transform="translate(425.186212, 564.887104)"><g><path d="M 1.703125 -20.421875 L 1.703125 0 L 16.53125 0 L 16.53125 -5.1875 L 8.953125 -5.1875 L 8.953125 -20.421875 Z M 1.703125 -20.421875 "/></g></g></g><g fill="#ffffff" fill-opacity="1"><g transform="translate(442.162445, 564.887104)"><g/></g></g><g fill="#ffffff" fill-opacity="1"><g transform="translate(452.153686, 564.887104)"><g><path d="M 7.890625 -20.6875 C 3.796875 -20.6875 0.890625 -18.15625 0.890625 -14.34375 C 0.890625 -12.375 1.65625 -10.609375 4.515625 -8.921875 C 7.015625 -7.453125 7.65625 -7.015625 7.65625 -6.21875 C 7.65625 -5.484375 6.953125 -4.953125 5.515625 -4.953125 C 3.765625 -4.953125 2.234375 -5.65625 0.796875 -6.625 L 0.796875 -1.15625 C 2.625 -0.125 4.65625 0.234375 7.015625 0.234375 C 10.46875 0.234375 12.90625 -0.9375 14.03125 -2.953125 C 14.59375 -3.921875 14.859375 -4.921875 14.859375 -5.859375 C 14.859375 -7.890625 13.828125 -9.71875 10.484375 -11.546875 C 8.1875 -12.8125 7.546875 -13.40625 7.546875 -14.203125 C 7.546875 -14.875 8.1875 -15.5 9.21875 -15.5 C 10.546875 -15.5 12.203125 -14.59375 13.96875 -12.90625 L 13.96875 -18.359375 C 12.46875 -19.78125 10.109375 -20.6875 7.890625 -20.6875 Z M 7.890625 -20.6875 "/></g></g></g><g fill="#ffffff" fill-opacity="1"><g transform="translate(467.774185, 564.887104)"><g><path d="M 11.546875 -20.6875 C 4.21875 -20.6875 0.796875 -15.234375 0.796875 -10.21875 C 0.796875 -4.390625 5.0625 0.234375 11.546875 0.234375 C 18.828125 0.234375 22.3125 -5.15625 22.3125 -10.21875 C 22.3125 -15.96875 18.09375 -20.6875 11.546875 -20.6875 Z M 8.046875 -10.21875 C 8.046875 -12.875 9.375 -14.609375 11.515625 -14.609375 C 13.828125 -14.609375 15.0625 -12.765625 15.0625 -10.21875 C 15.0625 -7.6875 13.765625 -5.828125 11.546875 -5.828125 C 9.34375 -5.828125 8.046875 -7.6875 8.046875 -10.21875 Z M 8.046875 -10.21875 "/></g></g></g><g fill="#ffffff" fill-opacity="1"><g transform="translate(490.880743, 564.887104)"><g><path d="M 1.703125 -20.421875 L 1.703125 0 L 16.53125 0 L 16.53125 -5.1875 L 8.953125 -5.1875 L 8.953125 -20.421875 Z M 1.703125 -20.421875 "/></g></g></g><g fill="#ffffff" fill-opacity="1"><g transform="translate(507.856976, 564.887104)"><g><path d="M 1.5 -20.421875 L 1.5 -9.90625 C 1.5 -2.859375 6.015625 0.234375 12.375 0.234375 C 19.328125 0.234375 23.375 -3.125 23.375 -9.953125 L 23.375 -20.421875 L 16.125 -20.421875 L 16.125 -11.046875 C 16.125 -7.71875 15.625 -5.25 12.4375 -5.25 C 8.84375 -5.25 8.75 -8.34375 8.75 -10.78125 L 8.75 -20.421875 Z M 1.5 -20.421875 "/></g></g></g><g fill="#ffffff" fill-opacity="1"><g transform="translate(532.731899, 564.887104)"><g><path d="M 0.625 -20.421875 L 0.625 -15.234375 L 6.515625 -15.234375 L 6.515625 0 L 13.765625 0 L 13.765625 -15.234375 L 19.65625 -15.234375 L 19.65625 -20.421875 Z M 0.625 -20.421875 "/></g></g></g><g fill="#ffffff" fill-opacity="1"><g transform="translate(553.009089, 564.887104)"><g><path d="M 2.03125 -20.421875 L 2.03125 0 L 9.28125 0 L 9.28125 -20.421875 Z M 2.03125 -20.421875 "/></g></g></g><g fill="#ffffff" fill-opacity="1"><g transform="translate(564.297129, 564.887104)"><g><path d="M 11.546875 -20.6875 C 4.21875 -20.6875 0.796875 -15.234375 0.796875 -10.21875 C 0.796875 -4.390625 5.0625 0.234375 11.546875 0.234375 C 18.828125 0.234375 22.3125 -5.15625 22.3125 -10.21875 C 22.3125 -15.96875 18.09375 -20.6875 11.546875 -20.6875 Z M 8.046875 -10.21875 C 8.046875 -12.875 9.375 -14.609375 11.515625 -14.609375 C 13.828125 -14.609375 15.0625 -12.765625 15.0625 -10.21875 C 15.0625 -7.6875 13.765625 -5.828125 11.546875 -5.828125 C 9.34375 -5.828125 8.046875 -7.6875 8.046875 -10.21875 Z M 8.046875 -10.21875 "/></g></g></g><g fill="#ffffff" fill-opacity="1"><g transform="translate(587.403664, 564.887104)"><g><path d="M 1.703125 -20.421875 L 1.703125 0 L 8.953125 0 L 8.953125 -9.640625 L 17.859375 0 L 24.171875 0 L 24.171875 -20.421875 L 16.921875 -20.421875 L 16.921875 -10.734375 L 7.953125 -20.421875 Z M 1.703125 -20.421875 "/></g></g></g><g fill="#ffffff" fill-opacity="1"><g transform="translate(613.280678, 564.887104)"><g><path d="M 7.890625 -20.6875 C 3.796875 -20.6875 0.890625 -18.15625 0.890625 -14.34375 C 0.890625 -12.375 1.65625 -10.609375 4.515625 -8.921875 C 7.015625 -7.453125 7.65625 -7.015625 7.65625 -6.21875 C 7.65625 -5.484375 6.953125 -4.953125 5.515625 -4.953125 C 3.765625 -4.953125 2.234375 -5.65625 0.796875 -6.625 L 0.796875 -1.15625 C 2.625 -0.125 4.65625 0.234375 7.015625 0.234375 C 10.46875 0.234375 12.90625 -0.9375 14.03125 -2.953125 C 14.59375 -3.921875 14.859375 -4.921875 14.859375 -5.859375 C 14.859375 -7.890625 13.828125 -9.71875 10.484375 -11.546875 C 8.1875 -12.8125 7.546875 -13.40625 7.546875 -14.203125 C 7.546875 -14.875 8.1875 -15.5 9.21875 -15.5 C 10.546875 -15.5 12.203125 -14.59375 13.96875 -12.90625 L 13.96875 -18.359375 C 12.46875 -19.78125 10.109375 -20.6875 7.890625 -20.6875 Z M 7.890625 -20.6875 "/></g></g></g></svg>